<svg width="10" height="21" viewBox="0 0 10 21" fill="none" xmlns="http://www.w3.org/2000/svg">
<path fill-rule="evenodd" clip-rule="evenodd" d="M2.20531 15.3977C2.20531 13.8326 2.19964 12.2683 2.21193 10.7032C2.21193 10.438 2.13437 10.3576 1.85152 10.3682C1.3303 10.3877 0.806242 10.3682 0.284075 10.377C0.0721809 10.3823 -0.00538749 10.3276 0.000288244 10.1181C0.0103784 9.14124 0.0103784 8.16468 0.000288244 7.18841C0.000288244 7.00105 0.0589393 6.93919 0.26232 6.94361C0.796785 6.9551 1.3322 6.92947 1.87044 6.95421C2.17977 6.96835 2.24315 6.86583 2.23748 6.6007C2.21856 5.85834 2.21856 5.11509 2.23748 4.37096C2.25923 3.46333 2.52126 2.61579 3.09829 1.87785C3.83046 0.943703 4.87196 0.515959 6.07238 0.463817C7.30212 0.412558 8.54227 0.44084 9.77769 0.428467C9.94985 0.428467 10.0009 0.484144 9.99999 0.640571C9.99431 1.62745 9.99431 2.61491 9.99999 3.60296C9.99999 3.77972 9.94039 3.83274 9.75593 3.83009C9.16187 3.82125 8.56781 3.82567 7.97375 3.83009C7.18388 3.83009 6.70995 4.21276 6.66077 4.94364C6.62104 5.52958 6.65036 6.11905 6.63522 6.71117C6.63049 6.92063 6.76387 6.90561 6.91144 6.90561C7.81388 6.90561 8.71727 6.91444 9.61971 6.89942C9.88458 6.895 9.97256 6.95244 9.94134 7.21315C9.82782 8.19414 9.73039 9.17689 9.64053 10.1605C9.61971 10.3823 9.51188 10.4257 9.29809 10.4212C8.58578 10.4115 7.87348 10.4142 7.16117 10.4212C6.64941 10.4212 6.6986 10.3514 6.6986 10.8393C6.6986 13.9015 6.69198 16.9647 6.70617 20.0304C6.70617 20.3539 6.61914 20.4343 6.27671 20.4281C5.05359 20.4078 3.82952 20.406 2.6064 20.4281C2.26207 20.4343 2.20531 20.3256 2.20815 20.0384C2.21194 18.4821 2.20531 16.9399 2.20531 15.3977Z" fill="#243659"/>
</svg>
