<svg width="23" height="21" viewBox="0 0 23 21" fill="none" xmlns="http://www.w3.org/2000/svg">
<g clip-path="url(#clip0_1422_4540)">
<path d="M2.64721 0.428467C4.13668 0.428467 5.12856 1.39856 5.12856 2.68554C5.12856 3.97252 4.13337 4.94908 2.48245 4.94908C0.99298 4.94908 0 3.97899 0 2.68554C0 1.39209 0.995193 0.428467 2.64721 0.428467ZM5.30769 20.4285H0V6.63164H5.30769V20.4285ZM23 20.4285H18.0041V12.8887C18.0041 10.803 16.6717 10.3223 16.173 10.3223C15.6743 10.3223 14.0068 10.6457 14.0068 12.8887V20.4285H8.84615V6.63164H14.009V8.55673C14.6725 7.43358 16.006 6.63164 18.5039 6.63164C21.0019 6.63164 23 8.55673 23 12.8887V20.4285Z" fill="#243659"/>
</g>
<defs>
<clipPath id="clip0_1422_4540">
<rect width="23" height="20" fill="white" transform="translate(0 0.428467)"/>
</clipPath>
</defs>
</svg>
