<svg width="24" height="28" viewBox="0 0 24 28" fill="none" xmlns="http://www.w3.org/2000/svg">
<path d="M18.8571 12.0001C21.6964 12.0001 24 9.6965 24 6.85721C24 4.01793 21.6964 1.71436 18.8571 1.71436C16.0179 1.71436 13.7143 4.01793 13.7143 6.85721C13.7143 7.0715 13.725 7.28578 13.7518 7.49471L8.71071 10.0126C7.78929 9.11793 6.53036 8.5715 5.14286 8.5715C2.30357 8.5715 0 10.8751 0 13.7144C0 16.5536 2.30357 18.8572 5.14286 18.8572C6.53036 18.8572 7.78929 18.3108 8.71071 17.4161L13.7518 19.934C13.725 20.1429 13.7143 20.3519 13.7143 20.5715C13.7143 23.4108 16.0179 25.7144 18.8571 25.7144C21.6964 25.7144 24 23.4108 24 20.5715C24 17.7322 21.6964 15.4286 18.8571 15.4286C17.4696 15.4286 16.2107 15.9751 15.2893 16.8697L10.2482 14.3519C10.275 14.1429 10.2857 13.934 10.2857 13.7144C10.2857 13.4947 10.275 13.2858 10.2482 13.0769L15.2893 10.559C16.2107 11.4536 17.4696 12.0001 18.8571 12.0001Z" fill="#233559"/>
</svg>
