<svg width="23" height="19" viewBox="0 0 23 19" fill="none" xmlns="http://www.w3.org/2000/svg">
<path d="M23 2.55035C22.1387 2.91846 21.225 3.1598 20.2893 3.26629C21.2734 2.69771 22.0092 1.8035 22.3594 0.750533C21.4339 1.28234 20.4206 1.6572 19.3635 1.8588C18.6516 1.13081 17.7107 0.649032 16.6862 0.487915C15.6617 0.326799 14.6107 0.495313 13.6955 0.967416C12.7804 1.43952 12.0521 2.18893 11.6231 3.09984C11.1941 4.01075 11.0884 5.03244 11.3223 6.00703C9.44586 5.91623 7.61018 5.44623 5.93441 4.62753C4.25864 3.80883 2.78023 2.65973 1.59513 1.25479C0.996011 2.25573 0.814047 3.43869 1.08609 4.56407C1.35813 5.68945 2.06385 6.67313 3.0603 7.31589C2.30981 7.29464 1.57551 7.10045 0.918895 6.74957C0.918895 6.76841 0.918895 6.78836 0.918895 6.8072C0.919722 7.85843 1.29822 8.87697 1.99006 9.68974C2.68191 10.5025 3.64443 11.0594 4.71408 11.2657C4.01914 11.4475 3.29037 11.4744 2.58303 11.3444C2.88436 12.248 3.47131 13.0381 4.26174 13.6043C5.05217 14.1705 6.00651 14.4843 6.9912 14.5019C5.31857 15.7674 3.25247 16.4533 1.1259 16.4491C0.749617 16.449 0.373666 16.4275 0 16.3848C2.15752 17.7215 4.66892 18.431 7.23386 18.4285C15.9133 18.4285 20.6596 11.4996 20.6596 5.48947C20.6596 5.2922 20.6596 5.09604 20.647 4.90098C21.57 4.25834 22.3668 3.46236 23 2.55035Z" fill="#243659"/>
</svg>
