<?xml version="1.0" standalone="no"?>
<!DOCTYPE svg PUBLIC "-//W3C//DTD SVG 1.1//EN" "http://www.w3.org/Graphics/SVG/1.1/DTD/svg11.dtd" >
<svg xmlns="http://www.w3.org/2000/svg" xmlns:xlink="http://www.w3.org/1999/xlink" version="1.1">
<metadata>
Created by FontForge 20170731 at Tue Feb  7 16:13:57 2023
 By Aleksey,,,
Copyright (c) 2015 by Luzi Type. All rights reserved. |DCNT
</metadata>
<defs>
<font id="MessinaSans-Bold" horiz-adv-x="1228" >
  <font-face 
    font-family="Messina Sans"
    font-weight="700"
    font-stretch="normal"
    units-per-em="2048"
    panose-1="0 0 8 0 0 0 0 0 0 0"
    ascent="1550"
    descent="-498"
    x-height="1055"
    cap-height="1434"
    bbox="-104 -612 2560 2253"
    underline-thickness="102"
    underline-position="-307"
    unicode-range="U+000D-25CA"
  />
<missing-glyph horiz-adv-x="956" 
 />
    <glyph glyph-name=".notdef" horiz-adv-x="956" 
 />
    <glyph glyph-name=".null" horiz-adv-x="0" 
 />
    <glyph glyph-name="nonmarkingreturn" horiz-adv-x="682" 
 />
    <glyph glyph-name="CR" unicode="&#xd;" horiz-adv-x="956" 
 />
    <glyph glyph-name="space" unicode=" " horiz-adv-x="542" 
 />
    <glyph glyph-name="exclam" unicode="!" horiz-adv-x="655" 
d="M465 1434v-512l-47 -498h-178l-47 498v512h272zM184 0v295h287v-295h-287z" />
    <glyph glyph-name="quotedbl" unicode="&#x22;" horiz-adv-x="819" 
d="M119 948l-49 557h249l-47 -557h-153zM463 948l-49 557h250l-48 -557h-153z" />
    <glyph glyph-name="numbersign" unicode="#" horiz-adv-x="1208" 
d="M1147 877h-279l-45 -289h287v-119h-305l-72 -469h-139l72 469h-232l-72 -469h-139l72 469h-254v119h272l45 289h-280v120h299l63 416h140l-64 -416h232l63 416h139l-63 -416h260v-120zM684 588l45 289h-231l-45 -289h231z" />
    <glyph glyph-name="dollar" unicode="$" horiz-adv-x="1261" 
d="M707 -20v-240h-134v242q-216 21 -352 145t-139 354h260q1 -120 63 -192.5t168 -93.5v419q-130 35 -221 78q-99 46 -159 134.5t-60 217.5q0 186 119 292t321 120v184h134v-186q192 -15 321 -119q126 -102 129 -299h-258q-8 162 -192 201v-424q146 -35 237 -74
q104 -42 170 -129t66 -219q0 -187 -133 -293q-133 -103 -340 -118zM573 852v389q-91 -12 -141.5 -63.5t-50.5 -126.5q0 -73 47 -119t145 -80zM926 375q0 78 -53 122.5t-166 77.5v-389q100 8 159.5 59t59.5 130z" />
    <glyph glyph-name="percent" unicode="%" horiz-adv-x="1816" 
d="M440 1481q162 0 265.5 -101t103.5 -262t-103.5 -262.5t-265.5 -101.5q-154 0 -256 102t-102 262t102 261.5t256 101.5zM1444 1434l-895 -1434h-209l895 1434h209zM444 1311q-82 0 -131 -52.5t-49 -138.5q0 -88 49 -141t131 -53q80 0 131.5 54t51.5 140q0 85 -51.5 138
t-131.5 53zM1366 690q162 0 265.5 -100.5t103.5 -261.5t-103.5 -263t-265.5 -102q-154 0 -256 102.5t-102 262.5t102 261t256 101zM1370 520q-82 0 -131 -52t-49 -138q0 -88 49 -141.5t131 -53.5q80 0 131 54.5t51 140.5q0 85 -51 137.5t-131 52.5z" />
    <glyph glyph-name="ampersand" unicode="&#x26;" horiz-adv-x="1585" 
d="M1219 297l305 -297h-324l-137 129q-85 -74 -195 -113t-227 -39q-136 0 -251.5 51t-186 148t-70.5 219q0 123 73 215t214 146l-25 24q-70 70 -107.5 139.5t-37.5 161.5q0 152 117 252.5t295 100.5q180 0 289.5 -99t109.5 -245q0 -121 -78 -222.5t-209 -148.5l277 -266
q23 37 31 86t8 139v59h215v-78q0 -202 -86 -362zM485 1077q0 -47 22.5 -86t65.5 -82l64 -63q89 30 140.5 92t51.5 131q0 67 -50.5 115.5t-127.5 48.5q-73 0 -119.5 -44t-46.5 -112zM913 281l-356 342q-178 -73 -178 -215q0 -97 82 -155t203 -58q75 0 142 22.5t107 63.5z" />
    <glyph glyph-name="quotesingle" unicode="'" horiz-adv-x="454" 
d="M152 948l-50 557h250l-47 -557h-153z" />
    <glyph glyph-name="parenleft" unicode="(" horiz-adv-x="796" 
d="M735 -233l-106 -123q-238 149 -383 417q-144 267 -144 590t144 590q147 272 383 420l106 -125q-189 -162 -296 -391.5t-107 -493.5q0 -263 107 -492.5t296 -391.5z" />
    <glyph glyph-name="parenright" unicode=")" horiz-adv-x="796" 
d="M61 1536l107 125q236 -148 383 -420q143 -265 143 -590t-143 -590q-145 -268 -383 -417l-107 123q189 162 296.5 391.5t107.5 492.5q0 264 -107.5 493.5t-296.5 391.5z" />
    <glyph glyph-name="asterisk" unicode="*" horiz-adv-x="774" 
d="M121 1382l182 -59l-4 193h182l-10 -193l188 55l54 -157l-189 -66l121 -151l-147 -107l-107 164l-110 -164l-150 107l119 151l-189 57z" />
    <glyph glyph-name="plus" unicode="+" 
d="M1047 741v-204h-326v-347h-213v347h-326v204h326v351h213v-351h326z" />
    <glyph glyph-name="comma" unicode="," horiz-adv-x="505" 
d="M283 16h-131v269h292v-232q0 -189 -104 -280q-102 -92 -254 -113l-25 139q103 11 162.5 68.5t59.5 148.5z" />
    <glyph glyph-name="hyphen" unicode="-" horiz-adv-x="751" 
d="M670 758v-226h-588v226h588z" />
    <glyph glyph-name="period" unicode="." horiz-adv-x="450" 
d="M82 0v295h287v-295h-287z" />
    <glyph glyph-name="slash" unicode="/" horiz-adv-x="899" 
d="M838 1585l-584 -1761h-234l584 1761h234z" />
    <glyph glyph-name="zero" unicode="0" horiz-adv-x="1187" 
d="M1096 707q0 -351 -126 -540.5t-376 -189.5t-376 189.5t-126 540.5t126 539t376 188t376 -188t126 -539zM834 707q0 489 -240 489t-240 -489q0 -492 240 -492t240 492z" />
    <glyph glyph-name="one" unicode="1" horiz-adv-x="905" 
d="M670 1409v-1409h-254v1081q-148 -94 -344 -108v241q228 35 381 195h217z" />
    <glyph glyph-name="two" unicode="2" horiz-adv-x="1232" 
d="M1141 238v-238h-1024v238l338 297l100 88q162 144 168 151q113 104 113 219q0 93 -61.5 148t-164.5 55q-114 0 -186 -69.5t-78 -190.5h-254q0 116 44 211.5t119 157.5t173 95.5t207 33.5q204 0 334.5 -109.5t130.5 -296.5q0 -114 -49 -205q-44 -87 -125 -168
q-67 -64 -217 -192l-58 -49l-209 -176h699z" />
    <glyph glyph-name="three" unicode="3" horiz-adv-x="1230" 
d="M1139 391q0 -128 -70.5 -223.5t-183.5 -143t-250 -47.5q-108 0 -206 32.5t-173 92t-119.5 151.5t-44.5 204h264q0 -115 73.5 -178.5t199.5 -63.5q113 0 180.5 47t67.5 137q0 92 -76 139.5t-219 47.5h-107v229h98q124 0 197.5 56t73.5 149q0 84 -60.5 130t-160.5 46
q-120 0 -186 -61t-66 -185h-262q0 118 40.5 211t112 152t165.5 90t204 31q132 0 239 -43.5t172.5 -131.5t65.5 -206q0 -123 -64.5 -209.5t-166.5 -118.5q129 -50 195.5 -129.5t66.5 -204.5z" />
    <glyph glyph-name="four" unicode="4" horiz-adv-x="1204" 
d="M1143 270h-185v-270h-253v274h-644v205l619 930h278v-901h185v-238zM334 508h371v555z" />
    <glyph glyph-name="five" unicode="5" horiz-adv-x="1222" 
d="M1130 477q0 -98 -34.5 -187.5t-97.5 -159.5t-160.5 -111.5t-214.5 -41.5q-207 0 -354 126t-156 343h262q7 -108 72.5 -169.5t164.5 -61.5q117 0 184.5 74.5t67.5 183.5q0 104 -61.5 174t-169.5 70q-129 0 -211 -82h-262l127 774h772v-238h-576l-51 -309q95 86 252 86
q104 0 190 -39t141 -104.5t85 -150t30 -177.5z" />
    <glyph glyph-name="six" unicode="6" horiz-adv-x="1232" 
d="M1141 475q0 -219 -142.5 -358.5t-355.5 -139.5q-90 0 -170.5 26t-151 83t-121 140.5t-79.5 206t-29 272.5q0 161 32.5 288.5t86 208.5t128 134.5t153.5 75.5t167 22q194 0 313 -110t138 -298h-266q-6 81 -60 125.5t-143 44.5q-136 0 -214.5 -107t-84.5 -307
q53 80 143.5 124t196.5 44q87 0 168.5 -32.5t146.5 -91.5t104.5 -150.5t39.5 -200.5zM874 469q0 115 -66 181.5t-169 66.5t-170.5 -67.5t-67.5 -182.5t69 -183.5t171 -68.5t167.5 69t65.5 185z" />
    <glyph glyph-name="seven" unicode="7" horiz-adv-x="1136" 
d="M1075 1409v-250l-563 -1159h-262l559 1155h-778v254h1044z" />
    <glyph glyph-name="eight" unicode="8" horiz-adv-x="1200" 
d="M1108 393q0 -189 -142 -302.5t-366 -113.5t-366 113.5t-142 302.5q0 131 71 221.5t181 116.5q-93 31 -155 116.5t-62 203.5q0 117 64.5 205t171 133t237.5 45t237.5 -45t171 -133t64.5 -205q0 -118 -62 -203.5t-155 -116.5q110 -26 181 -116.5t71 -221.5zM389 1024
q0 -83 57.5 -135.5t153.5 -52.5t153.5 52.5t57.5 135.5q0 77 -53.5 124.5t-157.5 47.5t-157.5 -47.5t-53.5 -124.5zM842 410q0 95 -64 154t-178 59t-178 -59t-64 -154q0 -92 63 -143.5t179 -51.5q115 0 178.5 52t63.5 143z" />
    <glyph glyph-name="nine" unicode="9" horiz-adv-x="1232" 
d="M92 936q0 219 143.5 358.5t356.5 139.5q113 0 209.5 -42.5t173.5 -128t121.5 -231t44.5 -336.5q0 -158 -30.5 -283t-82 -205.5t-123 -133.5t-149 -75t-164.5 -22q-197 0 -323.5 111t-145.5 297h266q6 -78 67.5 -124t155.5 -46q267 0 279 414q-53 -80 -143.5 -124
t-196.5 -44q-87 0 -168.5 32.5t-146.5 91.5t-104.5 150.5t-39.5 200.5zM358 942q0 -115 66.5 -181.5t169.5 -66.5t170 67.5t67 182.5t-68.5 183.5t-170.5 68.5t-168 -69t-66 -185z" />
    <glyph glyph-name="colon" unicode=":" horiz-adv-x="512" 
d="M102 0v295h287v-295h-287zM102 762v295h287v-295h-287z" />
    <glyph glyph-name="semicolon" unicode=";" horiz-adv-x="589" 
d="M180 762v295h287v-295h-287zM303 16h-131v269h293v-232q0 -189 -105 -280q-102 -92 -254 -113l-24 139q103 11 162 68.5t59 148.5z" />
    <glyph glyph-name="less" unicode="&#x3c;" 
d="M1044 954l-634 -286l634 -287l-96 -186l-762 366v213l762 367z" />
    <glyph glyph-name="equal" unicode="=" 
d="M1047 905v-192h-865v192h865zM1047 565v-192h-865v192h865z" />
    <glyph glyph-name="greater" unicode="&#x3e;" 
d="M184 954l97 187l761 -367v-213l-761 -366l-97 186l635 287z" />
    <glyph glyph-name="question" unicode="?" horiz-adv-x="1161" 
d="M414 463v49q0 113 37.5 182.5t123.5 134.5l115 84q44 34 68 71.5t24 92.5q0 75 -47 116.5t-133 41.5q-100 0 -162 -53.5t-69 -149.5h-258q15 219 157 322q141 102 340 102q201 0 320 -97t119 -274q0 -194 -162 -313l-117 -88q-115 -81 -115 -160v-61h-241zM393 0v295h285
v-295h-285z" />
    <glyph glyph-name="at" unicode="@" horiz-adv-x="1794" 
d="M1733 690q0 -243 -113.5 -399t-286.5 -156q-97 0 -161 51t-78 136q-54 -88 -138.5 -137.5t-183.5 -49.5q-143 0 -231 102.5t-88 268.5q0 128 52.5 241.5t153.5 186t228 72.5q184 0 252 -152l26 133h217l-98 -428q-22 -99 -22 -141q0 -96 84 -96q93 0 139 100
q49 101 49 244q0 252 -147 398t-396 146q-146 3 -279.5 -53t-228.5 -151t-150.5 -226t-53.5 -272q0 -253 157.5 -410t407.5 -157q141 0 272 61l60 -170q-157 -80 -353 -80q-157 -2 -295 53t-237 153t-155 237.5t-54 300.5q-4 179 69 346.5t197 289t296.5 193.5t359.5 68
q327 0 528 -192t201 -511zM1063 639q0 88 -42.5 137t-117.5 49q-104 0 -170 -90q-61 -88 -61 -207q0 -97 41.5 -151.5t115.5 -54.5q67 0 122 49.5t83.5 121.5t28.5 146z" />
    <glyph glyph-name="A" unicode="A" horiz-adv-x="1540" 
d="M1188 0l-119 317h-606l-119 -317h-283l557 1434h304l557 -1434h-291zM555 567h422l-211 566z" />
    <glyph glyph-name="B" unicode="B" horiz-adv-x="1396" 
d="M811 0h-627v1434h654q91 0 167.5 -29.5t125 -79.5t75.5 -113t27 -131q0 -103 -58 -187t-169 -124q143 -48 215.5 -143t72.5 -213q0 -81 -33.5 -155.5t-94.5 -132t-153 -92t-202 -34.5zM449 858h315q89 0 143 50t54 120q0 65 -51 110.5t-136 45.5h-325v-326zM1024 449
q0 76 -60 129t-159 53h-356v-381h337q109 0 173.5 58t64.5 141z" />
    <glyph glyph-name="C" unicode="C" horiz-adv-x="1550" 
d="M1176 528h272q-10 -179 -100 -309t-230 -193t-313 -63q-158 -2 -291 57.5t-220 163t-135 240.5t-46 289q-2 150 44 285.5t132 241t222.5 167t303.5 59.5q259 0 428 -135q170 -132 197 -375h-273q-12 118 -111.5 189.5t-246.5 71.5q-138 0 -236.5 -68.5t-145 -179.5
t-46.5 -250q0 -143 49.5 -255t147.5 -178.5t231 -66.5q153 0 254 79.5t113 229.5z" />
    <glyph glyph-name="D" unicode="D" horiz-adv-x="1501" 
d="M1389 745q1 -114 -29 -222.5t-92.5 -204t-150.5 -167.5t-211.5 -112.5t-266.5 -38.5h-455v1434h488q137 2 254.5 -34.5t202 -101.5t144.5 -152.5t88.5 -189.5t27.5 -211zM1120 745q0 90 -27 168.5t-80 139.5t-138 96t-193 35h-231v-934h190q93 0 172 27t135 73.5
t95 109.5t58 135t19 150z" />
    <glyph glyph-name="E" unicode="E" horiz-adv-x="1277" 
d="M1186 0h-1002v1434h963v-250h-696v-334h641v-250h-641v-350h735v-250z" />
    <glyph glyph-name="F" unicode="F" horiz-adv-x="1177" 
d="M451 600v-600h-267v1434h963v-250h-696v-334h641v-250h-641z" />
    <glyph glyph-name="G" unicode="G" horiz-adv-x="1613" 
d="M772 768h668v-768h-248v164q-51 -88 -159 -144.5t-261 -56.5q-194 0 -345 97t-232.5 265.5t-81.5 379.5q-2 153 44 290t132 243.5t222 168t304 59.5q259 0 428 -135q170 -132 197 -375h-273q-12 118 -112.5 189.5t-247.5 71.5q-209 0 -320 -144q-108 -141 -108 -360
q0 -224 115 -363q113 -137 319 -137q155 0 254 79t117 228h-412v248z" />
    <glyph glyph-name="H" unicode="H" horiz-adv-x="1550" 
d="M1366 1434v-1434h-266v598h-649v-598h-267v1434h267v-588h649v588h266z" />
    <glyph glyph-name="I" unicode="I" horiz-adv-x="653" 
d="M459 1434v-1434h-264v1434h264z" />
    <glyph glyph-name="J" unicode="J" horiz-adv-x="1095" 
d="M932 1434v-992q0 -236 -125 -358q-124 -121 -318 -121t-317 117q-121 118 -121 332v116h266v-125q0 -90 45 -137t130 -47q174 0 174 195v1020h266z" />
    <glyph glyph-name="K" unicode="K" horiz-adv-x="1431" 
d="M1047 0l-447 637l-149 -156v-481h-267v1434h267v-625l561 625h356l-571 -592l594 -842h-344z" />
    <glyph glyph-name="L" unicode="L" horiz-adv-x="1191" 
d="M1130 250v-250h-946v1434h267v-1184h679z" />
    <glyph glyph-name="M" unicode="M" horiz-adv-x="1839" 
d="M1655 1434v-1434h-250v1010l-369 -1010h-239l-369 1010v-1010h-244v1434h338l398 -1096l397 1096h338z" />
    <glyph glyph-name="N" unicode="N" horiz-adv-x="1552" 
d="M1368 1434v-1434h-285l-637 1012v-1012h-262v1434h308l614 -985v985h262z" />
    <glyph glyph-name="O" unicode="O" horiz-adv-x="1662" 
d="M1550 715q1 -155 -51.5 -294.5t-145.5 -241t-229 -160t-293 -56.5q-157 -2 -292.5 56.5t-229 160.5t-145.5 241t-51 294q-1 155 51 294.5t145.5 241.5t229 160.5t292.5 56.5q157 2 293 -56.5t229 -160.5t145.5 -241.5t51.5 -294.5zM1280 715q0 219 -122.5 358t-326.5 139
t-326 -139t-122 -358q0 -220 122 -358t326 -138t326.5 138t122.5 358z" />
    <glyph glyph-name="P" unicode="P" horiz-adv-x="1329" 
d="M1257 995q0 -96 -33.5 -180.5t-95 -148.5t-157 -101t-211.5 -37h-311v-528h-265v1434h602q112 0 202.5 -34.5t148.5 -95t89 -139.5t31 -170zM989 981q0 94 -54.5 148.5t-156.5 54.5h-329v-408h319q107 0 164 55.5t57 149.5z" />
    <glyph glyph-name="Q" unicode="Q" horiz-adv-x="1662" 
d="M1270 111l217 -365h-283l-151 252q-116 -35 -222 -35q-157 -2 -292.5 56.5t-229 160.5t-145.5 241t-51 294q-1 155 51 294.5t145.5 241.5t229 160.5t292.5 56.5q157 2 293 -56.5t229 -160.5t145.5 -241.5t51.5 -294.5q0 -188 -73 -343.5t-207 -260.5zM918 225l-246 412
h286l181 -305q68 66 104.5 165.5t36.5 217.5q0 219 -122.5 358t-326.5 139t-326 -139t-122 -358q0 -220 122 -358t326 -138q47 0 87 6z" />
    <glyph glyph-name="R" unicode="R" horiz-adv-x="1404" 
d="M965 618l389 -618h-305l-359 571h-241v-571h-265v1434h590q114 0 206.5 -35t150 -94t88 -133t30.5 -156q0 -137 -76 -246.5t-208 -151.5zM449 815h317q101 0 159 55t58 140q0 77 -49.5 125.5t-147.5 48.5h-337v-369z" />
    <glyph glyph-name="S" unicode="S" horiz-adv-x="1320" 
d="M692 -37q-93 0 -179.5 21t-161 64.5t-130 105t-87.5 147.5t-32 186h267q6 -143 95.5 -220t225.5 -77q111 0 186.5 54.5t75.5 140.5q0 68 -45 107q-41 38 -102 57q-80 25 -182 47q-139 35 -238 74q-108 45 -176 135t-68 223q0 138 72.5 239.5t191.5 151t269 49.5
q231 0 377 -116q149 -116 149 -340h-268q-11 223 -266 223q-124 0 -193.5 -47.5t-69.5 -138.5q2 -41 16.5 -71t36.5 -51t62.5 -38.5t81 -28.5t105.5 -26q150 -33 251 -70q100 -37 179 -121q84 -90 84 -242q0 -135 -71.5 -236t-190 -151.5t-265.5 -50.5z" />
    <glyph glyph-name="T" unicode="T" horiz-adv-x="1261" 
d="M1231 1434v-250h-471v-1184h-264v1184h-465v250h1200z" />
    <glyph glyph-name="U" unicode="U" horiz-adv-x="1482" 
d="M1057 1434h262v-885q0 -283 -153 -434.5t-423 -151.5t-424.5 151.5t-154.5 434.5v885h264v-873q0 -164 86.5 -254t237.5 -90q145 0 225 82t80 238v897z" />
    <glyph glyph-name="V" unicode="V" horiz-adv-x="1390" 
d="M1061 1434h278l-524 -1434h-240l-524 1434h285l362 -1065z" />
    <glyph glyph-name="W" unicode="W" horiz-adv-x="2062" 
d="M2001 1434l-391 -1434h-262l-316 1047l-315 -1047h-264l-392 1434h283l252 -1022l309 1022h262l310 -1024l252 1024h272z" />
    <glyph glyph-name="X" unicode="X" horiz-adv-x="1474" 
d="M1376 1434l-485 -699l512 -735h-334l-338 500l-336 -500h-323l508 727l-492 707h334l315 -471l314 471h325z" />
    <glyph glyph-name="Y" unicode="Y" horiz-adv-x="1402" 
d="M1055 1434h297l-516 -889v-545h-269v545l-516 889h305l351 -648z" />
    <glyph glyph-name="Z" unicode="Z" horiz-adv-x="1355" 
d="M1264 250v-250h-1151v250l780 934h-756v250h1086v-250l-777 -934h818z" />
    <glyph glyph-name="bracketleft" unicode="[" horiz-adv-x="659" 
d="M143 -309v1921h435v-154h-205v-1614h205v-153h-435z" />
    <glyph glyph-name="backslash" unicode="\" horiz-adv-x="899" 
d="M858 -176h-233l-584 1761h233z" />
    <glyph glyph-name="bracketright" unicode="]" horiz-adv-x="659" 
d="M516 -309h-434v153h205v1614h-205v154h434v-1921z" />
    <glyph glyph-name="asciicircum" unicode="^" horiz-adv-x="1013" 
d="M932 870h-240l-186 324l-184 -324h-240l326 564h200z" />
    <glyph glyph-name="underscore" unicode="_" horiz-adv-x="1118" 
d="M1036 -266h-954v225h954v-225z" />
    <glyph glyph-name="grave" unicode="`" horiz-adv-x="489" 
d="M274 1243l-274 303l199 152l290 -455h-215z" />
    <glyph glyph-name="a" unicode="a" horiz-adv-x="1165" 
d="M1012 731v-731h-248v154q-55 -90 -142.5 -133.5t-189.5 -43.5q-138 0 -242 78q-98 79 -98 236q0 273 336 323l213 31q123 18 123 111q0 53 -47.5 80.5t-126.5 27.5q-101 0 -152 -39t-73 -116h-242q30 178 157.5 271t331.5 93q190 0 295 -85t105 -257zM758 442v58
q-40 -16 -135 -31l-107 -16q-170 -21 -170 -142q0 -60 40.5 -91.5t111.5 -31.5q115 0 186 74q74 74 74 180z" />
    <glyph glyph-name="b" unicode="b" horiz-adv-x="1310" 
d="M1219 528q0 -131 -38.5 -236.5t-105 -173.5t-153.5 -104.5t-187 -36.5q-104 0 -190 39.5t-133 110.5v-127h-248v1456h254v-557q42 81 131.5 127.5t200.5 46.5q99 0 184 -35.5t148.5 -103t100 -172t36.5 -234.5zM961 522q0 150 -76.5 235t-196.5 85q-116 0 -197 -85
t-81 -235q0 -151 81 -235t197 -84q121 0 197 84.5t76 234.5z" />
    <glyph glyph-name="c" unicode="c" horiz-adv-x="1167" 
d="M598 -23q-124 0 -222 43.5t-159 118t-93 171t-32 206.5q0 113 34 213t98.5 177t165.5 122t226 45q198 0 322 -108t131 -291h-250q-5 78 -60 123t-147 45q-129 0 -196.5 -89t-67.5 -235q0 -139 63.5 -222t188.5 -83q91 0 150 44t71 118h254q-25 -189 -152 -293.5
t-325 -104.5z" />
    <glyph glyph-name="d" unicode="d" horiz-adv-x="1312" 
d="M1149 1456v-1456h-250v162q-42 -87 -131.5 -136t-202.5 -49q-100 0 -185.5 35.5t-150 103.5t-101 174t-36.5 238q0 258 133.5 401.5t339.5 143.5q106 0 194.5 -42t135.5 -116v541h254zM901 528q0 151 -80.5 235.5t-195.5 84.5q-121 0 -198 -85t-77 -235q0 -148 77 -232.5
t198 -84.5q114 0 195 84.5t81 232.5z" />
    <glyph glyph-name="e" unicode="e" horiz-adv-x="1165" 
d="M1073 451h-735q4 -123 75 -188.5t191 -65.5q81 0 139 30t84 90h238q-40 -163 -172 -251q-133 -89 -299 -89q-103 0 -193.5 35.5t-159.5 102t-109 171t-40 234.5q0 131 40.5 237.5t110.5 174.5t161.5 104.5t195.5 36.5q99 0 184.5 -33.5t150 -97.5t101.5 -163.5t37 -223.5
v-104zM344 637h479q0 102 -60 159.5t-165 57.5q-101 0 -169 -55.5t-85 -161.5z" />
    <glyph glyph-name="f" unicode="f" horiz-adv-x="735" 
d="M694 1231h-114q-61 0 -84 -25.5t-23 -81.5v-69h195v-230h-195v-825h-254v825h-158v230h158v57q0 101 20.5 169t63 106t99.5 53.5t139 15.5h153v-225z" />
    <glyph glyph-name="g" unicode="g" horiz-adv-x="1282" 
d="M1128 1055v-983q0 -238 -138 -363t-372 -125q-205 0 -346 99q-140 96 -161 284h247q17 -87 87 -131.5t173 -44.5q126 0 196.5 63.5t70.5 184.5v180q-37 -85 -121.5 -132.5t-200.5 -47.5q-97 0 -181.5 32.5t-149.5 95t-102.5 162.5t-37.5 226q0 125 37.5 225.5
t102.5 163.5t149.5 96t181.5 33q111 0 195.5 -45t126.5 -121v148h243zM874 557q0 137 -72 215t-186 78q-122 0 -198 -77.5t-76 -215.5q0 -139 76 -217t198 -78q114 0 186 78t72 217z" />
    <glyph glyph-name="h" unicode="h" horiz-adv-x="1253" 
d="M1100 680v-680h-254v657q0 91 -51.5 140t-145.5 49q-112 0 -171.5 -72.5t-59.5 -204.5v-569h-254v1456h254v-557q52 89 125.5 131.5t193.5 42.5q178 0 270.5 -101t92.5 -292z" />
    <glyph glyph-name="i" unicode="i" horiz-adv-x="569" 
d="M150 1194v289h270v-289h-270zM158 0v1055h254v-1055h-254z" />
    <glyph glyph-name="j" unicode="j" horiz-adv-x="583" 
d="M176 1194v289h270v-289h-270zM184 1055h254v-1104q0 -200 -82 -270q-80 -74 -241 -74h-125v225h86q61 0 84.5 25.5t23.5 81.5v1116z" />
    <glyph glyph-name="k" unicode="k" horiz-adv-x="1191" 
d="M1161 0h-307l-309 416l-127 -135v-281h-254v1456h254v-848l397 447h330l-428 -457z" />
    <glyph glyph-name="l" unicode="l" horiz-adv-x="581" 
d="M418 1456v-1456h-254v1456h254z" />
    <glyph glyph-name="m" unicode="m" horiz-adv-x="1820" 
d="M1667 711v-711h-254v662q0 182 -168 182q-96 0 -149.5 -63t-53.5 -189v-592h-254v662q0 182 -170 182q-94 0 -147 -64t-53 -186v-594h-254v1055h250v-156q31 78 101 126t175 48t181.5 -45t113.5 -129q94 174 311 174q172 0 271.5 -96t99.5 -266z" />
    <glyph glyph-name="n" unicode="n" horiz-adv-x="1253" 
d="M1100 680v-680h-254v657q0 91 -51.5 140t-145.5 49q-112 0 -171.5 -72.5t-59.5 -204.5v-569h-254v1055h252v-154q52 86 127.5 129t193.5 43q178 0 270.5 -101t92.5 -292z" />
    <glyph glyph-name="o" unicode="o" horiz-adv-x="1230" 
d="M1139 526q0 -253 -145 -401t-380 -148t-378.5 148t-143.5 401q0 251 144 399t378 148q233 0 379 -148.5t146 -398.5zM352 526q0 -151 71 -232t195 -81q123 0 192 82t69 231q0 151 -71.5 231.5t-195.5 80.5q-123 0 -191.5 -82t-68.5 -230z" />
    <glyph glyph-name="p" unicode="p" horiz-adv-x="1308" 
d="M1217 541q0 -133 -39.5 -239t-107.5 -173t-156.5 -102t-188.5 -35q-98 0 -178.5 36t-128.5 99v-520h-254v1448h248v-168q38 86 129.5 136t208.5 50q98 0 182.5 -35t148 -100.5t100 -167.5t36.5 -229zM958 528q0 150 -74.5 232t-195.5 82t-199.5 -83t-78.5 -231
q0 -147 78.5 -229t199.5 -82t195.5 81.5t74.5 229.5z" />
    <glyph glyph-name="q" unicode="q" horiz-adv-x="1302" 
d="M899 1055h250v-1448h-254v551q-47 -78 -132.5 -122t-191.5 -44q-100 0 -186.5 35t-152 102t-103 172t-37.5 236q0 129 36.5 232t100 168.5t148.5 100.5t184 35q111 0 203.5 -45t134.5 -123v150zM901 537q0 146 -79 228.5t-197 82.5q-123 0 -199 -81t-76 -230
q0 -148 76.5 -230t198.5 -82q118 0 197 82.5t79 229.5z" />
    <glyph glyph-name="r" unicode="r" horiz-adv-x="811" 
d="M760 1067v-248h-68q-274 0 -274 -303v-516h-254v1055h252v-156q76 168 274 168h70z" />
    <glyph glyph-name="s" unicode="s" horiz-adv-x="1083" 
d="M1001 328q0 -172 -129 -260q-133 -91 -317 -91q-185 0 -324 89q-137 88 -149 272h256q12 -74 72.5 -113t156.5 -39q88 0 136.5 29.5t48.5 85.5q0 46 -38 66t-157 41q-147 25 -231 51q-95 29 -153 96.5t-58 181.5q0 171 118 252q122 84 302 84q194 0 313 -93.5t129 -262.5
h-248q-15 145 -192 145q-85 0 -130 -32t-45 -85t48 -75t174 -41q128 -19 217 -43q89 -26 144.5 -88.5t55.5 -169.5z" />
    <glyph glyph-name="t" unicode="t" horiz-adv-x="784" 
d="M713 225v-225h-166q-84 0 -140.5 15t-100 52.5t-63.5 105t-20 169.5v483h-192v230h192v237l254 70v-307h211v-230h-211v-473q0 -65 28 -96t99 -31h109z" />
    <glyph glyph-name="u" unicode="u" horiz-adv-x="1236" 
d="M1073 1055v-1055h-248v150q-51 -81 -121.5 -121.5t-171.5 -40.5q-174 0 -276 108.5t-102 302.5v656h254v-637q0 -102 48 -153.5t136 -51.5q103 0 165 84t62 248v510h254z" />
    <glyph glyph-name="v" unicode="v" horiz-adv-x="1161" 
d="M862 1055h268l-413 -1055h-273l-413 1055h274l279 -764z" />
    <glyph glyph-name="w" unicode="w" horiz-adv-x="1759" 
d="M1718 1055l-366 -1055h-244l-229 684l-228 -684h-245l-365 1055h270l224 -715l225 715h248l227 -715l221 715h262z" />
    <glyph glyph-name="x" unicode="x" horiz-adv-x="1239" 
d="M860 0l-242 336l-241 -336h-320l394 522l-400 533h328l237 -330l234 330h315l-383 -514l406 -541h-328z" />
    <glyph glyph-name="y" unicode="y" horiz-adv-x="1110" 
d="M817 1055h262l-428 -1131q-48 -130 -153 -195t-250 -65h-105v225h78q173 0 213 117l2 8l-405 1041h270l260 -736z" />
    <glyph glyph-name="z" unicode="z" horiz-adv-x="1097" 
d="M993 221v-221h-891v221l566 613h-555v221h882v-221l-567 -613h565z" />
    <glyph glyph-name="braceleft" unicode="{" horiz-adv-x="739" 
d="M238 631q132 -31 191.5 -86.5t59.5 -167.5v-471q0 -104 32 -137t116 -33h41v-129h-150q-46 0 -79.5 4.5t-70.5 21.5t-60.5 46t-40 82.5t-17.5 127.5v457q0 103 -51.5 148t-167.5 63v148q116 18 167.5 62.5t51.5 147.5v457q1 73 17 126t40 82.5t61 47t71 22.5t79 5h150
v-129h-41q-84 0 -116 -33t-32 -139v-469q0 -112 -59.5 -167.5t-191.5 -86.5z" />
    <glyph glyph-name="bar" unicode="|" horiz-adv-x="516" 
d="M373 1663v-1892h-230v1892h230z" />
    <glyph glyph-name="braceright" unicode="}" horiz-adv-x="739" 
d="M250 885v469q0 106 -32 139t-116 33h-41v129h150q45 0 79 -5t71 -22.5t61 -47t40 -82.5t17 -126v-457q0 -103 51.5 -147.5t167.5 -62.5v-148q-116 -18 -167.5 -63t-51.5 -148v-457q-1 -74 -17.5 -127.5t-40 -82.5t-60.5 -46t-70.5 -21.5t-79.5 -4.5h-150v129h41
q84 0 116 33t32 137v471q0 112 60 167.5t192 86.5q-132 31 -192 86.5t-60 167.5z" />
    <glyph glyph-name="asciitilde" unicode="~" 
d="M791 498q-59 0 -107 19t-121 65q-73 47 -104 47q-33 0 -55.5 -33t-22.5 -82h-209q0 155 74.5 251.5t191.5 96.5q53 0 98 -18t121 -62q74 -51 117 -51q32 0 48 31.5t16 107.5h217q0 -176 -70 -274t-194 -98z" />
    <glyph glyph-name="exclamdown" unicode="&#xa1;" horiz-adv-x="655" 
d="M184 987h287v-295h-287v295zM465 -446h-272v512l47 497h178l47 -497v-512z" />
    <glyph glyph-name="cent" unicode="&#xa2;" horiz-adv-x="1134" 
d="M633 -20v-222h-133v228q-190 30 -304 171.5t-114 370.5t114 369t304 170v162h133v-156q184 -12 297 -125q114 -111 114 -293h-233q-5 88 -50 142.5t-128 66.5v-676q159 14 186 205h234q-19 -188 -130 -295t-290 -118zM500 203v649q-88 -27 -138.5 -110t-50.5 -214
t50.5 -213t138.5 -112z" />
    <glyph glyph-name="sterling" unicode="&#xa3;" horiz-adv-x="1298" 
d="M903 -23q-83 0 -152.5 32.5t-164.5 109.5q-55 -70 -116 -106t-151 -36q-120 0 -188 70t-68 174q0 102 64.5 173t173.5 71q46 0 83 -14.5t83 -47.5q8 41 8 175v157h-215v125h215v230q0 163 90.5 253.5t245.5 90.5h166v-224h-143q-117 0 -117 -133v-217h282v-125h-282v-123
q0 -146 -8 -206q-9 -69 -33 -130q107 -71 190 -71q69 0 100 45t31 153h238q0 -210 -89 -318t-243 -108zM428 260q-59 53 -115 53q-40 0 -62 -23t-22 -61q0 -33 23.5 -56t60.5 -23q88 0 115 110z" />
    <glyph glyph-name="currency" unicode="&#xa4;" horiz-adv-x="1214" 
d="M946 287l176 -221l-121 -95l-174 217q-98 -55 -219 -55q-118 0 -219 55l-176 -217l-121 95l178 223q-106 125 -106 289q0 170 112 294l-184 230l121 92l182 -227q103 53 213 53q115 0 211 -51l182 225l121 -92l-182 -228q113 -125 113 -296q0 -165 -107 -291zM817 578
q0 96 -56.5 157.5t-152.5 61.5t-151.5 -61.5t-55.5 -157.5q0 -99 55.5 -161.5t151.5 -62.5q98 0 153.5 62t55.5 162z" />
    <glyph glyph-name="yen" unicode="&#xa5;" horiz-adv-x="1388" 
d="M1251 1434l-438 -725h313v-125h-315v-201h315v-125h-315v-258h-233v258h-312v125h312v201h-312v125h309l-436 725h281l282 -506l283 506h266z" />
    <glyph glyph-name="brokenbar" unicode="&#xa6;" horiz-adv-x="516" 
d="M143 866v797h230v-797h-230zM373 567v-796h-230v796h230z" />
    <glyph glyph-name="section" unicode="&#xa7;" horiz-adv-x="1067" 
d="M961 299q0 -154 -117 -245t-305 -91q-182 0 -316 90q-132 91 -141 273h250q12 -78 68 -119t147 -41q80 0 127 29.5t47 85.5q0 51 -42 74.5t-149 43.5q-115 19 -202 43q-77 21 -142 80t-65 164q0 83 42 139.5t111 77.5q-61 31 -99 92t-38 144q0 157 117 239q121 86 299 86
q182 0 296 -86t120 -239h-238q-18 129 -178 129q-81 0 -129.5 -31.5t-48.5 -91.5q0 -43 24 -64q23 -19 60 -29t131 -24q125 -20 209 -43q186 -54 186 -229q0 -90 -44.5 -152t-127.5 -92q72 -25 110 -74.5t38 -138.5zM768 717q0 129 -219 129q-211 0 -211 -117q0 -77 70 -98
q77 -23 147 -23q114 0 163.5 25.5t49.5 83.5z" />
    <glyph glyph-name="dieresis" unicode="&#xa8;" horiz-adv-x="616" 
d="M0 1243v230h221v-230h-221zM395 1243v230h221v-230h-221z" />
    <glyph glyph-name="copyright" unicode="&#xa9;" horiz-adv-x="1761" 
d="M1649 717q2 -165 -57.5 -310.5t-162.5 -247t-246 -159t-302 -55.5q-128 -2 -246 34.5t-213 106t-165.5 164t-108 215t-35.5 252.5q-2 132 35.5 252.5t108 215t165.5 164t213 106t246 34.5q159 2 302 -55.5t246 -159t162.5 -247t57.5 -310.5zM1495 717q0 184 -80.5 328
t-220 222.5t-313.5 78.5t-314 -78.5t-220.5 -222.5t-80.5 -328t80.5 -328t220.5 -222.5t314 -78.5t313.5 78.5t220 222.5t80.5 328zM1081 610h181q0 -157 -107 -245q-106 -89 -268 -89q-189 0 -302.5 116t-113.5 335q0 225 119 332q120 108 299 108q156 0 262 -86
q104 -85 104 -233h-180q-7 74 -58.5 118t-127.5 44q-102 0 -167 -73t-65 -210q0 -142 63.5 -216.5t166.5 -74.5q81 0 137 48t57 126z" />
    <glyph glyph-name="ordfeminine" unicode="&#xaa;" horiz-adv-x="1003" 
d="M850 1143v-549h-234v106q-40 -59 -111 -90.5t-153 -31.5q-114 0 -187 65.5t-73 179.5q0 123 80 176q86 55 195 72l139 21q43 7 66.5 22.5t23.5 48.5q0 64 -100 64q-117 0 -138 -84h-239q23 144 128.5 217.5t270.5 73.5q163 0 247.5 -73t84.5 -218zM598 930v28
q-49 -12 -109 -22l-57 -10q-96 -14 -96 -78q0 -68 92 -68q76 0 123 43.5t47 106.5z" />
    <glyph glyph-name="guillemotleft" unicode="&#xab;" horiz-adv-x="1255" 
d="M348 582l258 -291l-141 -133l-373 424l373 422l141 -134zM844 582l258 -291l-141 -133l-373 424l373 422l141 -134z" />
    <glyph glyph-name="logicalnot" unicode="&#xac;" 
d="M244 537v204h743v-551h-213v347h-530z" />
    <glyph glyph-name="registered" unicode="&#xae;" horiz-adv-x="999" 
d="M967 997q0 -200 -134.5 -333.5t-330.5 -133.5q-198 0 -332.5 133.5t-134.5 333.5q0 203 134 337t333 134q198 0 331.5 -134t133.5 -337zM883 997q0 172 -109 282t-272 110q-162 0 -272.5 -110.5t-110.5 -281.5q0 -168 110.5 -277.5t272.5 -109.5q163 0 272 109t109 278z
M604 942l109 -170h-99l-100 158h-88v-158h-86v473h186q82 0 127 -45.5t45 -116.5q0 -46 -24 -84.5t-70 -56.5zM426 1163v-153h104q38 0 60 20t22 53q0 38 -21 59t-61 21h-104z" />
    <glyph glyph-name="overscore" unicode="&#xaf;" horiz-adv-x="610" 
d="M610 1243h-610v193h610v-193z" />
    <glyph glyph-name="degree" unicode="&#xb0;" horiz-adv-x="849" 
d="M420 1569q162 0 265 -101t103 -262t-103 -262.5t-265 -101.5q-154 0 -256.5 102t-102.5 262t102.5 261.5t256.5 101.5zM424 1399q-82 0 -131 -52.5t-49 -138.5q0 -88 49 -141t131 -53q80 0 131 54t51 140t-51 138.5t-131 52.5z" />
    <glyph glyph-name="plusminus" unicode="&#xb1;" 
d="M1047 1069v-205h-326v-346h-213v346h-326v205h326v350h213v-350h326zM1047 395v-205h-865v205h865z" />
    <glyph glyph-name="uni00B2" unicode="&#xb2;" horiz-adv-x="774" 
d="M719 741v-186h-639v176l180 148l62 51q104 85 143 131q37 40 37 88q0 47 -29 73.5t-80 26.5q-63 0 -100 -38t-37 -113h-201q0 159 103 248q101 88 252 88q136 0 216.5 -69t80.5 -194q0 -64 -29 -124q-27 -52 -68 -93.5t-131 -113.5l-41 -33l-82 -66h363z" />
    <glyph glyph-name="uni00B3" unicode="&#xb3;" horiz-adv-x="770" 
d="M717 795q0 -119 -90.5 -186.5t-239.5 -67.5q-154 0 -244 76t-90 221h203q0 -61 34.5 -88t102.5 -27q54 0 86.5 23t32.5 59q0 29 -11.5 49t-33.5 29t-45.5 12.5t-54.5 3.5h-62v172h57q63 0 96.5 27.5t33.5 77.5q0 33 -27.5 53t-77.5 20q-59 0 -92 -30t-33 -89h-201
q0 161 103 232q104 72 239 72q131 0 213 -65.5t82 -174.5q0 -72 -38.5 -125.5t-96.5 -73.5q154 -56 154 -200z" />
    <glyph glyph-name="acute" unicode="&#xb4;" horiz-adv-x="489" 
d="M215 1243h-215l291 455l198 -152z" />
    <glyph glyph-name="paragraph" unicode="&#xb6;" horiz-adv-x="1552" 
d="M596 1434h403v-1702h-208v817h-175q-124 0 -222 36t-158.5 99t-91.5 143.5t-31 173.5q0 91 29.5 168.5t87 137t151.5 93.5t215 34zM1368 1434v-1702h-209v1702h209zM379 991q0 -90 60.5 -142t176.5 -52h175v387h-179q-114 0 -173.5 -51.5t-59.5 -141.5z" />
    <glyph glyph-name="middot" unicode="&#xb7;" horiz-adv-x="450" 
d="M82 594v295h287v-295h-287z" />
    <glyph glyph-name="cedilla" unicode="&#xb8;" horiz-adv-x="434" 
d="M434 -254q0 -75 -60 -123.5t-161 -48.5q-125 0 -213 76l66 92q74 -51 139 -51q42 0 67 17t25 42q0 76 -184 76v176h116v-96q94 -6 149.5 -48.5t55.5 -111.5z" />
    <glyph glyph-name="uni00B9" unicode="&#xb9;" horiz-adv-x="819" 
d="M510 739h240v-184h-678v184h239v418q-100 -50 -211 -53v184q149 15 246 121h164v-670z" />
    <glyph glyph-name="ordmasculine" unicode="&#xba;" horiz-adv-x="1032" 
d="M940 1006q0 -196 -116 -312t-308 -116t-308 116t-116 312t116 312t308 116t308 -116t116 -312zM684 1006q0 96 -44 143t-124 47t-124 -47t-44 -143t44 -143.5t124 -47.5t124 47.5t44 143.5z" />
    <glyph glyph-name="guillemotright" unicode="&#xbb;" horiz-adv-x="1255" 
d="M412 582l-258 288l141 134l373 -422l-373 -424l-141 133zM907 582l-258 288l142 134l372 -422l-372 -424l-142 133z" />
    <glyph glyph-name="onequarter" unicode="&#xbc;" horiz-adv-x="2183" 
d="M1737 1434l-848 -1434h-230l848 1434h230zM623 737h239v-184h-678v184h240v418q-100 -50 -211 -53v184q149 15 246 121h164v-670zM1999 330v-187h-92v-145h-195v147h-391v154l381 553h205v-522h92zM1712 330v262l-174 -262h174z" />
    <glyph glyph-name="onehalf" unicode="&#xbd;" horiz-adv-x="2304" 
d="M2120 184v-186h-639v176l180 148l61 51q107 88 144 131q37 40 37 88q0 47 -29 73.5t-80 26.5q-63 0 -100 -38t-37 -113h-201q0 158 103 247t251 89q136 0 216.5 -69t80.5 -194q0 -67 -28 -125q-27 -52 -67.5 -92.5t-131.5 -113.5l-41 -33l-82 -66h363zM1759 1434
l-848 -1434h-229l848 1434h229zM623 737h239v-184h-678v184h240v418q-100 -50 -211 -53v184q149 15 246 121h164v-670z" />
    <glyph glyph-name="threequarters" unicode="&#xbe;" horiz-adv-x="2138" 
d="M848 795q0 -119 -90.5 -186.5t-239.5 -67.5q-154 0 -244 76t-90 221h203q0 -61 34.5 -88t102.5 -27q54 0 86.5 23t32.5 59q0 29 -11.5 49t-33.5 29t-45.5 12.5t-54.5 3.5h-62v172h58q62 0 95.5 27.5t33.5 77.5q0 33 -27.5 53t-77.5 20q-59 0 -92 -30t-33 -89h-200
q0 162 102 232q104 72 240 72q130 0 212 -65.5t82 -174.5q0 -72 -38.5 -125.5t-96.5 -73.5q154 -56 154 -200zM1667 1434l-848 -1434h-229l848 1434h229zM1954 330v-187h-92v-145h-195v147h-391v154l381 553h205v-522h92zM1667 330v262l-174 -262h174z" />
    <glyph glyph-name="questiondown" unicode="&#xbf;" horiz-adv-x="1161" 
d="M768 1040v-295h-285v295h285zM748 578v-50q0 -112 -38 -182t-124 -135l-115 -84q-44 -34 -68 -71.5t-24 -92.5q0 -75 47 -116.5t133 -41.5q101 0 163 53.5t69 149.5h258q-15 -218 -158 -321q-142 -103 -340 -103q-200 0 -319 97t-119 274q0 195 161 313l117 88
q115 81 115 160v62h242z" />
    <glyph glyph-name="Agrave" unicode="&#xc0;" horiz-adv-x="1540" 
d="M1188 0l-119 317h-606l-119 -317h-283l557 1434h304l557 -1434h-291zM555 567h422l-211 566zM651 1589l-235 221l198 136l248 -357h-211z" />
    <glyph glyph-name="Aacute" unicode="&#xc1;" horiz-adv-x="1540" 
d="M1188 0l-119 317h-606l-119 -317h-283l557 1434h304l557 -1434h-291zM555 567h422l-211 566zM899 1589h-211l248 357l199 -136z" />
    <glyph glyph-name="Acircumflex" unicode="&#xc2;" horiz-adv-x="1540" 
d="M1188 0l-119 317h-606l-119 -317h-283l557 1434h304l557 -1434h-291zM555 567h422l-211 566zM891 1571l-121 149l-119 -149h-245l296 375h140l295 -375h-246z" />
    <glyph glyph-name="Atilde" unicode="&#xc3;" horiz-adv-x="1540" 
d="M928 1589q-41 0 -74.5 16t-89.5 56q-32 26 -49 35.5t-35 9.5q-26 0 -44.5 -28t-19.5 -76h-149q0 139 58.5 222t150.5 83q42 0 77.5 -17t86.5 -57q32 -25 49 -35t33 -10q56 0 65 110h150q-1 -144 -60.5 -226.5t-148.5 -82.5zM1188 0l-119 317h-606l-119 -317h-283
l557 1434h304l557 -1434h-291zM555 567h422l-211 566z" />
    <glyph glyph-name="Adieresis" unicode="&#xc4;" horiz-adv-x="1540" 
d="M463 1589v230h221v-230h-221zM858 1589v230h221v-230h-221zM1188 0l-119 317h-606l-119 -317h-283l557 1434h304l557 -1434h-291zM555 567h422l-211 566z" />
    <glyph glyph-name="Aring" unicode="&#xc5;" horiz-adv-x="1540" 
d="M768 1946q92 0 152.5 -59.5t60.5 -151.5q0 -93 -60 -153t-153 -60q-91 0 -150 60.5t-59 152.5t59 151.5t150 59.5zM770 1843q-47 0 -75.5 -30t-28.5 -78q0 -50 27.5 -80.5t76.5 -30.5q47 0 75.5 30.5t28.5 80.5q0 48 -28.5 78t-75.5 30zM1188 0l-119 317h-606l-119 -317
h-283l557 1434h304l557 -1434h-291zM555 567h422l-211 566z" />
    <glyph glyph-name="AE" unicode="&#xc6;" horiz-adv-x="2131" 
d="M1305 250h735v-250h-1002v346h-503l-175 -346h-299l746 1434h1194v-250h-696v-334h641v-250h-641v-350zM659 594h379v590h-82z" />
    <glyph glyph-name="Ccedilla" unicode="&#xc7;" horiz-adv-x="1550" 
d="M805 -37h-2v-57q94 -6 149.5 -48.5t55.5 -111.5q0 -75 -60.5 -123.5t-161.5 -48.5q-125 0 -213 76l66 92q74 -51 139 -51q42 0 67 17t25 42q0 76 -184 76v145q-178 26 -309.5 132.5t-197.5 264t-66 345.5q-2 150 44 285.5t132 241t222.5 167t303.5 59.5q259 0 428 -135
q170 -132 197 -375h-273q-12 118 -111.5 189.5t-246.5 71.5q-138 0 -236.5 -68.5t-145 -179.5t-46.5 -250q0 -143 49.5 -255t147.5 -178.5t231 -66.5q153 0 254 79.5t113 229.5h272q-10 -179 -100 -309t-230 -193t-313 -63z" />
    <glyph glyph-name="Egrave" unicode="&#xc8;" horiz-adv-x="1277" 
d="M1186 0h-1002v1434h963v-250h-696v-334h641v-250h-641v-350h735v-250zM610 1589l-235 221l198 136l248 -357h-211z" />
    <glyph glyph-name="Eacute" unicode="&#xc9;" horiz-adv-x="1277" 
d="M1186 0h-1002v1434h963v-250h-696v-334h641v-250h-641v-350h735v-250zM768 1589h-211l248 357l199 -136z" />
    <glyph glyph-name="Ecircumflex" unicode="&#xca;" horiz-adv-x="1277" 
d="M1186 0h-1002v1434h963v-250h-696v-334h641v-250h-641v-350h735v-250zM788 1571l-120 149l-119 -149h-246l297 375h139l295 -375h-246z" />
    <glyph glyph-name="Edieresis" unicode="&#xcb;" horiz-adv-x="1277" 
d="M1186 0h-1002v1434h963v-250h-696v-334h641v-250h-641v-350h735v-250zM379 1589v230h221v-230h-221zM774 1589v230h221v-230h-221z" />
    <glyph glyph-name="Igrave" unicode="&#xcc;" horiz-adv-x="653" 
d="M459 1434v-1434h-264v1434h264zM207 1589l-236 221l199 136l248 -357h-211z" />
    <glyph glyph-name="Iacute" unicode="&#xcd;" horiz-adv-x="653" 
d="M438 1589h-211l248 357l199 -136zM459 1434v-1434h-264v1434h264z" />
    <glyph glyph-name="Icircumflex" unicode="&#xce;" horiz-adv-x="653" 
d="M459 1434v-1434h-264v1434h264zM446 1571l-120 149l-119 -149h-246l297 375h139l295 -375h-246z" />
    <glyph glyph-name="Idieresis" unicode="&#xcf;" horiz-adv-x="653" 
d="M459 1434v-1434h-264v1434h264zM18 1589v230h222v-230h-222zM414 1589v230h221v-230h-221z" />
    <glyph glyph-name="Eth" unicode="&#xd0;" horiz-adv-x="1417" 
d="M1305 745q1 -114 -29 -222.5t-92.5 -204t-150.5 -167.5t-211.5 -112.5t-266.5 -38.5h-455v674h-141v110h141v650h488q137 2 254.5 -34.5t202 -101.5t144.5 -152.5t88.5 -189.5t27.5 -211zM1036 745q0 90 -27 168.5t-80 139.5t-138 96t-193 35h-231v-400h315v-110h-315
v-424h190q93 0 172 27t135 73.5t95 109.5t58 135t19 150z" />
    <glyph glyph-name="Ntilde" unicode="&#xd1;" horiz-adv-x="1552" 
d="M1368 1434v-1434h-285l-637 1012v-1012h-262v1434h308l614 -985v985h262zM924 1589q-41 0 -74.5 16t-89.5 56q-32 26 -49 35.5t-35 9.5q-26 0 -44.5 -28t-19.5 -76h-149q0 139 58.5 222t150.5 83q42 0 77.5 -17t86.5 -57q32 -25 49 -35t33 -10q56 0 65 110h150
q-1 -144 -60.5 -226.5t-148.5 -82.5z" />
    <glyph glyph-name="Ograve" unicode="&#xd2;" horiz-adv-x="1660" 
d="M1550 715q1 -155 -51.5 -294.5t-145.5 -241t-229 -160t-293 -56.5q-157 -2 -292.5 56.5t-229 160.5t-145.5 241t-51 294q-1 155 51 294.5t145.5 241.5t229 160.5t292.5 56.5q157 2 293 -56.5t229 -160.5t145.5 -241.5t51.5 -294.5zM1280 715q0 219 -122.5 358t-326.5 139
t-326 -139t-122 -358q0 -220 122 -358t326 -138t326.5 138t122.5 358zM707 1589l-236 221l199 136l248 -357h-211z" />
    <glyph glyph-name="Oacute" unicode="&#xd3;" horiz-adv-x="1660" 
d="M913 1589h-211l248 357l199 -136zM1550 715q1 -155 -51.5 -294.5t-145.5 -241t-229 -160t-293 -56.5q-157 -2 -292.5 56.5t-229 160.5t-145.5 241t-51 294q-1 155 51 294.5t145.5 241.5t229 160.5t292.5 56.5q157 2 293 -56.5t229 -160.5t145.5 -241.5t51.5 -294.5z
M1280 715q0 219 -122.5 358t-326.5 139t-326 -139t-122 -358q0 -220 122 -358t326 -138t326.5 138t122.5 358z" />
    <glyph glyph-name="Ocircumflex" unicode="&#xd4;" horiz-adv-x="1660" 
d="M1550 715q1 -155 -51.5 -294.5t-145.5 -241t-229 -160t-293 -56.5q-157 -2 -292.5 56.5t-229 160.5t-145.5 241t-51 294q-1 155 51 294.5t145.5 241.5t229 160.5t292.5 56.5q157 2 293 -56.5t229 -160.5t145.5 -241.5t51.5 -294.5zM1280 715q0 219 -122.5 358t-326.5 139
t-326 -139t-122 -358q0 -220 122 -358t326 -138t326.5 138t122.5 358zM950 1571l-121 149l-118 -149h-246l297 375h139l295 -375h-246z" />
    <glyph glyph-name="Otilde" unicode="&#xd5;" horiz-adv-x="1660" 
d="M1550 715q1 -155 -51.5 -294.5t-145.5 -241t-229 -160t-293 -56.5q-157 -2 -292.5 56.5t-229 160.5t-145.5 241t-51 294q-1 155 51 294.5t145.5 241.5t229 160.5t292.5 56.5q157 2 293 -56.5t229 -160.5t145.5 -241.5t51.5 -294.5zM1280 715q0 219 -122.5 358t-326.5 139
t-326 -139t-122 -358q0 -220 122 -358t326 -138t326.5 138t122.5 358zM946 1589q-41 0 -74.5 16t-89.5 56q-32 26 -49 35.5t-35 9.5q-26 0 -44 -28t-19 -76h-150q0 139 58.5 222t150.5 83q42 0 77.5 -17t86.5 -57q32 -25 49 -35t33 -10q57 0 66 110h149
q-1 -144 -60.5 -226.5t-148.5 -82.5z" />
    <glyph glyph-name="Odieresis" unicode="&#xd6;" horiz-adv-x="1660" 
d="M1550 715q1 -155 -51.5 -294.5t-145.5 -241t-229 -160t-293 -56.5q-157 -2 -292.5 56.5t-229 160.5t-145.5 241t-51 294q-1 155 51 294.5t145.5 241.5t229 160.5t292.5 56.5q157 2 293 -56.5t229 -160.5t145.5 -241.5t51.5 -294.5zM1280 715q0 219 -122.5 358t-326.5 139
t-326 -139t-122 -358q0 -220 122 -358t326 -138t326.5 138t122.5 358zM522 1589v230h221v-230h-221zM918 1589v230h221v-230h-221z" />
    <glyph glyph-name="multiply" unicode="&#xd7;" 
d="M1004 889l-248 -248l248 -248l-142 -141l-248 248l-247 -248l-142 141l248 248l-248 248l142 141l247 -248l248 248z" />
    <glyph glyph-name="Oslash" unicode="&#xd8;" horiz-adv-x="1662" 
d="M1550 715q1 -155 -51.5 -294.5t-145.5 -241t-229 -160t-293 -56.5q-224 0 -395 109l-141 -195l-133 98l147 203q-196 208 -196 537q-1 155 51 294.5t145.5 241.5t229 160.5t292.5 56.5q192 0 351 -84l127 175l133 -99l-125 -172q112 -103 172.5 -251.5t60.5 -321.5z
M471 401l557 770q-90 41 -197 41q-204 0 -326 -139t-122 -358q0 -186 88 -314zM1280 715q0 223 -121 356l-569 -786q104 -66 241 -66q204 0 326.5 138t122.5 358z" />
    <glyph glyph-name="Ugrave" unicode="&#xd9;" horiz-adv-x="1482" 
d="M1057 1434h262v-885q0 -283 -153 -434.5t-423 -151.5t-424.5 151.5t-154.5 434.5v885h264v-873q0 -164 86.5 -254t237.5 -90q145 0 225 82t80 238v897zM633 1589l-236 221l199 136l248 -357h-211z" />
    <glyph glyph-name="Uacute" unicode="&#xda;" horiz-adv-x="1482" 
d="M780 1589h-211l248 357l199 -136zM1057 1434h262v-885q0 -283 -153 -434.5t-423 -151.5t-424.5 151.5t-154.5 434.5v885h264v-873q0 -164 86.5 -254t237.5 -90q145 0 225 82t80 238v897z" />
    <glyph glyph-name="Ucircumflex" unicode="&#xdb;" horiz-adv-x="1482" 
d="M1057 1434h262v-885q0 -283 -153 -434.5t-423 -151.5t-424.5 151.5t-154.5 434.5v885h264v-873q0 -164 86.5 -254t237.5 -90q145 0 225 82t80 238v897zM862 1571l-121 149l-118 -149h-246l297 375h139l295 -375h-246z" />
    <glyph glyph-name="Udieresis" unicode="&#xdc;" horiz-adv-x="1482" 
d="M1057 1434h262v-885q0 -283 -153 -434.5t-423 -151.5t-424.5 151.5t-154.5 434.5v885h264v-873q0 -164 86.5 -254t237.5 -90q145 0 225 82t80 238v897zM434 1589v230h221v-230h-221zM829 1589v230h222v-230h-222z" />
    <glyph glyph-name="Yacute" unicode="&#xdd;" horiz-adv-x="1402" 
d="M745 1589h-210l247 357l199 -136zM1055 1434h297l-516 -889v-545h-269v545l-516 889h305l351 -648z" />
    <glyph glyph-name="Thorn" unicode="&#xde;" horiz-adv-x="1308" 
d="M1237 813q0 -91 -33.5 -173.5t-95 -145.5t-157 -100.5t-210.5 -37.5h-292v-356h-265v1456h265v-215h319q220 0 344.5 -122.5t124.5 -305.5zM969 801q0 87 -54.5 139.5t-154.5 52.5h-311v-387h301q106 0 162.5 53t56.5 142z" />
    <glyph glyph-name="germandbls" unicode="&#xdf;" horiz-adv-x="1298" 
d="M1206 387q0 -122 -60 -211.5t-157.5 -132.5t-218.5 -43h-160v221h121q96 0 156.5 50t60.5 139q0 97 -80.5 145t-257.5 55v211q118 12 182 70t64 156q0 88 -53.5 134t-153.5 46q-110 0 -170.5 -56t-60.5 -161v-1010h-254v1010q0 205 129 325q130 121 348 121
q204 0 334.5 -104t130.5 -281q0 -118 -58.5 -205t-160.5 -118q319 -76 319 -361z" />
    <glyph glyph-name="agrave" unicode="&#xe0;" horiz-adv-x="1165" 
d="M1012 731v-731h-248v154q-55 -90 -142.5 -133.5t-189.5 -43.5q-138 0 -242 78q-98 79 -98 236q0 273 336 323l213 31q123 18 123 111q0 53 -47.5 80.5t-126.5 27.5q-101 0 -152 -39t-73 -116h-242q30 178 157.5 271t331.5 93q190 0 295 -85t105 -257zM758 442v58
q-40 -16 -135 -31l-107 -16q-170 -21 -170 -142q0 -60 40.5 -91.5t111.5 -31.5q115 0 186 74q74 74 74 180zM557 1243l-274 303l198 152l291 -455h-215z" />
    <glyph glyph-name="aacute" unicode="&#xe1;" horiz-adv-x="1165" 
d="M1012 731v-731h-248v154q-55 -90 -142.5 -133.5t-189.5 -43.5q-138 0 -242 78q-98 79 -98 236q0 273 336 323l213 31q123 18 123 111q0 53 -47.5 80.5t-126.5 27.5q-101 0 -152 -39t-73 -116h-242q30 178 157.5 271t331.5 93q190 0 295 -85t105 -257zM758 442v58
q-40 -16 -135 -31l-107 -16q-170 -21 -170 -142q0 -60 40.5 -91.5t111.5 -31.5q115 0 186 74q74 74 74 180zM680 1243h-215l291 455l198 -152z" />
    <glyph glyph-name="acircumflex" unicode="&#xe2;" horiz-adv-x="1165" 
d="M1012 731v-731h-248v154q-55 -90 -142.5 -133.5t-189.5 -43.5q-138 0 -242 78q-98 79 -98 236q0 273 336 323l213 31q123 18 123 111q0 53 -47.5 80.5t-126.5 27.5q-101 0 -152 -39t-73 -116h-242q30 178 157.5 271t331.5 93q190 0 295 -85t105 -257zM758 442v58
q-40 -16 -135 -31l-107 -16q-170 -21 -170 -142q0 -60 40.5 -91.5t111.5 -31.5q115 0 186 74q74 74 74 180zM723 1243l-121 150l-119 -150h-245l297 375h139l295 -375h-246z" />
    <glyph glyph-name="atilde" unicode="&#xe3;" horiz-adv-x="1165" 
d="M1012 731v-731h-248v154q-55 -90 -142.5 -133.5t-189.5 -43.5q-138 0 -242 78q-98 79 -98 236q0 273 336 323l213 31q123 18 123 111q0 53 -47.5 80.5t-126.5 27.5q-101 0 -152 -39t-73 -116h-242q30 178 157.5 271t331.5 93q190 0 295 -85t105 -257zM758 442v58
q-40 -16 -135 -31l-107 -16q-170 -21 -170 -142q0 -60 40.5 -91.5t111.5 -31.5q115 0 186 74q74 74 74 180zM727 1243q-41 0 -74.5 16t-89.5 56q-32 26 -49 35.5t-35 9.5q-27 0 -44.5 -27.5t-18.5 -77.5h-150q0 139 58.5 222.5t150.5 83.5q42 0 77.5 -17t86.5 -57
q32 -25 49 -35t33 -10q56 0 65 112h150q-1 -144 -60.5 -227.5t-148.5 -83.5z" />
    <glyph glyph-name="adieresis" unicode="&#xe4;" horiz-adv-x="1165" 
d="M1012 731v-731h-248v154q-55 -90 -142.5 -133.5t-189.5 -43.5q-138 0 -242 78q-98 79 -98 236q0 273 336 323l213 31q123 18 123 111q0 53 -47.5 80.5t-126.5 27.5q-101 0 -152 -39t-73 -116h-242q30 178 157.5 271t331.5 93q190 0 295 -85t105 -257zM758 442v58
q-40 -16 -135 -31l-107 -16q-170 -21 -170 -142q0 -60 40.5 -91.5t111.5 -31.5q115 0 186 74q74 74 74 180zM295 1243v230h221v-230h-221zM690 1243v230h221v-230h-221z" />
    <glyph glyph-name="aring" unicode="&#xe5;" horiz-adv-x="1165" 
d="M1012 731v-731h-248v154q-55 -90 -142.5 -133.5t-189.5 -43.5q-138 0 -242 78q-98 79 -98 236q0 273 336 323l213 31q123 18 123 111q0 53 -47.5 80.5t-126.5 27.5q-101 0 -152 -39t-73 -116h-242q30 178 157.5 271t331.5 93q190 0 295 -85t105 -257zM758 442v58
q-40 -16 -135 -31l-107 -16q-170 -21 -170 -142q0 -60 40.5 -91.5t111.5 -31.5q115 0 186 74q74 74 74 180zM606 1679q104 0 171 -66.5t67 -172.5q0 -103 -67 -170.5t-171 -67.5q-100 0 -166.5 67.5t-66.5 170.5q0 105 66 172t167 67zM608 1542q-46 0 -73 -28.5t-27 -73.5
q0 -46 27 -75.5t73 -29.5t73.5 30t27.5 75t-27.5 73.5t-73.5 28.5z" />
    <glyph glyph-name="ae" unicode="&#xe6;" horiz-adv-x="1830" 
d="M1739 555v-104h-735q4 -123 75 -188.5t191 -65.5q81 0 139 30t84 90h238q-40 -163 -172 -251q-133 -89 -299 -89q-136 0 -239.5 61t-160.5 177q-77 -142 -194 -190q-121 -48 -234 -48q-138 0 -242 78q-98 79 -98 236q0 273 336 323l213 31q123 18 123 111
q0 53 -46.5 80.5t-123.5 27.5q-98 0 -147.5 -39t-71.5 -116h-242q30 178 157 271t326 93q234 0 322 -131q122 131 328 131q99 0 184.5 -33.5t150 -97.5t101.5 -163.5t37 -223.5zM1010 637h479q0 102 -60 159.5t-165 57.5q-101 0 -169 -55.5t-85 -161.5zM758 442v58
q-40 -16 -135 -31l-107 -16q-170 -21 -170 -142q0 -60 40.5 -91.5t111.5 -31.5q115 0 186 74q74 74 74 180z" />
    <glyph glyph-name="ccedilla" unicode="&#xe7;" horiz-adv-x="1167" 
d="M629 -23v-71q94 -6 149.5 -48.5t55.5 -111.5q0 -75 -60.5 -123.5t-161.5 -48.5q-125 0 -213 76l66 92q74 -51 139 -51q42 0 67 17t25 42q0 76 -184 76v158q-206 27 -313 176t-107 356q0 113 34 213t98.5 177t165.5 122t226 45q198 0 322 -108t131 -291h-250
q-5 78 -60 123t-147 45q-129 0 -196.5 -89t-67.5 -235q0 -139 63.5 -222t188.5 -83q91 0 150 44t71 118h254q-23 -181 -141 -284t-305 -114z" />
    <glyph glyph-name="egrave" unicode="&#xe8;" horiz-adv-x="1165" 
d="M1073 451h-735q4 -123 75 -188.5t191 -65.5q81 0 139 30t84 90h238q-40 -163 -172 -251q-133 -89 -299 -89q-103 0 -193.5 35.5t-159.5 102t-109 171t-40 234.5q0 131 40.5 237.5t110.5 174.5t161.5 104.5t195.5 36.5q99 0 184.5 -33.5t150 -97.5t101.5 -163.5t37 -223.5
v-104zM344 637h479q0 102 -60 159.5t-165 57.5q-101 0 -169 -55.5t-85 -161.5zM494 1243l-275 303l199 152l291 -455h-215z" />
    <glyph glyph-name="eacute" unicode="&#xe9;" horiz-adv-x="1165" 
d="M709 1243h-215l290 455l199 -152zM1073 451h-735q4 -123 75 -188.5t191 -65.5q81 0 139 30t84 90h238q-40 -163 -172 -251q-133 -89 -299 -89q-103 0 -193.5 35.5t-159.5 102t-109 171t-40 234.5q0 131 40.5 237.5t110.5 174.5t161.5 104.5t195.5 36.5q99 0 184.5 -33.5
t150 -97.5t101.5 -163.5t37 -223.5v-104zM344 637h479q0 102 -60 159.5t-165 57.5q-101 0 -169 -55.5t-85 -161.5z" />
    <glyph glyph-name="ecircumflex" unicode="&#xea;" horiz-adv-x="1165" 
d="M1073 451h-735q4 -123 75 -188.5t191 -65.5q81 0 139 30t84 90h238q-40 -163 -172 -251q-133 -89 -299 -89q-103 0 -193.5 35.5t-159.5 102t-109 171t-40 234.5q0 131 40.5 237.5t110.5 174.5t161.5 104.5t195.5 36.5q99 0 184.5 -33.5t150 -97.5t101.5 -163.5t37 -223.5
v-104zM344 637h479q0 102 -60 159.5t-165 57.5q-101 0 -169 -55.5t-85 -161.5zM733 1243l-121 150l-118 -150h-246l297 375h139l295 -375h-246z" />
    <glyph glyph-name="edieresis" unicode="&#xeb;" horiz-adv-x="1165" 
d="M1073 451h-735q4 -123 75 -188.5t191 -65.5q81 0 139 30t84 90h238q-40 -163 -172 -251q-133 -89 -299 -89q-103 0 -193.5 35.5t-159.5 102t-109 171t-40 234.5q0 131 40.5 237.5t110.5 174.5t161.5 104.5t195.5 36.5q99 0 184.5 -33.5t150 -97.5t101.5 -163.5t37 -223.5
v-104zM344 637h479q0 102 -60 159.5t-165 57.5q-101 0 -169 -55.5t-85 -161.5zM311 1243v230h221v-230h-221zM707 1243v230h221v-230h-221z" />
    <glyph glyph-name="igrave" unicode="&#xec;" horiz-adv-x="569" 
d="M158 0v1055h254v-1055h-254zM170 1243l-274 303l198 152l291 -455h-215z" />
    <glyph glyph-name="iacute" unicode="&#xed;" horiz-adv-x="569" 
d="M395 1243h-215l291 455l199 -152zM158 0v1055h254v-1055h-254z" />
    <glyph glyph-name="icircumflex" unicode="&#xee;" horiz-adv-x="569" 
d="M158 0v1055h254v-1055h-254zM406 1243l-121 150l-119 -150h-246l297 375h139l295 -375h-245z" />
    <glyph glyph-name="idieresis" unicode="&#xef;" horiz-adv-x="569" 
d="M158 0v1055h254v-1055h-254zM-23 1243v230h222v-230h-222zM373 1243v230h221v-230h-221z" />
    <glyph glyph-name="eth" unicode="&#xf0;" horiz-adv-x="1243" 
d="M1151 698q0 -182 -45 -323.5t-123 -226.5t-177 -128t-214 -43q-139 0 -253.5 62.5t-180.5 176t-66 255.5q0 140 66 250t174 167.5t237 57.5q110 0 197 -42.5t131 -119.5q2 10 2 47q0 200 -121 312l-123 -103l-73 86l92 78q-41 15 -88 15q-84 0 -140.5 -47.5t-60.5 -127.5
h-256q12 174 138.5 282t312.5 108q155 0 280 -76l146 121v-148l-54 -45q199 -196 199 -588zM854 463q0 109 -70 173t-182 64q-113 0 -183.5 -66t-70.5 -179q0 -110 67.5 -176t176.5 -66q113 0 187.5 68t74.5 182z" />
    <glyph glyph-name="ntilde" unicode="&#xf1;" horiz-adv-x="1253" 
d="M1100 680v-680h-254v657q0 91 -51.5 140t-145.5 49q-112 0 -171.5 -72.5t-59.5 -204.5v-569h-254v1055h252v-154q52 86 127.5 129t193.5 43q178 0 270.5 -101t92.5 -292zM799 1243q-41 0 -74.5 16t-89.5 56q-32 26 -49 35.5t-35 9.5q-27 0 -45 -27.5t-19 -77.5h-149
q0 139 58.5 222.5t150.5 83.5q42 0 77.5 -17t86.5 -57q32 -25 49 -35t33 -10q56 0 65 112h150q-1 -144 -60.5 -227.5t-148.5 -83.5z" />
    <glyph glyph-name="ograve" unicode="&#xf2;" horiz-adv-x="1230" 
d="M1139 526q0 -253 -145 -401t-380 -148t-378.5 148t-143.5 401q0 251 144 399t378 148q233 0 379 -148.5t146 -398.5zM352 526q0 -151 71 -232t195 -81q123 0 192 82t69 231q0 151 -71.5 231.5t-195.5 80.5q-123 0 -191.5 -82t-68.5 -230zM512 1243l-274 303l198 152
l291 -455h-215z" />
    <glyph glyph-name="oacute" unicode="&#xf3;" horiz-adv-x="1230" 
d="M750 1243h-215l290 455l199 -152zM1139 526q0 -253 -145 -401t-380 -148t-378.5 148t-143.5 401q0 251 144 399t378 148q233 0 379 -148.5t146 -398.5zM352 526q0 -151 71 -232t195 -81q123 0 192 82t69 231q0 151 -71.5 231.5t-195.5 80.5q-123 0 -191.5 -82t-68.5 -230
z" />
    <glyph glyph-name="ocircumflex" unicode="&#xf4;" horiz-adv-x="1230" 
d="M1139 526q0 -253 -145 -401t-380 -148t-378.5 148t-143.5 401q0 251 144 399t378 148q233 0 379 -148.5t146 -398.5zM352 526q0 -151 71 -232t195 -81q123 0 192 82t69 231q0 151 -71.5 231.5t-195.5 80.5q-123 0 -191.5 -82t-68.5 -230zM735 1243l-121 150l-118 -150
h-246l297 375h139l295 -375h-246z" />
    <glyph glyph-name="otilde" unicode="&#xf5;" horiz-adv-x="1230" 
d="M1139 526q0 -253 -145 -401t-380 -148t-378.5 148t-143.5 401q0 251 144 399t378 148q233 0 379 -148.5t146 -398.5zM352 526q0 -151 71 -232t195 -81q123 0 192 82t69 231q0 151 -71.5 231.5t-195.5 80.5q-123 0 -191.5 -82t-68.5 -230zM752 1243q-41 0 -74.5 16
t-89.5 56q-32 26 -49 35.5t-35 9.5q-27 0 -45 -27.5t-19 -77.5h-149q0 139 58.5 222.5t150.5 83.5q42 0 77.5 -17t86.5 -57q33 -26 49 -35.5t32 -9.5q57 0 66 112h150q-1 -144 -60.5 -227.5t-148.5 -83.5z" />
    <glyph glyph-name="odieresis" unicode="&#xf6;" horiz-adv-x="1230" 
d="M1139 526q0 -253 -145 -401t-380 -148t-378.5 148t-143.5 401q0 251 144 399t378 148q233 0 379 -148.5t146 -398.5zM352 526q0 -151 71 -232t195 -81q123 0 192 82t69 231q0 151 -71.5 231.5t-195.5 80.5q-123 0 -191.5 -82t-68.5 -230zM307 1243v230h221v-230h-221z
M702 1243v230h222v-230h-222z" />
    <glyph glyph-name="divide" unicode="&#xf7;" 
d="M485 885v266h258v-266h-258zM1047 741v-204h-865v204h865zM485 127v266h258v-266h-258z" />
    <glyph glyph-name="oslash" unicode="&#xf8;" horiz-adv-x="1230" 
d="M1139 526q0 -253 -145 -401t-380 -148q-141 0 -258 60l-129 -178l-133 98l131 180q-133 151 -133 389q0 251 144 399t378 148q138 0 250 -53l109 147l133 -96l-109 -149q142 -145 142 -396zM385 356l334 463q-49 19 -107 19q-123 0 -191.5 -82t-68.5 -230q0 -103 33 -170
zM879 526q0 106 -37 181l-340 -469q55 -25 116 -25q123 0 192 82t69 231z" />
    <glyph glyph-name="ugrave" unicode="&#xf9;" horiz-adv-x="1236" 
d="M1073 1055v-1055h-248v150q-51 -81 -121.5 -121.5t-171.5 -40.5q-174 0 -276 108.5t-102 302.5v656h254v-637q0 -102 48 -153.5t136 -51.5q103 0 165 84t62 248v510h254zM498 1243l-275 303l199 152l291 -455h-215z" />
    <glyph glyph-name="uacute" unicode="&#xfa;" horiz-adv-x="1236" 
d="M1073 1055v-1055h-248v150q-51 -81 -121.5 -121.5t-171.5 -40.5q-174 0 -276 108.5t-102 302.5v656h254v-637q0 -102 48 -153.5t136 -51.5q103 0 165 84t62 248v510h254zM678 1243h-215l291 455l198 -152z" />
    <glyph glyph-name="ucircumflex" unicode="&#xfb;" horiz-adv-x="1236" 
d="M1073 1055v-1055h-248v150q-51 -81 -121.5 -121.5t-171.5 -40.5q-174 0 -276 108.5t-102 302.5v656h254v-637q0 -102 48 -153.5t136 -51.5q103 0 165 84t62 248v510h254zM731 1243l-121 150l-118 -150h-246l297 375h139l295 -375h-246z" />
    <glyph glyph-name="udieresis" unicode="&#xfc;" horiz-adv-x="1236" 
d="M1073 1055v-1055h-248v150q-51 -81 -121.5 -121.5t-171.5 -40.5q-174 0 -276 108.5t-102 302.5v656h254v-637q0 -102 48 -153.5t136 -51.5q103 0 165 84t62 248v510h254zM313 1243v230h222v-230h-222zM709 1243v230h221v-230h-221z" />
    <glyph glyph-name="yacute" unicode="&#xfd;" horiz-adv-x="1110" 
d="M610 1243h-215l291 455l199 -152zM817 1055h262l-428 -1131q-48 -130 -153 -195t-250 -65h-105v225h78q173 0 213 117l2 8l-405 1041h270l260 -736z" />
    <glyph glyph-name="thorn" unicode="&#xfe;" horiz-adv-x="1308" 
d="M1217 541q0 -133 -39.5 -239t-107.5 -173t-156.5 -102t-188.5 -35q-98 0 -178.5 36t-128.5 99v-520h-254v1849h254v-557q42 81 131.5 127.5t200.5 46.5q98 0 182.5 -35t148 -100.5t100 -167.5t36.5 -229zM958 528q0 150 -74.5 232t-195.5 82t-199.5 -83t-78.5 -231
q0 -147 78.5 -229t199.5 -82t195.5 81.5t74.5 229.5z" />
    <glyph glyph-name="ydieresis" unicode="&#xff;" horiz-adv-x="1110" 
d="M817 1055h262l-428 -1131q-48 -130 -153 -195t-250 -65h-105v225h78q173 0 213 117l2 8l-405 1041h270l260 -736zM250 1243v230h221v-230h-221zM645 1243v230h221v-230h-221z" />
    <glyph glyph-name="Amacron" unicode="&#x100;" horiz-adv-x="1540" 
d="M1188 0l-119 317h-606l-119 -317h-283l557 1434h304l557 -1434h-291zM555 567h422l-211 566zM1075 1589h-610v193h610v-193z" />
    <glyph glyph-name="amacron" unicode="&#x101;" horiz-adv-x="1165" 
d="M1012 731v-731h-248v154q-55 -90 -142.5 -133.5t-189.5 -43.5q-138 0 -242 78q-98 79 -98 236q0 273 336 323l213 31q123 18 123 111q0 53 -47.5 80.5t-126.5 27.5q-101 0 -152 -39t-73 -116h-242q30 178 157.5 271t331.5 93q190 0 295 -85t105 -257zM758 442v58
q-40 -16 -135 -31l-107 -16q-170 -21 -170 -142q0 -60 40.5 -91.5t111.5 -31.5q115 0 186 74q74 74 74 180zM907 1243h-610v193h610v-193z" />
    <glyph glyph-name="Abreve" unicode="&#x102;" horiz-adv-x="1540" 
d="M1188 0l-119 317h-606l-119 -317h-283l557 1434h304l557 -1434h-291zM555 567h422l-211 566zM1028 1833q0 -103 -67.5 -173.5t-190.5 -70.5t-190.5 70.5t-67.5 173.5q0 59 18 100h154q-6 -35 -6 -63q0 -119 92 -119t92 119q0 28 -6 63h154q18 -41 18 -100z" />
    <glyph glyph-name="abreve" unicode="&#x103;" horiz-adv-x="1165" 
d="M1012 731v-731h-248v154q-55 -90 -142.5 -133.5t-189.5 -43.5q-138 0 -242 78q-98 79 -98 236q0 273 336 323l213 31q123 18 123 111q0 53 -47.5 80.5t-126.5 27.5q-101 0 -152 -39t-73 -116h-242q30 178 157.5 271t331.5 93q190 0 295 -85t105 -257zM758 442v58
q-40 -16 -135 -31l-107 -16q-170 -21 -170 -142q0 -60 40.5 -91.5t111.5 -31.5q115 0 186 74q74 74 74 180zM868 1487q0 -103 -67.5 -173.5t-190.5 -70.5t-190.5 70.5t-67.5 173.5q0 57 19 100h153q-6 -35 -6 -63q0 -119 92 -119t92 119q0 28 -6 63h154q18 -41 18 -100z" />
    <glyph glyph-name="Aogonek" unicode="&#x104;" horiz-adv-x="1540" 
d="M1413 -219v-127q-118 12 -203 78q-82 64 -82 153q0 76 56 123l-115 309h-606l-119 -317h-283l557 1434h304l557 -1434h-191q-39 -39 -39 -92q0 -55 46.5 -88t117.5 -39zM555 567h422l-211 566z" />
    <glyph glyph-name="aogonek" unicode="&#x105;" horiz-adv-x="1155" 
d="M1012 0h-138q-38 -38 -38 -92q0 -55 46 -88t117 -39v-127q-117 12 -202 78q-82 64 -82 153q0 71 49 117v152q-55 -90 -142.5 -133.5t-189.5 -43.5q-138 0 -242 78q-98 79 -98 236q0 273 336 323l213 31q123 18 123 111q0 53 -47.5 80.5t-126.5 27.5q-101 0 -152 -39
t-73 -116h-242q30 178 157.5 271t331.5 93q190 0 295 -85t105 -257v-731zM758 442v58q-40 -16 -135 -31l-107 -16q-170 -21 -170 -142q0 -60 40.5 -91.5t111.5 -31.5q115 0 186 74q74 74 74 180z" />
    <glyph glyph-name="Cacute" unicode="&#x106;" horiz-adv-x="1550" 
d="M1176 528h272q-10 -179 -100 -309t-230 -193t-313 -63q-158 -2 -291 57.5t-220 163t-135 240.5t-46 289q-2 150 44 285.5t132 241t222.5 167t303.5 59.5q259 0 428 -135q170 -132 197 -375h-273q-12 118 -111.5 189.5t-246.5 71.5q-138 0 -236.5 -68.5t-145 -179.5
t-46.5 -250q0 -143 49.5 -255t147.5 -178.5t231 -66.5q153 0 254 79.5t113 229.5zM940 1589h-211l248 357l199 -136z" />
    <glyph glyph-name="cacute" unicode="&#x107;" horiz-adv-x="1167" 
d="M598 -23q-124 0 -222 43.5t-159 118t-93 171t-32 206.5q0 113 34 213t98.5 177t165.5 122t226 45q198 0 322 -108t131 -291h-250q-5 78 -60 123t-147 45q-129 0 -196.5 -89t-67.5 -235q0 -139 63.5 -222t188.5 -83q91 0 150 44t71 118h254q-25 -189 -152 -293.5
t-325 -104.5zM709 1243h-215l290 455l199 -152z" />
    <glyph glyph-name="Ccircumflex" unicode="&#x108;" horiz-adv-x="1550" 
d="M1176 528h272q-10 -179 -100 -309t-230 -193t-313 -63q-158 -2 -291 57.5t-220 163t-135 240.5t-46 289q-2 150 44 285.5t132 241t222.5 167t303.5 59.5q259 0 428 -135q170 -132 197 -375h-273q-12 118 -111.5 189.5t-246.5 71.5q-138 0 -236.5 -68.5t-145 -179.5
t-46.5 -250q0 -143 49.5 -255t147.5 -178.5t231 -66.5q153 0 254 79.5t113 229.5zM928 1571l-121 149l-119 -149h-246l297 375h140l295 -375h-246z" />
    <glyph glyph-name="ccircumflex" unicode="&#x109;" horiz-adv-x="1167" 
d="M598 -23q-124 0 -222 43.5t-159 118t-93 171t-32 206.5q0 113 34 213t98.5 177t165.5 122t226 45q198 0 322 -108t131 -291h-250q-5 78 -60 123t-147 45q-129 0 -196.5 -89t-67.5 -235q0 -139 63.5 -222t188.5 -83q91 0 150 44t71 118h254q-25 -189 -152 -293.5
t-325 -104.5zM754 1243l-121 150l-119 -150h-246l297 375h140l294 -375h-245z" />
    <glyph glyph-name="Cdotaccent" unicode="&#x10a;" horiz-adv-x="1550" 
d="M1176 528h272q-10 -179 -100 -309t-230 -193t-313 -63q-158 -2 -291 57.5t-220 163t-135 240.5t-46 289q-2 150 44 285.5t132 241t222.5 167t303.5 59.5q259 0 428 -135q170 -132 197 -375h-273q-12 118 -111.5 189.5t-246.5 71.5q-138 0 -236.5 -68.5t-145 -179.5
t-46.5 -250q0 -143 49.5 -255t147.5 -178.5t231 -66.5q153 0 254 79.5t113 229.5zM680 1589v295h287v-295h-287z" />
    <glyph glyph-name="cdotaccent" unicode="&#x10b;" horiz-adv-x="1167" 
d="M598 -23q-124 0 -222 43.5t-159 118t-93 171t-32 206.5q0 113 34 213t98.5 177t165.5 122t226 45q198 0 322 -108t131 -291h-250q-5 78 -60 123t-147 45q-129 0 -196.5 -89t-67.5 -235q0 -139 63.5 -222t188.5 -83q91 0 150 44t71 118h254q-25 -189 -152 -293.5
t-325 -104.5zM459 1241v295h286v-295h-286z" />
    <glyph glyph-name="Ccaron" unicode="&#x10c;" horiz-adv-x="1550" 
d="M1176 528h272q-10 -179 -100 -309t-230 -193t-313 -63q-158 -2 -291 57.5t-220 163t-135 240.5t-46 289q-2 150 44 285.5t132 241t222.5 167t303.5 59.5q259 0 428 -135q170 -132 197 -375h-273q-12 118 -111.5 189.5t-246.5 71.5q-138 0 -236.5 -68.5t-145 -179.5
t-46.5 -250q0 -143 49.5 -255t147.5 -178.5t231 -66.5q153 0 254 79.5t113 229.5zM961 1946h245l-295 -375h-139l-297 375h246l119 -150z" />
    <glyph glyph-name="ccaron" unicode="&#x10d;" horiz-adv-x="1167" 
d="M598 -23q-124 0 -222 43.5t-159 118t-93 171t-32 206.5q0 113 34 213t98.5 177t165.5 122t226 45q198 0 322 -108t131 -291h-250q-5 78 -60 123t-147 45q-129 0 -196.5 -89t-67.5 -235q0 -139 63.5 -222t188.5 -83q91 0 150 44t71 118h254q-25 -189 -152 -293.5
t-325 -104.5zM518 1620l121 -150l119 150h246l-297 -375h-140l-295 375h246z" />
    <glyph glyph-name="Dcaron" unicode="&#x10e;" horiz-adv-x="1501" 
d="M1389 745q1 -114 -29 -222.5t-92.5 -204t-150.5 -167.5t-211.5 -112.5t-266.5 -38.5h-455v1434h488q137 2 254.5 -34.5t202 -101.5t144.5 -152.5t88.5 -189.5t27.5 -211zM1120 745q0 90 -27 168.5t-80 139.5t-138 96t-193 35h-231v-934h190q93 0 172 27t135 73.5
t95 109.5t58 135t19 150zM715 1946h246l-295 -375h-140l-297 375h246l119 -150z" />
    <glyph glyph-name="dcaron" unicode="&#x10f;" horiz-adv-x="1681" 
d="M1149 1456v-1456h-250v162q-42 -87 -131.5 -136t-202.5 -49q-100 0 -185.5 35.5t-150 103.5t-101 174t-36.5 238q0 258 133.5 401.5t339.5 143.5q106 0 194.5 -42t135.5 -116v541h254zM901 528q0 151 -80.5 235.5t-195.5 84.5q-121 0 -198 -85t-77 -235q0 -148 77 -232.5
t198 -84.5q114 0 195 84.5t81 232.5zM1458 1200h-131v268h293v-231q0 -190 -104 -281q-101 -91 -254 -112l-25 139q103 11 162 68.5t59 148.5z" />
    <glyph glyph-name="Dcroat" unicode="&#x110;" horiz-adv-x="1417" 
d="M1305 745q1 -114 -29 -222.5t-92.5 -204t-150.5 -167.5t-211.5 -112.5t-266.5 -38.5h-455v674h-141v110h141v650h488q137 2 254.5 -34.5t202 -101.5t144.5 -152.5t88.5 -189.5t27.5 -211zM1036 745q0 90 -27 168.5t-80 139.5t-138 96t-193 35h-231v-400h315v-110h-315
v-424h190q93 0 172 27t135 73.5t95 109.5t58 135t19 150z" />
    <glyph glyph-name="dslash" unicode="&#x111;" horiz-adv-x="1370" 
d="M1309 1294v-110h-160v-1184h-250v162q-42 -87 -131.5 -136t-202.5 -49q-100 0 -185.5 35.5t-150 103.5t-101 174t-36.5 238q0 258 133.5 401.5t339.5 143.5q106 0 194.5 -42t135.5 -116v269h-195v110h195v162h254v-162h160zM901 528q0 151 -80.5 235.5t-195.5 84.5
q-121 0 -198 -85t-77 -235q0 -148 77 -232.5t198 -84.5q114 0 195 84.5t81 232.5z" />
    <glyph glyph-name="Emacron" unicode="&#x112;" horiz-adv-x="1277" 
d="M1186 0h-1002v1434h963v-250h-696v-334h641v-250h-641v-350h735v-250zM991 1589h-610v193h610v-193z" />
    <glyph glyph-name="emacron" unicode="&#x113;" horiz-adv-x="1165" 
d="M1073 451h-735q4 -123 75 -188.5t191 -65.5q81 0 139 30t84 90h238q-40 -163 -172 -251q-133 -89 -299 -89q-103 0 -193.5 35.5t-159.5 102t-109 171t-40 234.5q0 131 40.5 237.5t110.5 174.5t161.5 104.5t195.5 36.5q99 0 184.5 -33.5t150 -97.5t101.5 -163.5t37 -223.5
v-104zM344 637h479q0 102 -60 159.5t-165 57.5q-101 0 -169 -55.5t-85 -161.5zM918 1243h-611v193h611v-193z" />
    <glyph glyph-name="Ebreve" unicode="&#x114;" horiz-adv-x="1277" 
d="M1186 0h-1002v1434h963v-250h-696v-334h641v-250h-641v-350h735v-250zM946 1833q0 -103 -67.5 -173.5t-190.5 -70.5t-190.5 70.5t-67.5 173.5q0 57 19 100h153q-6 -35 -6 -63q0 -119 92 -119t92 119q0 28 -6 63h154q18 -41 18 -100z" />
    <glyph glyph-name="ebreve" unicode="&#x115;" horiz-adv-x="1165" 
d="M1073 451h-735q4 -123 75 -188.5t191 -65.5q81 0 139 30t84 90h238q-40 -163 -172 -251q-133 -89 -299 -89q-103 0 -193.5 35.5t-159.5 102t-109 171t-40 234.5q0 131 40.5 237.5t110.5 174.5t161.5 104.5t195.5 36.5q99 0 184.5 -33.5t150 -97.5t101.5 -163.5t37 -223.5
v-104zM344 637h479q0 102 -60 159.5t-165 57.5q-101 0 -169 -55.5t-85 -161.5zM850 1487q0 -103 -67.5 -173.5t-190.5 -70.5t-190.5 70.5t-67.5 173.5q0 59 18 100h154q-6 -35 -6 -63q0 -119 92 -119t92 119q0 28 -6 63h153q19 -43 19 -100z" />
    <glyph glyph-name="Edotaccent" unicode="&#x116;" horiz-adv-x="1277" 
d="M1186 0h-1002v1434h963v-250h-696v-334h641v-250h-641v-350h735v-250zM553 1589v295h287v-295h-287z" />
    <glyph glyph-name="edotaccent" unicode="&#x117;" horiz-adv-x="1165" 
d="M1073 451h-735q4 -123 75 -188.5t191 -65.5q81 0 139 30t84 90h238q-40 -163 -172 -251q-133 -89 -299 -89q-103 0 -193.5 35.5t-159.5 102t-109 171t-40 234.5q0 131 40.5 237.5t110.5 174.5t161.5 104.5t195.5 36.5q99 0 184.5 -33.5t150 -97.5t101.5 -163.5t37 -223.5
v-104zM344 637h479q0 102 -60 159.5t-165 57.5q-101 0 -169 -55.5t-85 -161.5zM477 1241v295h287v-295h-287z" />
    <glyph glyph-name="Eogonek" unicode="&#x118;" horiz-adv-x="1277" 
d="M1186 0h-125q-39 -39 -39 -92q0 -55 46.5 -88t117.5 -39v-127q-118 12 -203 78q-82 64 -82 153q0 71 47 115h-764v1434h963v-250h-696v-334h641v-250h-641v-350h735v-250z" />
    <glyph glyph-name="eogonek" unicode="&#x119;" horiz-adv-x="1165" 
d="M1073 555v-104h-735q4 -123 75 -188.5t191 -65.5q81 0 139 30t84 90h238q-40 -163 -172 -251q-133 -89 -299 -89h-12q-21 -30 -21 -69q0 -55 46.5 -88t117.5 -39v-127q-118 12 -203 78q-82 64 -82 153q0 62 37 105q-177 38 -281 175.5t-104 354.5q0 131 40.5 237.5
t110.5 174.5t161.5 104.5t195.5 36.5q99 0 184.5 -33.5t150 -97.5t101.5 -163.5t37 -223.5zM344 637h479q0 102 -60 159.5t-165 57.5q-101 0 -169 -55.5t-85 -161.5z" />
    <glyph glyph-name="Ecaron" unicode="&#x11a;" horiz-adv-x="1277" 
d="M1186 0h-1002v1434h963v-250h-696v-334h641v-250h-641v-350h735v-250zM813 1946h246l-295 -375h-139l-297 375h245l119 -150z" />
    <glyph glyph-name="ecaron" unicode="&#x11b;" horiz-adv-x="1165" 
d="M1073 451h-735q4 -123 75 -188.5t191 -65.5q81 0 139 30t84 90h238q-40 -163 -172 -251q-133 -89 -299 -89q-103 0 -193.5 35.5t-159.5 102t-109 171t-40 234.5q0 131 40.5 237.5t110.5 174.5t161.5 104.5t195.5 36.5q99 0 184.5 -33.5t150 -97.5t101.5 -163.5t37 -223.5
v-104zM344 637h479q0 102 -60 159.5t-165 57.5q-101 0 -169 -55.5t-85 -161.5zM483 1620l121 -150l119 150h246l-297 -375h-140l-294 375h245z" />
    <glyph glyph-name="Gcircumflex" unicode="&#x11c;" horiz-adv-x="1613" 
d="M772 768h668v-768h-248v164q-51 -88 -159 -144.5t-261 -56.5q-194 0 -345 97t-232.5 265.5t-81.5 379.5q-2 153 44 290t132 243.5t222 168t304 59.5q259 0 428 -135q170 -132 197 -375h-273q-12 118 -112.5 189.5t-247.5 71.5q-209 0 -320 -144q-108 -141 -108 -360
q0 -224 115 -363q113 -137 319 -137q155 0 254 79t117 228h-412v248zM942 1571l-121 149l-119 -149h-245l297 375h139l295 -375h-246z" />
    <glyph glyph-name="gcircumflex" unicode="&#x11d;" horiz-adv-x="1282" 
d="M1128 1055v-983q0 -238 -138 -363t-372 -125q-205 0 -346 99q-140 96 -161 284h247q17 -87 87 -131.5t173 -44.5q126 0 196.5 63.5t70.5 184.5v180q-37 -85 -121.5 -132.5t-200.5 -47.5q-97 0 -181.5 32.5t-149.5 95t-102.5 162.5t-37.5 226q0 125 37.5 225.5
t102.5 163.5t149.5 96t181.5 33q111 0 195.5 -45t126.5 -121v148h243zM874 557q0 137 -72 215t-186 78q-122 0 -198 -77.5t-76 -215.5q0 -139 76 -217t198 -78q114 0 186 78t72 217zM758 1243l-121 150l-119 -150h-246l297 375h140l295 -375h-246z" />
    <glyph glyph-name="Gbreve" unicode="&#x11e;" horiz-adv-x="1613" 
d="M772 768h668v-768h-248v164q-51 -88 -159 -144.5t-261 -56.5q-194 0 -345 97t-232.5 265.5t-81.5 379.5q-2 153 44 290t132 243.5t222 168t304 59.5q259 0 428 -135q170 -132 197 -375h-273q-12 118 -112.5 189.5t-247.5 71.5q-209 0 -320 -144q-108 -141 -108 -360
q0 -224 115 -363q113 -137 319 -137q155 0 254 79t117 228h-412v248zM1087 1833q0 -103 -67.5 -173.5t-190.5 -70.5t-190.5 70.5t-67.5 173.5q0 57 19 100h153q-6 -35 -6 -63q0 -119 92 -119q93 0 93 119q0 23 -7 63h154q18 -41 18 -100z" />
    <glyph glyph-name="gbreve" unicode="&#x11f;" horiz-adv-x="1282" 
d="M1128 1055v-983q0 -238 -138 -363t-372 -125q-205 0 -346 99q-140 96 -161 284h247q17 -87 87 -131.5t173 -44.5q126 0 196.5 63.5t70.5 184.5v180q-37 -85 -121.5 -132.5t-200.5 -47.5q-97 0 -181.5 32.5t-149.5 95t-102.5 162.5t-37.5 226q0 125 37.5 225.5
t102.5 163.5t149.5 96t181.5 33q111 0 195.5 -45t126.5 -121v148h243zM874 557q0 137 -72 215t-186 78q-122 0 -198 -77.5t-76 -215.5q0 -139 76 -217t198 -78q114 0 186 78t72 217zM860 1487q0 -103 -67.5 -173.5t-190.5 -70.5t-190.5 70.5t-67.5 173.5q0 59 18 100h154
q-6 -35 -6 -63q0 -119 92 -119t92 119q0 28 -6 63h154q18 -41 18 -100z" />
    <glyph glyph-name="Gdotaccent" unicode="&#x120;" horiz-adv-x="1613" 
d="M772 768h668v-768h-248v164q-51 -88 -159 -144.5t-261 -56.5q-194 0 -345 97t-232.5 265.5t-81.5 379.5q-2 153 44 290t132 243.5t222 168t304 59.5q259 0 428 -135q170 -132 197 -375h-273q-12 118 -112.5 189.5t-247.5 71.5q-209 0 -320 -144q-108 -141 -108 -360
q0 -224 115 -363q113 -137 319 -137q155 0 254 79t117 228h-412v248zM647 1589v295h287v-295h-287z" />
    <glyph glyph-name="gdotaccent" unicode="&#x121;" horiz-adv-x="1282" 
d="M1128 1055v-983q0 -238 -138 -363t-372 -125q-205 0 -346 99q-140 96 -161 284h247q17 -87 87 -131.5t173 -44.5q126 0 196.5 63.5t70.5 184.5v180q-37 -85 -121.5 -132.5t-200.5 -47.5q-97 0 -181.5 32.5t-149.5 95t-102.5 162.5t-37.5 226q0 125 37.5 225.5
t102.5 163.5t149.5 96t181.5 33q111 0 195.5 -45t126.5 -121v148h243zM874 557q0 137 -72 215t-186 78q-122 0 -198 -77.5t-76 -215.5q0 -139 76 -217t198 -78q114 0 186 78t72 217zM440 1241v295h287v-295h-287z" />
    <glyph glyph-name="uni0122" unicode="&#x122;" horiz-adv-x="1613" 
d="M772 768h668v-768h-248v164q-51 -88 -159 -144.5t-261 -56.5q-194 0 -345 97t-232.5 265.5t-81.5 379.5q-2 153 44 290t132 243.5t222 168t304 59.5q259 0 428 -135q170 -132 197 -375h-273q-12 118 -112.5 189.5t-247.5 71.5q-209 0 -320 -144q-108 -141 -108 -360
q0 -224 115 -363q113 -137 319 -137q155 0 254 79t117 228h-412v248zM750 -362h-93v186h205v-162q0 -124 -69.5 -192.5t-182.5 -81.5l-16 96q72 7 114 49t42 105z" />
    <glyph glyph-name="uni0123" unicode="&#x123;" horiz-adv-x="1282" 
d="M565 1425h92v-186h-204v162q0 124 69.5 192.5t182.5 81.5l16 -96q-72 -7 -114 -49t-42 -105zM1128 1055v-983q0 -238 -138 -363t-372 -125q-205 0 -346 99q-140 96 -161 284h247q17 -87 87 -131.5t173 -44.5q126 0 196.5 63.5t70.5 184.5v180q-37 -85 -121.5 -132.5
t-200.5 -47.5q-97 0 -181.5 32.5t-149.5 95t-102.5 162.5t-37.5 226q0 125 37.5 225.5t102.5 163.5t149.5 96t181.5 33q111 0 195.5 -45t126.5 -121v148h243zM874 557q0 137 -72 215t-186 78q-122 0 -198 -77.5t-76 -215.5q0 -139 76 -217t198 -78q114 0 186 78t72 217z" />
    <glyph glyph-name="Hcircumflex" unicode="&#x124;" horiz-adv-x="1550" 
d="M1366 1434v-1434h-266v598h-649v-598h-267v1434h267v-588h649v588h266zM895 1571l-121 149l-119 -149h-245l297 375h139l295 -375h-246z" />
    <glyph glyph-name="hcircumflex" unicode="&#x125;" horiz-adv-x="1255" 
d="M899 1243l-100 123l-99 -123h-202l245 309h115l244 -309h-203zM1100 680v-680h-254v657q0 91 -51.5 140t-145.5 49q-112 0 -171.5 -72.5t-59.5 -204.5v-569h-254v1456h254v-557q52 89 125.5 131.5t193.5 42.5q178 0 270.5 -101t92.5 -292z" />
    <glyph glyph-name="Hbar" unicode="&#x126;" horiz-adv-x="1550" 
d="M1530 1110v-100h-164v-1010h-266v598h-649v-598h-267v1010h-164v100h164v324h267v-324h649v324h266v-324h164zM1100 846v164h-649v-164h649z" />
    <glyph glyph-name="hbar" unicode="&#x127;" horiz-adv-x="1249" 
d="M1096 680v-680h-254v657q0 91 -51.5 140t-145.5 49q-112 0 -171.5 -72.5t-59.5 -204.5v-569h-254v1184h-99v110h99v162h254v-162h198v-110h-198v-285q52 89 125.5 131.5t193.5 42.5q178 0 270.5 -101t92.5 -292z" />
    <glyph glyph-name="Itilde" unicode="&#x128;" horiz-adv-x="653" 
d="M459 1434v-1434h-264v1434h264zM471 1589q-41 0 -74.5 16t-89.5 56q-32 26 -49 35.5t-35 9.5q-26 0 -44 -28t-19 -76h-150q0 139 58.5 222t150.5 83q42 0 77.5 -17t86.5 -57q32 -25 49 -35t33 -10q56 0 65 110h150q-1 -144 -60.5 -226.5t-148.5 -82.5z" />
    <glyph glyph-name="itilde" unicode="&#x129;" horiz-adv-x="569" 
d="M158 0v1055h254v-1055h-254zM416 1243q-41 0 -74.5 16t-89.5 56q-32 26 -49 35.5t-35 9.5q-27 0 -45 -27.5t-19 -77.5h-149q0 139 58.5 222.5t150.5 83.5q42 0 77.5 -17t86.5 -57q32 -25 49 -35t33 -10q56 0 65 112h150q-1 -144 -60.5 -227.5t-148.5 -83.5z" />
    <glyph glyph-name="Imacron" unicode="&#x12a;" horiz-adv-x="653" 
d="M459 1434v-1434h-264v1434h264zM633 1589h-610v193h610v-193z" />
    <glyph glyph-name="imacron" unicode="&#x12b;" horiz-adv-x="569" 
d="M158 0v1055h254v-1055h-254zM590 1243h-610v193h610v-193z" />
    <glyph glyph-name="Iogonek" unicode="&#x12e;" horiz-adv-x="653" 
d="M459 0h-174q-39 -39 -39 -92q0 -55 46.5 -88t117.5 -39v-127q-118 12 -203 78q-82 64 -82 153q0 87 70 133v1416h264v-1434z" />
    <glyph glyph-name="iogonek" unicode="&#x12f;" horiz-adv-x="569" 
d="M150 1483h270v-289h-270v289zM158 14v1041h254v-1055h-158q-39 -39 -39 -92q0 -55 46.5 -88t117.5 -39v-127q-118 12 -203 78q-82 64 -82 153q0 80 64 129z" />
    <glyph glyph-name="Idot" unicode="&#x130;" horiz-adv-x="653" 
d="M459 1434v-1434h-264v1434h264zM184 1589v295h287v-295h-287z" />
    <glyph glyph-name="dotlessi" unicode="&#x131;" horiz-adv-x="569" 
d="M158 0v1055h254v-1055h-254z" />
    <glyph glyph-name="IJ" unicode="&#x132;" horiz-adv-x="1748" 
d="M459 1434v-1434h-264v1434h264zM1585 1434v-992q0 -236 -125 -358q-124 -121 -317 -121q-195 0 -318 117q-120 117 -120 332v116h266v-125q0 -90 44.5 -137t129.5 -47q174 0 174 195v1020h266z" />
    <glyph glyph-name="ij" unicode="&#x133;" horiz-adv-x="1153" 
d="M150 1194v289h270v-289h-270zM158 0v1055h254v-1055h-254zM745 1194v289h271v-289h-271zM754 1055h254v-1104q0 -200 -82 -270q-80 -74 -242 -74h-125v225h86q61 0 85 25.5t24 81.5v1116z" />
    <glyph glyph-name="Jcircumflex" unicode="&#x134;" horiz-adv-x="1095" 
d="M932 1434v-992q0 -236 -125 -358q-124 -121 -318 -121t-317 117q-121 118 -121 332v116h266v-125q0 -90 45 -137t130 -47q174 0 174 195v1020h266zM928 1571l-121 149l-119 -149h-246l297 375h140l295 -375h-246z" />
    <glyph glyph-name="jcircumflex" unicode="&#x135;" horiz-adv-x="583" 
d="M430 1243l-121 150l-119 -150h-245l297 375h139l295 -375h-246zM184 1055h254v-1104q0 -200 -82 -270q-80 -74 -241 -74h-125v225h86q61 0 84.5 25.5t23.5 81.5v1116z" />
    <glyph glyph-name="uni0136" unicode="&#x136;" horiz-adv-x="1431" 
d="M1047 0l-447 637l-149 -156v-481h-267v1434h267v-625l561 625h356l-571 -592l594 -842h-344zM750 -362h-93v186h205v-162q0 -124 -69.5 -192.5t-182.5 -81.5l-16 96q72 7 114 49t42 105z" />
    <glyph glyph-name="uni0137" unicode="&#x137;" horiz-adv-x="1191" 
d="M1161 0h-307l-309 416l-127 -135v-281h-254v1456h254v-848l397 447h330l-428 -457zM586 -362h-92v186h204v-162q0 -124 -69.5 -192.5t-182.5 -81.5l-16 96q72 7 114 49t42 105z" />
    <glyph glyph-name="kgreenlandic" unicode="&#x138;" horiz-adv-x="1191" 
d="M1161 0h-307l-309 416l-127 -135v-281h-254v1055h254v-447l397 447h330l-428 -457z" />
    <glyph glyph-name="Lacute" unicode="&#x139;" horiz-adv-x="1191" 
d="M1130 250v-250h-946v1434h267v-1184h679zM436 1589h-211l248 357l199 -136z" />
    <glyph glyph-name="lacute" unicode="&#x13a;" horiz-adv-x="581" 
d="M418 1456v-1456h-254v1456h254zM406 1589h-211l247 357l199 -136z" />
    <glyph glyph-name="uni013B" unicode="&#x13b;" horiz-adv-x="1191" 
d="M1130 250v-250h-946v1434h267v-1184h679zM606 -362h-92v186h205v-162q0 -124 -69.5 -192.5t-182.5 -81.5l-16 96q72 7 113.5 49t41.5 105z" />
    <glyph glyph-name="uni013C" unicode="&#x13c;" horiz-adv-x="581" 
d="M418 1456v-1456h-254v1456h254zM279 -362h-93v186h205v-162q0 -124 -69.5 -192.5t-182.5 -81.5l-16 96q72 7 114 49t42 105z" />
    <glyph glyph-name="Lcaron" unicode="&#x13d;" horiz-adv-x="1265" 
d="M1130 250v-250h-946v1434h267v-1184h679zM1028 1200h-131v268h293v-231q0 -189 -105 -281q-101 -91 -254 -112l-24 139q103 11 162 68.5t59 148.5z" />
    <glyph glyph-name="lcaron" unicode="&#x13e;" horiz-adv-x="987" 
d="M418 1456v-1456h-254v1456h254zM764 1200h-131v268h293v-231q0 -189 -105 -281q-101 -91 -254 -112l-24 139q103 11 162 68.5t59 148.5z" />
    <glyph glyph-name="Ldot" unicode="&#x13f;" horiz-adv-x="1191" 
d="M1130 250v-250h-946v1434h267v-1184h679zM842 760v295h286v-295h-286z" />
    <glyph glyph-name="ldot" unicode="&#x140;" horiz-adv-x="978" 
d="M418 1456v-1456h-254v1456h254zM631 760v295h287v-295h-287z" />
    <glyph glyph-name="Lslash" unicode="&#x141;" horiz-adv-x="1198" 
d="M457 250h680v-250h-947v524l-210 -110v129l210 110v781h267v-641l323 170v-127l-323 -170v-416z" />
    <glyph glyph-name="lslash" unicode="&#x142;" horiz-adv-x="489" 
d="M489 877v-127l-114 -60v-690h-254v557l-121 -63v127l121 63v772h254v-639z" />
    <glyph glyph-name="Nacute" unicode="&#x143;" horiz-adv-x="1552" 
d="M1368 1434v-1434h-285l-637 1012v-1012h-262v1434h308l614 -985v985h262zM866 1589h-211l248 357l199 -136z" />
    <glyph glyph-name="nacute" unicode="&#x144;" horiz-adv-x="1253" 
d="M1100 680v-680h-254v657q0 91 -51.5 140t-145.5 49q-112 0 -171.5 -72.5t-59.5 -204.5v-569h-254v1055h252v-154q52 86 127.5 129t193.5 43q178 0 270.5 -101t92.5 -292zM815 1243h-215l291 455l199 -152z" />
    <glyph glyph-name="uni0145" unicode="&#x145;" horiz-adv-x="1552" 
d="M1368 1434v-1434h-285l-637 1012v-1012h-262v1434h308l614 -985v985h262zM709 -362h-93v186h205v-162q0 -124 -69.5 -192.5t-182.5 -81.5l-16 96q72 7 114 49t42 105z" />
    <glyph glyph-name="uni0146" unicode="&#x146;" horiz-adv-x="1253" 
d="M1100 680v-680h-254v657q0 91 -51.5 140t-145.5 49q-112 0 -171.5 -72.5t-59.5 -204.5v-569h-254v1055h252v-154q52 86 127.5 129t193.5 43q178 0 270.5 -101t92.5 -292zM606 -362h-92v186h205v-162q0 -124 -69.5 -192.5t-182.5 -81.5l-16 96q72 7 113.5 49t41.5 105z
" />
    <glyph glyph-name="Ncaron" unicode="&#x147;" horiz-adv-x="1552" 
d="M1368 1434v-1434h-285l-637 1012v-1012h-262v1434h308l614 -985v985h262zM881 1946h245l-295 -375h-139l-297 375h246l119 -150z" />
    <glyph glyph-name="ncaron" unicode="&#x148;" horiz-adv-x="1253" 
d="M1100 680v-680h-254v657q0 91 -51.5 140t-145.5 49q-112 0 -171.5 -72.5t-59.5 -204.5v-569h-254v1055h252v-154q52 86 127.5 129t193.5 43q178 0 270.5 -101t92.5 -292zM555 1620l121 -150l119 150h245l-297 -375h-139l-295 375h246z" />
    <glyph glyph-name="napostrophe" unicode="&#x149;" horiz-adv-x="1679" 
d="M1526 680v-680h-254v657q0 91 -51.5 140t-145.5 49q-112 0 -171.5 -72.5t-59.5 -204.5v-569h-254v1055h252v-154q52 86 127.5 129t193.5 43q178 0 270.5 -101t92.5 -292zM283 1200h-131v268h292v-231q0 -190 -104 -281q-101 -91 -254 -112l-25 139q103 11 162.5 68.5
t59.5 148.5z" />
    <glyph glyph-name="Eng" unicode="&#x14a;" horiz-adv-x="1552" 
d="M1106 1434h262v-1483q0 -200 -82 -270q-80 -74 -242 -74h-124v225h86q61 0 83.5 25t22.5 82v61l-666 1012v-1012h-262v1434h308l614 -940v940z" />
    <glyph glyph-name="eng" unicode="&#x14b;" horiz-adv-x="1236" 
d="M1100 680v-729q0 -200 -82 -270q-80 -74 -242 -74h-125v225h86q61 0 85 25.5t24 81.5v718q0 91 -51.5 140t-145.5 49q-112 0 -171.5 -72.5t-59.5 -204.5v-569h-254v1055h252v-154q52 86 127.5 129t193.5 43q178 0 270.5 -101t92.5 -292z" />
    <glyph glyph-name="Omacron" unicode="&#x14c;" horiz-adv-x="1660" 
d="M1550 715q1 -155 -51.5 -294.5t-145.5 -241t-229 -160t-293 -56.5q-157 -2 -292.5 56.5t-229 160.5t-145.5 241t-51 294q-1 155 51 294.5t145.5 241.5t229 160.5t292.5 56.5q157 2 293 -56.5t229 -160.5t145.5 -241.5t51.5 -294.5zM1280 715q0 219 -122.5 358t-326.5 139
t-326 -139t-122 -358q0 -220 122 -358t326 -138t326.5 138t122.5 358zM1137 1589h-611v193h611v-193z" />
    <glyph glyph-name="omacron" unicode="&#x14d;" horiz-adv-x="1230" 
d="M1139 526q0 -253 -145 -401t-380 -148t-378.5 148t-143.5 401q0 251 144 399t378 148q233 0 379 -148.5t146 -398.5zM352 526q0 -151 71 -232t195 -81q123 0 192 82t69 231q0 151 -71.5 231.5t-195.5 80.5q-123 0 -191.5 -82t-68.5 -230zM922 1243h-611v193h611v-193z
" />
    <glyph glyph-name="Obreve" unicode="&#x14e;" horiz-adv-x="1660" 
d="M1550 715q1 -155 -51.5 -294.5t-145.5 -241t-229 -160t-293 -56.5q-157 -2 -292.5 56.5t-229 160.5t-145.5 241t-51 294q-1 155 51 294.5t145.5 241.5t229 160.5t292.5 56.5q157 2 293 -56.5t229 -160.5t145.5 -241.5t51.5 -294.5zM1280 715q0 219 -122.5 358t-326.5 139
t-326 -139t-122 -358q0 -220 122 -358t326 -138t326.5 138t122.5 358zM1090 1833q0 -103 -68 -173.5t-191 -70.5t-190.5 70.5t-67.5 173.5q0 57 19 100h153q-6 -35 -6 -63q0 -119 92 -119q93 0 93 119q0 28 -6 63h153q19 -43 19 -100z" />
    <glyph glyph-name="obreve" unicode="&#x14f;" horiz-adv-x="1230" 
d="M1139 526q0 -253 -145 -401t-380 -148t-378.5 148t-143.5 401q0 251 144 399t378 148q233 0 379 -148.5t146 -398.5zM352 526q0 -151 71 -232t195 -81q123 0 192 82t69 231q0 151 -71.5 231.5t-195.5 80.5q-123 0 -191.5 -82t-68.5 -230zM874 1487q0 -103 -67.5 -173.5
t-190.5 -70.5t-190.5 70.5t-67.5 173.5q0 57 19 100h153q-6 -35 -6 -63q0 -119 92 -119q93 0 93 119q0 23 -7 63h154q18 -41 18 -100z" />
    <glyph glyph-name="Ohungarumlaut" unicode="&#x150;" horiz-adv-x="1660" 
d="M1550 715q1 -155 -51.5 -294.5t-145.5 -241t-229 -160t-293 -56.5q-157 -2 -292.5 56.5t-229 160.5t-145.5 241t-51 294q-1 155 51 294.5t145.5 241.5t229 160.5t292.5 56.5q157 2 293 -56.5t229 -160.5t145.5 -241.5t51.5 -294.5zM1280 715q0 219 -122.5 358t-326.5 139
t-326 -139t-122 -358q0 -220 122 -358t326 -138t326.5 138t122.5 358zM885 1911l-111 -322h-135l86 322h160zM1145 1911l-109 -322h-137l86 322h160z" />
    <glyph glyph-name="ohungarumlaut" unicode="&#x151;" horiz-adv-x="1230" 
d="M1139 526q0 -253 -145 -401t-380 -148t-378.5 148t-143.5 401q0 251 144 399t378 148q233 0 379 -148.5t146 -398.5zM352 526q0 -151 71 -232t195 -81q123 0 192 82t69 231q0 151 -71.5 231.5t-195.5 80.5q-123 0 -191.5 -82t-68.5 -230zM680 1565l-111 -322h-135l86 322
h160zM940 1565l-109 -322h-137l86 322h160z" />
    <glyph glyph-name="OE" unicode="&#x152;" horiz-adv-x="2285" 
d="M2193 250v-250h-1124q-107 -37 -233 -37q-153 -2 -289 58t-231.5 162.5t-150 242t-52.5 291.5q-2 151 52 289.5t148 241.5t230 163t288 57q122 0 228 -34h1098v-250h-754q105 -144 135 -334h563v-250h-561q-24 -194 -135 -350h788zM1278 721q0 213 -121 352t-321 139
q-204 0 -328.5 -141t-124.5 -360q0 -213 123 -352.5t325 -139.5q201 0 324 141.5t123 360.5z" />
    <glyph glyph-name="oe" unicode="&#x153;" horiz-adv-x="1951" 
d="M1860 555v-104h-736q4 -123 75.5 -188.5t191.5 -65.5q81 0 139 30t84 90h237q-40 -163 -172 -251q-133 -89 -299 -89q-240 0 -374 175q-136 -175 -392 -175q-235 0 -378.5 148t-143.5 401q0 251 144 399t378 148q258 0 396 -176q66 86 163 131t213 45q99 0 184.5 -33.5
t150.5 -97.5t102 -163.5t37 -223.5zM1130 637h480q0 102 -60.5 159.5t-165.5 57.5q-101 0 -169 -55.5t-85 -161.5zM879 526q0 151 -71.5 231.5t-195.5 80.5q-123 0 -191.5 -82t-68.5 -230q0 -151 71 -232t195 -81q123 0 192 82t69 231z" />
    <glyph glyph-name="Racute" unicode="&#x154;" horiz-adv-x="1404" 
d="M965 618l389 -618h-305l-359 571h-241v-571h-265v1434h590q114 0 206.5 -35t150 -94t88 -133t30.5 -156q0 -137 -76 -246.5t-208 -151.5zM449 815h317q101 0 159 55t58 140q0 77 -49.5 125.5t-147.5 48.5h-337v-369zM758 1589h-211l248 357l198 -136z" />
    <glyph glyph-name="racute" unicode="&#x155;" horiz-adv-x="811" 
d="M760 1067v-248h-68q-274 0 -274 -303v-516h-254v1055h252v-156q76 168 274 168h70zM555 1243h-215l291 455l198 -152z" />
    <glyph glyph-name="uni0156" unicode="&#x156;" horiz-adv-x="1404" 
d="M965 618l389 -618h-305l-359 571h-241v-571h-265v1434h590q114 0 206.5 -35t150 -94t88 -133t30.5 -156q0 -137 -76 -246.5t-208 -151.5zM449 815h317q101 0 159 55t58 140q0 77 -49.5 125.5t-147.5 48.5h-337v-369zM688 -362h-92v186h205v-162q0 -124 -69.5 -192.5
t-182.5 -81.5l-17 96q72 7 114 49t42 105z" />
    <glyph glyph-name="uni0157" unicode="&#x157;" horiz-adv-x="811" 
d="M760 1067v-248h-68q-274 0 -274 -303v-516h-254v1055h252v-156q76 168 274 168h70zM279 -362h-93v186h205v-162q0 -124 -69.5 -192.5t-182.5 -81.5l-16 96q72 7 114 49t42 105z" />
    <glyph glyph-name="Rcaron" unicode="&#x158;" horiz-adv-x="1404" 
d="M965 618l389 -618h-305l-359 571h-241v-571h-265v1434h590q114 0 206.5 -35t150 -94t88 -133t30.5 -156q0 -137 -76 -246.5t-208 -151.5zM449 815h317q101 0 159 55t58 140q0 77 -49.5 125.5t-147.5 48.5h-337v-369zM766 1946h246l-295 -375h-139l-297 375h245l119 -150z
" />
    <glyph glyph-name="rcaron" unicode="&#x159;" horiz-adv-x="811" 
d="M760 1067v-248h-68q-274 0 -274 -303v-516h-254v1055h252v-156q76 168 274 168h70zM326 1620l120 -150l119 150h246l-297 -375h-139l-295 375h246z" />
    <glyph glyph-name="Sacute" unicode="&#x15a;" horiz-adv-x="1320" 
d="M692 -37q-93 0 -179.5 21t-161 64.5t-130 105t-87.5 147.5t-32 186h267q6 -143 95.5 -220t225.5 -77q111 0 186.5 54.5t75.5 140.5q0 68 -45 107q-41 38 -102 57q-80 25 -182 47q-139 35 -238 74q-108 45 -176 135t-68 223q0 138 72.5 239.5t191.5 151t269 49.5
q231 0 377 -116q149 -116 149 -340h-268q-11 223 -266 223q-124 0 -193.5 -47.5t-69.5 -138.5q2 -41 16.5 -71t36.5 -51t62.5 -38.5t81 -28.5t105.5 -26q150 -33 251 -70q100 -37 179 -121q84 -90 84 -242q0 -135 -71.5 -236t-190 -151.5t-265.5 -50.5zM756 1589h-211
l248 357l198 -136z" />
    <glyph glyph-name="sacute" unicode="&#x15b;" horiz-adv-x="1083" 
d="M1001 328q0 -172 -129 -260q-133 -91 -317 -91q-185 0 -324 89q-137 88 -149 272h256q12 -74 72.5 -113t156.5 -39q88 0 136.5 29.5t48.5 85.5q0 46 -38 66t-157 41q-147 25 -231 51q-95 29 -153 96.5t-58 181.5q0 171 118 252q122 84 302 84q194 0 313 -93.5t129 -262.5
h-248q-15 145 -192 145q-85 0 -130 -32t-45 -85t48 -75t174 -41q128 -19 217 -43q89 -26 144.5 -88.5t55.5 -169.5zM635 1243h-215l291 455l198 -152z" />
    <glyph glyph-name="Scircumflex" unicode="&#x15c;" horiz-adv-x="1320" 
d="M692 -37q-93 0 -179.5 21t-161 64.5t-130 105t-87.5 147.5t-32 186h267q6 -143 95.5 -220t225.5 -77q111 0 186.5 54.5t75.5 140.5q0 68 -45 107q-41 38 -102 57q-80 25 -182 47q-139 35 -238 74q-108 45 -176 135t-68 223q0 138 72.5 239.5t191.5 151t269 49.5
q231 0 377 -116q149 -116 149 -340h-268q-11 223 -266 223q-124 0 -193.5 -47.5t-69.5 -138.5q2 -41 16.5 -71t36.5 -51t62.5 -38.5t81 -28.5t105.5 -26q150 -33 251 -70q100 -37 179 -121q84 -90 84 -242q0 -135 -71.5 -236t-190 -151.5t-265.5 -50.5zM788 1571l-120 149
l-119 -149h-246l297 375h139l295 -375h-246z" />
    <glyph glyph-name="scircumflex" unicode="&#x15d;" horiz-adv-x="1083" 
d="M1001 328q0 -172 -129 -260q-133 -91 -317 -91q-185 0 -324 89q-137 88 -149 272h256q12 -74 72.5 -113t156.5 -39q88 0 136.5 29.5t48.5 85.5q0 46 -38 66t-157 41q-147 25 -231 51q-95 29 -153 96.5t-58 181.5q0 171 118 252q122 84 302 84q194 0 313 -93.5t129 -262.5
h-248q-15 145 -192 145q-85 0 -130 -32t-45 -85t48 -75t174 -41q128 -19 217 -43q89 -26 144.5 -88.5t55.5 -169.5zM674 1243l-121 150l-119 -150h-246l297 375h140l295 -375h-246z" />
    <glyph glyph-name="Scedilla" unicode="&#x15e;" horiz-adv-x="1320" 
d="M745 -35v-59q94 -6 149.5 -48.5t55.5 -111.5q0 -75 -60 -123.5t-161 -48.5q-125 0 -213 76l66 92q74 -51 139 -51q42 0 67 17t25 42q0 76 -184 76v139q-108 10 -202 47.5t-167.5 101.5t-115.5 160t-42 213h267q6 -143 95.5 -220t225.5 -77q111 0 186.5 54.5t75.5 140.5
q0 68 -45 107q-41 38 -102 57q-80 25 -182 47q-139 35 -238 74q-108 45 -176 135t-68 223q0 138 72.5 239.5t191.5 151t269 49.5q231 0 377 -116q149 -116 149 -340h-268q-11 223 -266 223q-124 0 -193.5 -47.5t-69.5 -138.5q2 -41 16.5 -71t36.5 -51t62.5 -38.5t81 -28.5
t105.5 -26q150 -33 251 -70q100 -37 179 -121q84 -90 84 -242q0 -192 -136 -307q-132 -114 -338 -129z" />
    <glyph glyph-name="scedilla" unicode="&#x15f;" horiz-adv-x="1083" 
d="M633 -18v-76q94 -6 149.5 -48.5t55.5 -111.5q0 -75 -60.5 -123.5t-161.5 -48.5q-125 0 -213 76l66 92q74 -51 139 -51q42 0 67 17t25 42q0 76 -184 76v151q-170 9 -299 99q-123 89 -135 262h256q12 -74 72.5 -113t156.5 -39q88 0 136.5 29.5t48.5 85.5q0 46 -38 66
t-157 41q-147 25 -231 51q-95 29 -153 96.5t-58 181.5q0 171 118 252q122 84 302 84q194 0 313 -93.5t129 -262.5h-248q-15 145 -192 145q-85 0 -130 -32t-45 -85t48 -75t174 -41q128 -19 217 -43q89 -26 144.5 -88.5t55.5 -169.5q0 -148 -100.5 -237.5t-267.5 -108.5z" />
    <glyph glyph-name="Scaron" unicode="&#x160;" horiz-adv-x="1320" 
d="M692 -37q-93 0 -179.5 21t-161 64.5t-130 105t-87.5 147.5t-32 186h267q6 -143 95.5 -220t225.5 -77q111 0 186.5 54.5t75.5 140.5q0 68 -45 107q-41 38 -102 57q-80 25 -182 47q-139 35 -238 74q-108 45 -176 135t-68 223q0 138 72.5 239.5t191.5 151t269 49.5
q231 0 377 -116q149 -116 149 -340h-268q-11 223 -266 223q-124 0 -193.5 -47.5t-69.5 -138.5q2 -41 16.5 -71t36.5 -51t62.5 -38.5t81 -28.5t105.5 -26q150 -33 251 -70q100 -37 179 -121q84 -90 84 -242q0 -135 -71.5 -236t-190 -151.5t-265.5 -50.5zM782 1946h246
l-295 -375h-139l-297 375h246l119 -150z" />
    <glyph glyph-name="scaron" unicode="&#x161;" horiz-adv-x="1083" 
d="M1001 328q0 -172 -129 -260q-133 -91 -317 -91q-185 0 -324 89q-137 88 -149 272h256q12 -74 72.5 -113t156.5 -39q88 0 136.5 29.5t48.5 85.5q0 46 -38 66t-157 41q-147 25 -231 51q-95 29 -153 96.5t-58 181.5q0 171 118 252q122 84 302 84q194 0 313 -93.5t129 -262.5
h-248q-15 145 -192 145q-85 0 -130 -32t-45 -85t48 -75t174 -41q128 -19 217 -43q89 -26 144.5 -88.5t55.5 -169.5zM438 1620l121 -150l119 150h246l-297 -375h-140l-294 375h245z" />
    <glyph glyph-name="uni0162" unicode="&#x162;" horiz-adv-x="1261" 
d="M760 0h-148v-94q94 -6 149.5 -48.5t55.5 -111.5q0 -75 -60 -123.5t-161 -48.5q-125 0 -213 76l66 92q74 -51 139 -51q42 0 67 17t25 42q0 76 -184 76v1358h-465v250h1200v-250h-471v-1184z" />
    <glyph glyph-name="uni0163" unicode="&#x163;" horiz-adv-x="784" 
d="M717 -233q0 -75 -60 -124t-161 -49q-125 0 -213 76l65 92q74 -51 139 -51q42 0 67.5 17.5t25.5 42.5q0 75 -185 75v172q-88 27 -130 103.5t-42 220.5v483h-192v230h192v237l254 70v-307h211v-230h-211v-473q0 -65 28 -96t99 -31h109v-225h-166h-35v-74q95 -6 150 -48.5
t55 -110.5z" />
    <glyph glyph-name="Tcaron" unicode="&#x164;" horiz-adv-x="1261" 
d="M1231 1434v-250h-471v-1184h-264v1184h-465v250h1200zM752 1946h245l-295 -375h-139l-297 375h246l119 -150z" />
    <glyph glyph-name="tcaron" unicode="&#x165;" 
d="M713 225v-225h-166q-84 0 -140.5 15t-100 52.5t-63.5 105t-20 169.5v483h-192v230h192v237l254 70v-307h211v-230h-211v-473q0 -65 28 -96t99 -31h109zM1006 1165h-132v269h293v-232q0 -189 -104 -280q-102 -92 -254 -113l-25 139q103 11 162.5 68.5t59.5 148.5z" />
    <glyph glyph-name="Tbar" unicode="&#x166;" horiz-adv-x="1261" 
d="M1231 1184h-471v-264h313v-103h-313v-817h-264v817h-308v103h308v264h-465v250h1200v-250z" />
    <glyph glyph-name="tbar" unicode="&#x167;" horiz-adv-x="784" 
d="M604 225h109v-225h-166q-84 0 -140.5 15t-100 52.5t-63.5 105t-20 169.5v100h-192v230h192v153h-192v230h192v237l254 70v-307h211v-230h-211v-153h211v-230h-211v-90q0 -65 28 -96t99 -31z" />
    <glyph glyph-name="Utilde" unicode="&#x168;" horiz-adv-x="1482" 
d="M1057 1434h262v-885q0 -283 -153 -434.5t-423 -151.5t-424.5 151.5t-154.5 434.5v885h264v-873q0 -164 86.5 -254t237.5 -90q145 0 225 82t80 238v897zM858 1589q-41 0 -74.5 16t-89.5 56q-32 26 -49 35.5t-35 9.5q-26 0 -44 -28t-19 -76h-150q0 139 58.5 222t150.5 83
q42 0 77.5 -17t86.5 -57q32 -25 49 -35t33 -10q57 0 66 110h149q-1 -144 -60.5 -226.5t-148.5 -82.5z" />
    <glyph glyph-name="utilde" unicode="&#x169;" horiz-adv-x="1236" 
d="M1073 1055v-1055h-248v150q-51 -81 -121.5 -121.5t-171.5 -40.5q-174 0 -276 108.5t-102 302.5v656h254v-637q0 -102 48 -153.5t136 -51.5q103 0 165 84t62 248v510h254zM764 1243q-41 0 -74.5 16t-89.5 56q-32 26 -49 35.5t-35 9.5q-27 0 -44.5 -27.5t-18.5 -77.5h-150
q0 139 58.5 222.5t150.5 83.5q42 0 77.5 -17t86.5 -57q32 -25 49 -35t33 -10q56 0 65 112h150q-1 -144 -60.5 -227.5t-148.5 -83.5z" />
    <glyph glyph-name="Umacron" unicode="&#x16a;" horiz-adv-x="1482" 
d="M1057 1434h262v-885q0 -283 -153 -434.5t-423 -151.5t-424.5 151.5t-154.5 434.5v885h264v-873q0 -164 86.5 -254t237.5 -90q145 0 225 82t80 238v897zM1047 1589h-611v193h611v-193z" />
    <glyph glyph-name="umacron" unicode="&#x16b;" horiz-adv-x="1236" 
d="M1073 1055v-1055h-248v150q-51 -81 -121.5 -121.5t-171.5 -40.5q-174 0 -276 108.5t-102 302.5v656h254v-637q0 -102 48 -153.5t136 -51.5q103 0 165 84t62 248v510h254zM932 1243h-610v193h610v-193z" />
    <glyph glyph-name="Ubreve" unicode="&#x16c;" horiz-adv-x="1482" 
d="M1057 1434h262v-885q0 -283 -153 -434.5t-423 -151.5t-424.5 151.5t-154.5 434.5v885h264v-873q0 -164 86.5 -254t237.5 -90q145 0 225 82t80 238v897zM999 1833q0 -103 -67.5 -173.5t-190.5 -70.5t-190.5 70.5t-67.5 173.5q0 57 19 100h153q-6 -35 -6 -63
q0 -119 92 -119q93 0 93 119q0 23 -7 63h154q18 -41 18 -100z" />
    <glyph glyph-name="ubreve" unicode="&#x16d;" horiz-adv-x="1236" 
d="M1073 1055v-1055h-248v150q-51 -81 -121.5 -121.5t-171.5 -40.5q-174 0 -276 108.5t-102 302.5v656h254v-637q0 -102 48 -153.5t136 -51.5q103 0 165 84t62 248v510h254zM866 1487q0 -103 -67.5 -173.5t-190.5 -70.5t-190.5 70.5t-67.5 173.5q0 57 19 100h153
q-6 -35 -6 -63q0 -119 92 -119t92 119q0 28 -6 63h154q18 -41 18 -100z" />
    <glyph glyph-name="Uring" unicode="&#x16e;" horiz-adv-x="1482" 
d="M1057 1434h262v-885q0 -283 -153 -434.5t-423 -151.5t-424.5 151.5t-154.5 434.5v885h264v-873q0 -164 86.5 -254t237.5 -90q145 0 225 82t80 238v897zM739 1946q92 0 152.5 -59.5t60.5 -151.5q0 -93 -60 -153t-153 -60q-91 0 -150 60.5t-59 152.5t59 151.5t150 59.5z
M741 1843q-47 0 -75.5 -30t-28.5 -78q0 -50 27.5 -80.5t76.5 -30.5q47 0 76 30.5t29 80.5q0 48 -29 78t-76 30z" />
    <glyph glyph-name="uring" unicode="&#x16f;" horiz-adv-x="1236" 
d="M1073 1055v-1055h-248v150q-51 -81 -121.5 -121.5t-171.5 -40.5q-174 0 -276 108.5t-102 302.5v656h254v-637q0 -102 48 -153.5t136 -51.5q103 0 165 84t62 248v510h254zM610 1720q104 0 171 -67t67 -172q0 -103 -67 -170.5t-171 -67.5q-100 0 -166.5 67.5t-66.5 170.5
q0 105 66 172t167 67zM612 1583q-46 0 -73 -28.5t-27 -73.5q0 -46 27 -75.5t73 -29.5t73.5 30t27.5 75t-27.5 73.5t-73.5 28.5z" />
    <glyph glyph-name="Uhungarumlaut" unicode="&#x170;" horiz-adv-x="1482" 
d="M1057 1434h262v-885q0 -283 -153 -434.5t-423 -151.5t-424.5 151.5t-154.5 434.5v885h264v-873q0 -164 86.5 -254t237.5 -90q145 0 225 82t80 238v897zM770 1911l-111 -322h-135l86 322h160zM1030 1911l-108 -322h-138l86 322h160z" />
    <glyph glyph-name="uhungarumlaut" unicode="&#x171;" horiz-adv-x="1236" 
d="M1073 1055v-1055h-248v150q-51 -81 -121.5 -121.5t-171.5 -40.5q-174 0 -276 108.5t-102 302.5v656h254v-637q0 -102 48 -153.5t136 -51.5q103 0 165 84t62 248v510h254zM666 1565l-111 -322h-135l86 322h160zM926 1565l-109 -322h-137l86 322h160z" />
    <glyph glyph-name="Uogonek" unicode="&#x172;" horiz-adv-x="1482" 
d="M1057 1434h262v-885q0 -283 -153 -434.5t-423 -151.5h-8q-12 -24 -12 -55q0 -55 46.5 -88t117.5 -39v-127q-118 12 -203 78q-82 64 -82 153q0 47 25 86q-220 33 -341.5 180.5t-121.5 397.5v885h264v-873q0 -164 86.5 -254t237.5 -90q145 0 225 82t80 238v897z" />
    <glyph glyph-name="uogonek" unicode="&#x173;" horiz-adv-x="1236" 
d="M1073 0h-153q-39 -39 -39 -92q0 -55 46 -88t117 -39v-127q-117 12 -202 78q-82 64 -82 153q0 78 65 131v134q-51 -81 -121.5 -121.5t-171.5 -40.5q-174 0 -276 108.5t-102 302.5v656h254v-637q0 -102 48 -153.5t136 -51.5q103 0 165 84t62 248v510h254v-1055z" />
    <glyph glyph-name="Wcircumflex" unicode="&#x174;" horiz-adv-x="2062" 
d="M2001 1434l-391 -1434h-262l-316 1047l-315 -1047h-264l-392 1434h283l252 -1022l309 1022h262l310 -1024l252 1024h272zM1151 1571l-121 149l-119 -149h-245l297 375h139l295 -375h-246z" />
    <glyph glyph-name="wcircumflex" unicode="&#x175;" horiz-adv-x="1759" 
d="M1718 1055l-366 -1055h-244l-229 684l-228 -684h-245l-365 1055h270l224 -715l225 715h248l227 -715l221 715h262zM999 1243l-120 150l-119 -150h-246l297 375h139l295 -375h-246z" />
    <glyph glyph-name="Ycircumflex" unicode="&#x176;" horiz-adv-x="1402" 
d="M1055 1434h297l-516 -889v-545h-269v545l-516 889h305l351 -648zM821 1571l-121 149l-118 -149h-246l297 375h139l295 -375h-246z" />
    <glyph glyph-name="ycircumflex" unicode="&#x177;" horiz-adv-x="1110" 
d="M817 1055h262l-428 -1131q-48 -130 -153 -195t-250 -65h-105v225h78q173 0 213 117l2 8l-405 1041h270l260 -736zM672 1243l-121 150l-119 -150h-246l297 375h140l295 -375h-246z" />
    <glyph glyph-name="Ydieresis" unicode="&#x178;" horiz-adv-x="1402" 
d="M1055 1434h297l-516 -889v-545h-269v545l-516 889h305l351 -648zM393 1589v230h221v-230h-221zM788 1589v230h222v-230h-222z" />
    <glyph glyph-name="Zacute" unicode="&#x179;" horiz-adv-x="1355" 
d="M1264 250v-250h-1151v250l780 934h-756v250h1086v-250l-777 -934h818zM758 1589h-211l248 357l198 -136z" />
    <glyph glyph-name="zacute" unicode="&#x17a;" horiz-adv-x="1097" 
d="M993 221v-221h-891v221l566 613h-555v221h882v-221l-567 -613h565zM639 1243h-215l291 455l198 -152z" />
    <glyph glyph-name="Zdotaccent" unicode="&#x17b;" horiz-adv-x="1355" 
d="M1264 250v-250h-1151v250l780 934h-756v250h1086v-250l-777 -934h818zM537 1589v295h286v-295h-286z" />
    <glyph glyph-name="zdotaccent" unicode="&#x17c;" horiz-adv-x="1097" 
d="M993 221v-221h-891v221l566 613h-555v221h882v-221l-567 -613h565zM422 1241v295h287v-295h-287z" />
    <glyph glyph-name="Zcaron" unicode="&#x17d;" horiz-adv-x="1355" 
d="M1264 250v-250h-1151v250l780 934h-756v250h1086v-250l-777 -934h818zM797 1946h245l-294 -375h-140l-297 375h246l119 -150z" />
    <glyph glyph-name="zcaron" unicode="&#x17e;" horiz-adv-x="1097" 
d="M993 221v-221h-891v221l566 613h-555v221h882v-221l-567 -613h565zM461 1620l121 -150l118 150h246l-297 -375h-139l-295 375h246z" />
    <glyph glyph-name="longs" unicode="&#x17f;" horiz-adv-x="735" 
d="M694 1231h-114q-61 0 -84 -25.5t-23 -81.5v-1124h-254v825h-158v230h158v57q0 101 20.5 169t63 106t99.5 53.5t139 15.5h153v-225z" />
    <glyph glyph-name="florin" unicode="&#x192;" horiz-adv-x="1095" 
d="M754 1120l-17 -65h201l-53 -230h-201l-129 -553q-34 -147 -109 -209.5t-198 -62.5h-187l52 225h86q51 0 76.5 22.5t37.5 76.5l117 501h-151l53 230h151l35 149q30 132 111 192t215 60h211l-54 -225h-124q-56 0 -82.5 -24.5t-40.5 -86.5z" />
    <glyph glyph-name="Aringacute" unicode="&#x1fa;" horiz-adv-x="1540" 
d="M866 1968h-168l199 285l158 -109zM768 1907q88 0 145.5 -56.5t57.5 -144.5t-57.5 -145.5t-145.5 -57.5q-86 0 -142.5 57.5t-56.5 145.5t56.5 144.5t142.5 56.5zM770 1808q-46 0 -73 -28.5t-27 -73.5q0 -48 26.5 -77.5t73.5 -29.5q44 0 71 29.5t27 77.5q0 43 -28 72.5
t-70 29.5zM1188 0l-119 317h-606l-119 -317h-283l557 1434h304l557 -1434h-291zM555 567h422l-211 566z" />
    <glyph glyph-name="aringacute" unicode="&#x1fb;" horiz-adv-x="1155" 
d="M721 1610h-191l224 321l178 -121zM618 1522q85 0 138 -53t53 -138t-53 -137.5t-138 -52.5q-81 0 -134.5 53t-53.5 137t54 137.5t134 53.5zM621 1430q-42 0 -68.5 -28t-26.5 -71t26.5 -70.5t68.5 -27.5t68 27.5t26 70.5t-26 71t-68 28zM1012 731v-731h-248v154
q-55 -90 -142.5 -133.5t-189.5 -43.5q-138 0 -242 78q-98 79 -98 236q0 273 336 323l213 31q123 18 123 111q0 53 -47.5 80.5t-126.5 27.5q-101 0 -152 -39t-73 -116h-242q30 178 157.5 271t331.5 93q190 0 295 -85t105 -257zM758 442v58q-40 -16 -135 -31l-107 -16
q-170 -21 -170 -142q0 -60 40.5 -91.5t111.5 -31.5q115 0 186 74q74 74 74 180z" />
    <glyph glyph-name="AEacute" unicode="&#x1fc;" horiz-adv-x="2131" 
d="M1305 250h735v-250h-1002v346h-503l-175 -346h-299l746 1434h1194v-250h-696v-334h641v-250h-641v-350zM659 594h379v590h-82zM1296 1589h-211l248 357l199 -136z" />
    <glyph glyph-name="aeacute" unicode="&#x1fd;" horiz-adv-x="1826" 
d="M1739 555v-104h-735q4 -123 75 -188.5t191 -65.5q81 0 139 30t84 90h238q-40 -163 -172 -251q-133 -89 -299 -89q-136 0 -239.5 61t-160.5 177q-77 -142 -194 -190q-121 -48 -234 -48q-138 0 -242 78q-98 79 -98 236q0 273 336 323l213 31q123 18 123 111
q0 53 -46.5 80.5t-123.5 27.5q-98 0 -147.5 -39t-71.5 -116h-242q30 178 157 271t326 93q234 0 322 -131q122 131 328 131q99 0 184.5 -33.5t150 -97.5t101.5 -163.5t37 -223.5zM1010 637h479q0 102 -60 159.5t-165 57.5q-101 0 -169 -55.5t-85 -161.5zM758 442v58
q-40 -16 -135 -31l-107 -16q-170 -21 -170 -142q0 -60 40.5 -91.5t111.5 -31.5q115 0 186 74q74 74 74 180zM1014 1243h-215l291 455l198 -152z" />
    <glyph glyph-name="Oslashacute" unicode="&#x1fe;" horiz-adv-x="1660" 
d="M1550 715q1 -155 -51.5 -294.5t-145.5 -241t-229 -160t-293 -56.5q-224 0 -395 109l-141 -195l-133 98l147 203q-196 208 -196 537q-1 155 51 294.5t145.5 241.5t229 160.5t292.5 56.5q192 0 351 -84l127 175l133 -99l-125 -172q112 -103 172.5 -251.5t60.5 -321.5z
M471 401l557 770q-90 41 -197 41q-204 0 -326 -139t-122 -358q0 -186 88 -314zM1280 715q0 223 -121 356l-569 -786q104 -66 241 -66q204 0 326.5 138t122.5 358zM948 1589h-211l248 357l199 -136z" />
    <glyph glyph-name="oslashacute" unicode="&#x1ff;" horiz-adv-x="1230" 
d="M1139 526q0 -253 -145 -401t-380 -148q-141 0 -258 60l-129 -178l-133 98l131 180q-133 151 -133 389q0 251 144 399t378 148q138 0 250 -53l109 147l133 -96l-109 -149q142 -145 142 -396zM385 356l334 463q-49 19 -107 19q-123 0 -191.5 -82t-68.5 -230q0 -103 33 -170
zM879 526q0 106 -37 181l-340 -469q55 -25 116 -25q123 0 192 82t69 231zM686 1243h-215l291 455l199 -152z" />
    <glyph glyph-name="uni0218" unicode="&#x218;" horiz-adv-x="1320" 
d="M692 -37q-93 0 -179.5 21t-161 64.5t-130 105t-87.5 147.5t-32 186h267q6 -143 95.5 -220t225.5 -77q111 0 186.5 54.5t75.5 140.5q0 68 -45 107q-41 38 -102 57q-80 25 -182 47q-139 35 -238 74q-108 45 -176 135t-68 223q0 138 72.5 239.5t191.5 151t269 49.5
q231 0 377 -116q149 -116 149 -340h-268q-11 223 -266 223q-124 0 -193.5 -47.5t-69.5 -138.5q2 -41 16.5 -71t36.5 -51t62.5 -38.5t81 -28.5t105.5 -26q150 -33 251 -70q100 -37 179 -121q84 -90 84 -242q0 -135 -71.5 -236t-190 -151.5t-265.5 -50.5zM668 -362h-93v186
h205v-162q0 -124 -69.5 -192.5t-182.5 -81.5l-16 96q72 7 114 49t42 105z" />
    <glyph glyph-name="uni0219" unicode="&#x219;" horiz-adv-x="1083" 
d="M1001 328q0 -172 -129 -260q-133 -91 -317 -91q-185 0 -324 89q-137 88 -149 272h256q12 -74 72.5 -113t156.5 -39q88 0 136.5 29.5t48.5 85.5q0 46 -38 66t-157 41q-147 25 -231 51q-95 29 -153 96.5t-58 181.5q0 171 118 252q122 84 302 84q194 0 313 -93.5t129 -262.5
h-248q-15 145 -192 145q-85 0 -130 -32t-45 -85t48 -75t174 -41q128 -19 217 -43q89 -26 144.5 -88.5t55.5 -169.5zM565 -362h-92v186h205v-162q0 -124 -69.5 -192.5t-182.5 -81.5l-16 96q72 7 113.5 49t41.5 105z" />
    <glyph glyph-name="uni021A" unicode="&#x21a;" horiz-adv-x="1261" 
d="M1231 1434v-250h-471v-1184h-264v1184h-465v250h1200zM627 -362h-92v186h204v-162q0 -124 -69.5 -192.5t-182.5 -81.5l-16 96q72 7 114 49t42 105z" />
    <glyph glyph-name="uni021B" unicode="&#x21b;" horiz-adv-x="784" 
d="M713 225v-225h-166q-84 0 -140.5 15t-100 52.5t-63.5 105t-20 169.5v483h-192v230h192v237l254 70v-307h211v-230h-211v-473q0 -65 28 -96t99 -31h109zM463 -362h-92v186h204v-162q0 -124 -69 -192.5t-182 -81.5l-17 96q72 7 114 49t42 105z" />
    <glyph glyph-name="circumflex" unicode="&#x2c6;" horiz-adv-x="731" 
d="M485 1243l-120 150l-119 -150h-246l297 375h139l295 -375h-246z" />
    <glyph glyph-name="caron" unicode="&#x2c7;" horiz-adv-x="731" 
d="M246 1620l121 -150l118 150h246l-297 -375h-139l-295 375h246z" />
    <glyph glyph-name="uni02C9" unicode="&#x2c9;" horiz-adv-x="610" 
d="M610 1591h-610v193h610v-193z" />
    <glyph glyph-name="breve" unicode="&#x2d8;" horiz-adv-x="516" 
d="M516 1487q0 -103 -67.5 -173.5t-190.5 -70.5t-190.5 70.5t-67.5 173.5q0 59 18 100h154q-6 -35 -6 -63q0 -119 92 -119t92 119q0 28 -6 63h154q18 -41 18 -100z" />
    <glyph glyph-name="dotaccent" unicode="&#x2d9;" horiz-adv-x="286" 
d="M0 1241v295h287v-295h-287z" />
    <glyph glyph-name="ring" unicode="&#x2da;" horiz-adv-x="471" 
d="M233 1720q105 0 171.5 -67t66.5 -172q0 -103 -67 -170.5t-171 -67.5q-100 0 -166.5 67.5t-66.5 170.5q0 105 66 172t167 67zM236 1583q-46 0 -73.5 -28.5t-27.5 -73.5t27.5 -75t73.5 -30t73 29.5t27 75.5q0 45 -27 73.5t-73 28.5z" />
    <glyph glyph-name="ogonek" unicode="&#x2db;" horiz-adv-x="284" 
d="M285 -219v-127q-118 12 -203 78q-82 64 -82 153q0 44 20.5 81t55.5 57h110q-65 -50 -65 -115q0 -55 46.5 -88t117.5 -39z" />
    <glyph glyph-name="tilde" unicode="&#x2dc;" horiz-adv-x="669" 
d="M461 1243q-41 0 -74.5 16t-89.5 56q-32 26 -49 35.5t-35 9.5q-27 0 -44.5 -27.5t-18.5 -77.5h-150q0 139 58.5 222.5t150.5 83.5q42 0 77.5 -17t86.5 -57q32 -25 49 -35t33 -10q56 0 65 112h150q-1 -144 -60.5 -227.5t-148.5 -83.5z" />
    <glyph glyph-name="hungarumlaut" unicode="&#x2dd;" horiz-adv-x="505" 
d="M246 1565l-111 -322h-135l86 322h160zM506 1565l-109 -322h-137l86 322h160z" />
    <glyph glyph-name="uni0394" unicode="&#x394;" horiz-adv-x="1470" 
d="M1409 250v-250h-1348v250l541 1184h266zM330 250h807l-404 889z" />
    <glyph glyph-name="uni0394" unicode="&#x3b4;" horiz-adv-x="1470" 
d="M1409 250v-250h-1348v250l541 1184h266zM330 250h807l-404 889z" />
    <glyph glyph-name="uni03A9" unicode="&#x3a9;" horiz-adv-x="1619" 
d="M1065 213h293v-213h-479v453q165 37 259.5 147.5t94.5 263.5q0 175 -121.5 277t-300.5 102t-300.5 -102t-121.5 -277q0 -153 93.5 -264t258.5 -147v-453h-477v213h293v78q-192 58 -319 203q-125 146 -125 366q0 96 26.5 185t83 166t138 134t197 90t253.5 33t253.5 -33
t196.5 -90t137 -134.5t82.5 -165.5t26.5 -185q0 -223 -125 -366q-127 -146 -317 -203v-78z" />
    <glyph glyph-name="uni03A9" unicode="&#x3c9;" horiz-adv-x="1619" 
d="M1065 213h293v-213h-479v453q165 37 259.5 147.5t94.5 263.5q0 175 -121.5 277t-300.5 102t-300.5 -102t-121.5 -277q0 -153 93.5 -264t258.5 -147v-453h-477v213h293v78q-192 58 -319 203q-125 146 -125 366q0 96 26.5 185t83 166t138 134t197 90t253.5 33t253.5 -33
t196.5 -90t137 -134.5t82.5 -165.5t26.5 -185q0 -223 -125 -366q-127 -146 -317 -203v-78z" />
    <glyph glyph-name="uni03BC" unicode="&#x3bc;" horiz-adv-x="1284" 
d="M1182 219v-219h-119q-72 0 -125 32.5t-70 86.5q-57 -74 -128 -108t-169 -34q-86 0 -153 37v-407h-254v1448h254v-619q0 -116 46 -174.5t132 -58.5q94 0 150.5 71t56.5 199v582h250v-750q0 -86 73 -86h56z" />
    <glyph glyph-name="pi" unicode="&#x3c0;" horiz-adv-x="1214" 
d="M936 850v-477q0 -90 40.5 -127t129.5 -37h88v-209h-172q-141 0 -242 70q-100 69 -100 295v483h-207v-848h-268v848h-185v207h791q125 0 228 20t155 53v-219q-90 -47 -258 -59z" />
    <glyph glyph-name="uni1E02" unicode="&#x1e02;" horiz-adv-x="1396" 
d="M811 0h-627v1434h654q91 0 167.5 -29.5t125 -79.5t75.5 -113t27 -131q0 -103 -58 -187t-169 -124q143 -48 215.5 -143t72.5 -213q0 -81 -33.5 -155.5t-94.5 -132t-153 -92t-202 -34.5zM449 858h315q89 0 143 50t54 120q0 65 -51 110.5t-136 45.5h-325v-326zM1024 449
q0 76 -60 129t-159 53h-356v-381h337q109 0 173.5 58t64.5 141zM483 1589v295h287v-295h-287z" />
    <glyph glyph-name="uni1E03" unicode="&#x1e03;" horiz-adv-x="1310" 
d="M1219 528q0 -131 -38.5 -236.5t-105 -173.5t-153.5 -104.5t-187 -36.5q-104 0 -190 39.5t-133 110.5v-127h-248v1456h254v-557q42 81 131.5 127.5t200.5 46.5q99 0 184 -35.5t148.5 -103t100 -172t36.5 -234.5zM961 522q0 150 -76.5 235t-196.5 85q-116 0 -197 -85
t-81 -235q0 -151 81 -235t197 -84q121 0 197 84.5t76 234.5zM621 1241v295h286v-295h-286z" />
    <glyph glyph-name="uni1E0A" unicode="&#x1e0a;" horiz-adv-x="1501" 
d="M1389 745q1 -114 -29 -222.5t-92.5 -204t-150.5 -167.5t-211.5 -112.5t-266.5 -38.5h-455v1434h488q137 2 254.5 -34.5t202 -101.5t144.5 -152.5t88.5 -189.5t27.5 -211zM1120 745q0 90 -27 168.5t-80 139.5t-138 96t-193 35h-231v-934h190q93 0 172 27t135 73.5
t95 109.5t58 135t19 150zM463 1589v295h287v-295h-287z" />
    <glyph glyph-name="uni1E0B" unicode="&#x1e0b;" horiz-adv-x="1312" 
d="M1149 1456v-1456h-250v162q-42 -87 -131.5 -136t-202.5 -49q-100 0 -185.5 35.5t-150 103.5t-101 174t-36.5 238q0 258 133.5 401.5t339.5 143.5q106 0 194.5 -42t135.5 -116v541h254zM901 528q0 151 -80.5 235.5t-195.5 84.5q-121 0 -198 -85t-77 -235q0 -148 77 -232.5
t198 -84.5q114 0 195 84.5t81 232.5zM342 1241v295h287v-295h-287z" />
    <glyph glyph-name="uni1E1E" unicode="&#x1e1e;" horiz-adv-x="1177" 
d="M451 600v-600h-267v1434h963v-250h-696v-334h641v-250h-641zM561 1589v295h287v-295h-287z" />
    <glyph glyph-name="uni1E1F" unicode="&#x1e1f;" horiz-adv-x="714" 
d="M694 1231h-114q-61 0 -84 -25.5t-23 -81.5v-69h195v-230h-195v-825h-254v825h-158v230h158v57q0 101 20.5 169t63 106t99.5 53.5t139 15.5h153v-225zM285 1589v295h286v-295h-286z" />
    <glyph glyph-name="uni1E40" unicode="&#x1e40;" horiz-adv-x="1839" 
d="M1655 1434v-1434h-250v1010l-369 -1010h-239l-369 1010v-1010h-244v1434h338l398 -1096l397 1096h338zM776 1589v295h287v-295h-287z" />
    <glyph glyph-name="uni1E41" unicode="&#x1e41;" horiz-adv-x="1820" 
d="M1667 711v-711h-254v662q0 182 -168 182q-96 0 -149.5 -63t-53.5 -189v-592h-254v662q0 182 -170 182q-94 0 -147 -64t-53 -186v-594h-254v1055h250v-156q31 78 101 126t175 48t181.5 -45t113.5 -129q94 174 311 174q172 0 271.5 -96t99.5 -266zM791 1241v295h286v-295
h-286z" />
    <glyph glyph-name="uni1E56" unicode="&#x1e56;" horiz-adv-x="1329" 
d="M1257 995q0 -96 -33.5 -180.5t-95 -148.5t-157 -101t-211.5 -37h-311v-528h-265v1434h602q112 0 202.5 -34.5t148.5 -95t89 -139.5t31 -170zM989 981q0 94 -54.5 148.5t-156.5 54.5h-329v-408h319q107 0 164 55.5t57 149.5zM500 1589v295h286v-295h-286z" />
    <glyph glyph-name="uni1E57" unicode="&#x1e57;" horiz-adv-x="1308" 
d="M1217 541q0 -133 -39.5 -239t-107.5 -173t-156.5 -102t-188.5 -35q-98 0 -178.5 36t-128.5 99v-520h-254v1448h248v-168q38 86 129.5 136t208.5 50q98 0 182.5 -35t148 -100.5t100 -167.5t36.5 -229zM958 528q0 150 -74.5 232t-195.5 82t-199.5 -83t-78.5 -231
q0 -147 78.5 -229t199.5 -82t195.5 81.5t74.5 229.5zM600 1241v295h287v-295h-287z" />
    <glyph glyph-name="uni1E60" unicode="&#x1e60;" horiz-adv-x="1320" 
d="M692 -37q-93 0 -179.5 21t-161 64.5t-130 105t-87.5 147.5t-32 186h267q6 -143 95.5 -220t225.5 -77q111 0 186.5 54.5t75.5 140.5q0 68 -45 107q-41 38 -102 57q-80 25 -182 47q-139 35 -238 74q-108 45 -176 135t-68 223q0 138 72.5 239.5t191.5 151t269 49.5
q231 0 377 -116q149 -116 149 -340h-268q-11 223 -266 223q-124 0 -193.5 -47.5t-69.5 -138.5q2 -41 16.5 -71t36.5 -51t62.5 -38.5t81 -28.5t105.5 -26q150 -33 251 -70q100 -37 179 -121q84 -90 84 -242q0 -135 -71.5 -236t-190 -151.5t-265.5 -50.5zM518 1589v295h287
v-295h-287z" />
    <glyph glyph-name="uni1E61" unicode="&#x1e61;" horiz-adv-x="1083" 
d="M1001 328q0 -172 -129 -260q-133 -91 -317 -91q-185 0 -324 89q-137 88 -149 272h256q12 -74 72.5 -113t156.5 -39q88 0 136.5 29.5t48.5 85.5q0 46 -38 66t-157 41q-147 25 -231 51q-95 29 -153 96.5t-58 181.5q0 171 118 252q122 84 302 84q194 0 313 -93.5t129 -262.5
h-248q-15 145 -192 145q-85 0 -130 -32t-45 -85t48 -75t174 -41q128 -19 217 -43q89 -26 144.5 -88.5t55.5 -169.5zM426 1241v295h287v-295h-287z" />
    <glyph glyph-name="uni1E6A" unicode="&#x1e6a;" horiz-adv-x="1261" 
d="M1231 1434v-250h-471v-1184h-264v1184h-465v250h1200zM487 1589v295h287v-295h-287z" />
    <glyph glyph-name="uni1E6B" unicode="&#x1e6b;" horiz-adv-x="784" 
d="M713 225v-225h-166q-84 0 -140.5 15t-100 52.5t-63.5 105t-20 169.5v483h-192v230h192v237l254 70v-307h211v-230h-211v-473q0 -65 28 -96t99 -31h109zM219 1434v295h287v-295h-287z" />
    <glyph glyph-name="Wgrave" unicode="&#x1e80;" horiz-adv-x="2062" 
d="M2001 1434l-391 -1434h-262l-316 1047l-315 -1047h-264l-392 1434h283l252 -1022l309 1022h262l310 -1024l252 1024h272zM918 1589l-236 221l199 136l247 -357h-210z" />
    <glyph glyph-name="wgrave" unicode="&#x1e81;" horiz-adv-x="1759" 
d="M1718 1055l-366 -1055h-244l-229 684l-228 -684h-245l-365 1055h270l224 -715l225 715h248l227 -715l221 715h262zM748 1243l-275 303l199 152l291 -455h-215z" />
    <glyph glyph-name="Wacute" unicode="&#x1e82;" horiz-adv-x="2062" 
d="M2001 1434l-391 -1434h-262l-316 1047l-315 -1047h-264l-392 1434h283l252 -1022l309 1022h262l310 -1024l252 1024h272zM1155 1589h-211l248 357l199 -136z" />
    <glyph glyph-name="wacute" unicode="&#x1e83;" horiz-adv-x="1759" 
d="M1718 1055l-366 -1055h-244l-229 684l-228 -684h-245l-365 1055h270l224 -715l225 715h248l227 -715l221 715h262zM987 1243h-215l291 455l199 -152z" />
    <glyph glyph-name="Wdieresis" unicode="&#x1e84;" horiz-adv-x="2062" 
d="M2001 1434l-391 -1434h-262l-316 1047l-315 -1047h-264l-392 1434h283l252 -1022l309 1022h262l310 -1024l252 1024h272zM723 1589v230h221v-230h-221zM1118 1589v230h221v-230h-221z" />
    <glyph glyph-name="wdieresis" unicode="&#x1e85;" horiz-adv-x="1759" 
d="M1718 1055l-366 -1055h-244l-229 684l-228 -684h-245l-365 1055h270l224 -715l225 715h248l227 -715l221 715h262zM571 1243v230h222v-230h-222zM967 1243v230h221v-230h-221z" />
    <glyph glyph-name="Ygrave" unicode="&#x1ef2;" horiz-adv-x="1402" 
d="M1055 1434h297l-516 -889v-545h-269v545l-516 889h305l351 -648zM592 1589l-236 221l199 136l248 -357h-211z" />
    <glyph glyph-name="ygrave" unicode="&#x1ef3;" horiz-adv-x="1110" 
d="M817 1055h262l-428 -1131q-48 -130 -153 -195t-250 -65h-105v225h78q173 0 213 117l2 8l-405 1041h270l260 -736zM473 1241l-274 303l198 152l291 -455h-215z" />
    <glyph glyph-name="endash" unicode="&#x2013;" horiz-adv-x="1118" 
d="M1036 436h-954v226h954v-226z" />
    <glyph glyph-name="emdash" unicode="&#x2014;" horiz-adv-x="2074" 
d="M1993 436h-1911v226h1911v-226z" />
    <glyph glyph-name="quoteleft" unicode="&#x2018;" horiz-adv-x="505" 
d="M223 1167h131v-268h-293v231q0 189 103 281q105 92 256 113l24 -140q-103 -11 -162 -68.5t-59 -148.5z" />
    <glyph glyph-name="quoteright" unicode="&#x2019;" horiz-adv-x="505" 
d="M283 1247h-131v269h292v-232q0 -189 -104 -280q-102 -92 -254 -113l-25 139q103 11 162.5 68.5t59.5 148.5z" />
    <glyph glyph-name="quotesinglbase" unicode="&#x201a;" horiz-adv-x="505" 
d="M283 16h-131v269h292v-232q0 -189 -104 -280q-102 -92 -254 -113l-25 139q103 11 162.5 68.5t59.5 148.5z" />
    <glyph glyph-name="quotedblleft" unicode="&#x201c;" horiz-adv-x="983" 
d="M223 1167h131v-268h-293v231q0 189 103 281q105 92 256 113l24 -140q-103 -11 -162 -68.5t-59 -148.5zM700 1167h131v-268h-292v231q0 190 102 281q105 92 256 113l25 -140q-103 -11 -162.5 -68.5t-59.5 -148.5z" />
    <glyph glyph-name="quotedblright" unicode="&#x201d;" horiz-adv-x="983" 
d="M283 1247h-131v269h292v-232q0 -189 -104 -280q-102 -92 -254 -113l-25 139q103 11 162.5 68.5t59.5 148.5zM760 1247h-131v269h293v-232q0 -188 -105 -280q-102 -92 -254 -113l-24 139q103 11 162 68.5t59 148.5z" />
    <glyph glyph-name="quotedblbase" unicode="&#x201e;" horiz-adv-x="983" 
d="M283 16h-131v269h292v-232q0 -189 -104 -280q-102 -92 -254 -113l-25 139q103 11 162.5 68.5t59.5 148.5zM760 16h-131v269h293v-232q0 -189 -105 -280q-102 -92 -254 -113l-24 139q103 11 162 68.5t59 148.5z" />
    <glyph glyph-name="dagger" unicode="&#x2020;" horiz-adv-x="1081" 
d="M426 805h-344v215h344v414h229v-414h344v-215h-344v-995h-229v995z" />
    <glyph glyph-name="daggerdbl" unicode="&#x2021;" horiz-adv-x="1081" 
d="M999 805h-344v-367h344v-215h-344v-413h-229v413h-344v215h344v367h-344v215h344v414h229v-414h344v-215z" />
    <glyph glyph-name="bullet" unicode="&#x2022;" horiz-adv-x="563" 
d="M102 369v370h359v-370h-359z" />
    <glyph glyph-name="ellipsis" unicode="&#x2026;" horiz-adv-x="2095" 
d="M195 0v295h286v-295h-286zM862 0v295h287v-295h-287zM1532 0v295h287v-295h-287z" />
    <glyph glyph-name="perthousand" unicode="&#x2030;" horiz-adv-x="2641" 
d="M2191 690q162 0 265.5 -100.5t103.5 -261.5t-103.5 -263t-265.5 -102q-154 0 -256 102.5t-102 262.5t102 261t256 101zM2195 520q-82 0 -131 -52t-49 -138q0 -88 49 -141.5t131 -53.5q80 0 131.5 54.5t51.5 140.5q0 85 -51.5 137.5t-131.5 52.5zM440 1481
q162 0 265.5 -101t103.5 -262t-103.5 -262.5t-265.5 -101.5q-154 0 -256 102t-102 262t102 261.5t256 101.5zM1444 1434l-895 -1434h-209l895 1434h209zM444 1311q-82 0 -131 -52.5t-49 -138.5q0 -88 49 -141t131 -53q80 0 131.5 54t51.5 140q0 85 -51.5 138t-131.5 53z
M1366 690q162 0 265.5 -100.5t103.5 -261.5t-103.5 -263t-265.5 -102q-154 0 -256 102.5t-102 262.5t102 261t256 101zM1370 520q-82 0 -131 -52t-49 -138q0 -88 49 -141.5t131 -53.5q80 0 131 54.5t51 140.5q0 85 -51 137.5t-131 52.5z" />
    <glyph glyph-name="guilsinglleft" unicode="&#x2039;" horiz-adv-x="759" 
d="M348 582l258 -291l-141 -133l-373 424l373 422l141 -134z" />
    <glyph glyph-name="guilsinglright" unicode="&#x203a;" horiz-adv-x="759" 
d="M412 582l-258 288l141 134l373 -422l-373 -424l-141 133z" />
    <glyph glyph-name="fraction" unicode="&#x2044;" horiz-adv-x="1363" 
d="M1221 1434l-848 -1434h-230l848 1434h230z" />
    <glyph glyph-name="Euro" unicode="&#x20ac;" horiz-adv-x="1292" 
d="M1010 483h241q0 -156 -69.5 -272t-187.5 -175t-267 -59q-443 0 -520 510h-166v125h154q-2 23 -2 99q0 79 2 102h-154v125h168q77 496 530 496q228 0 365 -125q139 -124 139 -361h-239q0 281 -273 281q-127 0 -195 -72t-92 -219h424v-125h-434q-2 -20 -2 -96q0 -82 2 -105
h434v-125h-422q25 -152 96 -226.5t201 -74.5q267 0 267 297z" />
    <glyph glyph-name="uni2113" unicode="&#x2113;" horiz-adv-x="860" 
d="M301 188q0 -69 53 -69q83 0 215 172l45 -39q-183 -275 -378 -275q-91 0 -143 50t-52 133q0 43 14 92l117 504l-127 -68l25 107l123 63l67 285q35 151 133.5 232t220.5 81q92 0 148.5 -46t56.5 -140q0 -190 -260 -336l-108 -62l-138 -600q-12 -52 -12 -84zM473 983l16 8
q220 109 220 266q0 103 -74 103t-98 -113z" />
    <glyph glyph-name="uni2116" unicode="&#x2116;" horiz-adv-x="2344" 
d="M1368 1434v-1434h-285l-637 1012v-1012h-262v1434h308l614 -985v985h262zM1915 1468q162 0 265.5 -100.5t103.5 -261.5t-103.5 -263t-265.5 -102q-154 0 -256.5 102.5t-102.5 262.5q0 159 102.5 260.5t256.5 101.5zM1919 1298q-82 0 -131 -52t-49 -138q0 -88 49 -141.5
t131 -53.5q80 0 131 54.5t51 140.5q0 85 -51 137.5t-131 52.5z" />
    <glyph glyph-name="trademark" unicode="&#x2122;" horiz-adv-x="1564" 
d="M113 1225v116h567v-116h-221v-480h-125v480h-221zM1257 1341h195v-596h-125v465l-184 -465h-99l-184 465v-465h-119v596h195l160 -430z" />
    <glyph glyph-name="estimated" unicode="&#x212e;" horiz-adv-x="1005" 
d="M817 289h88q-20 -149 -124 -230.5t-257 -81.5q-91 0 -168.5 31t-136.5 90.5t-93 155t-34 217.5q0 123 34 221.5t92.5 160t135 94t164.5 32.5q109 0 197 -46t143 -140.5t55 -223.5q0 -64 -6 -98h-659v-248q86 -164 284 -164q242 0 285 230zM248 559h491v229
q-77 109 -221 109q-85 0 -157 -39t-113 -108v-191z" />
    <glyph glyph-name="uni2153" unicode="&#x2153;" horiz-adv-x="2306" 
d="M1755 1434l-848 -1434h-229l848 1434h229zM623 737h239v-184h-678v184h240v418q-100 -50 -211 -53v184q149 15 246 121h164v-670zM2122 238q0 -119 -90.5 -186.5t-239.5 -67.5q-154 0 -244 76t-90 221h203q0 -61 34.5 -88t102.5 -27q54 0 86.5 23t32.5 59q0 29 -11.5 49
t-33.5 29t-45.5 12.5t-54.5 3.5h-62v172h57q63 0 96 27t33 77q0 33 -27 53.5t-77 20.5q-59 0 -92 -30t-33 -89h-201q0 161 103 232q104 72 239 72q131 0 213 -65.5t82 -174.5q0 -72 -38.5 -125.5t-96.5 -73.5q154 -56 154 -200z" />
    <glyph glyph-name="uni2154" unicode="&#x2154;" horiz-adv-x="2250" 
d="M2066 238q0 -119 -90 -186.5t-239 -67.5q-154 0 -244 76t-90 221h203q0 -61 34.5 -88t102.5 -27q54 0 86.5 23t32.5 59q0 39 -22.5 60.5t-51.5 27.5t-72 6h-61v172h57q63 0 96 27t33 77q0 33 -27 53.5t-77 20.5q-59 0 -92 -30t-33 -89h-201q0 161 102 232q104 72 240 72
q131 0 213 -65.5t82 -174.5q0 -72 -38.5 -125.5t-96.5 -73.5q153 -56 153 -200zM1714 1434l-848 -1434h-229l848 1434h229zM848 741v-186h-639v176l180 148l62 51q104 85 143 131q37 40 37 88q0 47 -29 73.5t-80 26.5q-63 0 -100 -38t-37 -113h-201q0 159 103 248
q101 88 252 88q136 0 216.5 -69t80.5 -194q0 -64 -29 -124q-27 -52 -68 -93.5t-131 -113.5l-41 -33l-82 -66h363z" />
    <glyph glyph-name="uni2155" unicode="&#x2155;" horiz-adv-x="2230" 
d="M1757 1434l-848 -1434h-229l848 1434h229zM623 737h239v-184h-678v184h240v418q-100 -50 -211 -53v184q149 15 246 121h164v-670zM2046 289q0 -132 -90 -219q-89 -86 -234 -86q-134 0 -225 73q-92 77 -92 215h203q0 -55 28 -85.5t82 -30.5q58 0 90.5 32t32.5 97
q0 62 -31.5 95.5t-83.5 33.5q-62 0 -102 -49h-197l76 487h504v-188h-358l-25 -158q55 61 158 61q113 0 188.5 -76t75.5 -202z" />
    <glyph glyph-name="uni2156" unicode="&#x2156;" horiz-adv-x="2185" 
d="M1712 1434l-848 -1434h-229l848 1434h229zM2001 289q0 -132 -90 -219q-89 -86 -234 -86q-134 0 -225 73q-92 77 -92 215h203q0 -55 28 -85.5t82 -30.5q59 0 91 32t32 97q0 62 -31.5 95.5t-83.5 33.5q-62 0 -102 -49h-197l76 487h504v-188h-358l-25 -158q55 61 158 61
q113 0 188.5 -76t75.5 -202zM848 741v-186h-639v176l180 148l62 51q104 85 143 131q37 40 37 88q0 47 -29 73.5t-80 26.5q-63 0 -100 -38t-37 -113h-201q0 159 103 248q101 88 252 88q136 0 216.5 -69t80.5 -194q0 -64 -29 -124q-27 -52 -68 -93.5t-131 -113.5l-41 -33
l-82 -66h363z" />
    <glyph glyph-name="uni2157" unicode="&#x2157;" horiz-adv-x="2162" 
d="M1669 1434l-848 -1434h-229l848 1434h229zM1978 289q0 -132 -90 -219q-89 -86 -233 -86q-134 0 -225 73q-93 78 -93 215h203q0 -55 28 -85.5t83 -30.5q59 0 91 32t32 97q0 62 -31.5 95.5t-83.5 33.5q-63 0 -103 -49h-196l76 487h503v-188h-358l-25 -158q55 61 158 61
q113 0 188.5 -76t75.5 -202zM848 795q0 -119 -90.5 -186.5t-239.5 -67.5q-154 0 -244 76t-90 221h203q0 -61 34.5 -88t102.5 -27q54 0 86.5 23t32.5 59q0 29 -11.5 49t-33.5 29t-45.5 12.5t-54.5 3.5h-62v172h58q62 0 95.5 27.5t33.5 77.5q0 33 -27.5 53t-77.5 20
q-59 0 -92 -30t-33 -89h-200q0 162 102 232q104 72 240 72q130 0 212 -65.5t82 -174.5q0 -72 -38.5 -125.5t-96.5 -73.5q154 -56 154 -200z" />
    <glyph glyph-name="uni2158" unicode="&#x2158;" horiz-adv-x="2240" 
d="M1745 1434l-848 -1434h-229l848 1434h229zM2056 289q0 -132 -90 -219q-89 -86 -233 -86q-135 0 -226 73q-92 77 -92 215h203q0 -55 28 -85.5t83 -30.5q58 0 90 32t32 97q0 62 -31 95.5t-83 33.5q-63 0 -103 -49h-196l75 487h504v-188h-358l-25 -158q55 61 158 61
q113 0 188.5 -76t75.5 -202zM862 887v-187h-92v-145h-195v147h-391v154l381 553h205v-522h92zM575 887v262l-174 -262h174z" />
    <glyph glyph-name="uni2159" unicode="&#x2159;" horiz-adv-x="2287" 
d="M1755 1434l-848 -1434h-229l848 1434h229zM623 737h239v-184h-678v184h240v418q-100 -50 -211 -53v184q149 15 246 121h164v-670zM1792 707q-73 0 -114.5 -57.5t-41.5 -157.5q64 88 187 88q122 0 201 -82t79 -209q0 -136 -93 -220.5t-226 -84.5q-69 0 -129 24.5
t-109.5 75t-78.5 138.5t-29 204q0 220 98 335.5t258 115.5q122 0 202.5 -62t92.5 -180h-197q-5 33 -31 52.5t-69 19.5zM1907 283q0 61 -33 95t-90 34q-58 0 -91.5 -34t-33.5 -95t34.5 -99.5t90.5 -38.5q57 0 90 37.5t33 100.5z" />
    <glyph glyph-name="uni215A" unicode="&#x215a;" horiz-adv-x="2181" 
d="M1647 1434l-848 -1434h-230l848 1434h230zM1686 707q-73 0 -114.5 -57.5t-41.5 -157.5q64 88 186 88t201.5 -82t79.5 -209q0 -136 -93.5 -220.5t-226.5 -84.5q-69 0 -129 24.5t-109.5 75t-78.5 138.5t-29 204q0 220 98.5 335.5t258.5 115.5q122 0 202 -62t92 -180h-196
q-5 33 -31 52.5t-69 19.5zM1800 283q0 61 -33 95t-90 34q-58 0 -91.5 -34t-33.5 -95t34.5 -99.5t90.5 -38.5q57 0 90 37.5t33 100.5zM825 846q0 -132 -90 -219q-89 -86 -233 -86q-135 0 -226 73q-92 77 -92 215h203q0 -55 28 -85.5t83 -30.5q58 0 90.5 32.5t32.5 96.5
q0 62 -31.5 95.5t-83.5 33.5q-63 0 -103 -49h-196l76 487h503v-188h-358l-25 -158q55 61 158 61q113 0 188.5 -76t75.5 -202z" />
    <glyph glyph-name="oneeighth" unicode="&#x215b;" horiz-adv-x="2312" 
d="M1757 1434l-848 -1434h-229l848 1434h229zM623 737h239v-184h-678v184h240v418q-100 -50 -211 -53v184q149 15 246 121h164v-670zM2128 236q0 -117 -89.5 -184.5t-234.5 -67.5t-235 67.5t-90 184.5q0 83 46 139.5t115 70.5q-61 19 -100 66t-39 123q0 116 83 179t220 63
q135 0 218 -63.5t83 -178.5q0 -76 -39 -123t-100 -66q69 -14 115.5 -70.5t46.5 -139.5zM1698 612q0 -42 28.5 -67t77.5 -25t77 25t28 67q0 41 -26.5 67t-78.5 26q-53 0 -79.5 -26t-26.5 -67zM1923 262q0 50 -32 79.5t-87 29.5q-57 0 -89 -29.5t-32 -79.5q0 -49 31.5 -79.5
t89.5 -30.5q56 0 87.5 30.5t31.5 79.5z" />
    <glyph glyph-name="threeeighths" unicode="&#x215c;" horiz-adv-x="2183" 
d="M1628 1434l-848 -1434h-229l848 1434h229zM1999 236q0 -117 -89.5 -184.5t-234.5 -67.5t-235 67.5t-90 184.5q0 83 46 139.5t115 70.5q-61 19 -100 66t-39 123q0 116 83 179t220 63q135 0 218 -63.5t83 -178.5q0 -76 -39 -123t-100 -66q69 -14 115.5 -70.5t46.5 -139.5z
M1569 612q0 -42 28.5 -67t77.5 -25t77 25t28 67q0 41 -26.5 67t-78.5 26q-53 0 -79.5 -26t-26.5 -67zM1794 262q0 50 -32 79.5t-87 29.5q-57 0 -89 -29.5t-32 -79.5q0 -49 31.5 -79.5t89.5 -30.5q56 0 87.5 30.5t31.5 79.5zM848 795q0 -119 -90.5 -186.5t-239.5 -67.5
q-154 0 -244 76t-90 221h203q0 -61 34.5 -88t102.5 -27q54 0 86.5 23t32.5 59q0 29 -11.5 49t-33.5 29t-45.5 12.5t-54.5 3.5h-62v172h58q62 0 95.5 27.5t33.5 77.5q0 33 -27.5 53t-77.5 20q-59 0 -92 -30t-33 -89h-200q0 162 102 232q104 72 240 72q130 0 212 -65.5
t82 -174.5q0 -72 -38.5 -125.5t-96.5 -73.5q154 -56 154 -200z" />
    <glyph glyph-name="fiveeighths" unicode="&#x215d;" horiz-adv-x="2140" 
d="M1956 236q0 -117 -89.5 -184.5t-234.5 -67.5t-235 67.5t-90 184.5q0 83 46 139.5t115 70.5q-61 19 -100 66t-39 123q0 116 83 179t220 63q135 0 218 -63.5t83 -178.5q0 -76 -39 -123t-100 -66q69 -14 115.5 -70.5t46.5 -139.5zM1526 612q0 -42 28.5 -67t77.5 -25t77 25
t28 67q0 41 -26.5 67t-78.5 26q-53 0 -79.5 -26t-26.5 -67zM1751 262q0 50 -32 79.5t-87 29.5q-57 0 -89 -29.5t-32 -79.5q0 -49 31.5 -79.5t89.5 -30.5q56 0 87.5 30.5t31.5 79.5zM1647 1434l-848 -1434h-230l848 1434h230zM825 846q0 -132 -90 -219q-89 -86 -233 -86
q-135 0 -226 73q-92 77 -92 215h203q0 -55 28 -85.5t83 -30.5q58 0 90.5 32.5t32.5 96.5q0 62 -31.5 95.5t-83.5 33.5q-63 0 -103 -49h-196l76 487h503v-188h-358l-25 -158q55 61 158 61q113 0 188.5 -76t75.5 -202z" />
    <glyph glyph-name="seveneighths" unicode="&#x215e;" horiz-adv-x="2172" 
d="M1618 1434l-848 -1434h-229l848 1434h229zM1989 236q0 -117 -89.5 -184.5t-234.5 -67.5t-235.5 67.5t-90.5 184.5q0 83 46.5 139.5t115.5 70.5q-61 19 -100 66t-39 123q0 116 83 179t220 63q135 0 218 -63.5t83 -178.5q0 -76 -39 -123t-100 -66q69 -14 115.5 -70.5
t46.5 -139.5zM1559 612q0 -42 28.5 -67t77.5 -25t76.5 25t27.5 67q0 41 -26.5 67t-77.5 26q-53 0 -79.5 -26t-26.5 -67zM1784 262q0 50 -32 79.5t-87 29.5q-57 0 -89 -29.5t-32 -79.5q0 -49 31.5 -79.5t89.5 -30.5q56 0 87.5 30.5t31.5 79.5zM836 1409v-178l-332 -676h-207
l332 657h-445v197h652z" />
    <glyph glyph-name="arrowleft" unicode="&#x2190;" horiz-adv-x="1341" 
d="M655 41l-573 571l573 574l133 -131l-354 -344h826v-195h-826l354 -344z" />
    <glyph glyph-name="arrowup" unicode="&#x2191;" horiz-adv-x="1308" 
d="M1227 604l-131 -133l-344 354v-825h-195v825l-344 -354l-131 133l573 574z" />
    <glyph glyph-name="arrowright" unicode="&#x2192;" horiz-adv-x="1341" 
d="M686 41l-133 131l354 344h-825v195h825l-354 344l133 131l574 -574z" />
    <glyph glyph-name="arrowdown" unicode="&#x2193;" horiz-adv-x="1308" 
d="M1186 573l-572 -573l-573 573l131 134l344 -355v826h195v-826l344 355z" />
    <glyph glyph-name="partialdiff" unicode="&#x2202;" horiz-adv-x="1253" 
d="M891 782q-6 200 -84.5 307t-214.5 107q-89 0 -143 -44.5t-60 -125.5h-266q19 188 137.5 298t312.5 110q88 0 167 -22t154 -75.5t128.5 -134.5t86 -208.5t32.5 -288.5q0 -150 -29 -272.5t-79.5 -206t-121 -140.5t-151 -83t-170.5 -26q-213 0 -355.5 139.5t-142.5 358.5
q0 109 39.5 200.5t104.5 150.5t146.5 91.5t168.5 32.5q106 0 196.5 -44t143.5 -124zM831 467q0 115 -67 182.5t-170 67.5t-169.5 -66.5t-66.5 -181.5q0 -116 66 -185t168 -69t170.5 68.5t68.5 183.5z" />
    <glyph glyph-name="product" unicode="&#x220f;" horiz-adv-x="1648" 
d="M1282 1212v-1212h-248v1212h-420v-1212h-245v1212h-185v222h1280v-222h-182z" />
    <glyph glyph-name="summation" unicode="&#x2211;" horiz-adv-x="1419" 
d="M494 250h833v-250h-1214v252l505 463l-466 469v250h1114v-250h-731l450 -469z" />
    <glyph glyph-name="minus" unicode="&#x2212;" 
d="M1047 741v-204h-865v204h865z" />
    <glyph glyph-name="radical" unicode="&#x221a;" horiz-adv-x="1267" 
d="M1217 1434l-519 -1434h-217l-450 1055h270l285 -695l377 1074h254z" />
    <glyph glyph-name="infinity" unicode="&#x221e;" horiz-adv-x="1480" 
d="M1440 563q0 -128 -44.5 -233.5t-132 -169.5t-202.5 -64q-116 0 -201 60.5t-119 152.5q-38 -94 -120.5 -153.5t-198.5 -59.5q-115 0 -203 64t-133 169.5t-45 233.5q0 97 27 183.5t75.5 151.5t121.5 103.5t159 38.5q116 0 199 -62t118 -155q35 93 118.5 155t199.5 62
q115 0 203 -66t133 -173.5t45 -237.5zM623 569q0 95 -52 152t-135 57q-76 0 -123 -55t-47 -158q0 -102 46 -154.5t124 -52.5q82 0 134.5 59t52.5 152zM1214 565q0 103 -46.5 158t-123.5 55q-83 0 -133.5 -56.5t-50.5 -152.5q0 -93 52.5 -152t134.5 -59q78 0 122.5 52
t44.5 155z" />
    <glyph glyph-name="integral" unicode="&#x222b;" horiz-adv-x="598" 
d="M618 1434v-230h-83q-62 0 -84.5 -20t-22.5 -84v-1176q0 -195 -94 -256q-91 -61 -215 -61h-139v229h86q63 0 85.5 20.5t22.5 82.5v1177q0 318 305 318h139z" />
    <glyph glyph-name="approxequal" unicode="&#x2248;" 
d="M842 856q139 0 205 55v-192q-84 -41 -211 -41q-74 0 -205 43q-122 45 -217 45q-64 0 -127.5 -17.5t-104.5 -48.5v187q95 59 236 59q52 0 94 -9.5t117 -35.5q74 -25 117.5 -35t95.5 -10zM842 514q141 0 205 53v-192q-84 -41 -211 -41q-74 0 -205 43q-122 45 -217 45
q-64 0 -127.5 -17.5t-104.5 -48.5v187q95 59 236 59q51 0 90.5 -8.5t120.5 -34.5q74 -25 117.5 -35t95.5 -10z" />
    <glyph glyph-name="notequal" unicode="&#x2260;" 
d="M1047 713h-297l-82 -148h379v-192h-486l-133 -240l-154 88l84 152h-176v192h283l82 148h-365v192h471l148 264l153 -88l-98 -176h191v-192z" />
    <glyph glyph-name="lessequal" unicode="&#x2264;" 
d="M1055 1108l-635 -287l635 -286l-97 -187l-761 367v213l761 366zM168 205h893v-205h-893v205z" />
    <glyph glyph-name="greaterequal" unicode="&#x2265;" 
d="M174 1108l96 186l762 -366v-213l-762 -367l-96 187l635 286zM1061 205v-205h-893v205h893z" />
    <glyph glyph-name="lozenge" unicode="&#x25ca;" horiz-adv-x="1077" 
d="M1057 688l-518 -711l-519 711l519 709zM815 688l-276 381l-277 -381l277 -385z" />
    <glyph glyph-name="NULL" horiz-adv-x="0" 
 />
    <glyph glyph-name="zero.osf" horiz-adv-x="1265" 
d="M1163 567q0 -267 -148 -428.5t-382 -161.5q-236 0 -383.5 161.5t-147.5 428.5q0 266 148 427t383 161q234 0 382 -161t148 -427zM922 559q0 164 -81.5 261.5t-213.5 97.5q-124 0 -201.5 -93.5t-77.5 -251.5q0 -164 81.5 -262t211.5 -98q126 0 203.5 93.5t77.5 252.5z" />
    <glyph glyph-name="one.osf" horiz-adv-x="1185" 
d="M719 238h364v-238h-981v238h363v657h-363v235h981v-235h-364v-657z" />
    <glyph glyph-name="two.osf" horiz-adv-x="1161" 
d="M1059 238v-238h-926v209l334 217q165 105 234 182.5t69 155.5q0 75 -53 119.5t-131 44.5q-94 0 -159.5 -64t-66.5 -168h-258q9 216 144.5 337.5t339.5 121.5q186 0 313 -100.5t127 -272.5q0 -72 -22 -133.5t-66.5 -113.5t-97.5 -94t-129 -89l-185 -114h533z" />
    <glyph glyph-name="three.osf" horiz-adv-x="1251" 
d="M1128 111q0 -128 -70 -223.5t-183 -143t-250 -47.5q-108 0 -206 32t-173 91.5t-119.5 151.5t-44.5 204h264q0 -116 73 -179t199 -63q112 0 180 47.5t68 137.5q0 92 -76 139t-219 47h-106v230h98q124 0 197.5 55.5t73.5 148.5q0 84 -61 130t-161 46q-121 0 -186.5 -60.5
t-65.5 -184.5h-262q0 118 41 211t112.5 152t165.5 89.5t204 30.5q132 0 239 -43.5t172.5 -131.5t65.5 -206q0 -123 -64.5 -209.5t-167.5 -118.5q129 -50 195.5 -129t66.5 -204z" />
    <glyph glyph-name="four.osf" horiz-adv-x="1286" 
d="M1163 -14h-184v-271h-254v275h-643v205l618 929h279v-901h184v-237zM354 223h371v555z" />
    <glyph glyph-name="five.osf" horiz-adv-x="1243" 
d="M1090 190q0 -97 -34.5 -186.5t-98 -159.5t-161 -111.5t-214.5 -41.5q-207 0 -354 126t-156 343h262q7 -108 72.5 -170t164.5 -62q117 0 184.5 74.5t67.5 183.5q0 104 -61.5 174t-169.5 70q-129 0 -211 -82h-262l127 774h772v-237h-576l-51 -310q96 87 252 87
q104 0 190 -39t141.5 -105t85.5 -150.5t30 -177.5z" />
    <glyph glyph-name="six.osf" horiz-adv-x="1253" 
d="M1130 475q0 -219 -142 -358.5t-355 -139.5q-90 0 -170.5 26t-151 83t-121 140.5t-79.5 206t-29 272.5q0 161 32.5 288.5t86 208.5t128 134.5t153.5 75.5t167 22q194 0 313 -110t138 -298h-266q-6 81 -60 125.5t-143 44.5q-136 0 -214.5 -107t-84.5 -307q53 80 143.5 124
t196.5 44q87 0 168.5 -32.5t146.5 -91.5t104 -150.5t39 -200.5zM864 469q0 115 -66 181.5t-169 66.5t-170.5 -67.5t-67.5 -182.5t69 -183.5t171 -68.5t167.5 69t65.5 185z" />
    <glyph glyph-name="seven.osf" horiz-adv-x="1167" 
d="M1085 1118v-250l-563 -1159h-262l559 1155h-778v254h1044z" />
    <glyph glyph-name="eight.osf" horiz-adv-x="1220" 
d="M1118 393q0 -189 -142 -302.5t-366 -113.5t-366 113.5t-142 302.5q0 131 71 221.5t181 116.5q-93 31 -155 116.5t-62 203.5q0 117 64.5 205t171 133t237.5 45t237.5 -45t171 -133t64.5 -205q0 -118 -62 -203.5t-155 -116.5q110 -26 181 -116.5t71 -221.5zM399 1024
q0 -83 57.5 -135.5t153.5 -52.5t153.5 52.5t57.5 135.5q0 77 -53.5 124.5t-157.5 47.5t-157.5 -47.5t-53.5 -124.5zM852 410q0 95 -64 154t-178 59t-177.5 -59t-63.5 -154q0 -92 62.5 -143.5t178.5 -51.5q115 0 178.5 52t63.5 143z" />
    <glyph glyph-name="nine.osf" horiz-adv-x="1253" 
d="M72 657q0 219 143 358.5t356 139.5q89 0 169 -25.5t150 -82.5t120.5 -141.5t80 -209t29.5 -278.5q0 -158 -30.5 -283t-82 -205.5t-123 -133.5t-149 -75t-164.5 -22q-197 0 -323.5 111t-145.5 296h267q6 -78 67.5 -123.5t155.5 -45.5q266 0 278 413q-53 -80 -143.5 -124
t-196.5 -44q-87 0 -168.5 32.5t-146.5 91.5t-104 150.5t-39 200.5zM338 664q0 -115 66 -181.5t169 -66.5t170.5 67.5t67.5 182.5t-69 183.5t-171 68.5t-167.5 -69t-65.5 -185z" />
    <glyph glyph-name="zero.tf" 
d="M1116 707q0 -351 -126 -540.5t-376 -189.5t-375.5 189t-125.5 541q0 351 125.5 539t375.5 188t376 -188t126 -539zM854 707q0 489 -240 489q-239 0 -239 -489q0 -492 239 -492q240 0 240 492z" />
    <glyph glyph-name="one.tf" 
d="M782 238h344v-238h-942v238h344v843q-148 -94 -344 -108v241q228 35 381 195h217v-1171z" />
    <glyph glyph-name="two.tf" 
d="M1139 238v-238h-1024v238l338 297l100 88q162 144 168 151q113 104 113 219q0 93 -61.5 148t-164.5 55q-114 0 -186 -69.5t-78 -190.5h-254q0 116 44 211.5t119 157.5t173 95.5t207 33.5q204 0 334.5 -109.5t130.5 -296.5q0 -114 -49 -205q-44 -87 -125 -168
q-67 -64 -217 -192l-58 -49l-209 -176h699z" />
    <glyph glyph-name="three.tf" 
d="M1137 391q0 -128 -70.5 -223.5t-183.5 -143t-250 -47.5q-108 0 -206 32.5t-173 92t-119.5 151.5t-44.5 204h264q0 -115 73.5 -178.5t199.5 -63.5q113 0 180 47t67 137q0 92 -75.5 139.5t-218.5 47.5h-107v229h98q124 0 197.5 56t73.5 149q0 84 -60.5 130t-160.5 46
q-120 0 -186 -61t-66 -185h-263q0 118 41 211t112.5 152t165.5 90t204 31q132 0 239 -43.5t172.5 -131.5t65.5 -206q0 -123 -64.5 -209.5t-167.5 -118.5q129 -50 196 -129.5t67 -204.5z" />
    <glyph glyph-name="four.tf" 
d="M1155 270h-184v-270h-254v274h-643v205l618 930h279v-901h184v-238zM346 508h371v555z" />
    <glyph glyph-name="five.tf" 
d="M1122 477q0 -131 -58.5 -243.5t-176.5 -184.5t-273 -72q-207 0 -354 126t-156 343h263q7 -108 72.5 -169.5t164.5 -61.5q117 0 184.5 74.5t67.5 183.5q0 104 -61.5 174t-169.5 70q-129 0 -211 -82h-262l127 774h772v-238h-576l-51 -309q95 86 252 86q104 0 190 -39
t141 -104.5t85 -150t30 -177.5z" />
    <glyph glyph-name="six.tf" 
d="M1139 475q0 -219 -142.5 -358.5t-355.5 -139.5q-90 0 -170.5 26t-151 83t-121 140.5t-79.5 206t-29 272.5q0 161 32.5 288.5t86 208.5t128 134.5t153.5 75.5t167 22q194 0 313 -110t138 -298h-266q-6 81 -60 125.5t-143 44.5q-136 0 -214.5 -107t-84.5 -307
q53 80 143.5 124t196.5 44q87 0 168.5 -32.5t146.5 -91.5t104.5 -150.5t39.5 -200.5zM872 469q0 115 -66 181.5t-169 66.5t-170.5 -67.5t-67.5 -182.5t69 -183.5t171 -68.5t167.5 69t65.5 185z" />
    <glyph glyph-name="seven.tf" 
d="M1137 1409v-250l-564 -1159h-262l559 1155h-778v254h1045z" />
    <glyph glyph-name="eight.tf" 
d="M1122 393q0 -189 -142 -302.5t-366 -113.5t-366 113.5t-142 302.5q0 131 71 221.5t181 116.5q-93 31 -155 116.5t-62 203.5q0 117 64.5 205t171 133t237.5 45t237.5 -45t171 -133t64.5 -205q0 -118 -62 -203.5t-155 -116.5q110 -26 181 -116.5t71 -221.5zM403 1024
q0 -83 57.5 -135.5t153.5 -52.5t153.5 52.5t57.5 135.5q0 77 -53.5 124.5t-157.5 47.5t-157.5 -47.5t-53.5 -124.5zM856 410q0 95 -64 154t-178 59t-177.5 -59t-63.5 -154q0 -92 62.5 -143.5t178.5 -51.5q115 0 178.5 52t63.5 143z" />
    <glyph glyph-name="nine.tf" 
d="M90 936q0 219 143.5 358.5t356.5 139.5q113 0 209.5 -42.5t173.5 -128t121.5 -231t44.5 -336.5q0 -158 -30.5 -283t-82 -205.5t-123 -133.5t-149 -75t-164.5 -22q-197 0 -323.5 111t-145.5 297h266q6 -78 67.5 -124t155.5 -46q267 0 279 414q-53 -80 -143.5 -124
t-196.5 -44q-87 0 -168.5 32.5t-146.5 91.5t-104.5 150.5t-39.5 200.5zM356 942q0 -115 66.5 -181.5t169.5 -66.5t170 67.5t67 182.5t-68.5 183.5t-170.5 68.5t-168 -69t-66 -185z" />
    <glyph glyph-name="zero.dnom" horiz-adv-x="780" 
d="M715 430q0 -208 -82 -327t-242 -119t-241.5 118.5t-81.5 327.5t81.5 328t241.5 119t242 -119t82 -328zM510 430q0 262 -119 262q-62 0 -89.5 -65t-27.5 -197t27.5 -198t89.5 -66q119 0 119 264z" />
    <glyph glyph-name="one.dnom" horiz-adv-x="819" 
d="M510 182h240v-184h-678v184h239v418q-100 -50 -211 -53v184q149 15 246 121h164v-670z" />
    <glyph glyph-name="two.dnom" horiz-adv-x="774" 
d="M719 184v-186h-639v176l180 148l62 51q104 85 143 131q37 40 37 88q0 47 -29 73.5t-80 26.5q-63 0 -100 -38t-37 -113h-201q0 158 103 247t252 89q136 0 216.5 -69t80.5 -194q0 -65 -29 -125q-27 -52 -67.5 -92.5t-131.5 -113.5l-41 -33l-82 -66h363z" />
    <glyph glyph-name="three.dnom" horiz-adv-x="770" 
d="M717 238q0 -119 -90.5 -186.5t-239.5 -67.5q-154 0 -244 76t-90 221h203q0 -61 34.5 -88t102.5 -27q54 0 86.5 23t32.5 59q0 29 -11.5 49t-33.5 29t-45.5 12.5t-54.5 3.5h-62v172h57q63 0 96.5 27t33.5 77q0 33 -27.5 53.5t-77.5 20.5q-59 0 -92 -30t-33 -89h-201
q0 161 103 232q104 72 239 72q131 0 213 -65.5t82 -174.5q0 -72 -38.5 -125.5t-96.5 -73.5q154 -56 154 -200z" />
    <glyph glyph-name="four.dnom" horiz-adv-x="759" 
d="M719 330v-187h-92v-145h-195v147h-391v154l381 553h205v-522h92zM432 330v262l-174 -262h174z" />
    <glyph glyph-name="five.dnom" horiz-adv-x="768" 
d="M705 289q0 -131 -91 -219q-89 -86 -233 -86q-134 0 -225 73q-93 78 -93 215h203q0 -55 28 -85.5t83 -30.5q59 0 91 32t32 97q0 62 -31.5 95.5t-83.5 33.5q-62 0 -102 -49h-197l76 487h504v-188h-359l-24 -158q55 61 157 61q113 0 189 -76t76 -202z" />
    <glyph glyph-name="six.dnom" horiz-adv-x="763" 
d="M403 707q-73 0 -114 -57.5t-41 -157.5q64 88 186 88t201.5 -82t79.5 -209q0 -136 -93.5 -220.5t-226.5 -84.5q-69 0 -129 24.5t-109.5 75t-78.5 138.5t-29 204q0 220 98.5 335.5t258.5 115.5q122 0 202 -62t92 -180h-196q-5 33 -31.5 52.5t-69.5 19.5zM518 283
q0 61 -33 95t-90 34q-58 0 -91.5 -34t-33.5 -95t34.5 -99.5t90.5 -38.5q57 0 90 37.5t33 100.5z" />
    <glyph glyph-name="seven.dnom" horiz-adv-x="741" 
d="M696 852v-178l-331 -676h-207l331 657h-444v197h651z" />
    <glyph glyph-name="eight.dnom" horiz-adv-x="772" 
d="M711 236q0 -117 -89.5 -184.5t-234.5 -67.5t-235.5 67.5t-90.5 184.5q0 83 46.5 139.5t115.5 70.5q-61 19 -100 66t-39 123q0 116 83 179t220 63q135 0 218 -63.5t83 -178.5q0 -76 -39 -123t-100 -66q69 -14 115.5 -70.5t46.5 -139.5zM281 612q0 -42 28.5 -67t77.5 -25
t77 25t28 67q0 41 -26.5 67t-78.5 26q-53 0 -79.5 -26t-26.5 -67zM506 262q0 50 -32 79.5t-87 29.5q-57 0 -89 -29.5t-32 -79.5q0 -49 31.5 -79.5t89.5 -30.5q56 0 87.5 30.5t31.5 79.5z" />
    <glyph glyph-name="nine.dnom" horiz-adv-x="763" 
d="M373 154q143 0 143 215q-64 -88 -186 -88t-201.5 80.5t-79.5 207.5q0 137 93.5 222.5t226.5 85.5q142 0 243 -107q103 -109 103 -338q0 -220 -93 -334t-251 -114q-125 0 -210.5 62t-97.5 179h197q4 -31 36.5 -51t76.5 -20zM246 575q0 -61 32.5 -93.5t90.5 -32.5
t91.5 33.5t33.5 92.5q0 63 -34.5 101.5t-90.5 38.5q-57 0 -90 -38.5t-33 -101.5z" />
    <glyph glyph-name="zero.numr" horiz-adv-x="780" 
d="M715 987q0 -208 -82 -327t-242 -119t-241.5 118.5t-81.5 327.5t81.5 328t241.5 119t242 -119t82 -328zM510 987q0 262 -119 262q-62 0 -89.5 -65t-27.5 -197t27.5 -198t89.5 -66q119 0 119 264z" />
    <glyph glyph-name="one.numr" horiz-adv-x="819" 
d="M510 739h240v-184h-678v184h239v418q-100 -50 -211 -53v184q149 15 246 121h164v-670z" />
    <glyph glyph-name="two.numr" horiz-adv-x="774" 
d="M719 741v-186h-639v176l180 148l62 51q104 85 143 131q37 40 37 88q0 47 -29 73.5t-80 26.5q-63 0 -100 -38t-37 -113h-201q0 159 103 248q101 88 252 88q136 0 216.5 -69t80.5 -194q0 -64 -29 -124q-27 -52 -68 -93.5t-131 -113.5l-41 -33l-82 -66h363z" />
    <glyph glyph-name="three.numr" horiz-adv-x="770" 
d="M717 795q0 -119 -90.5 -186.5t-239.5 -67.5q-154 0 -244 76t-90 221h203q0 -61 34.5 -88t102.5 -27q54 0 86.5 23t32.5 59q0 29 -11.5 49t-33.5 29t-45.5 12.5t-54.5 3.5h-62v172h57q63 0 96.5 27.5t33.5 77.5q0 33 -27.5 53t-77.5 20q-59 0 -92 -30t-33 -89h-201
q0 161 103 232q104 72 239 72q131 0 213 -65.5t82 -174.5q0 -72 -38.5 -125.5t-96.5 -73.5q154 -56 154 -200z" />
    <glyph glyph-name="four.numr" horiz-adv-x="759" 
d="M719 887v-187h-92v-145h-195v147h-391v154l381 553h205v-522h92zM432 887v262l-174 -262h174z" />
    <glyph glyph-name="five.numr" horiz-adv-x="768" 
d="M705 846q0 -131 -91 -219q-89 -86 -233 -86q-134 0 -225 73q-93 78 -93 215h203q0 -55 28 -85.5t83 -30.5q59 0 91 32.5t32 96.5q0 62 -31.5 95.5t-83.5 33.5q-62 0 -102 -49h-197l76 487h504v-188h-359l-24 -158q55 61 157 61q113 0 189 -76t76 -202z" />
    <glyph glyph-name="six.numr" horiz-adv-x="763" 
d="M403 1264q-73 0 -114 -57.5t-41 -157.5q64 88 186 88t201.5 -82t79.5 -209q0 -136 -93.5 -220.5t-226.5 -84.5q-69 0 -129 24.5t-109.5 75t-78.5 138.5t-29 204q0 220 98.5 335.5t258.5 115.5q122 0 202 -62t92 -180h-196q-5 33 -31.5 52.5t-69.5 19.5zM518 840
q0 61 -33 95t-90 34q-58 0 -91.5 -34t-33.5 -95t34.5 -99.5t90.5 -38.5q57 0 90 37.5t33 100.5z" />
    <glyph glyph-name="seven.numr" horiz-adv-x="741" 
d="M696 1409v-178l-331 -676h-207l331 657h-444v197h651z" />
    <glyph glyph-name="eight.numr" horiz-adv-x="772" 
d="M711 793q0 -117 -89.5 -184.5t-234.5 -67.5t-235.5 67.5t-90.5 184.5q0 83 46.5 140t115.5 71q-61 19 -100 65.5t-39 122.5q0 116 83 179t220 63q135 0 218 -63.5t83 -178.5q0 -76 -39 -122.5t-100 -65.5q69 -14 115.5 -71t46.5 -140zM281 1169q0 -42 28.5 -67t77.5 -25
t77 25t28 67q0 41 -26.5 67t-78.5 26q-53 0 -79.5 -26t-26.5 -67zM506 819q0 50 -32 79.5t-87 29.5q-57 0 -89 -29.5t-32 -79.5q0 -49 31.5 -79.5t89.5 -30.5q56 0 87.5 30.5t31.5 79.5z" />
    <glyph glyph-name="nine.numr" horiz-adv-x="763" 
d="M373 711q143 0 143 215q-64 -88 -186 -88t-201.5 80.5t-79.5 207.5q0 137 93.5 222.5t226.5 85.5q142 0 243 -107q103 -109 103 -338q0 -220 -93 -334t-251 -114q-125 0 -210.5 62t-97.5 179h197q4 -31 36.5 -51t76.5 -20zM246 1133q0 -61 32.5 -94t90.5 -33q57 0 91 34
t34 93q0 63 -34.5 101t-90.5 38q-57 0 -90 -38t-33 -101z" />
    <glyph glyph-name="exclamdown.cap" horiz-adv-x="655" 
d="M471 1331v-295h-287v295h287zM190 -102v512l48 497h178l47 -497v-512h-273z" />
    <glyph glyph-name="questiondown.cap" horiz-adv-x="1120" 
d="M737 1366v-295h-284v295h284zM717 903v-49q0 -112 -38 -182t-124 -135l-115 -84q-44 -34 -68 -71.5t-24 -92.5q0 -75 47 -116.5t133 -41.5q101 0 163 53.5t69 149.5h258q-15 -219 -158 -322q-141 -102 -340 -102q-200 0 -319 97t-119 274q0 194 162 313l116 88
q115 81 115 160v61h242z" />
    <glyph glyph-name="periodcentered.cap" horiz-adv-x="450" 
d="M82 696v295h287v-295h-287z" />
    <glyph glyph-name="bullet.cap" horiz-adv-x="522" 
d="M82 471v371h358v-371h-358z" />
    <glyph glyph-name="hyphen.cap" horiz-adv-x="751" 
d="M670 848v-225h-588v225h588z" />
    <glyph glyph-name="endash.cap" horiz-adv-x="1118" 
d="M1036 584h-954v225h954v-225z" />
    <glyph glyph-name="emdash.cap" horiz-adv-x="2074" 
d="M1993 584h-1911v225h1911v-225z" />
    <glyph glyph-name="guillemotleft.cap" horiz-adv-x="1255" 
d="M348 715l258 -291l-141 -133l-373 424l373 422l141 -133zM844 715l258 -291l-141 -133l-373 424l373 422l141 -133z" />
    <glyph glyph-name="guillemotright.cap" horiz-adv-x="1255" 
d="M412 715l-258 289l141 133l373 -422l-373 -424l-141 133zM907 715l-258 289l142 133l372 -422l-372 -424l-142 133z" />
    <glyph glyph-name="guilsinglleft.cap" horiz-adv-x="759" 
d="M348 715l258 -291l-141 -133l-373 424l373 422l141 -133z" />
    <glyph glyph-name="guilsinglright.cap" horiz-adv-x="759" 
d="M412 715l-258 289l141 133l373 -422l-373 -424l-141 133z" />
    <glyph glyph-name="at.cap" horiz-adv-x="1875" 
d="M1763 807q0 -243 -113 -399t-286 -156q-98 0 -162 50.5t-78 135.5q-54 -88 -138 -137t-183 -49q-143 0 -231.5 102.5t-88.5 268.5q0 95 31.5 185t86.5 160t138 112t179 42q183 0 251 -151l27 133h217l-98 -428q-23 -104 -23 -141q0 -97 84 -97q94 0 140 101
q49 101 49 243q0 252 -147 398.5t-396 146.5q-195 4 -361 -91.5t-260.5 -258.5t-91.5 -352q0 -253 157.5 -410.5t407.5 -157.5q140 0 273 62l59 -170q-157 -80 -352 -80q-157 -2 -295 53t-237 152.5t-155 237t-54 300.5q-4 179 69 346.5t197 289t296 193.5t359 68
q327 0 528 -191.5t201 -510.5zM1094 756q0 88 -42.5 137t-117.5 49q-104 0 -170 -90q-62 -89 -62 -207q0 -97 42 -152t116 -55q67 0 122 49.5t83.5 122t28.5 146.5z" />
    <glyph glyph-name="acute.cap" horiz-adv-x="446" 
d="M211 1589h-211l248 357l198 -136z" />
    <glyph glyph-name="breve.cap" horiz-adv-x="516" 
d="M516 1833q0 -103 -67.5 -173.5t-190.5 -70.5t-190.5 70.5t-67.5 173.5q0 59 18 100h154q-6 -35 -6 -63q0 -119 92 -119t92 119q0 28 -6 63h154q18 -41 18 -100z" />
    <glyph glyph-name="caron.cap" horiz-adv-x="731" 
d="M485 1946h246l-295 -375h-139l-297 375h246l119 -150z" />
    <glyph glyph-name="cedilla.cap" horiz-adv-x="434" 
d="M434 -254q0 -75 -60 -123.5t-161 -48.5q-125 0 -213 76l66 92q74 -51 139 -51q42 0 67 17t25 42q0 76 -184 76v176h116v-96q94 -6 149.5 -48.5t55.5 -111.5z" />
    <glyph glyph-name="circumflex.cap" horiz-adv-x="731" 
d="M485 1571l-120 149l-119 -149h-246l297 375h139l295 -375h-246z" />
    <glyph glyph-name="dieresis.cap" horiz-adv-x="616" 
d="M0 1589v230h221v-230h-221zM395 1589v230h221v-230h-221z" />
    <glyph glyph-name="dotaccent.cap" horiz-adv-x="286" 
d="M0 1589v295h287v-295h-287z" />
    <glyph glyph-name="grave.cap" horiz-adv-x="446" 
d="M236 1589l-236 221l199 136l247 -357h-210z" />
    <glyph glyph-name="hungarumlaut.cap" horiz-adv-x="505" 
d="M246 1911l-111 -322h-135l86 322h160zM506 1911l-109 -322h-137l86 322h160z" />
    <glyph glyph-name="macron.cap" horiz-adv-x="610" 
d="M610 1589h-610v193h610v-193z" />
    <glyph glyph-name="ring.cap" horiz-adv-x="421" 
d="M209 1946q92 0 152.5 -59.5t60.5 -151.5q0 -93 -60 -153t-153 -60q-91 0 -150 60.5t-59 152.5t59 151.5t150 59.5zM211 1843q-47 0 -76 -30t-29 -78q0 -50 28 -80.5t77 -30.5q47 0 75.5 30.5t28.5 80.5q0 48 -28.5 78t-75.5 30z" />
    <glyph glyph-name="tilde.cap" horiz-adv-x="669" 
d="M461 1589q-41 0 -74.5 16t-89.5 56q-32 26 -49 35.5t-35 9.5q-26 0 -44 -28t-19 -76h-150q0 139 58.5 222t150.5 83q42 0 77.5 -17t86.5 -57q32 -25 49 -35t33 -10q56 0 65 110h150q-1 -144 -60.5 -226.5t-148.5 -82.5z" />
    </font>
</defs>
</svg>
