<?xml version="1.0" standalone="no"?>
<!DOCTYPE svg PUBLIC "-//W3C//DTD SVG 1.1//EN" "http://www.w3.org/Graphics/SVG/1.1/DTD/svg11.dtd" >
<svg xmlns="http://www.w3.org/2000/svg" xmlns:xlink="http://www.w3.org/1999/xlink" version="1.1">
<metadata>
Created by FontForge 20170731 at Tue Feb  7 16:13:57 2023
 By Aleksey,,,
Copyright (c) 2015 by Luzi Type. All rights reserved. |DCNT
</metadata>
<defs>
<font id="MessinaSans-SemiBold" horiz-adv-x="1228" >
  <font-face 
    font-family="Messina Sans SemiBold"
    font-weight="600"
    font-stretch="normal"
    units-per-em="2048"
    panose-1="0 0 7 0 0 0 0 0 0 0"
    ascent="1550"
    descent="-498"
    x-height="1044"
    cap-height="1434"
    bbox="-80 -748 2511 2253"
    underline-thickness="102"
    underline-position="-307"
    unicode-range="U+000D-25CA"
  />
<missing-glyph horiz-adv-x="956" 
 />
    <glyph glyph-name=".notdef" horiz-adv-x="956" 
 />
    <glyph glyph-name=".null" horiz-adv-x="0" 
 />
    <glyph glyph-name="nonmarkingreturn" horiz-adv-x="682" 
 />
    <glyph glyph-name="CR" unicode="&#xd;" horiz-adv-x="956" 
 />
    <glyph glyph-name="space" unicode=" " horiz-adv-x="546" 
 />
    <glyph glyph-name="exclam" unicode="!" horiz-adv-x="628" 
d="M432 1434v-570l-47 -440h-141l-45 440v570h233zM190 0v256h248v-256h-248z" />
    <glyph glyph-name="quotedbl" unicode="&#x22;" horiz-adv-x="849" 
d="M135 948l-47 557h268l-47 -557h-174zM479 948l-47 557h268l-47 -557h-174z" />
    <glyph glyph-name="numbersign" unicode="#" horiz-adv-x="1218" 
d="M1151 887h-283l-45 -299h293v-111h-311l-72 -477h-131l74 477h-242l-72 -477h-131l74 477h-258v111h277l45 299h-285v110h303l64 416h127l-64 -416h244l63 416h127l-63 -416h266v-110zM694 588l45 299h-241l-45 -299h241z" />
    <glyph glyph-name="dollar" unicode="$" horiz-adv-x="1257" 
d="M702 -18v-242h-133v244q-216 25 -345.5 153.5t-135.5 325.5h223q10 -116 78.5 -192t179.5 -99v453q-83 22 -138.5 41t-115 51.5t-95 73t-59.5 101.5t-26 140q0 178 116 288.5t318 127.5v192h133v-192q198 -17 318 -120.5t127 -268.5h-227q-12 79 -68.5 130t-149.5 68
v-450q133 -30 230 -68q104 -41 170.5 -126.5t66.5 -215.5q0 -179 -129 -293q-125 -113 -338 -122zM569 838v419q-103 -12 -160 -65t-57 -139q0 -83 53.5 -133t163.5 -82zM948 381q0 86 -58 131t-188 78v-424q110 11 178 70t68 145z" />
    <glyph glyph-name="percent" unicode="%" horiz-adv-x="1812" 
d="M440 1473q155 0 258 -99t103 -256q0 -155 -103.5 -256.5t-257.5 -101.5q-149 0 -250.5 102t-101.5 256q0 156 101 255.5t251 99.5zM1421 1434l-866 -1434h-199l867 1434h198zM444 1317q-82 0 -134 -55.5t-52 -141.5q0 -88 52 -145t134 -57q80 0 132.5 57t52.5 145
q0 86 -52.5 141.5t-132.5 55.5zM1364 668q155 0 257.5 -99t102.5 -256q0 -155 -103 -256.5t-257 -101.5q-149 0 -250.5 102t-101.5 256q0 156 101 255.5t251 99.5zM1368 512q-82 0 -134 -55.5t-52 -141.5q0 -88 52 -145t134 -57q80 0 132 57t52 145q0 86 -52 141.5
t-132 55.5z" />
    <glyph glyph-name="ampersand" unicode="&#x26;" horiz-adv-x="1501" 
d="M1157 279l277 -279h-256l-140 137q-80 -76 -188.5 -118t-228.5 -42q-205 0 -343.5 117.5t-138.5 292.5q0 260 297 363l-47 49q-133 139 -133 299q0 147 112 242.5t279 95.5q163 0 266 -93.5t103 -238.5q0 -128 -83 -230t-220 -147l313 -317q30 48 42.5 108.5t12.5 159.5
v37h176v-58q0 -200 -100 -378zM451 1087q0 -50 21.5 -93.5t70.5 -94.5l67 -74q98 32 156.5 102t58.5 156q0 82 -53.5 136.5t-134.5 54.5t-133.5 -53.5t-52.5 -133.5zM918 268l-377 379q-96 -38 -146.5 -102t-50.5 -146q0 -110 82.5 -175.5t216.5 -65.5q90 0 164.5 28.5
t110.5 81.5z" />
    <glyph glyph-name="quotesingle" unicode="'" horiz-adv-x="485" 
d="M156 948l-47 557h268l-47 -557h-174z" />
    <glyph glyph-name="parenleft" unicode="(" horiz-adv-x="806" 
d="M739 -238l-102 -118q-242 154 -385 419t-143 588t143 588q143 264 385 422l102 -121q-191 -164 -309 -391q-117 -231 -117 -498q0 -260 114 -489t312 -400z" />
    <glyph glyph-name="parenright" unicode=")" horiz-adv-x="806" 
d="M68 1540l102 121q239 -156 383 -422q145 -269 145 -588t-145 -588q-144 -266 -383 -419l-102 118q198 171 312 400t114 489q0 269 -119 498q-114 226 -307 391z" />
    <glyph glyph-name="asterisk" unicode="*" horiz-adv-x="772" 
d="M117 1366l205 -70l-3 217h144l-12 -215l211 62l43 -121l-211 -76l137 -172l-117 -84l-123 189l-127 -189l-117 84l136 174l-215 66z" />
    <glyph glyph-name="plus" unicode="+" 
d="M1036 733v-188h-323v-344h-193v344h-327v188h327v348h193v-348h323z" />
    <glyph glyph-name="comma" unicode="," horiz-adv-x="485" 
d="M283 14h-121v230h256v-215q0 -154 -80 -241t-246 -116l-24 115q115 25 164.5 75.5t50.5 151.5z" />
    <glyph glyph-name="hyphen" unicode="-" horiz-adv-x="763" 
d="M676 758v-207h-588v207h588z" />
    <glyph glyph-name="period" unicode="." horiz-adv-x="423" 
d="M88 0v256h248v-256h-248z" />
    <glyph glyph-name="slash" unicode="/" horiz-adv-x="892" 
d="M825 1585l-596 -1761h-202l596 1761h202z" />
    <glyph glyph-name="zero" unicode="0" horiz-adv-x="1179" 
d="M1083 707q0 -361 -124.5 -545.5t-368.5 -184.5t-369 184.5t-125 545.5t124.5 544t369.5 183t369 -183t124 -544zM862 707q0 524 -272 524q-273 0 -273 -524q0 -527 273 -527q272 0 272 527z" />
    <glyph glyph-name="one" unicode="1" horiz-adv-x="886" 
d="M647 1409v-1409h-215v1139q-144 -106 -356 -131v204q226 37 383 197h188z" />
    <glyph glyph-name="two" unicode="2" 
d="M1133 197v-197h-1002v211l332 285l41 34q126 108 215 193q73 72 110 137t37 135q0 107 -71 171.5t-193 64.5q-129 0 -207 -76t-84 -207h-215q0 218 149.5 352t381.5 134q211 0 335.5 -112t124.5 -294q0 -118 -55 -219q-50 -97 -133 -180q-72 -72 -207 -185l-45 -38
l-248 -209h734z" />
    <glyph glyph-name="three" unicode="3" horiz-adv-x="1224" 
d="M1128 383q0 -182 -137.5 -294t-359.5 -112q-237 0 -386 132t-149 344h219q0 -127 84 -200t226 -73q123 0 202.5 59t79.5 150q0 104 -86.5 160.5t-245.5 56.5h-86v191h78q140 0 225 63.5t85 169.5q0 96 -69.5 148.5t-189.5 52.5q-134 0 -210 -75t-76 -210h-221
q0 224 139 357q137 131 377 131q210 0 339.5 -102t129.5 -267q0 -142 -76 -230.5t-199 -109.5q155 -38 231 -122.5t76 -219.5z" />
    <glyph glyph-name="four" unicode="4" horiz-adv-x="1204" 
d="M1137 281h-189v-281h-217v285h-663v180l628 944h252v-932h189v-196zM281 477h450v676z" />
    <glyph glyph-name="five" unicode="5" horiz-adv-x="1214" 
d="M1118 469q0 -215 -142.5 -353.5t-363.5 -138.5q-213 0 -349.5 133t-145.5 345h219q13 -134 87.5 -205.5t194.5 -71.5q133 0 206 75.5t73 209.5q0 129 -72 203.5t-194 74.5q-64 0 -125 -22.5t-105 -63.5h-231l121 754h756v-197h-592l-64 -397q102 117 289 117
q193 0 315.5 -130.5t122.5 -332.5z" />
    <glyph glyph-name="six" unicode="6" 
d="M1133 465q0 -212 -139.5 -350t-356.5 -138q-252 0 -396.5 195.5t-144.5 542.5q0 119 17.5 219t48 172.5t73 130t90.5 94t103.5 60.5t109 33.5t109.5 9.5q183 0 301 -105t144 -291h-222q-13 96 -72.5 144.5t-158.5 48.5q-164 0 -254 -136.5t-90 -398.5q53 117 153 177.5
t230 60.5q198 0 326.5 -133t128.5 -336zM907 449q0 125 -75.5 203.5t-196.5 78.5q-122 0 -197.5 -80t-75.5 -205q0 -123 74 -194.5t199 -71.5q124 0 198 73t74 196z" />
    <glyph glyph-name="seven" unicode="7" horiz-adv-x="1134" 
d="M1067 1409v-227l-571 -1182h-220l576 1194h-817v215h1032z" />
    <glyph glyph-name="eight" unicode="8" horiz-adv-x="1204" 
d="M1108 383q0 -182 -139 -294t-367 -112t-367 112t-139 294q0 134 76.5 229.5t206.5 118.5q-111 29 -178.5 121.5t-67.5 210.5q0 164 129.5 267.5t339.5 103.5t339.5 -103.5t129.5 -267.5q0 -118 -67.5 -210.5t-178.5 -121.5q130 -23 206.5 -118.5t76.5 -229.5zM602 823
q114 0 182 56t68 157q0 94 -64.5 144.5t-185.5 50.5t-185.5 -50.5t-64.5 -144.5q0 -101 68 -157t182 -56zM885 401q0 114 -76.5 177t-206.5 63t-206.5 -63t-76.5 -177q0 -103 78 -162t205 -59q129 0 206 59t77 162z" />
    <glyph glyph-name="nine" unicode="9" 
d="M96 946q0 212 139.5 350t356.5 138q252 0 396.5 -196t144.5 -550q0 -163 -32 -289.5t-83 -204.5t-122.5 -128t-143.5 -69.5t-152 -19.5q-186 0 -311.5 106.5t-151.5 289.5h221q13 -92 81.5 -142.5t170.5 -50.5q324 0 324 535q-53 -117 -153 -177.5t-230 -60.5
q-198 0 -326.5 133t-128.5 336zM322 963q0 -125 75.5 -205t196.5 -80q122 0 197 80.5t75 206.5q0 123 -73.5 194.5t-198.5 71.5t-198.5 -72.5t-73.5 -195.5z" />
    <glyph glyph-name="colon" unicode=":" horiz-adv-x="485" 
d="M109 0v256h247v-256h-247zM109 782v256h247v-256h-247z" />
    <glyph glyph-name="semicolon" unicode=";" horiz-adv-x="567" 
d="M190 782v256h248v-256h-248zM303 14h-121v230h256v-215q0 -154 -80 -241t-245 -116l-25 115q115 25 164.5 75.5t50.5 151.5z" />
    <glyph glyph-name="less" unicode="&#x3c;" 
d="M1036 963l-624 -295l624 -295l-84 -164l-759 360v197l759 360z" />
    <glyph glyph-name="equal" unicode="=" 
d="M1036 897v-178h-843v178h843zM1036 559v-178h-843v178h843z" />
    <glyph glyph-name="greater" unicode="&#x3e;" 
d="M195 963l84 163l759 -360v-197l-759 -360l-84 164l624 295z" />
    <glyph glyph-name="question" unicode="?" horiz-adv-x="1126" 
d="M418 438v70q0 107 37.5 180t115.5 131l127 94q95 68 95 187q0 87 -50 133.5t-149 46.5q-119 0 -186.5 -63t-75.5 -170h-213q17 192 146 300.5t339 108.5q194 0 299 -94.5t105 -257.5q0 -186 -148 -295l-123 -94q-64 -49 -93.5 -99.5t-29.5 -121.5v-56h-196zM391 0v256
h250v-256h-250z" />
    <glyph glyph-name="at" unicode="@" horiz-adv-x="1785" 
d="M1718 690q0 -241 -110.5 -397t-280.5 -156q-101 0 -162.5 55t-66.5 142q-51 -92 -138 -144.5t-190 -52.5q-148 0 -233 105q-86 109 -86 266q0 128 52.5 241.5t153.5 186t226 72.5q181 0 254 -150l28 131h193l-109 -483q-12 -55 -12 -98q0 -63 25.5 -97.5t72.5 -34.5
q90 0 151.5 116.5t61.5 281.5q0 254 -155 405.5t-406 151.5q-148 2 -284 -56t-234 -156t-155 -232t-54 -277q0 -261 163.5 -422.5t418.5 -161.5q144 0 268 62l47 -150q-151 -74 -334 -74q-212 0 -379.5 92.5t-261.5 259.5t-94 380q-4 178 68 343.5t194.5 286t293.5 191.5
t357 67q323 0 520 -189t197 -505zM1081 649q0 97 -47 152t-133 55q-80 0 -141 -49t-91 -124t-30 -161q0 -105 48 -166t130 -61q75 0 137.5 55t94.5 135.5t32 163.5z" />
    <glyph glyph-name="A" unicode="A" horiz-adv-x="1529" 
d="M1214 0l-129 346h-647l-129 -346h-241l559 1434h276l559 -1434h-248zM518 557h488l-244 655z" />
    <glyph glyph-name="B" unicode="B" horiz-adv-x="1398" 
d="M1290 403q0 -174 -135 -288.5t-342 -114.5h-623v1434h648q170 0 278.5 -97t108.5 -245q0 -102 -52 -190t-147 -134q124 -47 194 -144.5t70 -220.5zM416 1223v-383h358q96 0 156.5 55.5t60.5 142.5q0 85 -56 135t-153 50h-366zM1057 442q0 92 -68.5 150.5t-177.5 58.5
h-395v-438h377q118 0 191 63t73 166z" />
    <glyph glyph-name="C" unicode="C" horiz-adv-x="1554" 
d="M1217 516h229q-12 -247 -188 -400t-441 -153q-208 0 -367 96t-245 268.5t-86 395.5q0 219 86.5 387.5t247.5 262t372 93.5q259 0 424.5 -135.5t190.5 -363.5h-232q-15 130 -125 209q-107 79 -266 79q-212 0 -340.5 -145t-128.5 -383q0 -240 128.5 -392.5t340.5 -152.5
q164 0 275.5 90.5t124.5 243.5z" />
    <glyph glyph-name="D" unicode="D" horiz-adv-x="1505" 
d="M1386 745q2 -114 -27.5 -222.5t-92.5 -204t-151.5 -167t-213 -112.5t-268.5 -39h-443v1434h478q325 0 521.5 -190t196.5 -499zM1157 745q0 217 -129.5 347.5t-349.5 130.5h-260v-1010h217q230 0 376 150t146 382z" />
    <glyph glyph-name="E" unicode="E" horiz-adv-x="1273" 
d="M1176 0h-986v1434h947v-211h-719v-392h663v-213h-663v-405h758v-213z" />
    <glyph glyph-name="F" unicode="F" horiz-adv-x="1173" 
d="M418 618v-618h-228v1434h947v-211h-719v-392h663v-213h-663z" />
    <glyph glyph-name="G" unicode="G" horiz-adv-x="1622" 
d="M776 748h666v-748h-209v174q-150 -211 -438 -211q-204 0 -358 94t-236 262.5t-82 387.5q0 343 193 551t513 208q259 0 424.5 -135.5t190.5 -363.5h-230q-17 130 -126 209t-269 79q-215 0 -342 -145.5t-127 -394.5q0 -251 126.5 -396t346.5 -145q179 0 285.5 95.5
t118.5 267.5h-447v211z" />
    <glyph glyph-name="H" unicode="H" horiz-adv-x="1554" 
d="M1364 1434v-1434h-227v616h-719v-616h-228v1434h228v-607h719v607h227z" />
    <glyph glyph-name="I" unicode="I" horiz-adv-x="628" 
d="M428 1434v-1434h-227v1434h227z" />
    <glyph glyph-name="J" unicode="J" horiz-adv-x="1087" 
d="M918 1434v-998q0 -222 -115 -347.5t-318 -125.5q-198 0 -313 118t-115 322v115h228v-123q0 -103 52 -158t150 -55t150.5 58.5t52.5 167.5v1026h228z" />
    <glyph glyph-name="K" unicode="K" horiz-adv-x="1413" 
d="M1069 0l-471 672l-180 -189v-483h-228v1434h228v-670l612 670h305l-567 -586l598 -848h-297z" />
    <glyph glyph-name="L" unicode="L" horiz-adv-x="1187" 
d="M1120 213v-213h-930v1434h228v-1221h702z" />
    <glyph glyph-name="M" unicode="M" horiz-adv-x="1851" 
d="M1661 1434v-1434h-213v1139l-420 -1139h-213l-418 1139v-1139h-207v1434h310l426 -1166l426 1166h309z" />
    <glyph glyph-name="N" unicode="N" horiz-adv-x="1554" 
d="M1364 1434v-1434h-256l-694 1098v-1098h-224v1434h281l670 -1074v1074h223z" />
    <glyph glyph-name="O" unicode="O" horiz-adv-x="1656" 
d="M1538 715q3 -219 -89 -392.5t-255 -268t-365 -91.5q-202 -3 -365 91.5t-255.5 268t-89.5 392.5q0 221 91.5 393t253 266t365.5 94q151 2 283.5 -53.5t226.5 -154t147.5 -240t51.5 -305.5zM1307 715q0 252 -128.5 394t-349.5 142t-349 -142t-128 -394t128 -393.5
t349 -141.5t349.5 141.5t128.5 393.5z" />
    <glyph glyph-name="P" unicode="P" horiz-adv-x="1329" 
d="M1251 1014q0 -196 -135.5 -322.5t-351.5 -126.5h-346v-565h-228v1434h598q209 0 336 -115.5t127 -304.5zM1022 1001q0 100 -65.5 161t-174.5 61h-364v-447h354q116 0 183 60.5t67 164.5z" />
    <glyph glyph-name="Q" unicode="Q" horiz-adv-x="1656" 
d="M1260 98l210 -356h-235l-156 260q-118 -39 -250 -39q-202 -3 -365 91.5t-255.5 268t-89.5 392.5q0 221 91.5 393t253 266t365.5 94q151 2 283.5 -53.5t226.5 -154t147.5 -240t51.5 -305.5q0 -199 -73 -358.5t-205 -258.5zM963 195l-250 417h239l193 -323q162 143 162 426
q0 252 -128.5 394t-349.5 142t-349 -142t-128 -394t128 -393.5t349 -141.5q64 0 134 15z" />
    <glyph glyph-name="R" unicode="R" horiz-adv-x="1388" 
d="M1331 0h-262l-369 590h-284v-590h-226v1434h576q208 0 337.5 -113.5t129.5 -294.5q0 -141 -82 -249.5t-217 -143.5zM1006 1018q0 94 -62 149.5t-166 55.5h-362v-428h340q112 0 181 62t69 161z" />
    <glyph glyph-name="S" unicode="S" horiz-adv-x="1323" 
d="M696 -37q-257 0 -422 142t-165 370h227q11 -150 108 -235.5t258 -85.5q133 0 209 58.5t76 158.5q0 72 -41 116q-39 40 -95.5 63t-168.5 50l-55 14q-165 43 -242 76q-106 45 -170.5 132t-64.5 218q0 194 138.5 310t370.5 116q233 0 383 -117t150 -307h-234
q-6 110 -86.5 169t-220.5 59q-131 0 -205.5 -55.5t-74.5 -153.5q0 -104 78.5 -157t250.5 -91q167 -36 254 -68q101 -37 179 -118q81 -81 81 -236q0 -192 -142.5 -310t-375.5 -118z" />
    <glyph glyph-name="T" unicode="T" horiz-adv-x="1265" 
d="M1229 1434v-211h-486v-1223h-227v1223h-479v211h1192z" />
    <glyph glyph-name="U" unicode="U" horiz-adv-x="1488" 
d="M1096 1434h223v-893q0 -277 -148 -427.5t-423 -150.5q-276 0 -427 151t-151 427v893h227v-897q0 -175 93.5 -267t265.5 -92q166 0 253 84t87 248v924z" />
    <glyph glyph-name="V" unicode="V" horiz-adv-x="1359" 
d="M1065 1434h238l-517 -1434h-213l-516 1434h242l383 -1158z" />
    <glyph glyph-name="W" unicode="W" horiz-adv-x="2066" 
d="M1999 1434l-389 -1434h-238l-338 1143l-342 -1143h-235l-389 1434h241l275 -1125l336 1125h235l336 -1127l274 1127h234z" />
    <glyph glyph-name="X" unicode="X" horiz-adv-x="1441" 
d="M1335 1434l-483 -699l512 -735h-289l-358 537l-359 -537h-280l510 727l-490 707h287l338 -506l336 506h276z" />
    <glyph glyph-name="Y" unicode="Y" horiz-adv-x="1374" 
d="M1063 1434h254l-516 -889v-545h-228v545l-516 889h260l373 -686z" />
    <glyph glyph-name="Z" unicode="Z" horiz-adv-x="1359" 
d="M1262 213v-213h-1143v225l825 998h-799v211h1074v-224l-824 -997h867z" />
    <glyph glyph-name="bracketleft" unicode="[" horiz-adv-x="651" 
d="M150 -309v1921h413v-156h-209v-1612h209v-153h-413z" />
    <glyph glyph-name="backslash" unicode="\" horiz-adv-x="892" 
d="M846 -176h-203l-596 1761h203z" />
    <glyph glyph-name="bracketright" unicode="]" horiz-adv-x="651" 
d="M502 -309h-414v153h209v1612h-209v156h414v-1921z" />
    <glyph glyph-name="asciicircum" unicode="^" horiz-adv-x="1026" 
d="M938 870h-221l-205 342l-205 -342h-219l324 564h200z" />
    <glyph glyph-name="underscore" unicode="_" horiz-adv-x="1130" 
d="M1042 -227h-954v186h954v-186z" />
    <glyph glyph-name="grave" unicode="`" horiz-adv-x="428" 
d="M260 1243l-260 285l164 125l264 -410h-168z" />
    <glyph glyph-name="a" unicode="a" horiz-adv-x="1146" 
d="M987 727v-727h-207v158q-116 -181 -342 -181q-158 0 -249 85.5t-91 228.5q0 156 95 221q99 67 231 88l223 35q62 9 96.5 36t34.5 89q0 131 -192 131q-219 0 -254 -176h-205q19 162 143.5 256t325.5 94q189 0 290 -85t101 -253zM772 442v76q-64 -21 -145 -33l-119 -18
q-79 -12 -137 -45q-60 -35 -60 -121q0 -68 45.5 -104.5t130.5 -36.5q126 0 205.5 78t79.5 204z" />
    <glyph glyph-name="b" unicode="b" horiz-adv-x="1290" 
d="M1192 524q0 -248 -126.5 -397.5t-334.5 -149.5q-125 0 -215.5 51.5t-134.5 141.5v-170h-211v1456h217v-592q44 96 137 148.5t217 52.5q204 0 327.5 -148t123.5 -393zM975 516q0 160 -81 257t-214 97q-134 0 -217.5 -98t-83.5 -256t83.5 -256t217.5 -98q133 0 214 97
t81 257z" />
    <glyph glyph-name="c" unicode="c" horiz-adv-x="1165" 
d="M602 -23q-231 0 -367.5 146.5t-136.5 390.5q0 245 141 398t371 153q196 0 322 -111t129 -286h-211q-8 95 -70.5 148.5t-171.5 53.5q-136 0 -214.5 -93.5t-78.5 -254.5q0 -162 77.5 -255t213.5 -93q104 0 171 56t77 153h213q-19 -189 -143.5 -297.5t-321.5 -108.5z" />
    <glyph glyph-name="d" unicode="d" horiz-adv-x="1290" 
d="M903 1456h217v-1456h-211v174q-117 -197 -358 -197q-203 0 -328 150t-125 397q0 240 133 390.5t338 150.5q232 0 334 -172v563zM911 524q0 159 -82 257t-217 98t-216 -97t-81 -256q0 -160 81 -258t216 -98t217 97t82 257z" />
    <glyph glyph-name="e" unicode="e" horiz-adv-x="1161" 
d="M1063 551v-90h-762q0 -142 81.5 -222.5t223.5 -80.5q195 0 256 149h191q-39 -150 -163 -240t-300 -90q-223 0 -357.5 146.5t-134.5 390.5q0 247 138.5 399t361.5 152q211 0 338 -140t127 -374zM594 885q-123 0 -202 -72t-89 -195h553q0 124 -70 195.5t-192 71.5z" />
    <glyph glyph-name="f" unicode="f" horiz-adv-x="718" 
d="M672 1270h-99q-69 0 -99 -30t-30 -99v-97h201v-188h-201v-856h-215v856h-161v188h161v82q0 183 69.5 256.5t240.5 73.5h133v-186z" />
    <glyph glyph-name="g" unicode="g" horiz-adv-x="1259" 
d="M895 1044h205v-981q0 -226 -130.5 -352.5t-365.5 -126.5q-210 0 -341 99.5t-154 273.5h213q17 -94 90.5 -146.5t191.5 -52.5q142 0 216.5 71.5t74.5 205.5v188q-44 -86 -133.5 -132t-206.5 -46q-212 0 -334 137q-123 138 -123 373q0 233 123 371q124 139 334 139
q120 0 209.5 -46.5t130.5 -131.5v157zM885 557q0 149 -76.5 236.5t-206.5 87.5q-131 0 -209 -88t-78 -236q0 -150 77 -239t210 -89q131 0 207 88t76 240z" />
    <glyph glyph-name="h" unicode="h" horiz-adv-x="1230" 
d="M1071 676v-676h-215v653q0 100 -55.5 159.5t-151.5 59.5q-122 0 -192 -83.5t-70 -229.5v-559h-217v1456h217v-575q54 98 128.5 141t191.5 43q177 0 270.5 -99.5t93.5 -289.5z" />
    <glyph glyph-name="i" unicode="i" horiz-adv-x="542" 
d="M156 1227v250h231v-250h-231zM162 0v1044h217v-1044h-217z" />
    <glyph glyph-name="j" unicode="j" horiz-adv-x="563" 
d="M186 1227v250h232v-250h-232zM193 1044h217v-1105q0 -183 -70 -257.5t-240 -74.5h-104v184h70q67 0 97 32.5t30 104.5v1116z" />
    <glyph glyph-name="k" unicode="k" horiz-adv-x="1169" 
d="M1133 0h-259l-329 440l-158 -168v-272h-217v1456h217v-905l434 493h287l-420 -450z" />
    <glyph glyph-name="l" unicode="l" horiz-adv-x="557" 
d="M387 1456v-1456h-217v1456h217z" />
    <glyph glyph-name="m" unicode="m" horiz-adv-x="1806" 
d="M1647 717v-717h-215v666q0 104 -49 158.5t-142 54.5q-110 0 -166.5 -72.5t-56.5 -212.5v-594h-217v666q0 103 -49 158t-142 55q-108 0 -165.5 -73.5t-57.5 -209.5v-596h-217v1044h215v-174q66 195 289 195q237 0 297 -213q83 213 321 213q166 0 260.5 -92t94.5 -256z" />
    <glyph glyph-name="n" unicode="n" horiz-adv-x="1230" 
d="M1071 676v-676h-215v653q0 100 -55.5 159.5t-151.5 59.5q-122 0 -192 -83.5t-70 -229.5v-559h-217v1044h217v-155q54 93 129.5 134.5t190.5 41.5q177 0 270.5 -99.5t93.5 -289.5z" />
    <glyph glyph-name="o" unicode="o" horiz-adv-x="1220" 
d="M1122 520q0 -247 -138 -395t-374 -148t-374 148t-138 395q0 246 139 395.5t373 149.5t373 -149.5t139 -395.5zM315 520q0 -162 78.5 -254t220.5 -92q138 0 214.5 92.5t76.5 253.5t-78.5 254.5t-218.5 93.5q-138 0 -215.5 -93.5t-77.5 -254.5z" />
    <glyph glyph-name="p" unicode="p" horiz-adv-x="1290" 
d="M1192 537q0 -244 -130.5 -394.5t-340.5 -150.5q-110 0 -197.5 43.5t-136.5 122.5v-551h-217v1437h211v-188q52 100 145 154.5t219 54.5q201 0 324 -145t123 -383zM975 526q0 156 -81 250t-216 94t-217 -94.5t-82 -249.5q0 -158 81 -252t218 -94q133 0 215 95.5t82 250.5z
" />
    <glyph glyph-name="q" unicode="q" horiz-adv-x="1280" 
d="M909 1044h211v-1437h-217v573q-42 -89 -134.5 -138.5t-209.5 -49.5q-210 0 -335.5 147.5t-125.5 392.5q0 242 125.5 387.5t333.5 145.5q246 0 352 -195v174zM911 532q0 156 -82 251.5t-217 95.5t-216 -94.5t-81 -252.5q0 -156 81.5 -250t217.5 -94q135 0 216 94t81 250z
" />
    <glyph glyph-name="r" unicode="r" horiz-adv-x="786" 
d="M735 1055v-209h-41q-307 0 -307 -326v-520h-217v1044h215v-165q79 176 291 176h59z" />
    <glyph glyph-name="s" unicode="s" horiz-adv-x="1079" 
d="M991 317q0 -156 -119 -248t-321 -92q-205 0 -329 94t-134 259h217q10 -88 77.5 -135.5t180.5 -47.5q103 0 160 38t57 106q0 58 -43.5 81.5t-177.5 47.5q-131 24 -231 49q-90 28 -147.5 92.5t-57.5 171.5q0 154 110.5 243t301.5 89t304.5 -91t125.5 -251h-207
q-11 82 -66.5 126t-152.5 44q-94 0 -151.5 -41.5t-57.5 -108.5q7 -68 55 -92t195 -47q148 -24 221 -45q83 -22 136.5 -82.5t53.5 -159.5z" />
    <glyph glyph-name="t" unicode="t" horiz-adv-x="770" 
d="M692 186v-186h-145q-171 0 -241 73t-70 255v528h-199v188h199v252l217 58v-310h215v-188h-215v-537q0 -69 33 -101t102 -32h104z" />
    <glyph glyph-name="u" unicode="u" horiz-adv-x="1218" 
d="M834 1044h215v-1044h-209v176q-42 -92 -120 -140t-179 -48q-174 0 -277.5 108.5t-103.5 292.5v655h215v-634q0 -115 54.5 -175.5t154.5 -60.5q122 0 186 95t64 270v505z" />
    <glyph glyph-name="v" unicode="v" horiz-adv-x="1132" 
d="M874 1044h224l-410 -1044h-246l-407 1044h231l303 -835z" />
    <glyph glyph-name="w" unicode="w" horiz-adv-x="1744" 
d="M1698 1044l-359 -1044h-217l-250 756l-249 -756h-217l-359 1044h229l244 -786l248 786h219l250 -786l242 786h219z" />
    <glyph glyph-name="x" unicode="x" horiz-adv-x="1193" 
d="M858 0l-262 373l-264 -373h-269l396 518l-402 526h277l258 -364l254 364h268l-387 -507l410 -537h-279z" />
    <glyph glyph-name="y" unicode="y" horiz-adv-x="1087" 
d="M831 1044h220l-439 -1148q-43 -113 -142 -172.5t-245 -59.5h-84v184h74q82 0 141 34.5t82 97.5l8 24l-409 1040h227l285 -784z" />
    <glyph glyph-name="z" unicode="z" horiz-adv-x="1089" 
d="M979 182v-182h-870v197l608 667h-600v180h864v-196l-612 -666h610z" />
    <glyph glyph-name="braceleft" unicode="{" horiz-adv-x="731" 
d="M223 631q130 -27 188 -83.5t58 -170.5v-471q0 -105 31 -137.5t118 -32.5h46v-129h-148q-46 0 -78 4.5t-66.5 21t-55.5 46.5t-35.5 82.5t-16.5 127.5v457q0 104 -50.5 148.5t-166.5 62.5v148q116 18 166.5 62t50.5 148v457q2 75 16.5 127.5t35.5 82t55.5 46.5t66 21.5
t78.5 5.5h148v-129h-46q-87 0 -118 -33t-31 -139v-469q0 -114 -58 -170.5t-188 -83.5z" />
    <glyph glyph-name="bar" unicode="|" horiz-adv-x="503" 
d="M354 1663v-1892h-204v1892h204z" />
    <glyph glyph-name="braceright" unicode="}" horiz-adv-x="731" 
d="M262 885v469q0 106 -31 139t-118 33h-45v129h147q47 -1 78.5 -5.5t66 -21.5t55.5 -46.5t35.5 -82t16.5 -127.5v-457q0 -104 50.5 -148t166.5 -62v-148q-116 -18 -166.5 -62.5t-50.5 -148.5v-457q-2 -75 -16.5 -127.5t-35.5 -82.5t-55.5 -46.5t-66.5 -21t-78 -4.5h-147
v129h45q87 0 118 32.5t31 137.5v471q0 114 58 170.5t188 83.5q-130 27 -188 83.5t-58 170.5z" />
    <glyph glyph-name="asciitilde" unicode="~" 
d="M791 498q-60 0 -110 22.5t-118 73.5q-74 53 -104 53q-97 0 -97 -133h-190q0 155 74.5 251.5t191.5 96.5q53 0 101.5 -21.5t117.5 -70.5q80 -57 117 -57q43 0 62.5 36.5t19.5 120.5h199q0 -176 -70 -274t-194 -98z" />
    <glyph glyph-name="exclamdown" unicode="&#xa1;" horiz-adv-x="628" 
d="M190 987h248v-256h-248v256zM432 -446h-233v569l45 440h141l47 -440v-569z" />
    <glyph glyph-name="cent" unicode="&#xa2;" horiz-adv-x="1128" 
d="M637 -16v-226h-133v232q-193 31 -304.5 174.5t-111.5 365.5t111.5 363.5t304.5 167.5v168h133v-162q174 -12 282 -115.5t115 -267.5h-194q-11 91 -64 147t-139 66v-741q85 7 138 62t71 149h194q-25 -172 -130.5 -272.5t-272.5 -110.5zM504 166v725
q-107 -29 -167.5 -124.5t-60.5 -236.5q0 -140 61 -236.5t167 -127.5z" />
    <glyph glyph-name="sterling" unicode="&#xa3;" horiz-adv-x="1304" 
d="M907 -23q-80 0 -152.5 33.5t-174.5 118.5q-61 -79 -118 -115.5t-145 -36.5q-113 0 -180 64t-67 172q0 104 62 168.5t161 64.5t186 -69q15 63 15 211v147h-220v125h220v242q0 157 81.5 244.5t233.5 87.5h186v-185h-159q-63 0 -99.5 -38.5t-36.5 -104.5v-246h291v-125h-291
v-106q0 -137 -10 -215q-8 -65 -41 -142q129 -108 236 -108q149 0 149 223h201q-2 -198 -86 -304t-242 -106zM451 242q-67 61 -134 61q-44 0 -71 -24.5t-27 -65.5q0 -39 26.5 -65.5t69.5 -26.5q50 0 87 32.5t49 88.5z" />
    <glyph glyph-name="currency" unicode="&#xa4;" horiz-adv-x="1226" 
d="M946 295l182 -229l-120 -95l-181 226q-95 -56 -213 -56q-113 0 -213 56l-182 -226l-121 95l185 231q-103 121 -103 281q0 165 109 286l-191 238l121 92l189 -236q94 52 206 52q105 0 203 -49l191 233l120 -92l-188 -236q109 -121 109 -288q0 -164 -103 -283zM854 578
q0 108 -66 178.5t-174 70.5t-172.5 -70.5t-64.5 -178.5q0 -112 64.5 -184t172.5 -72q110 0 175 71.5t65 184.5z" />
    <glyph glyph-name="yen" unicode="&#xa5;" horiz-adv-x="1353" 
d="M776 713v-23h314v-125h-314v-182h314v-125h-314v-258h-196v258h-312v125h312v182h-312v125h312v23l-435 721h236l305 -547l305 547h219z" />
    <glyph glyph-name="brokenbar" unicode="&#xa6;" horiz-adv-x="503" 
d="M150 866v797h204v-797h-204zM354 567v-796h-204v796h204z" />
    <glyph glyph-name="section" unicode="&#xa7;" horiz-adv-x="1062" 
d="M948 285q0 -148 -112.5 -235t-303.5 -87q-196 0 -316.5 93.5t-127.5 256.5h211q10 -90 74.5 -139t169.5 -49q95 0 150 37t55 104q0 64 -52 96t-166 52q-99 16 -190 43q-94 29 -154.5 92t-60.5 156q0 79 44 134t118 74q-67 29 -105.5 94.5t-38.5 147.5q0 141 110.5 225
t295.5 84q186 0 293.5 -83.5t113.5 -231.5h-196q-18 158 -211 158q-97 0 -152 -38.5t-55 -107.5q7 -73 55.5 -99t186.5 -46q204 -31 297.5 -92t93.5 -189q0 -181 -199 -235q88 -25 130 -77t42 -138zM573 584q224 0 224 131q0 78 -72.5 118.5t-200.5 40.5q-221 0 -221 -145
t270 -145z" />
    <glyph glyph-name="dieresis" unicode="&#xa8;" horiz-adv-x="577" 
d="M197 1464v-221h-197v221h197zM578 1464v-221h-197v221h197z" />
    <glyph glyph-name="copyright" unicode="&#xa9;" horiz-adv-x="1757" 
d="M1638 717q2 -163 -56.5 -307t-160.5 -244.5t-243 -157.5t-299 -55q-158 -2 -299 55t-243 157.5t-161 244.5t-57 307q-2 163 57 307t161 244.5t243 157.5t299 55q158 2 299 -55t243 -157.5t160.5 -244.5t56.5 -307zM1499 717q1 139 -46.5 258.5t-130.5 202.5t-198 129
t-245 45q-174 2 -316.5 -77.5t-225 -226.5t-79.5 -331q-3 -184 79.5 -331t225 -226.5t316.5 -77.5q130 -1 245 45t198 129t130.5 202.5t46.5 258.5zM1090 610h161q0 -156 -100 -245t-264 -89q-186 0 -298 116t-112 335q0 224 117 332t295 108q160 0 258 -86t98 -233h-164
q-7 73 -61.5 117.5t-130.5 44.5q-103 0 -171.5 -73.5t-68.5 -209.5q0 -142 66.5 -216.5t171.5 -74.5q82 0 140.5 48t62.5 126z" />
    <glyph glyph-name="ordfeminine" unicode="&#xaa;" horiz-adv-x="964" 
d="M805 1171v-563h-191v119q-42 -69 -109 -103t-145 -34q-115 0 -188.5 62t-73.5 179q0 130 80 183q81 52 178 67l164 23q94 12 94 86q0 41 -36 62.5t-95 21.5q-76 0 -115 -31t-53 -90h-186q25 136 122.5 208.5t250.5 72.5q145 0 224 -65t79 -198zM610 948v45
q-22 -11 -104 -24l-82 -13q-65 -13 -98 -34.5t-33 -73.5q0 -94 117 -94q87 0 143.5 55.5t56.5 138.5z" />
    <glyph glyph-name="guillemotleft" unicode="&#xab;" horiz-adv-x="1255" 
d="M598 885l-274 -303l274 -306l-127 -118l-373 424l373 422zM1096 885l-275 -303l275 -306l-127 -118l-373 424l373 422z" />
    <glyph glyph-name="logicalnot" unicode="&#xac;" 
d="M252 545v188h725v-532h-193v344h-532z" />
    <glyph glyph-name="registered" unicode="&#xae;" horiz-adv-x="1013" 
d="M973 997q0 -200 -134.5 -333.5t-330.5 -133.5q-198 0 -332.5 133.5t-134.5 333.5q0 203 134 337t333 134q198 0 331.5 -134t133.5 -337zM889 997q0 172 -109 282t-272 110q-162 0 -272.5 -110.5t-110.5 -281.5q0 -168 110.5 -277.5t272.5 -109.5q163 0 272 109t109 278z
M610 942l109 -170h-98l-101 158h-88v-158h-86v473h186q82 0 127.5 -46t45.5 -116q0 -46 -24.5 -84.5t-70.5 -56.5zM432 1163v-153h105q38 0 59.5 20t21.5 53q0 80 -81 80h-105z" />
    <glyph glyph-name="overscore" unicode="&#xaf;" horiz-adv-x="583" 
d="M584 1243h-584v150h584v-150z" />
    <glyph glyph-name="degree" unicode="&#xb0;" horiz-adv-x="847" 
d="M420 1561q155 0 257.5 -99t102.5 -256q0 -155 -103 -256.5t-257 -101.5q-149 0 -250.5 102t-101.5 256q0 156 101 255.5t251 99.5zM424 1405q-82 0 -134 -55.5t-52 -141.5q0 -88 52 -145t134 -57q80 0 132 57t52 145q0 86 -52 141.5t-132 55.5z" />
    <glyph glyph-name="plusminus" unicode="&#xb1;" 
d="M1036 1061v-189h-323v-344h-193v344h-327v189h327v348h193v-348h323zM1036 385v-188h-843v188h843z" />
    <glyph glyph-name="uni00B2" unicode="&#xb2;" horiz-adv-x="774" 
d="M719 737v-182h-639v172l180 147l37 31q132 107 166 146q43 46 43 98q0 47 -29.5 73.5t-83.5 26.5q-64 0 -102.5 -38t-38.5 -113h-193q0 156 101.5 246t249.5 90q132 0 212 -69t80 -194q0 -78 -34 -139q-36 -60 -82 -104q-44 -44 -148 -125l-82 -66h363z" />
    <glyph glyph-name="uni00B3" unicode="&#xb3;" horiz-adv-x="770" 
d="M713 795q0 -119 -90 -186.5t-236 -67.5q-153 0 -241.5 75.5t-88.5 221.5h195q0 -119 141 -119q55 0 89 25t34 61q0 96 -149 96h-62v168h57q66 0 100 28t34 79q0 36 -28 56.5t-81 20.5q-61 0 -95 -32t-34 -91h-192q0 163 100 232q104 72 237 72q130 0 210.5 -65.5
t80.5 -174.5q0 -73 -37 -126.5t-94 -72.5q150 -52 150 -200z" />
    <glyph glyph-name="acute" unicode="&#xb4;" horiz-adv-x="428" 
d="M168 1243h-168l264 410l164 -125z" />
    <glyph glyph-name="paragraph" unicode="&#xb6;" horiz-adv-x="1507" 
d="M977 1434v-1702h-189v833h-182q-216 0 -351.5 126.5t-135.5 322.5q0 189 128 304.5t335 115.5h395zM1128 1434h189v-1702h-189v1702zM600 776h188v447h-198q-110 0 -176 -61t-66 -161q0 -104 68 -164.5t184 -60.5z" />
    <glyph glyph-name="middot" unicode="&#xb7;" horiz-adv-x="423" 
d="M88 594v256h248v-256h-248z" />
    <glyph glyph-name="cedilla" unicode="&#xb8;" horiz-adv-x="421" 
d="M422 -252q0 -75 -57.5 -124.5t-147.5 -49.5q-129 0 -217 76l61 94q73 -61 148 -61q42 0 66 19t24 50q0 74 -186 74v176h100v-96q95 -5 152 -47.5t57 -110.5z" />
    <glyph glyph-name="uni00B9" unicode="&#xb9;" horiz-adv-x="819" 
d="M510 739h240v-184h-678v184h239v418q-100 -50 -211 -53v184q149 15 246 121h164v-670z" />
    <glyph glyph-name="ordmasculine" unicode="&#xba;" horiz-adv-x="1001" 
d="M903 1014q0 -195 -110.5 -309.5t-292.5 -114.5t-292 114.5t-110 309.5q0 193 111 307q110 113 291 113t291 -113q112 -112 112 -307zM299 1014q0 -116 55.5 -179t149.5 -63t146 63.5t52 178.5t-55 177t-149 62t-146.5 -63t-52.5 -176z" />
    <glyph glyph-name="guillemotright" unicode="&#xbb;" horiz-adv-x="1255" 
d="M160 885l127 119l372 -422l-372 -424l-127 118l274 306zM657 885l127 119l373 -422l-373 -424l-127 118l275 306z" />
    <glyph glyph-name="onequarter" unicode="&#xbc;" horiz-adv-x="2072" 
d="M1632 1434l-846 -1434h-202l846 1434h202zM629 737h239v-184h-678v184h240v418q-100 -50 -211 -53v184q149 15 246 121h164v-670zM1882 326v-183h-96v-145h-187v147h-391v150l381 557h197v-526h96zM1599 326v270l-182 -270h182z" />
    <glyph glyph-name="onehalf" unicode="&#xbd;" horiz-adv-x="2316" 
d="M2126 180v-182h-639v172l180 147l37 31q132 107 166 146q43 46 43 98q0 47 -29.5 73.5t-83.5 26.5q-64 0 -102.5 -38t-38.5 -113h-193q0 156 101.5 246t249.5 90q132 0 212 -69t80 -194q0 -78 -34 -139q-36 -60 -82 -104q-44 -44 -148 -125l-82 -66h363zM1737 1434
l-846 -1434h-203l846 1434h203zM629 737h239v-184h-678v184h240v418q-100 -50 -211 -53v184q149 15 246 121h164v-670z" />
    <glyph glyph-name="threequarters" unicode="&#xbe;" horiz-adv-x="2183" 
d="M846 795q0 -119 -90 -186.5t-236 -67.5q-153 0 -241.5 75.5t-88.5 221.5h195q0 -119 141 -119q55 0 89 25t34 61q0 96 -149 96h-62v168h58q66 0 99.5 28t33.5 79q0 36 -28 56.5t-81 20.5q-61 0 -95 -32t-34 -91h-192q0 163 100 232q104 72 238 72q130 0 210 -65.5
t80 -174.5q0 -73 -37 -126.5t-94 -72.5q150 -52 150 -200zM1677 1434l-846 -1434h-202l846 1434h202zM1993 326v-183h-97v-145h-186v147h-391v150l381 557h196v-526h97zM1710 326v270l-182 -270h182z" />
    <glyph glyph-name="questiondown" unicode="&#xbf;" horiz-adv-x="1126" 
d="M735 1040v-256h-250v256h250zM709 602v-70q0 -107 -38 -180t-116 -131l-127 -94q-94 -67 -94 -186q0 -87 50 -134t148 -47q119 0 187 63.5t76 170.5h213q-17 -192 -146.5 -301t-339.5 -109q-194 0 -298.5 95t-104.5 258q0 186 147 294l123 95q64 49 93.5 99.5t29.5 121.5
v55h197z" />
    <glyph glyph-name="Agrave" unicode="&#xc0;" horiz-adv-x="1529" 
d="M1214 0l-129 346h-647l-129 -346h-241l559 1434h276l559 -1434h-248zM518 557h488l-244 655zM678 1589l-227 232l163 125l230 -357h-166z" />
    <glyph glyph-name="Aacute" unicode="&#xc1;" horiz-adv-x="1529" 
d="M1214 0l-129 346h-647l-129 -346h-241l559 1434h276l559 -1434h-248zM518 557h488l-244 655zM864 1589h-166l230 357l164 -125z" />
    <glyph glyph-name="Acircumflex" unicode="&#xc2;" horiz-adv-x="1529" 
d="M1214 0l-129 346h-647l-129 -346h-241l559 1434h276l559 -1434h-248zM518 557h488l-244 655zM901 1589l-137 168l-133 -168h-195l271 340h118l271 -340h-195z" />
    <glyph glyph-name="Atilde" unicode="&#xc3;" horiz-adv-x="1529" 
d="M920 1589q-35 0 -65.5 15t-86.5 53q-65 53 -106 53q-66 0 -72 -108h-121q4 121 56 193.5t134 72.5q39 0 71.5 -15.5t84.5 -54.5q42 -30 62 -40.5t41 -10.5q32 0 47.5 27t21.5 88h123q-5 -123 -56.5 -198t-133.5 -75zM1214 0l-129 346h-647l-129 -346h-241l559 1434h276
l559 -1434h-248zM518 557h488l-244 655z" />
    <glyph glyph-name="Adieresis" unicode="&#xc4;" horiz-adv-x="1529" 
d="M664 1810v-221h-197v221h197zM1063 1810v-221h-197v221h197zM1085 346l129 -346h248l-559 1434h-276l-559 -1434h241l129 346h647zM1006 557h-488l244 655z" />
    <glyph glyph-name="Aring" unicode="&#xc5;" horiz-adv-x="1529" 
d="M764 1946q92 0 152.5 -59.5t60.5 -151.5q0 -93 -60 -153t-153 -60q-91 0 -150 60.5t-59 152.5t59 151.5t150 59.5zM766 1843q-47 0 -75.5 -30t-28.5 -78q0 -50 27.5 -80.5t76.5 -30.5q47 0 75.5 30.5t28.5 80.5q0 48 -28.5 78t-75.5 30zM1214 0l-129 346h-647l-129 -346
h-241l559 1434h276l559 -1434h-248zM518 557h488l-244 655z" />
    <glyph glyph-name="AE" unicode="&#xc6;" horiz-adv-x="2119" 
d="M1264 213h757v-213h-985v362h-524l-184 -362h-260l747 1434h1167v-211h-718v-392h663v-213h-663v-405zM621 575h415v609h-104z" />
    <glyph glyph-name="Ccedilla" unicode="&#xc7;" horiz-adv-x="1554" 
d="M829 -37v-57q95 -5 152 -47.5t57 -110.5q0 -76 -57 -125t-147 -49q-130 0 -218 76l62 94q73 -61 147 -61q42 0 66 19t24 50q0 74 -186 74v141q-279 31 -444.5 237t-165.5 519q0 219 86.5 387.5t247.5 262t372 93.5q259 0 424.5 -135.5t190.5 -363.5h-232
q-15 130 -125 209q-107 79 -266 79q-212 0 -340.5 -145t-128.5 -383q0 -240 128.5 -392.5t340.5 -152.5q164 0 275.5 90.5t124.5 243.5h229q-12 -243 -184 -396.5t-433 -156.5z" />
    <glyph glyph-name="Egrave" unicode="&#xc8;" horiz-adv-x="1273" 
d="M1176 0h-986v1434h947v-211h-719v-392h663v-213h-663v-405h758v-213zM637 1589l-227 232l163 125l230 -357h-166z" />
    <glyph glyph-name="Eacute" unicode="&#xc9;" horiz-adv-x="1273" 
d="M1176 0h-986v1434h947v-211h-719v-392h663v-213h-663v-405h758v-213zM721 1589h-166l229 357l164 -125z" />
    <glyph glyph-name="Ecircumflex" unicode="&#xca;" horiz-adv-x="1273" 
d="M1176 0h-986v1434h947v-211h-719v-392h663v-213h-663v-405h758v-213zM801 1589l-137 168l-134 -168h-194l270 340h119l270 -340h-194z" />
    <glyph glyph-name="Edieresis" unicode="&#xcb;" horiz-adv-x="1273" 
d="M190 0h986v213h-758v405h663v213h-663v392h719v211h-947v-1434zM582 1810v-221h-197v221h197zM981 1810v-221h-197v221h197z" />
    <glyph glyph-name="Igrave" unicode="&#xcc;" horiz-adv-x="628" 
d="M428 1434v-1434h-227v1434h227zM219 1589l-227 232l164 125l229 -357h-166z" />
    <glyph glyph-name="Iacute" unicode="&#xcd;" horiz-adv-x="628" 
d="M408 1589h-166l229 357l164 -125zM428 1434v-1434h-227v1434h227z" />
    <glyph glyph-name="Icircumflex" unicode="&#xce;" horiz-adv-x="628" 
d="M428 1434v-1434h-227v1434h227zM449 1589l-138 168l-133 -168h-194l270 340h119l270 -340h-194z" />
    <glyph glyph-name="Idieresis" unicode="&#xcf;" horiz-adv-x="628" 
d="M428 0v1434h-227v-1434h227zM213 1810v-221h-197v221h197zM612 1810v-221h-196v221h196z" />
    <glyph glyph-name="Eth" unicode="&#xd0;" horiz-adv-x="1443" 
d="M1325 745q2 -114 -28 -223t-92.5 -204t-151.5 -166.5t-213.5 -112.5t-268.5 -39h-442v674h-164v110h164v650h477q161 0 295.5 -50t227.5 -140.5t144.5 -218.5t51.5 -280zM1096 745q0 216 -130 347t-350 131h-260v-439h332v-110h-332v-461h217q230 0 376.5 150t146.5 382z
" />
    <glyph glyph-name="Ntilde" unicode="&#xd1;" horiz-adv-x="1554" 
d="M1364 1434v-1434h-256l-694 1098v-1098h-224v1434h281l670 -1074v1074h223zM918 1589q-35 0 -65.5 15t-86.5 53q-65 53 -107 53q-65 0 -71 -108h-121q4 121 56 193.5t134 72.5q39 0 71.5 -15.5t84.5 -54.5q30 -22 42.5 -30t28.5 -14.5t31 -6.5q32 0 48 27t22 88h123
q-5 -123 -56.5 -198t-133.5 -75z" />
    <glyph glyph-name="Ograve" unicode="&#xd2;" horiz-adv-x="1656" 
d="M1538 715q3 -219 -89 -392.5t-255 -268t-365 -91.5q-202 -3 -365 91.5t-255.5 268t-89.5 392.5q0 221 91.5 393t253 266t365.5 94q151 2 283.5 -53.5t226.5 -154t147.5 -240t51.5 -305.5zM1307 715q0 252 -128.5 394t-349.5 142t-349 -142t-128 -394t128 -393.5
t349 -141.5t349.5 141.5t128.5 393.5zM733 1589l-227 232l164 125l229 -357h-166z" />
    <glyph glyph-name="Oacute" unicode="&#xd3;" horiz-adv-x="1656" 
d="M879 1589h-166l229 357l164 -125zM1538 715q3 -219 -89 -392.5t-255 -268t-365 -91.5q-202 -3 -365 91.5t-255.5 268t-89.5 392.5q0 221 91.5 393t253 266t365.5 94q151 2 283.5 -53.5t226.5 -154t147.5 -240t51.5 -305.5zM1307 715q0 252 -128.5 394t-349.5 142
t-349 -142t-128 -394t128 -393.5t349 -141.5t349.5 141.5t128.5 393.5z" />
    <glyph glyph-name="Ocircumflex" unicode="&#xd4;" horiz-adv-x="1656" 
d="M1538 715q3 -219 -89 -392.5t-255 -268t-365 -91.5q-202 -3 -365 91.5t-255.5 268t-89.5 392.5q0 221 91.5 393t253 266t365.5 94q151 2 283.5 -53.5t226.5 -154t147.5 -240t51.5 -305.5zM1307 715q0 252 -128.5 394t-349.5 142t-349 -142t-128 -394t128 -393.5
t349 -141.5t349.5 141.5t128.5 393.5zM965 1589l-138 168l-133 -168h-194l270 340h119l270 -340h-194z" />
    <glyph glyph-name="Otilde" unicode="&#xd5;" horiz-adv-x="1656" 
d="M1538 715q3 -219 -89 -392.5t-255 -268t-365 -91.5q-202 -3 -365 91.5t-255.5 268t-89.5 392.5q0 221 91.5 393t253 266t365.5 94q151 2 283.5 -53.5t226.5 -154t147.5 -240t51.5 -305.5zM1307 715q0 252 -128.5 394t-349.5 142t-349 -142t-128 -394t128 -393.5
t349 -141.5t349.5 141.5t128.5 393.5zM979 1589q-35 0 -65.5 15t-86.5 53q-65 53 -106 53q-66 0 -72 -108h-121q4 121 56.5 193.5t134.5 72.5q39 0 71 -15.5t84 -54.5q42 -30 62 -40.5t41 -10.5q32 0 48 27t22 88h122q-5 -123 -56.5 -198t-133.5 -75z" />
    <glyph glyph-name="Odieresis" unicode="&#xd6;" horiz-adv-x="1656" 
d="M1538 715q2 164 -51.5 305.5t-147.5 240t-226.5 154t-283.5 53.5q-204 0 -365.5 -94t-253 -266t-91.5 -393q-3 -219 89.5 -392.5t255.5 -268t365 -91.5q202 -3 365 91.5t255 268t89 392.5zM1307 715q0 -252 -128.5 -393.5t-349.5 -141.5t-349 141.5t-128 393.5t128 394
t349 142t349.5 -142t128.5 -394zM727 1810v-221h-197v221h197zM1126 1810v-221h-196v221h196z" />
    <glyph glyph-name="multiply" unicode="&#xd7;" 
d="M991 887l-246 -246l246 -246l-131 -131l-246 246l-245 -246l-131 131l245 246l-245 246l131 131l245 -246l246 246z" />
    <glyph glyph-name="Oslash" unicode="&#xd8;" horiz-adv-x="1656" 
d="M1538 715q3 -219 -89 -392.5t-255 -268t-365 -91.5q-217 0 -387 105l-129 -179l-118 88l133 183q-101 101 -155 243.5t-54 311.5q0 221 91.5 393t253 266t365.5 94q210 0 375 -98l127 176l119 -88l-129 -178q105 -101 161 -245t56 -320zM461 344l614 848q-109 59 -246 59
q-221 0 -349 -142t-128 -394q0 -229 109 -371zM1307 715q0 240 -119 383l-617 -852q111 -66 258 -66q221 0 349.5 141.5t128.5 393.5z" />
    <glyph glyph-name="Ugrave" unicode="&#xd9;" horiz-adv-x="1488" 
d="M1096 1434h223v-893q0 -277 -148 -427.5t-423 -150.5q-276 0 -427 151t-151 427v893h227v-897q0 -175 93.5 -267t265.5 -92q166 0 253 84t87 248v924zM670 1589l-228 232l164 125l230 -357h-166z" />
    <glyph glyph-name="Uacute" unicode="&#xda;" horiz-adv-x="1488" 
d="M788 1589h-165l229 357l164 -125zM1096 1434h223v-893q0 -277 -148 -427.5t-423 -150.5q-276 0 -427 151t-151 427v893h227v-897q0 -175 93.5 -267t265.5 -92q166 0 253 84t87 248v924z" />
    <glyph glyph-name="Ucircumflex" unicode="&#xdb;" horiz-adv-x="1488" 
d="M1096 1434h223v-893q0 -277 -148 -427.5t-423 -150.5q-276 0 -427 151t-151 427v893h227v-897q0 -175 93.5 -267t265.5 -92q166 0 253 84t87 248v924zM881 1589l-138 168l-133 -168h-194l270 340h119l270 -340h-194z" />
    <glyph glyph-name="Udieresis" unicode="&#xdc;" horiz-adv-x="1488" 
d="M1319 1434h-223v-924q0 -164 -87 -248t-253 -84q-172 0 -265.5 92t-93.5 267v897h-227v-893q0 -276 151 -427t427 -151q275 0 423 150.5t148 427.5v893zM643 1810v-221h-197v221h197zM1042 1810v-221h-196v221h196z" />
    <glyph glyph-name="Yacute" unicode="&#xdd;" horiz-adv-x="1374" 
d="M692 1589h-166l230 357l164 -125zM1063 1434h254l-516 -889v-545h-228v545l-516 889h260l373 -686z" />
    <glyph glyph-name="Thorn" unicode="&#xde;" horiz-adv-x="1308" 
d="M1231 823q0 -197 -136 -322.5t-352 -125.5h-325v-375h-228v1456h228v-215h350q209 0 336 -115t127 -303zM1001 811q0 100 -65 160.5t-174 60.5h-344v-448h334q116 0 182.5 60.5t66.5 166.5z" />
    <glyph glyph-name="germandbls" unicode="&#xdf;" horiz-adv-x="1298" 
d="M1200 379q0 -173 -116.5 -276t-311.5 -103h-141v182h102q111 0 179.5 59.5t68.5 157.5q0 106 -85 162t-265 66v176q122 17 186 78.5t64 165.5q0 103 -62 159t-178 56q-120 0 -188 -64t-68 -180v-1018h-215v1018q0 201 127 319q128 119 340 119q211 0 335 -103t124 -268
q0 -121 -70.5 -214t-181.5 -126q177 -29 266.5 -123t89.5 -243z" />
    <glyph glyph-name="agrave" unicode="&#xe0;" horiz-adv-x="1146" 
d="M987 727v-727h-207v158q-116 -181 -342 -181q-158 0 -249 85.5t-91 228.5q0 156 95 221q99 67 231 88l223 35q62 9 96.5 36t34.5 89q0 131 -192 131q-219 0 -254 -176h-205q19 162 143.5 256t325.5 94q189 0 290 -85t101 -253zM772 442v76q-64 -21 -145 -33l-119 -18
q-79 -12 -137 -45q-60 -35 -60 -121q0 -68 45.5 -104.5t130.5 -36.5q126 0 205.5 78t79.5 204zM569 1243l-260 285l164 125l264 -410h-168z" />
    <glyph glyph-name="aacute" unicode="&#xe1;" horiz-adv-x="1146" 
d="M987 727v-727h-207v158q-116 -181 -342 -181q-158 0 -249 85.5t-91 228.5q0 156 95 221q99 67 231 88l223 35q62 9 96.5 36t34.5 89q0 131 -192 131q-219 0 -254 -176h-205q19 162 143.5 256t325.5 94q189 0 290 -85t101 -253zM772 442v76q-64 -21 -145 -33l-119 -18
q-79 -12 -137 -45q-60 -35 -60 -121q0 -68 45.5 -104.5t130.5 -36.5q126 0 205.5 78t79.5 204zM649 1243h-168l264 410l164 -125z" />
    <glyph glyph-name="acircumflex" unicode="&#xe2;" horiz-adv-x="1146" 
d="M987 727v-727h-207v158q-116 -181 -342 -181q-158 0 -249 85.5t-91 228.5q0 156 95 221q99 67 231 88l223 35q62 9 96.5 36t34.5 89q0 131 -192 131q-219 0 -254 -176h-205q19 162 143.5 256t325.5 94q189 0 290 -85t101 -253zM772 442v76q-64 -21 -145 -33l-119 -18
q-79 -12 -137 -45q-60 -35 -60 -121q0 -68 45.5 -104.5t130.5 -36.5q126 0 205.5 78t79.5 204zM729 1243l-137 168l-133 -168h-195l271 340h118l271 -340h-195z" />
    <glyph glyph-name="atilde" unicode="&#xe3;" horiz-adv-x="1146" 
d="M987 727v-727h-207v158q-116 -181 -342 -181q-158 0 -249 85.5t-91 228.5q0 156 95 221q99 67 231 88l223 35q62 9 96.5 36t34.5 89q0 131 -192 131q-219 0 -254 -176h-205q19 162 143.5 256t325.5 94q189 0 290 -85t101 -253zM772 442v76q-64 -21 -145 -33l-119 -18
q-79 -12 -137 -45q-60 -35 -60 -121q0 -68 45.5 -104.5t130.5 -36.5q126 0 205.5 78t79.5 204zM715 1243q-35 0 -65.5 15t-86.5 53q-65 53 -106 53q-66 0 -72 -109h-121q4 121 56.5 195t134.5 74q39 0 73 -17t82 -55q42 -30 62 -40.5t41 -10.5q32 0 47.5 27t21.5 88h123
q-5 -123 -56.5 -198t-133.5 -75z" />
    <glyph glyph-name="adieresis" unicode="&#xe4;" horiz-adv-x="1146" 
d="M987 727q0 168 -101 253t-290 85q-201 0 -325.5 -94t-143.5 -256h205q35 176 254 176q192 0 192 -131q0 -62 -34.5 -89t-96.5 -36l-223 -35q-132 -21 -231 -88q-95 -65 -95 -221q0 -143 91 -228.5t249 -85.5q226 0 342 181v-158h207v727zM772 442q0 -126 -79.5 -204
t-205.5 -78q-85 0 -130.5 36.5t-45.5 104.5q0 86 60 121q58 33 137 45l119 18q81 12 145 33v-76zM498 1464v-221h-197v221h197zM879 1464v-221h-197v221h197z" />
    <glyph glyph-name="aring" unicode="&#xe5;" horiz-adv-x="1146" 
d="M987 727v-727h-207v158q-116 -181 -342 -181q-158 0 -249 85.5t-91 228.5q0 156 95 221q99 67 231 88l223 35q62 9 96.5 36t34.5 89q0 131 -192 131q-219 0 -254 -176h-205q19 162 143.5 256t325.5 94q189 0 290 -85t101 -253zM772 442v76q-64 -21 -145 -33l-119 -18
q-79 -12 -137 -45q-60 -35 -60 -121q0 -68 45.5 -104.5t130.5 -36.5q126 0 205.5 78t79.5 204zM592 1669q93 0 153 -60t60 -153t-60 -153t-153 -60q-91 0 -150 60.5t-59 152.5q0 93 59 153t150 60zM594 1565q-47 0 -76 -30.5t-29 -78.5q0 -50 28 -80t77 -30q47 0 75.5 30
t28.5 80q0 48 -28.5 78.5t-75.5 30.5z" />
    <glyph glyph-name="ae" unicode="&#xe6;" horiz-adv-x="1835" 
d="M1737 551v-90h-762q0 -142 81.5 -222.5t223.5 -80.5q195 0 256 149h190q-39 -151 -163 -240.5t-299 -89.5q-142 0 -245 62t-159 178q-66 -123 -177.5 -181.5t-244.5 -58.5q-158 0 -249 85.5t-91 228.5q0 156 95 221q99 67 231 88l223 35q62 9 96.5 36t34.5 89
q0 131 -188 131q-219 0 -254 -176h-205q19 162 143.5 256t325.5 94q250 0 326 -150q126 150 346 150q211 0 338 -140t127 -374zM977 618h553q0 124 -70 195.5t-192 71.5q-123 0 -202 -72t-89 -195zM772 442v76q-64 -21 -145 -33l-119 -18q-79 -12 -137 -45q-60 -35 -60 -121
q0 -68 45.5 -104.5t130.5 -36.5q126 0 205.5 78t79.5 204z" />
    <glyph glyph-name="ccedilla" unicode="&#xe7;" horiz-adv-x="1165" 
d="M618 -23v-71q95 -5 152 -47.5t57 -110.5q0 -76 -57 -125t-147 -49q-129 0 -217 76l61 94q73 -61 147 -61q42 0 66.5 19t24.5 50q0 74 -187 74v158q-195 26 -307.5 168t-112.5 362q0 245 141 398t371 153q196 0 322 -111t129 -286h-211q-8 95 -70.5 148.5t-171.5 53.5
q-136 0 -214.5 -93.5t-78.5 -254.5q0 -162 77.5 -255t213.5 -93q104 0 171 56t77 153h213q-19 -185 -139 -293.5t-310 -112.5z" />
    <glyph glyph-name="egrave" unicode="&#xe8;" horiz-adv-x="1161" 
d="M1063 551v-90h-762q0 -142 81.5 -222.5t223.5 -80.5q195 0 256 149h191q-39 -150 -163 -240t-300 -90q-223 0 -357.5 146.5t-134.5 390.5q0 247 138.5 399t361.5 152q211 0 338 -140t127 -374zM594 885q-123 0 -202 -72t-89 -195h553q0 124 -70 195.5t-192 71.5z
M522 1243l-260 285l164 125l264 -410h-168z" />
    <glyph glyph-name="eacute" unicode="&#xe9;" horiz-adv-x="1161" 
d="M659 1243h-167l264 410l164 -125zM1063 551v-90h-762q0 -142 81.5 -222.5t223.5 -80.5q195 0 256 149h191q-39 -150 -163 -240t-300 -90q-223 0 -357.5 146.5t-134.5 390.5q0 247 138.5 399t361.5 152q211 0 338 -140t127 -374zM594 885q-123 0 -202 -72t-89 -195h553
q0 124 -70 195.5t-192 71.5z" />
    <glyph glyph-name="ecircumflex" unicode="&#xea;" horiz-adv-x="1161" 
d="M1063 551v-90h-762q0 -142 81.5 -222.5t223.5 -80.5q195 0 256 149h191q-39 -150 -163 -240t-300 -90q-223 0 -357.5 146.5t-134.5 390.5q0 247 138.5 399t361.5 152q211 0 338 -140t127 -374zM594 885q-123 0 -202 -72t-89 -195h553q0 124 -70 195.5t-192 71.5z
M725 1243l-137 168l-133 -168h-195l270 340h119l271 -340h-195z" />
    <glyph glyph-name="edieresis" unicode="&#xeb;" horiz-adv-x="1161" 
d="M1063 461v90q0 234 -127 374t-338 140q-223 0 -361.5 -152t-138.5 -399q0 -244 134.5 -390.5t357.5 -146.5q176 0 300 90t163 240h-191q-61 -149 -256 -149q-142 0 -223.5 80.5t-81.5 222.5h762zM594 885q122 0 192 -71.5t70 -195.5h-553q10 123 89 195t202 72zM520 1464
v-221h-196v221h196zM901 1464v-221h-196v221h196z" />
    <glyph glyph-name="igrave" unicode="&#xec;" horiz-adv-x="544" 
d="M164 0v1044h217v-1044h-217zM180 1243l-260 285l164 125l264 -410h-168z" />
    <glyph glyph-name="iacute" unicode="&#xed;" horiz-adv-x="544" 
d="M362 1243h-167l264 410l164 -125zM164 0v1044h217v-1044h-217z" />
    <glyph glyph-name="icircumflex" unicode="&#xee;" horiz-adv-x="544" 
d="M164 0v1044h217v-1044h-217zM408 1243l-138 168l-133 -168h-194l270 340h119l270 -340h-194z" />
    <glyph glyph-name="idieresis" unicode="&#xef;" horiz-adv-x="544" 
d="M164 1044v-1044h217v1044h-217zM180 1464v-221h-196v221h196zM561 1464v-221h-196v221h196z" />
    <glyph glyph-name="eth" unicode="&#xf0;" horiz-adv-x="1247" 
d="M1149 711q0 -349 -147 -541.5t-410 -192.5q-217 0 -355.5 134.5t-138.5 349.5q0 207 133 343t336 136q115 0 216.5 -49t170.5 -137q-6 288 -125 407l-174 -147l-96 114l135 113q-52 10 -94 10q-102 0 -172.5 -54.5t-83.5 -152.5h-209q23 182 146.5 286t308.5 104
q147 0 264 -60l170 142v-191l-49 -41q174 -183 174 -573zM899 451q0 131 -82 212.5t-215 81.5q-134 0 -216.5 -83.5t-82.5 -219.5q0 -129 78.5 -203.5t208.5 -74.5q138 0 223.5 77.5t85.5 209.5z" />
    <glyph glyph-name="ntilde" unicode="&#xf1;" horiz-adv-x="1230" 
d="M1071 676v-676h-215v653q0 100 -55.5 159.5t-151.5 59.5q-122 0 -192 -83.5t-70 -229.5v-559h-217v1044h217v-155q54 93 129.5 134.5t190.5 41.5q177 0 270.5 -99.5t93.5 -289.5zM788 1241q-24 0 -49.5 9.5t-44 21t-57.5 37.5q-65 53 -107 53q-65 0 -71 -109h-121
q5 122 56.5 195.5t133.5 73.5q39 0 73.5 -17t82.5 -55q30 -22 42.5 -30t28.5 -14.5t31 -6.5q32 0 48 26.5t22 87.5h123q-4 -123 -56.5 -197.5t-134.5 -74.5z" />
    <glyph glyph-name="ograve" unicode="&#xf2;" horiz-adv-x="1220" 
d="M1122 520q0 -247 -138 -395t-374 -148t-374 148t-138 395q0 246 139 395.5t373 149.5t373 -149.5t139 -395.5zM315 520q0 -162 78.5 -254t220.5 -92q138 0 214.5 92.5t76.5 253.5t-78.5 254.5t-218.5 93.5q-138 0 -215.5 -93.5t-77.5 -254.5zM547 1243l-260 285l164 125
l264 -410h-168z" />
    <glyph glyph-name="oacute" unicode="&#xf3;" horiz-adv-x="1220" 
d="M684 1243h-168l264 410l164 -125zM1122 520q0 -247 -138 -395t-374 -148t-374 148t-138 395q0 246 139 395.5t373 149.5t373 -149.5t139 -395.5zM315 520q0 -162 78.5 -254t220.5 -92q138 0 214.5 92.5t76.5 253.5t-78.5 254.5t-218.5 93.5q-138 0 -215.5 -93.5
t-77.5 -254.5z" />
    <glyph glyph-name="ocircumflex" unicode="&#xf4;" horiz-adv-x="1220" 
d="M1122 520q0 -247 -138 -395t-374 -148t-374 148t-138 395q0 246 139 395.5t373 149.5t373 -149.5t139 -395.5zM315 520q0 -162 78.5 -254t220.5 -92q138 0 214.5 92.5t76.5 253.5t-78.5 254.5t-218.5 93.5q-138 0 -215.5 -93.5t-77.5 -254.5zM745 1243l-137 168
l-133 -168h-194l270 340h119l270 -340h-195z" />
    <glyph glyph-name="otilde" unicode="&#xf5;" horiz-adv-x="1220" 
d="M1122 520q0 -247 -138 -395t-374 -148t-374 148t-138 395q0 246 139 395.5t373 149.5t373 -149.5t139 -395.5zM315 520q0 -162 78.5 -254t220.5 -92q138 0 214.5 92.5t76.5 253.5t-78.5 254.5t-218.5 93.5q-138 0 -215.5 -93.5t-77.5 -254.5zM741 1243q-24 0 -49.5 9.5
t-44 21t-57.5 37.5q-65 53 -107 53q-65 0 -71 -109h-121q5 122 56.5 195.5t133.5 73.5q39 0 73.5 -17t82.5 -55q30 -22 42.5 -30t28.5 -14.5t31 -6.5q32 0 48 27t22 88h123q-5 -123 -57 -198t-134 -75z" />
    <glyph glyph-name="odieresis" unicode="&#xf6;" horiz-adv-x="1220" 
d="M1122 520q0 246 -139 395.5t-373 149.5t-373 -149.5t-139 -395.5q0 -247 138 -395t374 -148t374 148t138 395zM315 520q0 161 77.5 254.5t215.5 93.5q140 0 218.5 -93.5t78.5 -254.5t-76.5 -253.5t-214.5 -92.5q-142 0 -220.5 92t-78.5 254zM518 1464v-221h-196v221h196z
M899 1464v-221h-197v221h197z" />
    <glyph glyph-name="divide" unicode="&#xf7;" 
d="M504 877v231h223v-231h-223zM1036 733v-188h-843v188h843zM504 170v231h223v-231h-223z" />
    <glyph glyph-name="oslash" unicode="&#xf8;" horiz-adv-x="1220" 
d="M1122 520q0 -247 -138 -395t-374 -148q-144 0 -262 62l-121 -166l-118 88l122 170q-133 145 -133 389q0 246 139 395.5t373 149.5q147 0 256 -59l111 151l119 -86l-113 -156q139 -148 139 -395zM362 311l383 529q-64 28 -137 28q-138 0 -215.5 -93.5t-77.5 -254.5
q0 -126 47 -209zM905 520q0 131 -51 217l-385 -530q56 -33 145 -33q138 0 214.5 92.5t76.5 253.5z" />
    <glyph glyph-name="ugrave" unicode="&#xf9;" horiz-adv-x="1218" 
d="M834 1044h215v-1044h-209v176q-42 -92 -120 -140t-179 -48q-174 0 -277.5 108.5t-103.5 292.5v655h215v-634q0 -115 54.5 -175.5t154.5 -60.5q122 0 186 95t64 270v505zM520 1243l-260 285l164 125l264 -410h-168z" />
    <glyph glyph-name="uacute" unicode="&#xfa;" horiz-adv-x="1218" 
d="M834 1044h215v-1044h-209v176q-42 -92 -120 -140t-179 -48q-174 0 -277.5 108.5t-103.5 292.5v655h215v-634q0 -115 54.5 -175.5t154.5 -60.5q122 0 186 95t64 270v505zM635 1243h-168l264 410l164 -125z" />
    <glyph glyph-name="ucircumflex" unicode="&#xfb;" horiz-adv-x="1218" 
d="M834 1044h215v-1044h-209v176q-42 -92 -120 -140t-179 -48q-174 0 -277.5 108.5t-103.5 292.5v655h215v-634q0 -115 54.5 -175.5t154.5 -60.5q122 0 186 95t64 270v505zM739 1243l-137 168l-133 -168h-195l271 340h119l270 -340h-195z" />
    <glyph glyph-name="udieresis" unicode="&#xfc;" horiz-adv-x="1218" 
d="M1049 1044h-215v-505q0 -175 -64 -270t-186 -95q-100 0 -154.5 60.5t-54.5 175.5v634h-215v-655q0 -184 103.5 -292.5t277.5 -108.5q101 0 179 48t120 140v-176h209v1044zM532 1464v-221h-196v221h196zM913 1464v-221h-196v221h196z" />
    <glyph glyph-name="yacute" unicode="&#xfd;" horiz-adv-x="1087" 
d="M594 1243h-168l264 410l164 -125zM831 1044h220l-439 -1148q-43 -113 -142 -172.5t-245 -59.5h-84v184h74q82 0 141 34.5t82 97.5l8 24l-409 1040h227l285 -784z" />
    <glyph glyph-name="thorn" unicode="&#xfe;" horiz-adv-x="1290" 
d="M1192 537q0 -244 -130.5 -394.5t-340.5 -150.5q-110 0 -197.5 43.5t-136.5 122.5v-551h-217v1849h217v-588q55 95 146 146t212 51q201 0 324 -145t123 -383zM975 526q0 156 -81 250t-216 94t-217 -94.5t-82 -249.5q0 -158 81 -252t218 -94q133 0 215 95.5t82 250.5z" />
    <glyph glyph-name="ydieresis" unicode="&#xff;" horiz-adv-x="1087" 
d="M1051 1044h-220l-282 -784l-285 784h-227l409 -1040l-8 -24q-23 -63 -82 -97.5t-141 -34.5h-74v-184h84q146 0 245 59.5t142 172.5zM471 1464v-221h-197v221h197zM852 1464v-221h-197v221h197z" />
    <glyph glyph-name="Amacron" unicode="&#x100;" horiz-adv-x="1529" 
d="M1214 0l-129 346h-647l-129 -346h-241l559 1434h276l559 -1434h-248zM518 557h488l-244 655zM1057 1589h-584v150h584v-150z" />
    <glyph glyph-name="amacron" unicode="&#x101;" horiz-adv-x="1146" 
d="M987 727v-727h-207v158q-116 -181 -342 -181q-158 0 -249 85.5t-91 228.5q0 156 95 221q99 67 231 88l223 35q62 9 96.5 36t34.5 89q0 131 -192 131q-219 0 -254 -176h-205q19 162 143.5 256t325.5 94q189 0 290 -85t101 -253zM772 442v76q-64 -21 -145 -33l-119 -18
q-79 -12 -137 -45q-60 -35 -60 -121q0 -68 45.5 -104.5t130.5 -36.5q126 0 205.5 78t79.5 204zM874 1243h-583v150h583v-150z" />
    <glyph glyph-name="Abreve" unicode="&#x102;" horiz-adv-x="1529" 
d="M1214 0l-129 346h-647l-129 -346h-241l559 1434h276l559 -1434h-248zM518 557h488l-244 655zM1008 1817q0 -103 -67 -165.5t-177 -62.5q-109 0 -175.5 62.5t-66.5 165.5q0 49 13 81h116q-6 -27 -6 -59q0 -60 32 -95.5t87 -35.5q57 0 89 35.5t32 95.5q0 32 -6 59h116
q13 -32 13 -81z" />
    <glyph glyph-name="abreve" unicode="&#x103;" horiz-adv-x="1146" 
d="M987 727v-727h-207v158q-116 -181 -342 -181q-158 0 -249 85.5t-91 228.5q0 156 95 221q99 67 231 88l223 35q62 9 96.5 36t34.5 89q0 131 -192 131q-219 0 -254 -176h-205q19 162 143.5 256t325.5 94q189 0 290 -85t101 -253zM772 442v76q-64 -21 -145 -33l-119 -18
q-79 -12 -137 -45q-60 -35 -60 -121q0 -68 45.5 -104.5t130.5 -36.5q126 0 205.5 78t79.5 204zM836 1470q0 -103 -67 -165t-177 -62q-109 0 -175.5 62t-66.5 165q0 50 12 84h117q-6 -30 -6 -61q0 -60 32 -95.5t87 -35.5q57 0 89 35.5t32 95.5q0 31 -6 61h116q13 -37 13 -84z
" />
    <glyph glyph-name="Aogonek" unicode="&#x104;" horiz-adv-x="1529" 
d="M1421 -217v-119q-114 11 -192 72.5t-78 146.5q0 77 61 123l-127 340h-647l-129 -346h-241l559 1434h276l559 -1434h-151q-45 -45 -45 -96q0 -53 44 -84.5t111 -36.5zM518 557h488l-244 655z" />
    <glyph glyph-name="aogonek" unicode="&#x105;" horiz-adv-x="1136" 
d="M995 -217v-119q-114 11 -192 72.5t-78 146.5q0 73 55 119v156q-116 -181 -342 -181q-158 0 -249 85.5t-91 228.5q0 156 95 221q99 67 231 88l223 35q62 9 96.5 36t34.5 89q0 131 -192 131q-219 0 -254 -176h-205q19 162 143.5 256t325.5 94q189 0 290 -85t101 -253v-727
h-102q-45 -45 -45 -96q0 -53 44 -84.5t111 -36.5zM772 442v76q-64 -21 -145 -33l-119 -18q-79 -12 -137 -45q-60 -35 -60 -121q0 -68 45.5 -104.5t130.5 -36.5q126 0 205.5 78t79.5 204z" />
    <glyph glyph-name="Cacute" unicode="&#x106;" horiz-adv-x="1554" 
d="M1217 516h229q-12 -247 -188 -400t-441 -153q-208 0 -367 96t-245 268.5t-86 395.5q0 219 86.5 387.5t247.5 262t372 93.5q259 0 424.5 -135.5t190.5 -363.5h-232q-15 130 -125 209q-107 79 -266 79q-212 0 -340.5 -145t-128.5 -383q0 -240 128.5 -392.5t340.5 -152.5
q164 0 275.5 90.5t124.5 243.5zM918 1589h-166l229 357l164 -125z" />
    <glyph glyph-name="cacute" unicode="&#x107;" horiz-adv-x="1165" 
d="M602 -23q-231 0 -367.5 146.5t-136.5 390.5q0 245 141 398t371 153q196 0 322 -111t129 -286h-211q-8 95 -70.5 148.5t-171.5 53.5q-136 0 -214.5 -93.5t-78.5 -254.5q0 -162 77.5 -255t213.5 -93q104 0 171 56t77 153h213q-19 -189 -143.5 -297.5t-321.5 -108.5z
M696 1243h-168l265 410l163 -125z" />
    <glyph glyph-name="Ccircumflex" unicode="&#x108;" horiz-adv-x="1554" 
d="M1217 516h229q-12 -247 -188 -400t-441 -153q-208 0 -367 96t-245 268.5t-86 395.5q0 219 86.5 387.5t247.5 262t372 93.5q259 0 424.5 -135.5t190.5 -363.5h-232q-15 130 -125 209q-107 79 -266 79q-212 0 -340.5 -145t-128.5 -383q0 -240 128.5 -392.5t340.5 -152.5
q164 0 275.5 90.5t124.5 243.5zM944 1589l-137 168l-133 -168h-195l271 340h118l271 -340h-195z" />
    <glyph glyph-name="ccircumflex" unicode="&#x109;" horiz-adv-x="1165" 
d="M602 -23q-231 0 -367.5 146.5t-136.5 390.5q0 245 141 398t371 153q196 0 322 -111t129 -286h-211q-8 95 -70.5 148.5t-171.5 53.5q-136 0 -214.5 -93.5t-78.5 -254.5q0 -162 77.5 -255t213.5 -93q104 0 171 56t77 153h213q-19 -189 -143.5 -297.5t-321.5 -108.5z
M758 1243l-137 168l-134 -168h-194l270 340h119l270 -340h-194z" />
    <glyph glyph-name="Cdotaccent" unicode="&#x10a;" horiz-adv-x="1554" 
d="M1217 516h229q-12 -247 -188 -400t-441 -153q-208 0 -367 96t-245 268.5t-86 395.5q0 219 86.5 387.5t247.5 262t372 93.5q259 0 424.5 -135.5t190.5 -363.5h-232q-15 130 -125 209q-107 79 -266 79q-212 0 -340.5 -145t-128.5 -383q0 -240 128.5 -392.5t340.5 -152.5
q164 0 275.5 90.5t124.5 243.5zM696 1589v256h248v-256h-248z" />
    <glyph glyph-name="cdotaccent" unicode="&#x10b;" horiz-adv-x="1165" 
d="M602 -23q-231 0 -367.5 146.5t-136.5 390.5q0 245 141 398t371 153q196 0 322 -111t129 -286h-211q-8 95 -70.5 148.5t-171.5 53.5q-136 0 -214.5 -93.5t-78.5 -254.5q0 -162 77.5 -255t213.5 -93q104 0 171 56t77 153h213q-19 -189 -143.5 -297.5t-321.5 -108.5z
M487 1243v264h256v-264h-256z" />
    <glyph glyph-name="Ccaron" unicode="&#x10c;" horiz-adv-x="1554" 
d="M1217 516h229q-12 -247 -188 -400t-441 -153q-208 0 -367 96t-245 268.5t-86 395.5q0 219 86.5 387.5t247.5 262t372 93.5q259 0 424.5 -135.5t190.5 -363.5h-232q-15 130 -125 209q-107 79 -266 79q-212 0 -340.5 -145t-128.5 -383q0 -240 128.5 -392.5t340.5 -152.5
q164 0 275.5 90.5t124.5 243.5zM965 1927h194l-270 -340h-119l-270 340h194l133 -168z" />
    <glyph glyph-name="ccaron" unicode="&#x10d;" horiz-adv-x="1165" 
d="M602 -23q-231 0 -367.5 146.5t-136.5 390.5q0 245 141 398t371 153q196 0 322 -111t129 -286h-211q-8 95 -70.5 148.5t-171.5 53.5q-136 0 -214.5 -93.5t-78.5 -254.5q0 -162 77.5 -255t213.5 -93q104 0 171 56t77 153h213q-19 -189 -143.5 -297.5t-321.5 -108.5z
M494 1583l137 -168l133 168h194l-270 -340h-119l-270 340h195z" />
    <glyph glyph-name="Dcaron" unicode="&#x10e;" horiz-adv-x="1505" 
d="M1386 745q2 -114 -27.5 -222.5t-92.5 -204t-151.5 -167t-213 -112.5t-268.5 -39h-443v1434h478q325 0 521.5 -190t196.5 -499zM1157 745q0 217 -129.5 347.5t-349.5 130.5h-260v-1010h217q230 0 376 150t146 382zM727 1927h195l-271 -340h-119l-270 340h195l133 -168z
" />
    <glyph glyph-name="dcaron" unicode="&#x10f;" horiz-adv-x="1642" 
d="M903 1456h217v-1456h-211v174q-117 -197 -358 -197q-203 0 -328 150t-125 397q0 240 133 390.5t338 150.5q232 0 334 -172v563zM911 524q0 159 -82 257t-217 98t-216 -97t-81 -256q0 -160 81 -258t216 -98t217 97t82 257zM1440 1239h-121v229h256v-215q0 -154 -80 -240
t-246 -116l-24 115q115 25 164.5 75.5t50.5 151.5z" />
    <glyph glyph-name="Dcroat" unicode="&#x110;" horiz-adv-x="1443" 
d="M1325 745q2 -114 -28 -223t-92.5 -204t-151.5 -166.5t-213.5 -112.5t-268.5 -39h-442v674h-164v110h164v650h477q161 0 295.5 -50t227.5 -140.5t144.5 -218.5t51.5 -280zM1096 745q0 216 -130 347t-350 131h-260v-439h332v-110h-332v-461h217q230 0 376.5 150t146.5 382z
" />
    <glyph glyph-name="dslash" unicode="&#x111;" horiz-adv-x="1341" 
d="M1274 1294v-110h-154v-1184h-211v174q-117 -197 -358 -197q-203 0 -328 150t-125 397q0 240 133 390.5t338 150.5q232 0 334 -172v291h-219v110h219v162h217v-162h154zM911 524q0 159 -82 257t-217 98t-216 -97t-81 -256q0 -160 81 -258t216 -98t217 97t82 257z" />
    <glyph glyph-name="Emacron" unicode="&#x112;" horiz-adv-x="1273" 
d="M1176 0h-986v1434h947v-211h-719v-392h663v-213h-663v-405h758v-213zM975 1589h-584v150h584v-150z" />
    <glyph glyph-name="emacron" unicode="&#x113;" horiz-adv-x="1161" 
d="M1063 551v-90h-762q0 -142 81.5 -222.5t223.5 -80.5q195 0 256 149h191q-39 -150 -163 -240t-300 -90q-223 0 -357.5 146.5t-134.5 390.5q0 247 138.5 399t361.5 152q211 0 338 -140t127 -374zM594 885q-123 0 -202 -72t-89 -195h553q0 124 -70 195.5t-192 71.5z
M901 1243h-584v150h584v-150z" />
    <glyph glyph-name="Ebreve" unicode="&#x114;" horiz-adv-x="1273" 
d="M1176 0h-986v1434h947v-211h-719v-392h663v-213h-663v-405h758v-213zM926 1817q0 -103 -67 -165.5t-177 -62.5q-109 0 -175.5 62.5t-66.5 165.5q0 49 13 81h116q-6 -27 -6 -59q0 -60 32 -95.5t87 -35.5q57 0 89 35.5t32 95.5q0 32 -6 59h116q13 -32 13 -81z" />
    <glyph glyph-name="ebreve" unicode="&#x115;" horiz-adv-x="1161" 
d="M1063 551v-90h-762q0 -142 81.5 -222.5t223.5 -80.5q195 0 256 149h191q-39 -150 -163 -240t-300 -90q-223 0 -357.5 146.5t-134.5 390.5q0 247 138.5 399t361.5 152q211 0 338 -140t127 -374zM594 885q-123 0 -202 -72t-89 -195h553q0 124 -70 195.5t-192 71.5z
M860 1470q0 -103 -67 -165t-177 -62q-109 0 -175 62t-66 165q0 50 12 84h117q-6 -30 -6 -61q0 -60 31.5 -95.5t86.5 -35.5q57 0 89 35.5t32 95.5q0 31 -6 61h117q12 -34 12 -84z" />
    <glyph glyph-name="Edotaccent" unicode="&#x116;" horiz-adv-x="1273" 
d="M1176 0h-986v1434h947v-211h-719v-392h663v-213h-663v-405h758v-213zM549 1589v256h248v-256h-248z" />
    <glyph glyph-name="edotaccent" unicode="&#x117;" horiz-adv-x="1161" 
d="M1063 551v-90h-762q0 -142 81.5 -222.5t223.5 -80.5q195 0 256 149h191q-39 -150 -163 -240t-300 -90q-223 0 -357.5 146.5t-134.5 390.5q0 247 138.5 399t361.5 152q211 0 338 -140t127 -374zM594 885q-123 0 -202 -72t-89 -195h553q0 124 -70 195.5t-192 71.5z
M475 1243v264h256v-264h-256z" />
    <glyph glyph-name="Eogonek" unicode="&#x118;" horiz-adv-x="1273" 
d="M1020 -96q0 -53 44.5 -84.5t111.5 -36.5v-119q-114 11 -192.5 72.5t-78.5 146.5q0 70 53 117h-768v1434h947v-211h-719v-392h663v-213h-663v-405h758v-213h-111q-45 -45 -45 -96z" />
    <glyph glyph-name="eogonek" unicode="&#x119;" horiz-adv-x="1161" 
d="M1063 551v-90h-762q0 -142 81.5 -222.5t223.5 -80.5q195 0 256 149h191q-39 -150 -163 -240t-300 -90h-15q-24 -30 -24 -73q0 -53 44.5 -84.5t111.5 -36.5v-119q-114 11 -192.5 72.5t-78.5 146.5q0 58 41 105q-178 35 -278.5 174t-100.5 352q0 247 138.5 399t361.5 152
q211 0 338 -140t127 -374zM303 618h553q0 124 -70 195.5t-192 71.5q-123 0 -202 -72t-89 -195z" />
    <glyph glyph-name="Ecaron" unicode="&#x11a;" horiz-adv-x="1273" 
d="M1176 0h-986v1434h947v-211h-719v-392h663v-213h-663v-405h758v-213zM827 1927h195l-270 -340h-119l-271 340h195l133 -168z" />
    <glyph glyph-name="ecaron" unicode="&#x11b;" horiz-adv-x="1161" 
d="M1063 551v-90h-762q0 -142 81.5 -222.5t223.5 -80.5q195 0 256 149h191q-39 -150 -163 -240t-300 -90q-223 0 -357.5 146.5t-134.5 390.5q0 247 138.5 399t361.5 152q211 0 338 -140t127 -374zM594 885q-123 0 -202 -72t-89 -195h553q0 124 -70 195.5t-192 71.5z
M477 1583l137 -168l134 168h194l-270 -340h-119l-270 340h194z" />
    <glyph glyph-name="Gcircumflex" unicode="&#x11c;" horiz-adv-x="1622" 
d="M776 748h666v-748h-209v174q-150 -211 -438 -211q-204 0 -358 94t-236 262.5t-82 387.5q0 343 193 551t513 208q259 0 424.5 -135.5t190.5 -363.5h-230q-17 130 -126 209t-269 79q-215 0 -342 -145.5t-127 -394.5q0 -251 126.5 -396t346.5 -145q179 0 285.5 95.5
t118.5 267.5h-447v211zM952 1589l-137 168l-133 -168h-195l271 340h119l270 -340h-195z" />
    <glyph glyph-name="gcircumflex" unicode="&#x11d;" horiz-adv-x="1259" 
d="M895 1044h205v-981q0 -226 -130.5 -352.5t-365.5 -126.5q-210 0 -341 99.5t-154 273.5h213q17 -94 90.5 -146.5t191.5 -52.5q142 0 216.5 71.5t74.5 205.5v188q-44 -86 -133.5 -132t-206.5 -46q-212 0 -334 137q-123 138 -123 373q0 233 123 371q124 139 334 139
q120 0 209.5 -46.5t130.5 -131.5v157zM885 557q0 149 -76.5 236.5t-206.5 87.5q-131 0 -209 -88t-78 -236q0 -150 77 -239t210 -89q131 0 207 88t76 240zM752 1243l-138 168l-133 -168h-194l270 340h119l270 -340h-194z" />
    <glyph glyph-name="Gbreve" unicode="&#x11e;" horiz-adv-x="1622" 
d="M776 748h666v-748h-209v174q-150 -211 -438 -211q-204 0 -358 94t-236 262.5t-82 387.5q0 343 193 551t513 208q259 0 424.5 -135.5t190.5 -363.5h-230q-17 130 -126 209t-269 79q-215 0 -342 -145.5t-127 -394.5q0 -251 126.5 -396t346.5 -145q179 0 285.5 95.5
t118.5 267.5h-447v211zM1079 1817q0 -103 -66.5 -165.5t-176.5 -62.5q-109 0 -175.5 62.5t-66.5 165.5q0 51 12 81h117q-6 -27 -6 -59q0 -60 32 -95.5t87 -35.5q57 0 88.5 35t31.5 96q0 32 -6 59h117q12 -30 12 -81z" />
    <glyph glyph-name="gbreve" unicode="&#x11f;" horiz-adv-x="1259" 
d="M895 1044h205v-981q0 -226 -130.5 -352.5t-365.5 -126.5q-210 0 -341 99.5t-154 273.5h213q17 -94 90.5 -146.5t191.5 -52.5q142 0 216.5 71.5t74.5 205.5v188q-44 -86 -133.5 -132t-206.5 -46q-212 0 -334 137q-123 138 -123 373q0 233 123 371q124 139 334 139
q120 0 209.5 -46.5t130.5 -131.5v157zM885 557q0 149 -76.5 236.5t-206.5 87.5q-131 0 -209 -88t-78 -236q0 -150 77 -239t210 -89q131 0 207 88t76 240zM846 1470q0 -103 -67 -165t-177 -62q-109 0 -175.5 62t-66.5 165q0 47 13 84h116q-6 -30 -6 -61q0 -60 32 -95.5
t87 -35.5q57 0 89 35.5t32 95.5q0 31 -6 61h117q12 -34 12 -84z" />
    <glyph glyph-name="Gdotaccent" unicode="&#x120;" horiz-adv-x="1622" 
d="M776 748h666v-748h-209v174q-150 -211 -438 -211q-204 0 -358 94t-236 262.5t-82 387.5q0 343 193 551t513 208q259 0 424.5 -135.5t190.5 -363.5h-230q-17 130 -126 209t-269 79q-215 0 -342 -145.5t-127 -394.5q0 -251 126.5 -396t346.5 -145q179 0 285.5 95.5
t118.5 267.5h-447v211zM690 1589v256h248v-256h-248z" />
    <glyph glyph-name="gdotaccent" unicode="&#x121;" horiz-adv-x="1259" 
d="M895 1044h205v-981q0 -226 -130.5 -352.5t-365.5 -126.5q-210 0 -341 99.5t-154 273.5h213q17 -94 90.5 -146.5t191.5 -52.5q142 0 216.5 71.5t74.5 205.5v188q-44 -86 -133.5 -132t-206.5 -46q-212 0 -334 137q-123 138 -123 373q0 233 123 371q124 139 334 139
q120 0 209.5 -46.5t130.5 -131.5v157zM885 557q0 149 -76.5 236.5t-206.5 87.5q-131 0 -209 -88t-78 -236q0 -150 77 -239t210 -89q131 0 207 88t76 240zM487 1243v264h256v-264h-256z" />
    <glyph glyph-name="uni0122" unicode="&#x122;" horiz-adv-x="1622" 
d="M776 748h666v-748h-209v174q-150 -211 -438 -211q-204 0 -358 94t-236 262.5t-82 387.5q0 343 193 551t513 208q259 0 424.5 -135.5t190.5 -363.5h-230q-17 130 -126 209t-269 79q-215 0 -342 -145.5t-127 -394.5q0 -251 126.5 -396t346.5 -145q179 0 285.5 95.5
t118.5 267.5h-447v211zM756 -406h-121v230h256v-215q0 -154 -80 -241t-246 -116l-24 115q115 25 164.5 75.5t50.5 151.5z" />
    <glyph glyph-name="uni0123" unicode="&#x123;" horiz-adv-x="1259" 
d="M561 1470h121v-229h-256v215q0 154 80 240t246 116l24 -114q-115 -25 -164.5 -76t-50.5 -152zM895 1044h205v-981q0 -226 -130.5 -352.5t-365.5 -126.5q-210 0 -341 99.5t-154 273.5h213q17 -94 90.5 -146.5t191.5 -52.5q142 0 216.5 71.5t74.5 205.5v188
q-44 -86 -133.5 -132t-206.5 -46q-212 0 -334 137q-123 138 -123 373q0 233 123 371q124 139 334 139q120 0 209.5 -46.5t130.5 -131.5v157zM885 557q0 149 -76.5 236.5t-206.5 87.5q-131 0 -209 -88t-78 -236q0 -150 77 -239t210 -89q131 0 207 88t76 240z" />
    <glyph glyph-name="Hcircumflex" unicode="&#x124;" horiz-adv-x="1554" 
d="M1364 1434v-1434h-227v616h-719v-616h-228v1434h228v-607h719v607h227zM913 1589l-137 168l-133 -168h-194l270 340h119l270 -340h-195z" />
    <glyph glyph-name="hcircumflex" unicode="&#x125;" horiz-adv-x="1230" 
d="M858 1241l-115 139l-110 -139h-160l223 281h99l223 -281h-160zM1071 676v-676h-215v653q0 100 -55.5 159.5t-151.5 59.5q-122 0 -192 -83.5t-70 -229.5v-559h-217v1456h217v-575q54 98 128.5 141t191.5 43q177 0 270.5 -99.5t93.5 -289.5z" />
    <glyph glyph-name="Hbar" unicode="&#x126;" horiz-adv-x="1562" 
d="M1536 1110v-100h-168v-1010h-227v616h-719v-616h-227v1010h-168v100h168v324h227v-324h719v324h227v-324h168zM1141 827v183h-719v-183h719z" />
    <glyph glyph-name="hbar" unicode="&#x127;" horiz-adv-x="1269" 
d="M1110 676v-676h-215v653q0 100 -55.5 159.5t-151.5 59.5q-122 0 -192 -83.5t-70 -229.5v-559h-217v1184h-141v110h141v162h217v-162h195v-110h-195v-303q54 98 128 141t191 43q177 0 271 -99.5t94 -289.5z" />
    <glyph glyph-name="Itilde" unicode="&#x128;" horiz-adv-x="628" 
d="M428 1434v-1434h-227v1434h227zM457 1589q-35 0 -65.5 15t-86.5 53q-65 53 -106 53q-66 0 -72 -108h-121q4 121 56.5 193.5t134.5 72.5q39 0 71 -15.5t84 -54.5q42 -30 62 -40.5t41 -10.5q32 0 47.5 27t21.5 88h123q-5 -123 -56.5 -198t-133.5 -75z" />
    <glyph glyph-name="itilde" unicode="&#x129;" horiz-adv-x="544" 
d="M164 0v1044h217v-1044h-217zM412 1243q-35 0 -65.5 15t-86.5 53q-65 53 -106 53q-66 0 -72 -109h-121q4 121 56.5 195t134.5 74q39 0 73 -17t82 -55q42 -30 62 -40.5t41 -10.5q32 0 47.5 27t21.5 88h123q-5 -123 -56.5 -198t-133.5 -75z" />
    <glyph glyph-name="Imacron" unicode="&#x12a;" horiz-adv-x="628" 
d="M428 1434v-1434h-227v1434h227zM606 1589h-583v150h583v-150z" />
    <glyph glyph-name="imacron" unicode="&#x12b;" horiz-adv-x="544" 
d="M164 0v1044h217v-1044h-217zM563 1243h-583v150h583v-150z" />
    <glyph glyph-name="Iogonek" unicode="&#x12e;" horiz-adv-x="628" 
d="M246 -96q0 -53 44 -84.5t111 -36.5v-119q-114 11 -192 72.5t-78 146.5q0 83 70 129v1422h227v-1434h-137q-45 -45 -45 -96z" />
    <glyph glyph-name="iogonek" unicode="&#x12f;" horiz-adv-x="542" 
d="M156 1477h231v-250h-231v250zM162 8v1036h217v-1044h-121q-45 -45 -45 -96q0 -53 44.5 -84.5t111.5 -36.5v-119q-114 11 -192.5 72.5t-78.5 146.5q0 79 64 125z" />
    <glyph glyph-name="Idot" unicode="&#x130;" horiz-adv-x="628" 
d="M428 1434v-1434h-227v1434h227zM190 1589v256h248v-256h-248z" />
    <glyph glyph-name="dotlessi" unicode="&#x131;" horiz-adv-x="544" 
d="M164 0v1044h217v-1044h-217z" />
    <glyph glyph-name="IJ" unicode="&#x132;" horiz-adv-x="1716" 
d="M428 1434v-1434h-227v1434h227zM1546 1434v-998q0 -222 -114.5 -347.5t-317.5 -125.5q-198 0 -313 118t-115 322v115h227v-123q0 -103 52.5 -158t150.5 -55t150.5 58.5t52.5 167.5v1026h227z" />
    <glyph glyph-name="ij" unicode="&#x133;" horiz-adv-x="1105" 
d="M156 1227v250h231v-250h-231zM162 0v1044h217v-1044h-217zM729 1227v250h232v-250h-232zM735 1044h217v-1105q0 -183 -69.5 -257.5t-239.5 -74.5h-104v184h69q67 0 97 32.5t30 104.5v1116z" />
    <glyph glyph-name="Jcircumflex" unicode="&#x134;" horiz-adv-x="1087" 
d="M918 1434v-998q0 -222 -115 -347.5t-318 -125.5q-198 0 -313 118t-115 322v115h228v-123q0 -103 52 -158t150 -55t150.5 58.5t52.5 167.5v1026h228zM932 1589l-137 168l-133 -168h-195l270 340h119l270 -340h-194z" />
    <glyph glyph-name="jcircumflex" unicode="&#x135;" horiz-adv-x="563" 
d="M432 1243l-137 168l-133 -168h-195l271 340h118l271 -340h-195zM193 1044h217v-1105q0 -183 -70 -257.5t-240 -74.5h-104v184h70q67 0 97 32.5t30 104.5v1116z" />
    <glyph glyph-name="uni0136" unicode="&#x136;" horiz-adv-x="1413" 
d="M1069 0l-471 672l-180 -189v-483h-228v1434h228v-670l612 670h305l-567 -586l598 -848h-297zM655 -406h-120v230h256v-215q0 -154 -80 -241t-246 -116l-25 115q115 25 164.5 75.5t50.5 151.5z" />
    <glyph glyph-name="uni0137" unicode="&#x137;" horiz-adv-x="1169" 
d="M1133 0h-259l-329 440l-158 -168v-272h-217v1456h217v-905l434 493h287l-420 -450zM565 -369h-121v230h256v-215q0 -154 -80 -241t-245 -116l-25 115q115 25 164.5 75.5t50.5 151.5z" />
    <glyph glyph-name="kgreenlandic" unicode="&#x138;" horiz-adv-x="1169" 
d="M1133 0h-259l-329 440l-158 -168v-272h-217v1044h217v-493l434 493h287l-420 -450z" />
    <glyph glyph-name="Lacute" unicode="&#x139;" horiz-adv-x="1187" 
d="M1120 213v-213h-930v1434h228v-1221h702zM397 1589h-166l230 357l164 -125z" />
    <glyph glyph-name="lacute" unicode="&#x13a;" horiz-adv-x="557" 
d="M387 1456v-1456h-217v1456h217zM365 1589h-166l229 357l164 -125z" />
    <glyph glyph-name="uni013B" unicode="&#x13b;" horiz-adv-x="1187" 
d="M1120 213v-213h-930v1434h228v-1221h702zM645 -385h-121v229h256v-215q0 -154 -79.5 -240.5t-245.5 -115.5l-25 115q115 25 164.5 75.5t50.5 151.5z" />
    <glyph glyph-name="uni013C" unicode="&#x13c;" horiz-adv-x="524" 
d="M387 1456v-1456h-217v1456h217zM274 -365h-120v230h256v-215q0 -154 -80 -241t-246 -116l-25 115q115 25 164.5 75.5t50.5 151.5z" />
    <glyph glyph-name="Lcaron" unicode="&#x13d;" horiz-adv-x="1265" 
d="M1120 213v-213h-930v1434h228v-1221h702zM1061 1239h-121v229h256v-215q0 -154 -80 -240t-246 -116l-24 115q115 25 164.5 75.5t50.5 151.5z" />
    <glyph glyph-name="lcaron" unicode="&#x13e;" horiz-adv-x="944" 
d="M387 1456v-1456h-217v1456h217zM741 1239h-120v229h256v-215q0 -154 -80 -240t-246 -116l-25 115q115 25 164.5 75.5t50.5 151.5z" />
    <glyph glyph-name="Ldot" unicode="&#x13f;" horiz-adv-x="1187" 
d="M1120 213v-213h-930v1434h228v-1221h702zM864 780v264h256v-264h-256z" />
    <glyph glyph-name="ldot" unicode="&#x140;" horiz-adv-x="937" 
d="M387 1456v-1456h-217v1456h217zM614 780v264h256v-264h-256z" />
    <glyph glyph-name="Lslash" unicode="&#x141;" horiz-adv-x="1216" 
d="M446 213h703v-213h-930v547l-254 -133v129l254 133v758h227v-639l320 168v-127l-320 -168v-455z" />
    <glyph glyph-name="lslash" unicode="&#x142;" horiz-adv-x="489" 
d="M489 877v-127l-135 -72v-678h-217v565l-137 -71v127l137 71v764h217v-651z" />
    <glyph glyph-name="Nacute" unicode="&#x143;" horiz-adv-x="1554" 
d="M1364 1434v-1434h-256l-694 1098v-1098h-224v1434h281l670 -1074v1074h223zM834 1589h-166l229 357l164 -125z" />
    <glyph glyph-name="nacute" unicode="&#x144;" horiz-adv-x="1230" 
d="M1071 676v-676h-215v653q0 100 -55.5 159.5t-151.5 59.5q-122 0 -192 -83.5t-70 -229.5v-559h-217v1044h217v-155q54 93 129.5 134.5t190.5 41.5q177 0 270.5 -99.5t93.5 -289.5zM764 1243h-168l264 410l164 -125z" />
    <glyph glyph-name="uni0145" unicode="&#x145;" horiz-adv-x="1554" 
d="M1364 1434v-1434h-256l-694 1098v-1098h-224v1434h281l670 -1074v1074h223zM709 -406h-121v230h256v-215q0 -154 -80 -241t-246 -116l-24 115q115 25 164.5 75.5t50.5 151.5z" />
    <glyph glyph-name="uni0146" unicode="&#x146;" horiz-adv-x="1230" 
d="M1071 676v-676h-215v653q0 100 -55.5 159.5t-151.5 59.5q-122 0 -192 -83.5t-70 -229.5v-559h-217v1044h217v-155q54 93 129.5 134.5t190.5 41.5q177 0 270.5 -99.5t93.5 -289.5zM588 -369h-121v230h256v-215q0 -154 -80 -241t-246 -116l-24 115q115 25 164.5 75.5
t50.5 151.5z" />
    <glyph glyph-name="Ncaron" unicode="&#x147;" horiz-adv-x="1554" 
d="M1364 1434v-1434h-256l-694 1098v-1098h-224v1434h281l670 -1074v1074h223zM928 1927h194l-270 -340h-119l-270 340h194l134 -168z" />
    <glyph glyph-name="ncaron" unicode="&#x148;" horiz-adv-x="1230" 
d="M1071 676v-676h-215v653q0 100 -55.5 159.5t-151.5 59.5q-122 0 -192 -83.5t-70 -229.5v-559h-217v1044h217v-155q54 93 129.5 134.5t190.5 41.5q177 0 270.5 -99.5t93.5 -289.5zM532 1583l138 -168l133 168h194l-270 -340h-119l-270 340h194z" />
    <glyph glyph-name="napostrophe" unicode="&#x149;" horiz-adv-x="1656" 
d="M1497 676v-676h-215v653q0 100 -55.5 159.5t-151.5 59.5q-122 0 -192 -83.5t-70 -229.5v-559h-217v1044h217v-155q54 93 129.5 134.5t190.5 41.5q177 0 270.5 -99.5t93.5 -289.5zM283 1241h-121v229h256v-215q0 -154 -80 -240t-246 -116l-24 115q115 25 164.5 75.5
t50.5 151.5z" />
    <glyph glyph-name="Eng" unicode="&#x14a;" horiz-adv-x="1554" 
d="M1141 1434h223v-1495q0 -183 -69.5 -257.5t-239.5 -74.5h-105v184h72q67 0 97 32.5t30 104.5v72l-735 1098v-1098h-224v1434h281l670 -1014v1014z" />
    <glyph glyph-name="eng" unicode="&#x14b;" horiz-adv-x="1216" 
d="M1071 676v-737q0 -183 -69.5 -257.5t-239.5 -74.5h-105v184h72q67 0 97 32.5t30 104.5v725q0 100 -55.5 159.5t-151.5 59.5q-122 0 -192 -83.5t-70 -229.5v-559h-217v1044h217v-155q54 93 129.5 134.5t190.5 41.5q177 0 270.5 -99.5t93.5 -289.5z" />
    <glyph glyph-name="Omacron" unicode="&#x14c;" horiz-adv-x="1656" 
d="M1538 715q3 -219 -89 -392.5t-255 -268t-365 -91.5q-202 -3 -365 91.5t-255.5 268t-89.5 392.5q0 221 91.5 393t253 266t365.5 94q151 2 283.5 -53.5t226.5 -154t147.5 -240t51.5 -305.5zM1307 715q0 252 -128.5 394t-349.5 142t-349 -142t-128 -394t128 -393.5
t349 -141.5t349.5 141.5t128.5 393.5zM1120 1589h-583v150h583v-150z" />
    <glyph glyph-name="omacron" unicode="&#x14d;" horiz-adv-x="1220" 
d="M1122 520q0 -247 -138 -395t-374 -148t-374 148t-138 395q0 246 139 395.5t373 149.5t373 -149.5t139 -395.5zM315 520q0 -162 78.5 -254t220.5 -92q138 0 214.5 92.5t76.5 253.5t-78.5 254.5t-218.5 93.5q-138 0 -215.5 -93.5t-77.5 -254.5zM903 1243h-584v150h584v-150
z" />
    <glyph glyph-name="Obreve" unicode="&#x14e;" horiz-adv-x="1656" 
d="M1538 715q3 -219 -89 -392.5t-255 -268t-365 -91.5q-202 -3 -365 91.5t-255.5 268t-89.5 392.5q0 221 91.5 393t253 266t365.5 94q151 2 283.5 -53.5t226.5 -154t147.5 -240t51.5 -305.5zM1307 715q0 252 -128.5 394t-349.5 142t-349 -142t-128 -394t128 -393.5
t349 -141.5t349.5 141.5t128.5 393.5zM1071 1817q0 -103 -67 -165.5t-177 -62.5q-109 0 -175 62.5t-66 165.5q0 51 12 81h117q-6 -27 -6 -59q0 -60 31.5 -95.5t86.5 -35.5q57 0 89 35.5t32 95.5q0 32 -6 59h117q12 -30 12 -81z" />
    <glyph glyph-name="obreve" unicode="&#x14f;" horiz-adv-x="1220" 
d="M1122 520q0 -247 -138 -395t-374 -148t-374 148t-138 395q0 246 139 395.5t373 149.5t373 -149.5t139 -395.5zM315 520q0 -162 78.5 -254t220.5 -92q138 0 214.5 92.5t76.5 253.5t-78.5 254.5t-218.5 93.5q-138 0 -215.5 -93.5t-77.5 -254.5zM854 1470q0 -103 -67 -165
t-177 -62q-109 0 -175 62t-66 165q0 50 12 84h117q-6 -30 -6 -61q0 -60 31.5 -95.5t86.5 -35.5q57 0 89 35.5t32 95.5q0 31 -6 61h117q12 -34 12 -84z" />
    <glyph glyph-name="Ohungarumlaut" unicode="&#x150;" horiz-adv-x="1656" 
d="M1538 715q3 -219 -89 -392.5t-255 -268t-365 -91.5q-202 -3 -365 91.5t-255.5 268t-89.5 392.5q0 221 91.5 393t253 266t365.5 94q151 2 283.5 -53.5t226.5 -154t147.5 -240t51.5 -305.5zM1307 715q0 252 -128.5 394t-349.5 142t-349 -142t-128 -394t128 -393.5
t349 -141.5t349.5 141.5t128.5 393.5zM883 1896l-107 -307h-129l82 307h154zM1130 1896l-104 -307h-131l82 307h153z" />
    <glyph glyph-name="ohungarumlaut" unicode="&#x151;" horiz-adv-x="1220" 
d="M1122 520q0 -247 -138 -395t-374 -148t-374 148t-138 395q0 246 139 395.5t373 149.5t373 -149.5t139 -395.5zM315 520q0 -162 78.5 -254t220.5 -92q138 0 214.5 92.5t76.5 253.5t-78.5 254.5t-218.5 93.5q-138 0 -215.5 -93.5t-77.5 -254.5zM670 1550l-107 -307h-129
l82 307h154zM918 1550l-105 -307h-131l82 307h154z" />
    <glyph glyph-name="OE" unicode="&#x152;" horiz-adv-x="2283" 
d="M2185 213v-213h-1118q-107 -37 -233 -37q-150 -2 -284 56t-229 159t-149.5 242t-52.5 299q-3 209 89 382t256 271.5t365 95.5q122 0 228 -34h1089v-211h-778q136 -168 162 -392h559v-213h-555q-24 -235 -162 -405h813zM1307 719q0 239 -129 385.5t-344 146.5
q-218 0 -351 -150t-133 -388q0 -239 131 -386t348 -147q216 0 347 149.5t131 389.5z" />
    <glyph glyph-name="oe" unicode="&#x153;" horiz-adv-x="1972" 
d="M1874 551v-90h-762q0 -142 81.5 -222.5t223.5 -80.5q195 0 256 149h191q-39 -150 -163 -240t-300 -90q-127 0 -226 49t-161 142q-63 -93 -166.5 -142t-237.5 -49q-236 0 -374 148t-138 395q0 246 139 395.5t373 149.5q272 0 408 -199q63 97 163.5 148t227.5 51
q211 0 338 -140t127 -374zM1114 618h553q0 124 -70 195.5t-192 71.5q-123 0 -202 -72t-89 -195zM905 520q0 161 -78.5 254.5t-218.5 93.5q-138 0 -215.5 -93.5t-77.5 -254.5q0 -162 78.5 -254t220.5 -92q138 0 214.5 92.5t76.5 253.5z" />
    <glyph glyph-name="Racute" unicode="&#x154;" horiz-adv-x="1388" 
d="M1331 0h-262l-369 590h-284v-590h-226v1434h576q208 0 337.5 -113.5t129.5 -294.5q0 -141 -82 -249.5t-217 -143.5zM1006 1018q0 94 -62 149.5t-166 55.5h-362v-428h340q112 0 181 62t69 161zM729 1589h-166l230 357l163 -125z" />
    <glyph glyph-name="racute" unicode="&#x155;" horiz-adv-x="786" 
d="M735 1055v-209h-41q-307 0 -307 -326v-520h-217v1044h215v-165q79 176 291 176h59zM512 1243h-168l264 410l164 -125z" />
    <glyph glyph-name="uni0156" unicode="&#x156;" horiz-adv-x="1388" 
d="M1331 0h-262l-369 590h-284v-590h-226v1434h576q208 0 337.5 -113.5t129.5 -294.5q0 -141 -82 -249.5t-217 -143.5zM1006 1018q0 94 -62 149.5t-166 55.5h-362v-428h340q112 0 181 62t69 161zM688 -385h-121v229h256v-215q0 -154 -79.5 -240.5t-245.5 -115.5l-25 115
q115 25 164.5 75.5t50.5 151.5z" />
    <glyph glyph-name="uni0157" unicode="&#x157;" horiz-adv-x="786" 
d="M735 1055v-209h-41q-307 0 -307 -326v-520h-217v1044h215v-165q79 176 291 176h59zM266 -385h-121v229h256v-215q0 -154 -79.5 -240.5t-245.5 -115.5l-25 115q115 25 164.5 75.5t50.5 151.5z" />
    <glyph glyph-name="Rcaron" unicode="&#x158;" horiz-adv-x="1388" 
d="M1331 0h-262l-369 590h-284v-590h-226v1434h576q208 0 337.5 -113.5t129.5 -294.5q0 -141 -82 -249.5t-217 -143.5zM1006 1018q0 94 -62 149.5t-166 55.5h-362v-428h340q112 0 181 62t69 161zM801 1927h194l-270 -340h-119l-270 340h194l134 -168z" />
    <glyph glyph-name="rcaron" unicode="&#x159;" horiz-adv-x="786" 
d="M735 1055v-209h-41q-307 0 -307 -326v-520h-217v1044h215v-165q79 176 291 176h59zM301 1583l137 -168l133 168h195l-270 -340h-119l-271 340h195z" />
    <glyph glyph-name="Sacute" unicode="&#x15a;" horiz-adv-x="1323" 
d="M696 -37q-257 0 -422 142t-165 370h227q11 -150 108 -235.5t258 -85.5q133 0 209 58.5t76 158.5q0 72 -41 116q-39 40 -95.5 63t-168.5 50l-55 14q-165 43 -242 76q-106 45 -170.5 132t-64.5 218q0 194 138.5 310t370.5 116q233 0 383 -117t150 -307h-234
q-6 110 -86.5 169t-220.5 59q-131 0 -205.5 -55.5t-74.5 -153.5q0 -104 78.5 -157t250.5 -91q167 -36 254 -68q101 -37 179 -118q81 -81 81 -236q0 -192 -142.5 -310t-375.5 -118zM731 1589h-166l230 357l163 -125z" />
    <glyph glyph-name="sacute" unicode="&#x15b;" horiz-adv-x="1079" 
d="M991 317q0 -156 -119 -248t-321 -92q-205 0 -329 94t-134 259h217q10 -88 77.5 -135.5t180.5 -47.5q103 0 160 38t57 106q0 58 -43.5 81.5t-177.5 47.5q-131 24 -231 49q-90 28 -147.5 92.5t-57.5 171.5q0 154 110.5 243t301.5 89t304.5 -91t125.5 -251h-207
q-11 82 -66.5 126t-152.5 44q-94 0 -151.5 -41.5t-57.5 -108.5q7 -68 55 -92t195 -47q148 -24 221 -45q83 -22 136.5 -82.5t53.5 -159.5zM602 1243h-168l264 410l164 -125z" />
    <glyph glyph-name="Scircumflex" unicode="&#x15c;" horiz-adv-x="1323" 
d="M696 -37q-257 0 -422 142t-165 370h227q11 -150 108 -235.5t258 -85.5q133 0 209 58.5t76 158.5q0 72 -41 116q-39 40 -95.5 63t-168.5 50l-55 14q-165 43 -242 76q-106 45 -170.5 132t-64.5 218q0 194 138.5 310t370.5 116q233 0 383 -117t150 -307h-234
q-6 110 -86.5 169t-220.5 59q-131 0 -205.5 -55.5t-74.5 -153.5q0 -104 78.5 -157t250.5 -91q167 -36 254 -68q101 -37 179 -118q81 -81 81 -236q0 -192 -142.5 -310t-375.5 -118zM797 1589l-138 168l-133 -168h-194l270 340h119l270 -340h-194z" />
    <glyph glyph-name="scircumflex" unicode="&#x15d;" horiz-adv-x="1079" 
d="M991 317q0 -156 -119 -248t-321 -92q-205 0 -329 94t-134 259h217q10 -88 77.5 -135.5t180.5 -47.5q103 0 160 38t57 106q0 58 -43.5 81.5t-177.5 47.5q-131 24 -231 49q-90 28 -147.5 92.5t-57.5 171.5q0 154 110.5 243t301.5 89t304.5 -91t125.5 -251h-207
q-11 82 -66.5 126t-152.5 44q-94 0 -151.5 -41.5t-57.5 -108.5q7 -68 55 -92t195 -47q148 -24 221 -45q83 -22 136.5 -82.5t53.5 -159.5zM684 1243l-137 168l-133 -168h-195l270 340h119l271 -340h-195z" />
    <glyph glyph-name="Scedilla" unicode="&#x15e;" horiz-adv-x="1323" 
d="M735 -37v-57q95 -5 152 -47.5t57 -110.5q0 -75 -57.5 -124.5t-147.5 -49.5q-129 0 -217 76l62 94q73 -61 147 -61q42 0 66 19t24 50q0 74 -186 74v139q-234 15 -380 155.5t-146 354.5h227q11 -150 108 -235.5t258 -85.5q133 0 209 58.5t76 158.5q0 72 -41 116
q-39 40 -95.5 63t-168.5 50l-55 14q-165 43 -242 76q-106 45 -170.5 132t-64.5 218q0 194 138.5 310t370.5 116q233 0 383 -117t150 -307h-234q-6 110 -86.5 169t-220.5 59q-131 0 -205.5 -55.5t-74.5 -153.5q0 -104 78.5 -157t250.5 -91q167 -36 254 -68q101 -37 179 -118
q81 -81 81 -236q0 -187 -131 -303t-348 -125z" />
    <glyph glyph-name="scedilla" unicode="&#x15f;" horiz-adv-x="1079" 
d="M592 -20v-74q95 -5 152 -47.5t57 -110.5q0 -75 -57.5 -124.5t-147.5 -49.5q-129 0 -217 76l61 94q73 -61 148 -61q42 0 66 19t24 50q0 74 -186 74v154q-181 14 -289 106.5t-115 243.5h217q10 -88 77.5 -135.5t180.5 -47.5q103 0 160 38t57 106q0 58 -43.5 81.5
t-177.5 47.5q-131 24 -231 49q-90 28 -147.5 92.5t-57.5 171.5q0 154 110.5 243t301.5 89t304.5 -91t125.5 -251h-207q-11 82 -66.5 126t-152.5 44q-94 0 -151.5 -41.5t-57.5 -108.5q7 -68 55 -92t195 -47q148 -24 221 -45q83 -22 136.5 -82.5t53.5 -159.5
q0 -147 -107 -236.5t-292 -100.5z" />
    <glyph glyph-name="Scaron" unicode="&#x160;" horiz-adv-x="1323" 
d="M696 -37q-257 0 -422 142t-165 370h227q11 -150 108 -235.5t258 -85.5q133 0 209 58.5t76 158.5q0 72 -41 116q-39 40 -95.5 63t-168.5 50l-55 14q-165 43 -242 76q-106 45 -170.5 132t-64.5 218q0 194 138.5 310t370.5 116q233 0 383 -117t150 -307h-234
q-6 110 -86.5 169t-220.5 59q-131 0 -205.5 -55.5t-74.5 -153.5q0 -104 78.5 -157t250.5 -91q167 -36 254 -68q101 -37 179 -118q81 -81 81 -236q0 -192 -142.5 -310t-375.5 -118zM795 1927h194l-270 -340h-119l-270 340h194l133 -168z" />
    <glyph glyph-name="scaron" unicode="&#x161;" horiz-adv-x="1079" 
d="M991 317q0 -156 -119 -248t-321 -92q-205 0 -329 94t-134 259h217q10 -88 77.5 -135.5t180.5 -47.5q103 0 160 38t57 106q0 58 -43.5 81.5t-177.5 47.5q-131 24 -231 49q-90 28 -147.5 92.5t-57.5 171.5q0 154 110.5 243t301.5 89t304.5 -91t125.5 -251h-207
q-11 82 -66.5 126t-152.5 44q-94 0 -151.5 -41.5t-57.5 -108.5q7 -68 55 -92t195 -47q148 -24 221 -45q83 -22 136.5 -82.5t53.5 -159.5zM387 1583l137 -168l133 168h195l-270 -340h-119l-270 340h194z" />
    <glyph glyph-name="uni0162" unicode="&#x162;" horiz-adv-x="1265" 
d="M743 0h-127v-94q95 -5 152 -47.5t57 -110.5q0 -76 -57 -125t-147 -49q-130 0 -218 76l62 94q73 -61 147 -61q42 0 66 19t24 50q0 74 -186 74v1397h-479v211h1192v-211h-486v-1223z" />
    <glyph glyph-name="uni0163" unicode="&#x163;" horiz-adv-x="770" 
d="M700 -231q0 -76 -57 -125.5t-147 -49.5q-129 0 -217 76l61 94q73 -61 147 -61q42 0 66.5 19.5t24.5 50.5q0 73 -187 73v174q-81 26 -118 100t-37 208v528h-199v188h199v252l217 58v-310h215v-188h-215v-537q0 -69 33 -101t102 -32h104v-186h-145q-45 0 -55 2v-76
q95 -5 151.5 -47t56.5 -110z" />
    <glyph glyph-name="Tcaron" unicode="&#x164;" horiz-adv-x="1265" 
d="M1229 1434v-211h-486v-1223h-227v1223h-479v211h1192zM768 1927h195l-271 -340h-119l-270 340h195l133 -168z" />
    <glyph glyph-name="tcaron" unicode="&#x165;" horiz-adv-x="1208" 
d="M692 186v-186h-145q-171 0 -241 73t-70 255v528h-199v188h199v252l217 58v-310h215v-188h-215v-537q0 -69 33 -101t102 -32h104zM1006 1204h-121v230h256v-215q0 -154 -80 -241t-246 -116l-24 115q115 25 164.5 75.5t50.5 151.5z" />
    <glyph glyph-name="Tbar" unicode="&#x166;" horiz-adv-x="1265" 
d="M1229 1223h-486v-303h334v-103h-334v-817h-227v817h-326v103h326v303h-479v211h1192v-211z" />
    <glyph glyph-name="tbar" unicode="&#x167;" horiz-adv-x="770" 
d="M588 186h104v-186h-145q-171 0 -241 73t-70 255v155h-199v189h199v184h-199v188h199v252l217 58v-310h215v-188h-215v-184h215v-189h-215v-164q0 -69 33 -101t102 -32z" />
    <glyph glyph-name="Utilde" unicode="&#x168;" horiz-adv-x="1488" 
d="M1096 1434h223v-893q0 -277 -148 -427.5t-423 -150.5q-276 0 -427 151t-151 427v893h227v-897q0 -175 93.5 -267t265.5 -92q166 0 253 84t87 248v924zM866 1589q-24 0 -49.5 9.5t-44 21t-57.5 37.5q-65 53 -107 53q-65 0 -71 -108h-121q4 121 56 193.5t134 72.5
q39 0 71.5 -15.5t84.5 -54.5q30 -22 42.5 -30t28.5 -14.5t31 -6.5q32 0 48 27t22 88h123q-5 -123 -57 -198t-134 -75z" />
    <glyph glyph-name="utilde" unicode="&#x169;" horiz-adv-x="1218" 
d="M834 1044h215v-1044h-209v176q-42 -92 -120 -140t-179 -48q-174 0 -277.5 108.5t-103.5 292.5v655h215v-634q0 -115 54.5 -175.5t154.5 -60.5q122 0 186 95t64 270v505zM743 1243q-24 0 -49.5 9.5t-44 21t-57.5 37.5q-65 53 -107 53q-65 0 -71 -109h-121
q5 122 56.5 195.5t133.5 73.5q39 0 73.5 -17t82.5 -55q30 -22 42.5 -30t28.5 -14.5t31 -6.5q32 0 48 27t22 88h123q-5 -123 -57 -198t-134 -75z" />
    <glyph glyph-name="Umacron" unicode="&#x16a;" horiz-adv-x="1488" 
d="M1096 1434h223v-893q0 -277 -148 -427.5t-423 -150.5q-276 0 -427 151t-151 427v893h227v-897q0 -175 93.5 -267t265.5 -92q166 0 253 84t87 248v924zM1036 1589h-583v150h583v-150z" />
    <glyph glyph-name="umacron" unicode="&#x16b;" horiz-adv-x="1218" 
d="M834 1044h215v-1044h-209v176q-42 -92 -120 -140t-179 -48q-174 0 -277.5 108.5t-103.5 292.5v655h215v-634q0 -115 54.5 -175.5t154.5 -60.5q122 0 186 95t64 270v505zM905 1243h-583v150h583v-150z" />
    <glyph glyph-name="Ubreve" unicode="&#x16c;" horiz-adv-x="1488" 
d="M1096 1434h223v-893q0 -277 -148 -427.5t-423 -150.5q-276 0 -427 151t-151 427v893h227v-897q0 -175 93.5 -267t265.5 -92q166 0 253 84t87 248v924zM987 1817q0 -103 -67 -165.5t-177 -62.5q-109 0 -175 62.5t-66 165.5q0 51 12 81h117q-6 -27 -6 -59q0 -60 31.5 -95.5
t86.5 -35.5q57 0 89 35.5t32 95.5q0 32 -6 59h117q12 -30 12 -81z" />
    <glyph glyph-name="ubreve" unicode="&#x16d;" horiz-adv-x="1218" 
d="M834 1044h215v-1044h-209v176q-42 -92 -120 -140t-179 -48q-174 0 -277.5 108.5t-103.5 292.5v655h215v-634q0 -115 54.5 -175.5t154.5 -60.5q122 0 186 95t64 270v505zM844 1470q0 -103 -67 -165t-177 -62q-109 0 -175.5 62t-66.5 165q0 47 13 84h116q-6 -30 -6 -61
q0 -60 32 -95.5t87 -35.5q57 0 89 35.5t32 95.5q0 31 -6 61h116q13 -37 13 -84z" />
    <glyph glyph-name="Uring" unicode="&#x16e;" horiz-adv-x="1488" 
d="M1096 1434h223v-893q0 -277 -148 -427.5t-423 -150.5q-276 0 -427 151t-151 427v893h227v-897q0 -175 93.5 -267t265.5 -92q166 0 253 84t87 248v924zM743 1946q92 0 152.5 -59.5t60.5 -151.5q0 -93 -60 -153t-153 -60q-91 0 -149.5 60.5t-58.5 152.5t58.5 151.5
t149.5 59.5zM745 1843q-47 0 -75.5 -30t-28.5 -78q0 -50 27.5 -80.5t76.5 -30.5q47 0 76 30.5t29 80.5q0 48 -29 78t-76 30z" />
    <glyph glyph-name="uring" unicode="&#x16f;" horiz-adv-x="1218" 
d="M834 1044h215v-1044h-209v176q-42 -92 -120 -140t-179 -48q-174 0 -277.5 108.5t-103.5 292.5v655h215v-634q0 -115 54.5 -175.5t154.5 -60.5q122 0 186 95t64 270v505zM598 1669q93 0 153 -60t60 -153t-60 -153t-153 -60q-91 0 -150 60.5t-59 152.5q0 93 59 153t150 60z
M600 1565q-47 0 -75.5 -30.5t-28.5 -78.5q0 -50 27.5 -80t76.5 -30q47 0 76 30.5t29 79.5q0 48 -29 78.5t-76 30.5z" />
    <glyph glyph-name="Uhungarumlaut" unicode="&#x170;" horiz-adv-x="1488" 
d="M1096 1434h223v-893q0 -277 -148 -427.5t-423 -150.5q-276 0 -427 151t-151 427v893h227v-897q0 -175 93.5 -267t265.5 -92q166 0 253 84t87 248v924zM756 1896l-107 -307h-129l82 307h154zM1004 1896l-105 -307h-131l82 307h154z" />
    <glyph glyph-name="uhungarumlaut" unicode="&#x171;" horiz-adv-x="1218" 
d="M834 1044h215v-1044h-209v176q-42 -92 -120 -140t-179 -48q-174 0 -277.5 108.5t-103.5 292.5v655h215v-634q0 -115 54.5 -175.5t154.5 -60.5q122 0 186 95t64 270v505zM653 1550l-106 -307h-129l82 307h153zM901 1550l-104 -307h-131l82 307h153z" />
    <glyph glyph-name="Uogonek" unicode="&#x172;" horiz-adv-x="1488" 
d="M1096 1434h223v-893q0 -270 -143.5 -421t-407.5 -157q-14 -25 -14 -59q0 -53 44 -84.5t111 -36.5v-119q-114 11 -192 72.5t-78 146.5q0 48 25 84q-238 23 -366 172t-128 402v893h227v-897q0 -175 93.5 -267t265.5 -92q166 0 253 84t87 248v924z" />
    <glyph glyph-name="uogonek" unicode="&#x173;" horiz-adv-x="1218" 
d="M889 -96q0 -53 44 -84.5t111 -36.5v-119q-114 11 -192 72.5t-78 146.5q0 79 66 127v166q-42 -92 -120 -140t-179 -48q-174 0 -277.5 108.5t-103.5 292.5v655h215v-634q0 -115 54.5 -175.5t154.5 -60.5q122 0 186 95t64 270v505h215v-1044h-115q-45 -45 -45 -96z" />
    <glyph glyph-name="Wcircumflex" unicode="&#x174;" horiz-adv-x="2066" 
d="M1999 1434l-389 -1434h-238l-338 1143l-342 -1143h-235l-389 1434h241l275 -1125l336 1125h235l336 -1127l274 1127h234zM1169 1589l-137 168l-133 -168h-194l270 340h119l270 -340h-195z" />
    <glyph glyph-name="wcircumflex" unicode="&#x175;" horiz-adv-x="1744" 
d="M1698 1044l-359 -1044h-217l-250 756l-249 -756h-217l-359 1044h229l244 -786l248 786h219l250 -786l242 786h219zM1008 1243l-138 168l-133 -168h-194l270 340h119l270 -340h-194z" />
    <glyph glyph-name="Ycircumflex" unicode="&#x176;" horiz-adv-x="1374" 
d="M1063 1434h254l-516 -889v-545h-228v545l-516 889h260l373 -686zM823 1589l-137 168l-133 -168h-195l271 340h119l270 -340h-195z" />
    <glyph glyph-name="ycircumflex" unicode="&#x177;" horiz-adv-x="1087" 
d="M831 1044h220l-439 -1148q-43 -113 -142 -172.5t-245 -59.5h-84v184h74q82 0 141 34.5t82 97.5l8 24l-409 1040h227l285 -784zM678 1243l-137 168l-133 -168h-195l270 340h119l270 -340h-194z" />
    <glyph glyph-name="Ydieresis" unicode="&#x178;" horiz-adv-x="1374" 
d="M1317 1434h-254l-373 -686l-373 686h-260l516 -889v-545h228v545zM586 1810v-221h-197v221h197zM985 1810v-221h-197v221h197z" />
    <glyph glyph-name="Zacute" unicode="&#x179;" horiz-adv-x="1359" 
d="M1262 213v-213h-1143v225l825 998h-799v211h1074v-224l-824 -997h867zM748 1589h-166l229 357l164 -125z" />
    <glyph glyph-name="zacute" unicode="&#x17a;" horiz-adv-x="1089" 
d="M979 182v-182h-870v197l608 667h-600v180h864v-196l-612 -666h610zM604 1243h-168l264 410l164 -125z" />
    <glyph glyph-name="Zdotaccent" unicode="&#x17b;" horiz-adv-x="1359" 
d="M1262 213v-213h-1143v225l825 998h-799v211h1074v-224l-824 -997h867zM563 1589v256h248v-256h-248z" />
    <glyph glyph-name="zdotaccent" unicode="&#x17c;" horiz-adv-x="1089" 
d="M979 182v-182h-870v197l608 667h-600v180h864v-196l-612 -666h610zM438 1243v264h256v-264h-256z" />
    <glyph glyph-name="Zcaron" unicode="&#x17d;" horiz-adv-x="1359" 
d="M1262 213v-213h-1143v225l825 998h-799v211h1074v-224l-824 -997h867zM803 1927h194l-270 -340h-119l-270 340h194l134 -168z" />
    <glyph glyph-name="zcaron" unicode="&#x17e;" horiz-adv-x="1089" 
d="M979 182v-182h-870v197l608 667h-600v180h864v-196l-612 -666h610zM455 1583l137 -168l133 168h195l-271 -340h-119l-270 340h195z" />
    <glyph glyph-name="longs" unicode="&#x17f;" horiz-adv-x="718" 
d="M672 1270h-99q-69 0 -99 -30t-30 -99v-1141h-215v856h-161v188h161v82q0 183 69.5 256.5t240.5 73.5h133v-186z" />
    <glyph glyph-name="florin" unicode="&#x192;" horiz-adv-x="1081" 
d="M731 1141l-20 -97h202l-43 -188h-202l-140 -592q-34 -143 -112.5 -203.5t-206.5 -60.5h-141l45 186h71q65 0 96.5 29t45.5 94l123 547h-160l43 188h162l34 152q31 138 111.5 199t214.5 61h180l-45 -186h-110q-68 0 -101 -30t-47 -99z" />
    <glyph glyph-name="Aringacute" unicode="&#x1fa;" horiz-adv-x="1529" 
d="M840 1968h-133l184 285l131 -101zM764 1907q88 0 145.5 -56.5t57.5 -144.5t-57.5 -145.5t-145.5 -57.5q-86 0 -142.5 57.5t-56.5 145.5t56.5 144.5t142.5 56.5zM766 1808q-46 0 -73 -28.5t-27 -73.5q0 -48 26.5 -77.5t73.5 -29.5q44 0 71 29.5t27 77.5q0 43 -28 72.5
t-70 29.5zM1214 0l-129 346h-647l-129 -346h-241l559 1434h276l559 -1434h-248zM518 557h488l-244 655z" />
    <glyph glyph-name="aringacute" unicode="&#x1fb;" horiz-adv-x="1136" 
d="M680 1610h-150l207 321l148 -112zM598 1522q85 0 137.5 -53t52.5 -138t-52.5 -137.5t-137.5 -52.5q-81 0 -134.5 53t-53.5 137t54 137.5t134 53.5zM600 1430q-42 0 -68 -28t-26 -71t26 -70.5t68 -27.5t68 27.5t26 70.5t-26 71t-68 28zM987 727v-727h-207v158
q-116 -181 -342 -181q-158 0 -249 85.5t-91 228.5q0 156 95 221q99 67 231 88l223 35q62 9 96.5 36t34.5 89q0 131 -192 131q-219 0 -254 -176h-205q19 162 143.5 256t325.5 94q189 0 290 -85t101 -253zM772 442v76q-64 -21 -145 -33l-119 -18q-79 -12 -137 -45
q-60 -35 -60 -121q0 -68 45.5 -104.5t130.5 -36.5q126 0 205.5 78t79.5 204z" />
    <glyph glyph-name="AEacute" unicode="&#x1fc;" horiz-adv-x="2119" 
d="M1264 213h757v-213h-985v362h-524l-184 -362h-260l747 1434h1167v-211h-718v-392h663v-213h-663v-405zM621 575h415v609h-104zM1231 1589h-166l229 357l164 -125z" />
    <glyph glyph-name="aeacute" unicode="&#x1fd;" horiz-adv-x="1845" 
d="M1737 551v-90h-762q0 -142 81.5 -222.5t223.5 -80.5q195 0 256 149h190q-39 -151 -163 -240.5t-299 -89.5q-142 0 -245 62t-159 178q-66 -123 -177.5 -181.5t-244.5 -58.5q-158 0 -249 85.5t-91 228.5q0 156 95 221q99 67 231 88l223 35q62 9 96.5 36t34.5 89
q0 131 -188 131q-219 0 -254 -176h-205q19 162 143.5 256t325.5 94q250 0 326 -150q126 150 346 150q211 0 338 -140t127 -374zM977 618h553q0 124 -70 195.5t-192 71.5q-123 0 -202 -72t-89 -195zM772 442v76q-64 -21 -145 -33l-119 -18q-79 -12 -137 -45q-60 -35 -60 -121
q0 -68 45.5 -104.5t130.5 -36.5q126 0 205.5 78t79.5 204zM1008 1243h-168l264 410l164 -125z" />
    <glyph glyph-name="Oslashacute" unicode="&#x1fe;" horiz-adv-x="1656" 
d="M1538 715q3 -219 -89 -392.5t-255 -268t-365 -91.5q-217 0 -387 105l-129 -179l-118 88l133 183q-101 101 -155 243.5t-54 311.5q0 221 91.5 393t253 266t365.5 94q210 0 375 -98l127 176l119 -88l-129 -178q105 -101 161 -245t56 -320zM461 344l614 848q-109 59 -246 59
q-221 0 -349 -142t-128 -394q0 -229 109 -371zM1307 715q0 240 -119 383l-617 -852q111 -66 258 -66q221 0 349.5 141.5t128.5 393.5zM924 1589h-166l229 357l164 -125z" />
    <glyph glyph-name="oslashacute" unicode="&#x1ff;" horiz-adv-x="1220" 
d="M1122 520q0 -247 -138 -395t-374 -148q-144 0 -262 62l-121 -166l-118 88l122 170q-133 145 -133 389q0 246 139 395.5t373 149.5q147 0 256 -59l111 151l119 -86l-113 -156q139 -148 139 -395zM362 311l383 529q-64 28 -137 28q-138 0 -215.5 -93.5t-77.5 -254.5
q0 -126 47 -209zM905 520q0 131 -51 217l-385 -530q56 -33 145 -33q138 0 214.5 92.5t76.5 253.5zM659 1243h-167l264 410l164 -125z" />
    <glyph glyph-name="uni0218" unicode="&#x218;" horiz-adv-x="1323" 
d="M696 -37q-257 0 -422 142t-165 370h227q11 -150 108 -235.5t258 -85.5q133 0 209 58.5t76 158.5q0 72 -41 116q-39 40 -95.5 63t-168.5 50l-55 14q-165 43 -242 76q-106 45 -170.5 132t-64.5 218q0 194 138.5 310t370.5 116q233 0 383 -117t150 -307h-234
q-6 110 -86.5 169t-220.5 59q-131 0 -205.5 -55.5t-74.5 -153.5q0 -104 78.5 -157t250.5 -91q167 -36 254 -68q101 -37 179 -118q81 -81 81 -236q0 -192 -142.5 -310t-375.5 -118zM682 -406h-121v230h256v-215q0 -154 -80 -241t-245 -116l-25 115q115 25 164.5 75.5
t50.5 151.5z" />
    <glyph glyph-name="uni0219" unicode="&#x219;" horiz-adv-x="1079" 
d="M991 317q0 -156 -119 -248t-321 -92q-205 0 -329 94t-134 259h217q10 -88 77.5 -135.5t180.5 -47.5q103 0 160 38t57 106q0 58 -43.5 81.5t-177.5 47.5q-131 24 -231 49q-90 28 -147.5 92.5t-57.5 171.5q0 154 110.5 243t301.5 89t304.5 -91t125.5 -251h-207
q-11 82 -66.5 126t-152.5 44q-94 0 -151.5 -41.5t-57.5 -108.5q7 -68 55 -92t195 -47q148 -24 221 -45q83 -22 136.5 -82.5t53.5 -159.5zM539 -369h-121v230h256v-215q0 -154 -80 -241t-246 -116l-24 115q115 25 164.5 75.5t50.5 151.5z" />
    <glyph glyph-name="uni021A" unicode="&#x21a;" horiz-adv-x="1265" 
d="M1229 1434v-211h-486v-1223h-227v1223h-479v211h1192zM610 -385h-121v229h256v-215q0 -154 -79.5 -240.5t-245.5 -115.5l-25 115q115 25 164.5 75.5t50.5 151.5z" />
    <glyph glyph-name="uni021B" unicode="&#x21b;" horiz-adv-x="770" 
d="M692 186v-186h-145q-171 0 -241 73t-70 255v528h-199v188h199v252l217 58v-310h215v-188h-215v-537q0 -69 33 -101t102 -32h104zM487 -369h-120v230h256v-215q0 -154 -80 -241t-246 -116l-25 115q115 25 164.5 75.5t50.5 151.5z" />
    <glyph glyph-name="circumflex" unicode="&#x2c6;" horiz-adv-x="659" 
d="M465 1243l-137 168l-133 -168h-195l270 340h119l270 -340h-194z" />
    <glyph glyph-name="caron" unicode="&#x2c7;" horiz-adv-x="659" 
d="M195 1583l137 -168l133 168h194l-270 -340h-119l-270 340h195z" />
    <glyph glyph-name="uni02C9" unicode="&#x2c9;" horiz-adv-x="602" 
d="M602 1587h-602v154h602v-154z" />
    <glyph glyph-name="breve" unicode="&#x2d8;" horiz-adv-x="485" 
d="M485 1470q0 -103 -66.5 -165t-176.5 -62q-109 0 -175.5 62t-66.5 165q0 50 12 84h117q-6 -30 -6 -61q0 -60 32 -95.5t87 -35.5q57 0 88.5 35t31.5 96q0 31 -6 61h117q12 -34 12 -84z" />
    <glyph glyph-name="dotaccent" unicode="&#x2d9;" horiz-adv-x="256" 
d="M0 1243v264h256v-264h-256z" />
    <glyph glyph-name="ring" unicode="&#x2da;" horiz-adv-x="421" 
d="M209 1669q93 0 153 -60t60 -153t-60 -153t-153 -60q-91 0 -150 60.5t-59 152.5q0 93 59 153t150 60zM211 1565q-47 0 -76 -30.5t-29 -78.5q0 -50 28 -80t77 -30q47 0 75.5 30t28.5 80q0 48 -28.5 78.5t-75.5 30.5z" />
    <glyph glyph-name="ogonek" unicode="&#x2db;" horiz-adv-x="270" 
d="M270 -217v-119q-114 11 -192 72.5t-78 146.5q0 86 72 131h106q-32 -25 -47.5 -50t-15.5 -60q0 -53 44 -84.5t111 -36.5z" />
    <glyph glyph-name="tilde" unicode="&#x2dc;" horiz-adv-x="641" 
d="M451 1243q-35 0 -65.5 15t-86.5 53q-65 53 -106 53q-66 0 -72 -109h-121q5 122 56.5 195.5t133.5 73.5q39 0 73.5 -17t82.5 -55q42 -30 62 -40.5t41 -10.5q32 0 47.5 27t21.5 88h123q-5 -123 -56.5 -198t-133.5 -75z" />
    <glyph glyph-name="hungarumlaut" unicode="&#x2dd;" horiz-adv-x="483" 
d="M236 1550l-107 -307h-129l82 307h154zM483 1550l-104 -307h-131l82 307h153z" />
    <glyph glyph-name="uni0394" unicode="&#x394;" horiz-adv-x="1480" 
d="M1413 229v-229h-1345v229l550 1205h244zM287 213h905l-453 997z" />
    <glyph glyph-name="uni0394" unicode="&#x3b4;" horiz-adv-x="1480" 
d="M1413 229v-229h-1345v229l550 1205h244zM287 213h905l-453 997z" />
    <glyph glyph-name="uni03A9" unicode="&#x3a9;" horiz-adv-x="1632" 
d="M1059 193h299v-193h-461v449q181 39 280 145t99 274q0 184 -128.5 300t-330.5 116q-203 0 -332 -116t-129 -300q0 -168 99 -274t280 -145v-449h-461v193h299v112q-212 44 -333 195q-121 154 -121 364q0 274 190 439t508 165q316 0 506 -165t190 -439q0 -211 -120 -364
q-121 -151 -334 -195v-112z" />
    <glyph glyph-name="uni03A9" unicode="&#x3c9;" horiz-adv-x="1632" 
d="M1059 193h299v-193h-461v449q181 39 280 145t99 274q0 184 -128.5 300t-330.5 116q-203 0 -332 -116t-129 -300q0 -168 99 -274t280 -145v-449h-461v193h299v112q-212 44 -333 195q-121 154 -121 364q0 274 190 439t508 165q316 0 506 -165t190 -439q0 -211 -120 -364
q-121 -151 -334 -195v-112z" />
    <glyph glyph-name="uni03BC" unicode="&#x3bc;" horiz-adv-x="1294" 
d="M1186 180v-180h-99q-81 0 -134.5 51.5t-53.5 124.5q-84 -188 -315 -188q-100 0 -199 55v-436h-215v1437h215v-624q0 -120 55 -183t154 -63q123 0 184.5 91.5t61.5 250.5v528h213v-751q0 -55 26 -84t74 -29h33z" />
    <glyph glyph-name="pi" unicode="&#x3c0;" horiz-adv-x="1220" 
d="M924 879v-537q0 -104 30.5 -139t130.5 -35h70v-168h-156q-118 0 -204 74q-84 78 -84 260v545h-246v-879h-229v879h-209v165h794q233 0 373 62v-172q-110 -52 -270 -55z" />
    <glyph glyph-name="uni1E02" unicode="&#x1e02;" horiz-adv-x="1398" 
d="M1290 403q0 -174 -135 -288.5t-342 -114.5h-623v1434h648q170 0 278.5 -97t108.5 -245q0 -102 -52 -190t-147 -134q124 -47 194 -144.5t70 -220.5zM416 1223v-383h358q96 0 156.5 55.5t60.5 142.5q0 85 -56 135t-153 50h-366zM1057 442q0 92 -68.5 150.5t-177.5 58.5
h-395v-438h377q118 0 191 63t73 166zM520 1589v256h248v-256h-248z" />
    <glyph glyph-name="uni1E03" unicode="&#x1e03;" horiz-adv-x="1290" 
d="M1192 524q0 -248 -126.5 -397.5t-334.5 -149.5q-125 0 -215.5 51.5t-134.5 141.5v-170h-211v1456h217v-592q44 96 137 148.5t217 52.5q204 0 327.5 -148t123.5 -393zM975 516q0 160 -81 257t-214 97q-134 0 -217.5 -98t-83.5 -256t83.5 -256t217.5 -98q133 0 214 97
t81 257zM633 1243v264h256v-264h-256z" />
    <glyph glyph-name="uni1E0A" unicode="&#x1e0a;" horiz-adv-x="1505" 
d="M1386 745q2 -114 -27.5 -222.5t-92.5 -204t-151.5 -167t-213 -112.5t-268.5 -39h-443v1434h478q325 0 521.5 -190t196.5 -499zM1157 745q0 217 -129.5 347.5t-349.5 130.5h-260v-1010h217q230 0 376 150t146 382zM500 1589v256h248v-256h-248z" />
    <glyph glyph-name="uni1E0B" unicode="&#x1e0b;" horiz-adv-x="1290" 
d="M903 1456h217v-1456h-211v174q-117 -197 -358 -197q-203 0 -328 150t-125 397q0 240 133 390.5t338 150.5q232 0 334 -172v563zM911 524q0 159 -82 257t-217 98t-216 -97t-81 -256q0 -160 81 -258t216 -98t217 97t82 257zM379 1243v264h256v-264h-256z" />
    <glyph glyph-name="uni1E1E" unicode="&#x1e1e;" horiz-adv-x="1173" 
d="M418 618v-618h-228v1434h947v-211h-719v-392h663v-213h-663zM578 1589v256h247v-256h-247z" />
    <glyph glyph-name="uni1E1F" unicode="&#x1e1f;" horiz-adv-x="698" 
d="M672 1270h-99q-69 0 -99 -30t-30 -99v-97h201v-188h-201v-856h-215v856h-161v188h161v82q0 183 69.5 256.5t240.5 73.5h133v-186zM301 1589v256h248v-256h-248z" />
    <glyph glyph-name="uni1E40" unicode="&#x1e40;" horiz-adv-x="1851" 
d="M1661 1434v-1434h-213v1139l-420 -1139h-213l-418 1139v-1139h-207v1434h310l426 -1166l426 1166h309zM803 1589v256h248v-256h-248z" />
    <glyph glyph-name="uni1E41" unicode="&#x1e41;" horiz-adv-x="1806" 
d="M1647 717v-717h-215v666q0 104 -49 158.5t-142 54.5q-110 0 -166.5 -72.5t-56.5 -212.5v-594h-217v666q0 103 -49 158t-142 55q-108 0 -165.5 -73.5t-57.5 -209.5v-596h-217v1044h215v-174q66 195 289 195q237 0 297 -213q83 213 321 213q166 0 260.5 -92t94.5 -256z
M807 1243v264h256v-264h-256z" />
    <glyph glyph-name="uni1E56" unicode="&#x1e56;" horiz-adv-x="1329" 
d="M1251 1014q0 -196 -135.5 -322.5t-351.5 -126.5h-346v-565h-228v1434h598q209 0 336 -115.5t127 -304.5zM1022 1001q0 100 -65.5 161t-174.5 61h-364v-447h354q116 0 183 60.5t67 164.5zM537 1589v256h247v-256h-247z" />
    <glyph glyph-name="uni1E57" unicode="&#x1e57;" horiz-adv-x="1290" 
d="M1192 537q0 -244 -130.5 -394.5t-340.5 -150.5q-110 0 -197.5 43.5t-136.5 122.5v-551h-217v1437h211v-188q52 100 145 154.5t219 54.5q201 0 324 -145t123 -383zM975 526q0 156 -81 250t-216 94t-217 -94.5t-82 -249.5q0 -158 81 -252t218 -94q133 0 215 95.5t82 250.5z
M598 1243v264h256v-264h-256z" />
    <glyph glyph-name="uni1E60" unicode="&#x1e60;" horiz-adv-x="1323" 
d="M696 -37q-257 0 -422 142t-165 370h227q11 -150 108 -235.5t258 -85.5q133 0 209 58.5t76 158.5q0 72 -41 116q-39 40 -95.5 63t-168.5 50l-55 14q-165 43 -242 76q-106 45 -170.5 132t-64.5 218q0 194 138.5 310t370.5 116q233 0 383 -117t150 -307h-234
q-6 110 -86.5 169t-220.5 59q-131 0 -205.5 -55.5t-74.5 -153.5q0 -104 78.5 -157t250.5 -91q167 -36 254 -68q101 -37 179 -118q81 -81 81 -236q0 -192 -142.5 -310t-375.5 -118zM547 1589v256h248v-256h-248z" />
    <glyph glyph-name="uni1E61" unicode="&#x1e61;" horiz-adv-x="1079" 
d="M991 317q0 -156 -119 -248t-321 -92q-205 0 -329 94t-134 259h217q10 -88 77.5 -135.5t180.5 -47.5q103 0 160 38t57 106q0 58 -43.5 81.5t-177.5 47.5q-131 24 -231 49q-90 28 -147.5 92.5t-57.5 171.5q0 154 110.5 243t301.5 89t304.5 -91t125.5 -251h-207
q-11 82 -66.5 126t-152.5 44q-94 0 -151.5 -41.5t-57.5 -108.5q7 -68 55 -92t195 -47q148 -24 221 -45q83 -22 136.5 -82.5t53.5 -159.5zM451 1243v264h256v-264h-256z" />
    <glyph glyph-name="uni1E6A" unicode="&#x1e6a;" horiz-adv-x="1265" 
d="M1229 1434v-211h-486v-1223h-227v1223h-479v211h1192zM510 1589v256h248v-256h-248z" />
    <glyph glyph-name="uni1E6B" unicode="&#x1e6b;" horiz-adv-x="770" 
d="M692 186v-186h-145q-171 0 -241 73t-70 255v528h-199v188h199v252l217 58v-310h215v-188h-215v-537q0 -69 33 -101t102 -32h104zM233 1434v256h248v-256h-248z" />
    <glyph glyph-name="Wgrave" unicode="&#x1e80;" horiz-adv-x="2066" 
d="M1999 1434l-389 -1434h-238l-338 1143l-342 -1143h-235l-389 1434h241l275 -1125l336 1125h235l336 -1127l274 1127h234zM944 1589l-227 232l164 125l229 -357h-166z" />
    <glyph glyph-name="wgrave" unicode="&#x1e81;" horiz-adv-x="1744" 
d="M1698 1044l-359 -1044h-217l-250 756l-249 -756h-217l-359 1044h229l244 -786l248 786h219l250 -786l242 786h219zM791 1243l-261 285l164 125l264 -410h-167z" />
    <glyph glyph-name="Wacute" unicode="&#x1e82;" horiz-adv-x="2066" 
d="M1999 1434l-389 -1434h-238l-338 1143l-342 -1143h-235l-389 1434h241l275 -1125l336 1125h235l336 -1127l274 1127h234zM1126 1589h-165l229 357l164 -125z" />
    <glyph glyph-name="wacute" unicode="&#x1e83;" horiz-adv-x="1744" 
d="M1698 1044l-359 -1044h-217l-250 756l-249 -756h-217l-359 1044h229l244 -786l248 786h219l250 -786l242 786h219zM956 1243h-168l265 410l164 -125z" />
    <glyph glyph-name="Wdieresis" unicode="&#x1e84;" horiz-adv-x="2066" 
d="M1610 0l389 1434h-234l-274 -1127l-336 1127h-235l-336 -1125l-275 1125h-241l389 -1434h235l342 1143l338 -1143h238zM932 1810v-221h-197v221h197zM1331 1810v-221h-196v221h196z" />
    <glyph glyph-name="wdieresis" unicode="&#x1e85;" horiz-adv-x="1744" 
d="M1339 0l359 1044h-219l-242 -786l-250 786h-219l-248 -786l-244 786h-229l359 -1044h217l249 756l250 -756h217zM780 1464v-221h-196v221h196zM1161 1464v-221h-196v221h196z" />
    <glyph glyph-name="Ygrave" unicode="&#x1ef2;" horiz-adv-x="1374" 
d="M1063 1434h254l-516 -889v-545h-228v545l-516 889h260l373 -686zM600 1589l-227 232l164 125l229 -357h-166z" />
    <glyph glyph-name="ygrave" unicode="&#x1ef3;" horiz-adv-x="1087" 
d="M831 1044h220l-439 -1148q-43 -113 -142 -172.5t-245 -59.5h-84v184h74q82 0 141 34.5t82 97.5l8 24l-409 1040h227l285 -784zM461 1243l-260 285l164 125l264 -410h-168z" />
    <glyph glyph-name="endash" unicode="&#x2013;" horiz-adv-x="1130" 
d="M1042 475h-954v187h954v-187z" />
    <glyph glyph-name="emdash" unicode="&#x2014;" horiz-adv-x="2086" 
d="M1999 475h-1911v187h1911v-187z" />
    <glyph glyph-name="quoteleft" unicode="&#x2018;" horiz-adv-x="485" 
d="M203 1169h121v-229h-256v215q0 154 79.5 240.5t245.5 115.5l25 -114q-115 -25 -164.5 -76t-50.5 -152z" />
    <glyph glyph-name="quoteright" unicode="&#x2019;" horiz-adv-x="485" 
d="M283 1245h-121v230h256v-215q0 -154 -80 -241t-246 -116l-24 115q115 25 164.5 75.5t50.5 151.5z" />
    <glyph glyph-name="quotesinglbase" unicode="&#x201a;" horiz-adv-x="485" 
d="M283 14h-121v230h256v-215q0 -154 -80 -241t-246 -116l-24 115q115 25 164.5 75.5t50.5 151.5z" />
    <glyph glyph-name="quotedblleft" unicode="&#x201c;" horiz-adv-x="964" 
d="M203 1169h121v-229h-256v215q0 154 79.5 240.5t245.5 115.5l25 -114q-115 -25 -164.5 -76t-50.5 -152zM682 1169h121v-229h-256v215q0 154 79.5 240.5t245.5 115.5l25 -114q-115 -25 -164.5 -76t-50.5 -152z" />
    <glyph glyph-name="quotedblright" unicode="&#x201d;" horiz-adv-x="962" 
d="M283 1245h-121v230h256v-215q0 -154 -80 -241t-246 -116l-24 115q115 25 164.5 75.5t50.5 151.5zM760 1245h-121v230h256v-215q0 -154 -80 -241t-246 -116l-24 115q115 25 164.5 75.5t50.5 151.5z" />
    <glyph glyph-name="quotedblbase" unicode="&#x201e;" horiz-adv-x="962" 
d="M283 14h-121v230h256v-215q0 -154 -80 -241t-246 -116l-24 115q115 25 164.5 75.5t50.5 151.5zM760 14h-121v230h256v-215q0 -154 -80 -241t-246 -116l-24 115q115 25 164.5 75.5t50.5 151.5z" />
    <glyph glyph-name="dagger" unicode="&#x2020;" horiz-adv-x="1073" 
d="M434 821h-346v193h346v420h205v-420h346v-193h-346v-1016h-205v1016z" />
    <glyph glyph-name="daggerdbl" unicode="&#x2021;" horiz-adv-x="1073" 
d="M985 821h-346v-403h346v-193h-346v-420h-205v420h-346v193h346v403h-346v193h346v420h205v-420h346v-193z" />
    <glyph glyph-name="bullet" unicode="&#x2022;" horiz-adv-x="575" 
d="M109 369v370h358v-370h-358z" />
    <glyph glyph-name="ellipsis" unicode="&#x2026;" horiz-adv-x="2045" 
d="M244 0v256h248v-256h-248zM885 0v256h248v-256h-248zM1528 0v256h248v-256h-248z" />
    <glyph glyph-name="perthousand" unicode="&#x2030;" horiz-adv-x="2598" 
d="M2150 668q155 0 258 -99t103 -256q0 -155 -103.5 -256.5t-257.5 -101.5q-149 0 -250.5 102t-101.5 256q0 156 101 255.5t251 99.5zM2154 512q-82 0 -134 -55.5t-52 -141.5q0 -88 52 -145t134 -57q80 0 132.5 57t52.5 145q0 86 -52.5 141.5t-132.5 55.5zM440 1473
q155 0 258 -99t103 -256q0 -155 -103.5 -256.5t-257.5 -101.5q-149 0 -250.5 102t-101.5 256q0 156 101 255.5t251 99.5zM1421 1434l-866 -1434h-199l867 1434h198zM444 1317q-82 0 -134 -55.5t-52 -141.5q0 -88 52 -145t134 -57q80 0 132.5 57t52.5 145q0 86 -52.5 141.5
t-132.5 55.5zM1364 668q155 0 257.5 -99t102.5 -256q0 -155 -103 -256.5t-257 -101.5q-149 0 -250.5 102t-101.5 256q0 156 101 255.5t251 99.5zM1368 512q-82 0 -134 -55.5t-52 -141.5q0 -88 52 -145t134 -57q80 0 132 57t52 145q0 86 -52 141.5t-132 55.5z" />
    <glyph glyph-name="guilsinglleft" unicode="&#x2039;" horiz-adv-x="757" 
d="M598 885l-274 -303l274 -306l-127 -118l-373 424l373 422z" />
    <glyph glyph-name="guilsinglright" unicode="&#x203a;" horiz-adv-x="757" 
d="M160 885l127 119l372 -422l-372 -424l-127 118l274 306z" />
    <glyph glyph-name="fraction" unicode="&#x2044;" horiz-adv-x="1335" 
d="M1192 1434l-846 -1434h-203l846 1434h203z" />
    <glyph glyph-name="Euro" unicode="&#x20ac;" horiz-adv-x="1300" 
d="M1051 475h202q0 -225 -142 -361.5t-376 -136.5q-449 0 -522 510h-166v125h154q-2 23 -2 99q0 79 2 102h-154v125h166q75 496 537 496q233 0 365 -127.5t132 -350.5h-205q0 154 -77 234t-226 80q-145 0 -225.5 -83t-110.5 -249h471v-125h-483q-2 -20 -2 -96q0 -82 2 -105
h483v-125h-468q30 -170 114 -256t234 -86q297 0 297 330z" />
    <glyph glyph-name="uni2113" unicode="&#x2113;" horiz-adv-x="907" 
d="M289 180q0 -76 63 -76q52 0 123.5 52t132.5 135l45 -39q-180 -275 -370 -275q-97 0 -146 50.5t-49 144.5q0 64 14 119l113 485l-168 -88l25 107l164 84l61 262q37 157 131.5 236t228.5 79q85 0 144 -47t59 -133q0 -90 -67 -181t-193 -161l-166 -92l-137 -602
q-8 -27 -8 -60zM459 952l71 39q218 120 218 260q0 54 -27.5 82.5t-67.5 28.5q-44 0 -81 -40.5t-54 -109.5z" />
    <glyph glyph-name="uni2116" unicode="&#x2116;" horiz-adv-x="2363" 
d="M1364 1434v-1434h-256l-694 1098v-1098h-224v1434h281l670 -1074v1074h223zM1935 1468q156 0 258.5 -98.5t102.5 -255.5q0 -155 -103.5 -256.5t-257.5 -101.5q-149 0 -250.5 102t-101.5 256q0 156 101 255t251 99zM1939 1313q-82 0 -134 -55.5t-52 -141.5
q0 -88 52.5 -145.5t133.5 -57.5q80 0 132.5 57.5t52.5 145.5q0 86 -52.5 141.5t-132.5 55.5z" />
    <glyph glyph-name="trademark" unicode="&#x2122;" horiz-adv-x="1576" 
d="M119 1225v116h567v-116h-221v-480h-123v480h-223zM1264 1341h194v-596h-123v465l-184 -465h-98l-185 465v-465h-120v596h194l162 -430z" />
    <glyph glyph-name="estimated" unicode="&#x212e;" horiz-adv-x="1017" 
d="M821 289h88q-20 -150 -123.5 -231t-255.5 -81q-91 0 -168.5 31t-136.5 90.5t-93 155t-34 217.5q0 123 34 221.5t92.5 160t135 94t164.5 32.5q109 0 197.5 -46t143.5 -141t55 -223q0 -58 -7 -98h-661v-248q86 -164 285 -164q241 0 284 230zM252 559h493v229
q-77 109 -221 109q-85 0 -158 -39t-114 -108v-191z" />
    <glyph glyph-name="uni2153" unicode="&#x2153;" horiz-adv-x="2314" 
d="M1733 1434l-846 -1434h-203l846 1434h203zM629 737h239v-184h-678v184h240v418q-100 -50 -211 -53v184q149 15 246 121h164v-670zM2124 238q0 -119 -90 -186.5t-236 -67.5q-153 0 -241.5 75.5t-88.5 221.5h195q0 -119 141 -119q55 0 89 25t34 61q0 96 -149 96h-62v168h58
q66 0 99.5 27.5t33.5 78.5q0 36 -28 57t-81 21q-61 0 -95 -32t-34 -91h-192q0 163 100 232q104 72 238 72q130 0 210 -65.5t80 -174.5q0 -73 -37 -126.5t-94 -72.5q150 -52 150 -200z" />
    <glyph glyph-name="uni2154" unicode="&#x2154;" horiz-adv-x="2254" 
d="M2064 238q0 -119 -89.5 -186.5t-235.5 -67.5q-153 0 -241.5 75.5t-88.5 221.5h195q0 -119 141 -119q55 0 89 25t34 61q0 96 -150 96h-61v168h57q66 0 99.5 27.5t33.5 78.5q0 36 -27.5 57t-80.5 21q-61 0 -95 -32t-34 -91h-193q0 162 101 232q104 72 237 72
q130 0 210.5 -65.5t80.5 -174.5q0 -73 -37 -126.5t-94 -72.5q149 -52 149 -200zM1688 1434l-846 -1434h-203l846 1434h203zM850 737v-182h-639v172l180 147l37 31q132 107 166 146q43 46 43 98q0 47 -29.5 73.5t-83.5 26.5q-64 0 -102.5 -38t-38.5 -113h-193
q0 156 101.5 246t249.5 90q132 0 212.5 -69t80.5 -194q0 -77 -35 -139q-36 -60 -82 -104q-44 -44 -148 -125l-82 -66h363z" />
    <glyph glyph-name="uni2155" unicode="&#x2155;" horiz-adv-x="2238" 
d="M1735 1434l-846 -1434h-203l846 1434h203zM629 737h239v-184h-678v184h240v418q-100 -50 -211 -53v184q149 15 246 121h164v-670zM2048 289q0 -134 -88 -219q-89 -86 -231 -86q-138 0 -226 76t-88 212h195q0 -118 114 -118q61 0 94 33t33 98q0 62 -32 97.5t-86 35.5
q-69 0 -107 -53h-188l75 487h500v-184h-358l-25 -158q51 57 158 57q113 0 186.5 -76t73.5 -202z" />
    <glyph glyph-name="uni2156" unicode="&#x2156;" horiz-adv-x="2189" 
d="M1686 1434l-846 -1434h-203l846 1434h203zM1999 289q0 -134 -88 -219q-89 -86 -232 -86q-138 0 -225.5 76t-87.5 212h195q0 -118 114 -118q61 0 94 33t33 98q0 62 -32 97.5t-87 35.5q-68 0 -106 -53h-188l75 487h500v-184h-358l-25 -158q51 57 158 57q113 0 186.5 -76
t73.5 -202zM850 737v-182h-639v172l180 147l37 31q132 107 166 146q43 46 43 98q0 47 -29.5 73.5t-83.5 26.5q-64 0 -102.5 -38t-38.5 -113h-193q0 156 101.5 246t249.5 90q132 0 212.5 -69t80.5 -194q0 -77 -35 -139q-36 -60 -82 -104q-44 -44 -148 -125l-82 -66h363z" />
    <glyph glyph-name="uni2157" unicode="&#x2157;" horiz-adv-x="2166" 
d="M1642 1434l-845 -1434h-203l846 1434h202zM1976 289q0 -134 -88 -219q-89 -86 -231 -86q-138 0 -226 76t-88 212h195q0 -118 115 -118q61 0 94 33t33 98q0 62 -32 97.5t-87 35.5q-69 0 -107 -53h-188l76 487h500v-184h-359l-24 -158q51 57 157 57q113 0 186.5 -76
t73.5 -202zM846 795q0 -119 -90 -186.5t-236 -67.5q-153 0 -241.5 75.5t-88.5 221.5h195q0 -119 141 -119q55 0 89 25t34 61q0 96 -149 96h-62v168h58q66 0 99.5 28t33.5 79q0 36 -28 56.5t-81 20.5q-61 0 -95 -32t-34 -91h-192q0 163 100 232q104 72 238 72
q130 0 210 -65.5t80 -174.5q0 -73 -37 -126.5t-94 -72.5q150 -52 150 -200z" />
    <glyph glyph-name="uni2158" unicode="&#x2158;" horiz-adv-x="2244" 
d="M1718 1434l-846 -1434h-202l846 1434h202zM2054 289q0 -134 -88 -219q-89 -86 -231 -86q-138 0 -226 76t-88 212h195q0 -118 115 -118q61 0 94 33t33 98q0 62 -32 97.5t-87 35.5q-69 0 -107 -53h-188l76 487h499v-184h-358l-25 -158q51 57 158 57q113 0 186.5 -76
t73.5 -202zM864 883v-183h-96v-145h-186v147h-392v150l381 557h197v-526h96zM582 883v270l-183 -270h183z" />
    <glyph glyph-name="uni2159" unicode="&#x2159;" horiz-adv-x="2295" 
d="M1733 1434l-846 -1434h-203l846 1434h203zM629 737h239v-184h-678v184h240v418q-100 -50 -211 -53v184q149 15 246 121h164v-670zM1798 711q-77 0 -118.5 -57.5t-41.5 -161.5q64 88 191 88q122 0 199 -81t77 -210q0 -136 -92 -220.5t-223 -84.5q-142 0 -242 106t-100 336
q0 220 96 335.5t256 115.5q120 0 199.5 -62t91.5 -180h-188q-5 34 -32 55t-73 21zM1917 283q0 63 -33.5 98t-93.5 35t-94.5 -35.5t-34.5 -97.5q0 -63 36 -102.5t93 -39.5q59 0 93 39t34 103z" />
    <glyph glyph-name="uni215A" unicode="&#x215a;" horiz-adv-x="2185" 
d="M1620 1434l-846 -1434h-203l846 1434h203zM1688 711q-77 0 -118.5 -57.5t-41.5 -161.5q64 88 190 88q122 0 199.5 -81t77.5 -210q0 -136 -92 -220.5t-224 -84.5q-141 0 -241 106q-101 107 -101 336q0 220 96.5 335.5t256.5 115.5q120 0 199 -62t91 -180h-188
q-5 34 -32 55t-72 21zM1806 283q0 63 -33.5 98t-93.5 35t-94.5 -35.5t-34.5 -97.5q0 -63 36 -102.5t93 -39.5q59 0 93 39t34 103zM823 846q0 -134 -88 -219q-89 -86 -231 -86q-138 0 -226 76t-88 212h195q0 -118 115 -118q61 0 94 33t33 98q0 62 -32 97.5t-87 35.5
q-69 0 -107 -53h-188l76 487h499v-184h-358l-24 -158q51 57 157 57q113 0 186.5 -76t73.5 -202z" />
    <glyph glyph-name="oneeighth" unicode="&#x215b;" horiz-adv-x="2324" 
d="M1735 1434l-846 -1434h-203l846 1434h203zM629 737h239v-184h-678v184h240v418q-100 -50 -211 -53v184q149 15 246 121h164v-670zM2134 236q0 -117 -89.5 -184.5t-234.5 -67.5t-235 67.5t-90 184.5q0 83 46.5 139.5t115.5 70.5q-61 19 -100.5 66t-39.5 123q0 116 83 179
t220 63q135 0 218 -63.5t83 -178.5q0 -76 -39 -123t-100 -66q69 -14 115.5 -70.5t46.5 -139.5zM1704 612q0 -42 28.5 -67t77.5 -25t77 25t28 67q0 41 -26.5 67t-78.5 26q-53 0 -79.5 -26t-26.5 -67zM1929 262q0 50 -32 79.5t-87 29.5q-56 0 -88 -29.5t-32 -79.5
q0 -49 31 -79.5t89 -30.5q56 0 87.5 30.5t31.5 79.5z" />
    <glyph glyph-name="threeeighths" unicode="&#x215c;" horiz-adv-x="2191" 
d="M1602 1434l-846 -1434h-203l846 1434h203zM2001 236q0 -117 -89.5 -184.5t-234.5 -67.5t-235 67.5t-90 184.5q0 83 46 139.5t115 70.5q-61 19 -100 66t-39 123q0 116 83 179t220 63q135 0 218 -63.5t83 -178.5q0 -76 -39 -123t-100 -66q69 -14 115.5 -70.5t46.5 -139.5z
M1571 612q0 -42 28.5 -67t77.5 -25t77 25t28 67q0 41 -26.5 67t-78.5 26q-53 0 -79.5 -26t-26.5 -67zM1796 262q0 50 -32 79.5t-87 29.5q-57 0 -89 -29.5t-32 -79.5q0 -49 31.5 -79.5t89.5 -30.5q56 0 87.5 30.5t31.5 79.5zM846 795q0 -119 -90 -186.5t-236 -67.5
q-153 0 -241.5 75.5t-88.5 221.5h195q0 -119 141 -119q55 0 89 25t34 61q0 96 -149 96h-62v168h58q66 0 99.5 28t33.5 79q0 36 -28 56.5t-81 20.5q-61 0 -95 -32t-34 -91h-192q0 163 100 232q104 72 238 72q130 0 210 -65.5t80 -174.5q0 -73 -37 -126.5t-94 -72.5
q150 -52 150 -200z" />
    <glyph glyph-name="fiveeighths" unicode="&#x215d;" horiz-adv-x="2148" 
d="M1958 236q0 -117 -89.5 -184.5t-234.5 -67.5t-235 67.5t-90 184.5q0 83 46 139.5t115 70.5q-61 19 -100 66t-39 123q0 116 83 179t220 63q135 0 218 -63.5t83 -178.5q0 -76 -39 -123t-100 -66q69 -14 115.5 -70.5t46.5 -139.5zM1528 612q0 -42 28.5 -67t77.5 -25t77 25
t28 67q0 41 -26.5 67t-78.5 26q-53 0 -79.5 -26t-26.5 -67zM1753 262q0 50 -32 79.5t-87 29.5q-57 0 -89 -29.5t-32 -79.5q0 -49 31.5 -79.5t89.5 -30.5q56 0 87.5 30.5t31.5 79.5zM1620 1434l-846 -1434h-203l846 1434h203zM823 846q0 -134 -88 -219q-89 -86 -231 -86
q-138 0 -226 76t-88 212h195q0 -118 115 -118q61 0 94 33t33 98q0 62 -32 97.5t-87 35.5q-69 0 -107 -53h-188l76 487h499v-184h-358l-24 -158q51 57 157 57q113 0 186.5 -76t73.5 -202z" />
    <glyph glyph-name="seveneighths" unicode="&#x215e;" horiz-adv-x="2205" 
d="M1616 1434l-846 -1434h-203l846 1434h203zM2015 236q0 -117 -89 -184.5t-234 -67.5t-235.5 67.5t-90.5 184.5q0 83 46.5 139.5t115.5 70.5q-61 19 -100 66t-39 123q0 116 83 179t220 63q135 0 218 -63.5t83 -178.5q0 -76 -39.5 -123t-100.5 -66q69 -14 115.5 -70.5
t46.5 -139.5zM1585 612q0 -42 29 -67t78 -25t76.5 25t27.5 67q0 41 -26.5 67t-77.5 26q-53 0 -80 -26t-27 -67zM1810 262q0 50 -31.5 79.5t-86.5 29.5q-57 0 -89 -29.5t-32 -79.5q0 -49 31.5 -79.5t89.5 -30.5q56 0 87 30.5t31 79.5zM842 1409v-174l-332 -680h-205l332 662
h-447v192h652z" />
    <glyph glyph-name="arrowleft" unicode="&#x2190;" horiz-adv-x="1353" 
d="M625 86l-537 535l537 534l110 -111l-352 -342h883v-163h-883l352 -342z" />
    <glyph glyph-name="arrowup" unicode="&#x2191;" horiz-adv-x="1245" 
d="M1157 641l-110 -111l-342 353v-883h-164v883l-342 -353l-111 111l535 537z" />
    <glyph glyph-name="arrowright" unicode="&#x2192;" horiz-adv-x="1353" 
d="M729 84l-111 111l353 342h-883v163h883l-353 342l111 111l537 -535z" />
    <glyph glyph-name="arrowdown" unicode="&#x2193;" horiz-adv-x="1245" 
d="M1128 537l-534 -537l-535 537l111 110l342 -352v883h164v-883l342 352z" />
    <glyph glyph-name="partialdiff" unicode="&#x2202;" horiz-adv-x="1286" 
d="M963 696q0 272 -92.5 412.5t-262.5 140.5q-101 0 -163.5 -50.5t-75.5 -147.5h-230q26 192 148 299.5t313 107.5q58 0 112.5 -10t112 -34.5t107 -62t93.5 -96.5t75.5 -134t49 -178.5t17.5 -225.5q0 -360 -148.5 -561t-408.5 -201q-222 0 -367 142.5t-145 359.5
q0 210 133 347.5t336 137.5q136 0 239 -62t157 -184zM893 438q0 130 -77.5 212.5t-203.5 82.5q-127 0 -204.5 -81.5t-77.5 -211.5q0 -127 76.5 -201.5t205.5 -74.5q128 0 204.5 75t76.5 199z" />
    <glyph glyph-name="product" unicode="&#x220f;" horiz-adv-x="1656" 
d="M1276 1251v-1251h-207v1251h-481v-1251h-207v1251h-191v183h1276v-183h-190z" />
    <glyph glyph-name="summation" unicode="&#x2211;" horiz-adv-x="1423" 
d="M428 213h897v-213h-1206v227l530 488l-489 495v224h1102v-211h-787l486 -508z" />
    <glyph glyph-name="minus" unicode="&#x2212;" 
d="M1036 733v-188h-843v188h843z" />
    <glyph glyph-name="radical" unicode="&#x221a;" horiz-adv-x="1247" 
d="M1190 1434l-520 -1434h-191l-444 1044h227l309 -761l408 1151h211z" />
    <glyph glyph-name="infinity" unicode="&#x221e;" horiz-adv-x="1492" 
d="M1446 563q0 -202 -104 -331.5t-265 -129.5q-132 0 -222 72t-110 199q-20 -127 -109 -199t-220 -72q-161 0 -265 129.5t-104 331.5q0 207 104.5 338t268.5 131q124 0 212 -67t113 -183q24 116 114 183t214 67q164 0 268.5 -131t104.5 -338zM647 569q0 105 -60.5 172.5
t-154.5 67.5q-92 0 -146.5 -66t-54.5 -178t53.5 -174.5t147.5 -62.5t154.5 67.5t60.5 173.5zM1260 565q0 115 -53.5 179.5t-147.5 64.5t-153.5 -67t-59.5 -173t60.5 -173.5t154.5 -67.5t146.5 62.5t52.5 174.5z" />
    <glyph glyph-name="integral" unicode="&#x222b;" horiz-adv-x="612" 
d="M399 1141v-1202q0 -183 -69.5 -257.5t-239.5 -74.5h-104v184h71q67 0 97 32.5t30 104.5v1198q0 183 69.5 256.5t240.5 73.5h133v-186h-99q-69 0 -99 -30t-30 -99z" />
    <glyph glyph-name="approxequal" unicode="&#x2248;" 
d="M838 844q132 0 198 55v-178q-84 -41 -205 -41q-73 0 -200 43q-71 25 -115.5 35t-97.5 10q-134 0 -225 -66v172q91 60 229 60q50 0 91 -9.5t114 -35.5q119 -45 211 -45zM838 506q133 0 198 53v-178q-84 -41 -205 -41q-73 0 -200 43q-71 25 -115.5 35t-97.5 10
q-134 0 -225 -66v173q89 59 229 59q50 0 87 -8.5t118 -34.5q119 -45 211 -45z" />
    <glyph glyph-name="notequal" unicode="&#x2260;" 
d="M1036 719h-276l-88 -160h364v-178h-463l-129 -234l-135 78l86 156h-202v178h301l90 160h-391v178h489l143 258l133 -78l-100 -180h178v-178z" />
    <glyph glyph-name="lessequal" unicode="&#x2264;" 
d="M1051 1106l-625 -295l625 -295l-84 -164l-760 361v196l760 361zM172 188h885v-188h-885v188z" />
    <glyph glyph-name="greaterequal" unicode="&#x2265;" 
d="M178 1106l84 164l760 -361v-196l-760 -361l-84 164l625 295zM1057 188v-188h-885v188h885z" />
    <glyph glyph-name="lozenge" unicode="&#x25ca;" horiz-adv-x="1089" 
d="M1063 688l-518 -711l-518 711l518 709zM858 688l-313 420l-316 -420l316 -422z" />
    <glyph glyph-name="NULL" horiz-adv-x="0" 
 />
    <glyph glyph-name="zero.osf" horiz-adv-x="1267" 
d="M1159 561q0 -262 -144.5 -423t-379.5 -161q-236 0 -381 161t-145 423t145 422t381 160q237 0 380.5 -159.5t143.5 -422.5zM956 555q0 177 -89.5 283t-237.5 106q-141 0 -226.5 -103t-85.5 -274q0 -179 89 -287t237 -108q141 0 227 105t86 278z" />
    <glyph glyph-name="one.osf" horiz-adv-x="1181" 
d="M698 197h375v-197h-964v197h374v737h-374v196h964v-196h-375v-737z" />
    <glyph glyph-name="two.osf" horiz-adv-x="1157" 
d="M1049 199v-199h-910v180l336 221q179 119 251.5 201t72.5 168q0 84 -59 134t-156 50q-105 0 -175.5 -63t-80.5 -168h-219q19 196 145.5 308t329.5 112q193 0 313 -99q119 -94 119 -256q0 -144 -86 -239q-88 -101 -225 -187l-254 -163h598z" />
    <glyph glyph-name="three.osf" horiz-adv-x="1249" 
d="M1120 92q0 -182 -137.5 -293.5t-359.5 -111.5q-237 0 -386 131.5t-149 343.5h219q0 -127 83.5 -200t225.5 -73q123 0 203 59t80 150q0 104 -86.5 160.5t-245.5 56.5h-86v191h78q140 0 224.5 63.5t84.5 169.5q0 96 -69 148.5t-189 52.5q-134 0 -210 -75t-76 -210h-222
q0 223 140 357q137 131 376 131q210 0 339.5 -102t129.5 -267q0 -142 -75.5 -230.5t-198.5 -109.5q155 -38 231 -122.5t76 -219.5z" />
    <glyph glyph-name="four.osf" horiz-adv-x="1286" 
d="M1157 -4h-188v-281h-217v285h-664v180l629 944h252v-931h188v-197zM301 193h451v675z" />
    <glyph glyph-name="five.osf" horiz-adv-x="1239" 
d="M1100 184q0 -215 -142.5 -353t-363.5 -138q-213 0 -350 132.5t-146 344.5h219q13 -133 88 -204.5t195 -71.5q133 0 206 75t73 209q0 129 -72.5 204t-194.5 75q-64 0 -124.5 -22.5t-104.5 -63.5h-231l120 753h756v-196h-592l-63 -398q102 117 289 117q193 0 315.5 -130.5
t122.5 -332.5z" />
    <glyph glyph-name="six.osf" horiz-adv-x="1253" 
d="M1124 465q0 -213 -139.5 -350.5t-355.5 -137.5q-252 0 -396.5 195.5t-144.5 542.5q0 119 17.5 219t48 172.5t73 130t90.5 94t103.5 60.5t109 33.5t109.5 9.5q183 0 300.5 -105t143.5 -291h-221q-13 96 -72.5 144.5t-158.5 48.5q-164 0 -254 -136.5t-90 -398.5
q53 117 153 177.5t230 60.5q198 0 326 -133t128 -336zM899 449q0 125 -75.5 203.5t-196.5 78.5q-122 0 -197.5 -80t-75.5 -205q0 -123 74 -194.5t199 -71.5q124 0 198 73t74 196z" />
    <glyph glyph-name="seven.osf" horiz-adv-x="1167" 
d="M1079 1126v-227l-571 -1182h-219l575 1194h-817v215h1032z" />
    <glyph glyph-name="eight.osf" horiz-adv-x="1218" 
d="M1116 383q0 -182 -139 -294t-367 -112t-367 112t-139 294q0 134 76.5 229.5t206.5 118.5q-111 29 -178.5 121.5t-67.5 210.5q0 164 129.5 267.5t339.5 103.5t339.5 -103.5t129.5 -267.5q0 -118 -67 -210.5t-178 -121.5q130 -23 206 -118t76 -230zM610 823q114 0 182 56
t68 157q0 94 -64.5 144.5t-185.5 50.5t-185.5 -50.5t-64.5 -144.5q0 -101 68 -157t182 -56zM893 401q0 114 -76.5 177t-206.5 63t-206 -63t-76 -177q0 -103 77.5 -162t204.5 -59q129 0 206 59t77 162z" />
    <glyph glyph-name="nine.osf" horiz-adv-x="1253" 
d="M109 655q0 213 139.5 350.5t355.5 137.5q252 0 396.5 -196t144.5 -550q0 -163 -32 -289.5t-83 -204t-122.5 -128t-143.5 -69.5t-152 -19q-186 0 -311 106t-151 289h221q13 -92 81.5 -142.5t170.5 -50.5q323 0 323 535q-53 -117 -153 -177.5t-230 -60.5q-198 0 -326 133
t-128 336zM334 672q0 -125 75.5 -205t196.5 -80q122 0 197.5 80.5t75.5 206.5q0 123 -74 194.5t-199 71.5t-198.5 -72.5t-73.5 -195.5z" />
    <glyph glyph-name="zero.tf" 
d="M1108 707q0 -361 -125 -545.5t-369 -184.5t-368.5 184.5t-124.5 545.5t124 544t369 183t369.5 -183t124.5 -544zM887 707q0 524 -273 524q-272 0 -272 -524q0 -527 272 -527q273 0 273 527z" />
    <glyph glyph-name="one.tf" 
d="M764 199h356v-199h-927v199h356v940q-144 -106 -356 -131v204q225 37 382 197h189v-1210z" />
    <glyph glyph-name="two.tf" 
d="M1133 197v-197h-1002v211l332 285l41 34q126 108 215 193q73 72 110 137t37 135q0 107 -71 171.5t-193 64.5q-129 0 -207 -76t-84 -207h-215q0 218 149.5 352t381.5 134q211 0 335.5 -112t124.5 -294q0 -118 -55 -219q-50 -97 -133 -180q-72 -72 -207 -185l-45 -38
l-248 -209h734z" />
    <glyph glyph-name="three.tf" 
d="M1130 383q0 -182 -137.5 -294t-359.5 -112q-237 0 -386 132t-149 344h219q0 -127 84 -200t226 -73q123 0 202.5 59t79.5 150q0 104 -86.5 160.5t-244.5 56.5h-86v191h77q140 0 225 63.5t85 169.5q0 96 -69 148.5t-189 52.5q-134 0 -210.5 -75.5t-76.5 -209.5h-221
q0 224 139 357q137 131 377 131q210 0 339.5 -102t129.5 -267q0 -142 -76 -230.5t-199 -109.5q155 -38 231 -122.5t76 -219.5z" />
    <glyph glyph-name="four.tf" 
d="M1149 281h-188v-281h-218v285h-663v180l629 944h252v-932h188v-196zM293 477h450v676z" />
    <glyph glyph-name="five.tf" 
d="M1114 469q0 -215 -142.5 -353.5t-363.5 -138.5q-213 0 -349.5 133t-145.5 345h219q13 -134 87.5 -205.5t194.5 -71.5q133 0 206 75.5t73 209.5q0 129 -72 203.5t-194 74.5q-64 0 -125 -22.5t-105 -63.5h-231l121 754h755v-197h-591l-64 -397q102 117 289 117
q193 0 315.5 -130.5t122.5 -332.5z" />
    <glyph glyph-name="six.tf" 
d="M1133 465q0 -212 -139.5 -350t-356.5 -138q-252 0 -396.5 195.5t-144.5 542.5q0 119 17.5 219t48 172.5t73 130t90.5 94t103.5 60.5t109 33.5t109.5 9.5q183 0 301 -105t144 -291h-222q-13 96 -72.5 144.5t-158.5 48.5q-164 0 -254 -136.5t-90 -398.5q53 117 153 177.5
t230 60.5q198 0 326.5 -133t128.5 -336zM907 449q0 125 -75.5 203.5t-196.5 78.5q-122 0 -197.5 -80t-75.5 -205q0 -123 74 -194.5t199 -71.5q124 0 198 73t74 196z" />
    <glyph glyph-name="seven.tf" 
d="M1130 1409v-227l-571 -1182h-219l575 1194h-817v215h1032z" />
    <glyph glyph-name="eight.tf" 
d="M1120 383q0 -182 -139 -294t-367 -112t-366.5 112t-138.5 294q0 135 76 230t206 118q-111 29 -178.5 121.5t-67.5 210.5q0 164 129.5 267.5t339.5 103.5t339.5 -103.5t129.5 -267.5q0 -118 -67 -210.5t-178 -121.5q130 -23 206 -118t76 -230zM614 823q114 0 182 56
t68 157q0 94 -64.5 144.5t-185.5 50.5t-185 -50.5t-64 -144.5q0 -101 67.5 -157t181.5 -56zM897 401q0 114 -76.5 177t-206.5 63t-206 -63t-76 -177q0 -103 77.5 -162t204.5 -59q129 0 206 59t77 162z" />
    <glyph glyph-name="nine.tf" 
d="M96 946q0 212 139.5 350t356.5 138q252 0 396.5 -196t144.5 -550q0 -163 -32 -289.5t-83 -204.5t-122.5 -128t-143.5 -69.5t-152 -19.5q-186 0 -311.5 106.5t-151.5 289.5h221q13 -92 81.5 -142.5t170.5 -50.5q324 0 324 535q-53 -117 -153 -177.5t-230 -60.5
q-198 0 -326.5 133t-128.5 336zM322 963q0 -125 75.5 -205t196.5 -80q122 0 197 80.5t75 206.5q0 123 -73.5 194.5t-198.5 71.5t-198.5 -72.5t-73.5 -195.5z" />
    <glyph glyph-name="zero.dnom" horiz-adv-x="780" 
d="M713 430q0 -208 -82 -327t-242 -119t-241.5 118.5t-81.5 327.5t81.5 328t241.5 119t242 -119t82 -328zM508 430q0 262 -119 262q-62 0 -89.5 -65t-27.5 -197t27.5 -198t89.5 -66q119 0 119 264z" />
    <glyph glyph-name="one.dnom" horiz-adv-x="819" 
d="M510 182h240v-184h-678v184h239v418q-100 -50 -211 -53v184q149 15 246 121h164v-670z" />
    <glyph glyph-name="two.dnom" horiz-adv-x="774" 
d="M719 180v-182h-639v172l180 147l37 31q132 107 166 146q43 46 43 98q0 47 -29.5 73.5t-83.5 26.5q-64 0 -102.5 -38t-38.5 -113h-193q0 156 101.5 246t249.5 90q132 0 212 -69t80 -194q0 -78 -34 -139q-36 -60 -82 -104q-44 -44 -148 -125l-82 -66h363z" />
    <glyph glyph-name="three.dnom" horiz-adv-x="770" 
d="M713 238q0 -119 -90 -186.5t-236 -67.5q-153 0 -241.5 75.5t-88.5 221.5h195q0 -119 141 -119q55 0 89 25t34 61q0 96 -149 96h-62v168h57q66 0 100 28t34 78q0 36 -28 57t-81 21q-61 0 -95 -32t-34 -91h-192q0 163 100 232q104 72 237 72q130 0 210.5 -65.5t80.5 -174.5
q0 -73 -37 -126.5t-94 -72.5q150 -52 150 -200z" />
    <glyph glyph-name="four.dnom" horiz-adv-x="759" 
d="M719 326v-183h-96v-145h-187v147h-391v150l381 557h197v-526h96zM436 326v270l-182 -270h182z" />
    <glyph glyph-name="five.dnom" horiz-adv-x="768" 
d="M700 289q0 -134 -88 -219q-89 -86 -231 -86q-138 0 -225.5 76t-87.5 212h194q0 -118 115 -118q61 0 94 33t33 98q0 62 -32 97.5t-87 35.5q-68 0 -106 -53h-189l76 487h500v-184h-359l-24 -158q51 57 157 57q113 0 186.5 -76t73.5 -202z" />
    <glyph glyph-name="six.dnom" horiz-adv-x="763" 
d="M403 711q-77 0 -118 -57.5t-41 -161.5q64 88 190 88q122 0 199.5 -81t77.5 -210q0 -136 -92 -220.5t-224 -84.5q-141 0 -241 106q-101 107 -101 336q0 220 96.5 335.5t256.5 115.5q120 0 199 -62t91 -180h-188q-5 34 -32 55t-73 21zM522 283q0 63 -33.5 98t-93.5 35
t-94.5 -35.5t-34.5 -97.5q0 -63 36 -102.5t93 -39.5q59 0 93 39t34 103z" />
    <glyph glyph-name="seven.dnom" horiz-adv-x="741" 
d="M696 852v-174l-331 -680h-205l332 661h-447v193h651z" />
    <glyph glyph-name="eight.dnom" horiz-adv-x="772" 
d="M711 236q0 -117 -89.5 -184.5t-234.5 -67.5t-235.5 67.5t-90.5 184.5q0 83 46.5 139.5t115.5 70.5q-61 19 -100 66t-39 123q0 116 83 179t220 63q135 0 218 -63.5t83 -178.5q0 -76 -39 -123t-100 -66q69 -14 115.5 -70.5t46.5 -139.5zM281 612q0 -42 28.5 -67t77.5 -25
t77 25t28 67q0 41 -26.5 67t-78.5 26q-53 0 -79.5 -26t-26.5 -67zM506 262q0 50 -32 79.5t-87 29.5q-57 0 -89 -29.5t-32 -79.5q0 -49 31.5 -79.5t89.5 -30.5q56 0 87.5 30.5t31.5 79.5z" />
    <glyph glyph-name="nine.dnom" horiz-adv-x="763" 
d="M373 154q147 0 147 215q-64 -88 -190 -88q-122 0 -199.5 80.5t-77.5 207.5q0 138 91.5 223t224.5 85q140 0 241 -107t101 -338q0 -221 -91.5 -334.5t-248.5 -113.5q-123 0 -207 62t-96 179h188q5 -31 36.5 -51t80.5 -20zM238 575q0 -59 35 -92.5t96 -33.5q58 0 93.5 33.5
t35.5 92.5q0 61 -36.5 100.5t-92.5 39.5q-60 0 -95.5 -38.5t-35.5 -101.5z" />
    <glyph glyph-name="zero.numr" horiz-adv-x="780" 
d="M713 987q0 -208 -82 -327t-242 -119t-241.5 118.5t-81.5 327.5t81.5 328t241.5 119t242 -119t82 -328zM508 987q0 262 -119 262q-62 0 -89.5 -65t-27.5 -197t27.5 -198t89.5 -66q119 0 119 264z" />
    <glyph glyph-name="one.numr" horiz-adv-x="819" 
d="M510 739h240v-184h-678v184h239v418q-100 -50 -211 -53v184q149 15 246 121h164v-670z" />
    <glyph glyph-name="two.numr" horiz-adv-x="774" 
d="M719 737v-182h-639v172l180 147l37 31q132 107 166 146q43 46 43 98q0 47 -29.5 73.5t-83.5 26.5q-64 0 -102.5 -38t-38.5 -113h-193q0 156 101.5 246t249.5 90q132 0 212 -69t80 -194q0 -78 -34 -139q-36 -60 -82 -104q-44 -44 -148 -125l-82 -66h363z" />
    <glyph glyph-name="three.numr" horiz-adv-x="770" 
d="M713 795q0 -119 -90 -186.5t-236 -67.5q-153 0 -241.5 75.5t-88.5 221.5h195q0 -119 141 -119q55 0 89 25t34 61q0 96 -149 96h-62v168h57q66 0 100 28t34 79q0 36 -28 56.5t-81 20.5q-61 0 -95 -32t-34 -91h-192q0 163 100 232q104 72 237 72q130 0 210.5 -65.5
t80.5 -174.5q0 -73 -37 -126.5t-94 -72.5q150 -52 150 -200z" />
    <glyph glyph-name="four.numr" horiz-adv-x="759" 
d="M719 883v-183h-96v-145h-187v147h-391v150l381 557h197v-526h96zM436 883v270l-182 -270h182z" />
    <glyph glyph-name="five.numr" horiz-adv-x="768" 
d="M700 846q0 -134 -88 -219q-89 -86 -231 -86q-138 0 -225.5 76t-87.5 212h194q0 -118 115 -118q61 0 94 33t33 98q0 62 -32 97.5t-87 35.5q-68 0 -106 -53h-189l76 487h500v-184h-359l-24 -158q51 57 157 57q113 0 186.5 -76t73.5 -202z" />
    <glyph glyph-name="six.numr" horiz-adv-x="763" 
d="M403 1268q-77 0 -118 -57.5t-41 -161.5q64 88 190 88q122 0 199.5 -81t77.5 -210q0 -136 -92 -220.5t-224 -84.5q-141 0 -241 106q-101 107 -101 336q0 220 96.5 335.5t256.5 115.5q120 0 199 -62t91 -180h-188q-5 34 -32 55t-73 21zM522 840q0 63 -33.5 98t-93.5 35
t-94.5 -35.5t-34.5 -97.5q0 -63 36 -102.5t93 -39.5q59 0 93 39t34 103z" />
    <glyph glyph-name="seven.numr" horiz-adv-x="741" 
d="M696 1409v-174l-331 -680h-205l332 662h-447v192h651z" />
    <glyph glyph-name="eight.numr" horiz-adv-x="772" 
d="M711 793q0 -117 -89.5 -184.5t-234.5 -67.5t-235.5 67.5t-90.5 184.5q0 83 46.5 140t115.5 71q-61 19 -100 65.5t-39 122.5q0 116 83 179t220 63q135 0 218 -63.5t83 -178.5q0 -76 -39 -122.5t-100 -65.5q69 -14 115.5 -71t46.5 -140zM281 1169q0 -42 28.5 -67t77.5 -25
t77 25t28 67q0 41 -26.5 67t-78.5 26q-53 0 -79.5 -26t-26.5 -67zM506 819q0 50 -32 79.5t-87 29.5q-57 0 -89 -29.5t-32 -79.5q0 -49 31.5 -79.5t89.5 -30.5q56 0 87.5 30.5t31.5 79.5z" />
    <glyph glyph-name="nine.numr" horiz-adv-x="763" 
d="M373 711q147 0 147 215q-64 -88 -190 -88q-122 0 -199.5 80.5t-77.5 207.5q0 138 91.5 223t224.5 85q140 0 241 -107t101 -338q0 -221 -91.5 -334.5t-248.5 -113.5q-123 0 -207 62t-96 179h188q5 -31 36.5 -51t80.5 -20zM238 1133q0 -60 35.5 -93.5t95.5 -33.5
q58 0 93.5 34t35.5 93q0 61 -36.5 100t-92.5 39q-60 0 -95.5 -38t-35.5 -101z" />
    <glyph glyph-name="exclamdown.cap" horiz-adv-x="628" 
d="M438 1331v-256h-248v256h248zM197 -102v569l47 440h141l45 -440v-569h-233z" />
    <glyph glyph-name="questiondown.cap" horiz-adv-x="1085" 
d="M705 1366v-256h-250v256h250zM678 928v-70q0 -107 -38 -180t-116 -131l-127 -94q-94 -67 -94 -187q0 -87 50 -133.5t149 -46.5q119 0 186.5 63t75.5 170h213q-17 -192 -146 -300.5t-339 -108.5q-194 0 -299 94.5t-105 257.5q0 186 148 295l122 94q64 49 93.5 99.5
t29.5 121.5v56h197z" />
    <glyph glyph-name="periodcentered.cap" horiz-adv-x="423" 
d="M88 696v256h248v-256h-248z" />
    <glyph glyph-name="bullet.cap" horiz-adv-x="534" 
d="M88 471v371h358v-371h-358z" />
    <glyph glyph-name="hyphen.cap" horiz-adv-x="763" 
d="M676 848v-207h-588v207h588z" />
    <glyph glyph-name="endash.cap" horiz-adv-x="1130" 
d="M1042 623h-954v186h954v-186z" />
    <glyph glyph-name="emdash.cap" horiz-adv-x="2086" 
d="M1999 623h-1911v186h1911v-186z" />
    <glyph glyph-name="guillemotleft.cap" horiz-adv-x="1255" 
d="M598 1018l-274 -303l274 -305l-127 -119l-373 424l373 422zM1096 1018l-275 -303l275 -305l-127 -119l-373 424l373 422z" />
    <glyph glyph-name="guillemotright.cap" horiz-adv-x="1255" 
d="M160 1018l127 119l372 -422l-372 -424l-127 119l274 305zM657 1018l127 119l373 -422l-373 -424l-127 119l275 305z" />
    <glyph glyph-name="guilsinglleft.cap" horiz-adv-x="757" 
d="M598 1018l-274 -303l274 -305l-127 -119l-373 424l373 422z" />
    <glyph glyph-name="guilsinglright.cap" horiz-adv-x="757" 
d="M160 1018l127 119l372 -422l-372 -424l-127 119l274 305z" />
    <glyph glyph-name="at.cap" horiz-adv-x="1867" 
d="M1749 807q0 -241 -110.5 -397t-280.5 -156q-101 0 -163 55t-67 142q-51 -92 -137.5 -144.5t-189.5 -52.5q-149 0 -234 104q-86 109 -86 267q0 95 31.5 185t86.5 159.5t137 112t177 42.5q181 0 254 -149l29 131h193l-109 -483q-12 -55 -12 -99q0 -63 25.5 -97t72.5 -34
q90 0 151.5 116.5t61.5 281.5q0 254 -155 405.5t-406 151.5q-148 2 -284 -56t-234 -156t-155 -232t-54 -277q0 -261 163 -422.5t418 -161.5q147 0 269 61l47 -149q-151 -74 -334 -74q-212 0 -379.5 92t-261.5 259t-94 380q-4 178 68 343.5t194.5 286.5t293.5 192t357 67
q323 0 520 -189t197 -505zM1112 766q0 97 -47 152t-133 55q-80 0 -141 -49t-91 -124t-30 -161q0 -105 48 -166t130 -61q75 0 137.5 55t94.5 135.5t32 163.5z" />
    <glyph glyph-name="acute.cap" horiz-adv-x="393" 
d="M166 1589h-166l229 357l164 -125z" />
    <glyph glyph-name="breve.cap" horiz-adv-x="485" 
d="M485 1817q0 -103 -66.5 -165.5t-176.5 -62.5q-109 0 -175.5 62.5t-66.5 165.5q0 51 12 81h117q-6 -27 -6 -59q0 -60 32 -95.5t87 -35.5q57 0 88.5 35t31.5 96q0 32 -6 59h117q12 -30 12 -81z" />
    <glyph glyph-name="caron.cap" horiz-adv-x="659" 
d="M465 1927h194l-270 -340h-119l-270 340h195l133 -168z" />
    <glyph glyph-name="cedilla.cap" horiz-adv-x="421" 
d="M422 -252q0 -75 -57.5 -124.5t-147.5 -49.5q-129 0 -217 76l61 94q73 -61 148 -61q42 0 66 19t24 50q0 74 -186 74v176h100v-96q95 -5 152 -47.5t57 -110.5z" />
    <glyph glyph-name="circumflex.cap" horiz-adv-x="659" 
d="M465 1589l-137 168l-133 -168h-195l270 340h119l270 -340h-194z" />
    <glyph glyph-name="dieresis.cap" horiz-adv-x="595" 
d="M197 1810v-221h-197v221h197zM596 1810v-221h-197v221h197z" />
    <glyph glyph-name="dotaccent.cap" horiz-adv-x="247" 
d="M0 1589v256h248v-256h-248z" />
    <glyph glyph-name="grave.cap" horiz-adv-x="393" 
d="M227 1589l-227 232l164 125l229 -357h-166z" />
    <glyph glyph-name="hungarumlaut.cap" horiz-adv-x="483" 
d="M236 1896l-107 -307h-129l82 307h154zM483 1896l-104 -307h-131l82 307h153z" />
    <glyph glyph-name="macron.cap" horiz-adv-x="583" 
d="M584 1589h-584v150h584v-150z" />
    <glyph glyph-name="ring.cap" horiz-adv-x="421" 
d="M209 1946q92 0 152.5 -59.5t60.5 -151.5q0 -93 -60 -153t-153 -60q-91 0 -150 60.5t-59 152.5t59 151.5t150 59.5zM211 1843q-47 0 -76 -30t-29 -78q0 -50 28 -80.5t77 -30.5q47 0 75.5 30.5t28.5 80.5q0 48 -28.5 78t-75.5 30z" />
    <glyph glyph-name="tilde.cap" horiz-adv-x="641" 
d="M451 1589q-35 0 -65.5 15t-86.5 53q-65 53 -106 53q-66 0 -72 -108h-121q4 121 56 193.5t134 72.5q39 0 71.5 -15.5t84.5 -54.5q42 -30 62 -40.5t41 -10.5q32 0 47.5 27t21.5 88h123q-5 -123 -56.5 -198t-133.5 -75z" />
    </font>
</defs>
</svg>
