<svg width="98" height="98" viewBox="0 0 98 98" fill="none" xmlns="http://www.w3.org/2000/svg">
<path d="M93.902 19.4683L45.5687 67.8017C43.6837 69.6867 40.6387 69.6867 38.7537 67.8017L25.0753 54.1233C23.1903 52.2383 23.1903 49.1933 25.0753 47.3083C26.9603 45.4233 30.0053 45.4233 31.8903 47.3083L42.137 57.555L87.0387 12.6533C88.9237 10.7683 91.9687 10.7683 93.8537 12.6533C95.787 14.5383 95.787 17.5833 93.902 19.4683ZM67.222 4.24334C59.0537 0.908337 49.7737 -0.251663 40.107 1.48834C20.4353 5.01667 4.727 20.87 1.392 40.5417C-4.118 73.1667 23.0453 101.103 55.477 96.8983C74.617 94.4333 90.6637 80.175 95.6903 61.5667C97.6237 54.4617 97.817 47.5983 96.7053 41.17C96.077 37.3033 91.292 35.805 88.4887 38.56C87.377 39.6717 86.8937 41.315 87.1837 42.8617C88.247 49.29 87.7637 56.1533 84.6703 63.4517C79.0637 76.55 66.8837 86.1683 52.722 87.4733C28.072 89.745 7.627 68.865 10.672 44.07C12.7503 26.96 26.5253 13.04 43.587 10.6717C51.9487 9.51167 59.8753 11.1067 66.642 14.5867C68.527 15.5533 70.7987 15.215 72.297 13.7167C74.617 11.3967 74.037 7.48167 71.137 5.98334C69.832 5.40334 68.527 4.775 67.222 4.24334Z" fill="#E30512"/>
</svg>
