<svg width="9" height="18" viewBox="0 0 9 18" fill="none" xmlns="http://www.w3.org/2000/svg">
<path fill-rule="evenodd" clip-rule="evenodd" d="M2.2948 12.8806C2.2948 11.5338 2.29017 10.1878 2.3002 8.84106C2.3002 8.61292 2.23696 8.54372 2.0064 8.55284C1.58151 8.56957 1.1543 8.55284 0.728643 8.56045C0.555911 8.56501 0.492679 8.51786 0.497305 8.33763C0.505531 7.49708 0.505531 6.65677 0.497305 5.81672C0.497305 5.65551 0.545117 5.60228 0.710909 5.60608C1.14659 5.61596 1.58305 5.59391 2.02182 5.6152C2.27398 5.62737 2.32565 5.53916 2.32102 5.31102C2.3056 4.67224 2.3056 4.03269 2.32102 3.39239C2.33875 2.6114 2.55235 1.88213 3.02274 1.24715C3.61959 0.443345 4.4686 0.0752846 5.44716 0.0304178C6.44962 -0.0136887 7.46057 0.0106464 8.46766 0C8.60801 0 8.64964 0.0479082 8.64887 0.182509C8.64425 1.03168 8.64425 1.88137 8.64887 2.73156C8.64887 2.88365 8.60029 2.92927 8.44992 2.92699C7.96565 2.91939 7.48139 2.92319 6.99712 2.92699C6.35323 2.92699 5.9669 3.25627 5.9268 3.88517C5.89441 4.38935 5.91832 4.89657 5.90598 5.40608C5.90212 5.58631 6.01085 5.57338 6.13115 5.57338C6.8668 5.57338 7.60323 5.58098 8.33888 5.56805C8.55479 5.56425 8.62651 5.61368 8.60106 5.83802C8.50853 6.68212 8.4291 7.52775 8.35585 8.37414C8.33888 8.56501 8.25097 8.60227 8.0767 8.59847C7.49604 8.59011 6.91538 8.59239 6.33473 8.59847C5.91755 8.59847 5.95764 8.53839 5.95764 8.95816C5.95764 11.5931 5.95225 14.2289 5.96381 16.8669C5.96381 17.1452 5.89287 17.2144 5.61372 17.2091C4.61666 17.1916 3.61882 17.1901 2.62176 17.2091C2.34107 17.2144 2.2948 17.1209 2.29711 16.8737C2.3002 15.5346 2.2948 14.2076 2.2948 12.8806Z" fill="white"/>
</svg>
