<svg width="21" height="18" viewBox="0 0 21 18" fill="none" xmlns="http://www.w3.org/2000/svg">
<g clip-path="url(#clip0_1715_1108)">
<path d="M2.60745 0C3.89789 0 4.75723 0.834732 4.75723 1.94214C4.75723 3.04955 3.89501 3.88985 2.4647 3.88985C1.17426 3.88985 0.313965 3.05512 0.313965 1.94214C0.313965 0.829167 1.17618 0 2.60745 0ZM4.91242 17.2094H0.313965V5.33764H4.91242V17.2094ZM20.2406 17.2094H15.9123V10.7217C15.9123 8.92699 14.7579 8.51333 14.3259 8.51333C13.8938 8.51333 12.4491 8.79158 12.4491 10.7217V17.2094H7.97806V5.33764H12.451V6.99412C13.0258 6.02769 14.1812 5.33764 16.3453 5.33764C18.5095 5.33764 20.2406 6.99412 20.2406 10.7217V17.2094Z" fill="white"/>
</g>
<defs>
<clipPath id="clip0_1715_1108">
<rect width="19.9267" height="17.2094" fill="white" transform="translate(0.313965)"/>
</clipPath>
</defs>
</svg>
