<svg width="20" height="17" viewBox="0 0 20 17" fill="none" xmlns="http://www.w3.org/2000/svg">
<path d="M19.9267 2.7209C19.1805 3.0358 18.3888 3.24225 17.5782 3.33334C18.4308 2.84695 19.0683 2.08201 19.3717 1.18127C18.5698 1.63619 17.6919 1.95686 16.7761 2.12932C16.1593 1.50657 15.3441 1.09444 14.4565 0.956616C13.5689 0.818791 12.6584 0.962944 11.8655 1.3668C11.0726 1.77065 10.4416 2.41173 10.07 3.19095C9.69833 3.97018 9.60675 4.84417 9.80939 5.67787C8.18367 5.6002 6.59328 5.19815 5.14143 4.4978C3.68958 3.79745 2.40873 2.81446 1.38198 1.61263C0.862921 2.46887 0.705271 3.48082 0.940962 4.44351C1.17665 5.4062 1.78807 6.24768 2.65137 6.79752C2.00116 6.77935 1.36499 6.61323 0.796109 6.31307C0.796109 6.32918 0.796109 6.34625 0.796109 6.36237C0.796826 7.26163 1.12474 8.13293 1.72414 8.8282C2.32354 9.52348 3.15745 9.99985 4.08417 10.1764C3.48208 10.3318 2.8507 10.3549 2.23787 10.2437C2.49894 11.0166 3.00746 11.6925 3.69227 12.1769C4.37708 12.6612 5.2039 12.9296 6.05701 12.9447C4.60788 14.0273 2.81786 14.614 0.975456 14.6104C0.649451 14.6103 0.323736 14.592 0 14.5554C1.86922 15.6989 4.04505 16.3058 6.26725 16.3036C13.7869 16.3036 17.899 10.3764 17.899 5.23513C17.899 5.06638 17.899 4.89858 17.8881 4.73172C18.6877 4.18198 19.378 3.50107 19.9267 2.7209Z" fill="white"/>
</svg>
